<svg id="레이어_1" data-name="레이어 1" xmlns="http://www.w3.org/2000/svg" viewBox="0 0 20 20"><defs><style>.cls-1{fill:#464e5a;}</style></defs><path class="cls-1" d="M19.12107,15.7368c0-.43583-.43877-.84274-1.19692-1.19629A8.748,8.748,0,0,1,15.37861,7.834c.00665-.10734.00912-.21513.00912-.324a5.38743,5.38743,0,0,0-3.72591-5.12466V1.66244A1.66221,1.66221,0,1,0,8.33741,1.662v.72334A5.38941,5.38941,0,0,0,4.61088,7.51c0,.10888.00293.21667.00943.324a8.75541,8.75541,0,0,1-2.54493,6.70652C1.31631,14.89406.87893,15.301.87893,15.7368c0,1.11448,2.8493,2.04321,6.70745,2.32547a2.472,2.472,0,0,0,4.82724-.00016C16.27161,17.7797,19.12107,16.85112,19.12107,15.7368Z"/></svg>