<svg id="레이어_1" data-name="레이어 1" xmlns="http://www.w3.org/2000/svg" viewBox="0 0 20 20"><defs><style>.cls-1{fill:#464e5a;}</style></defs><path class="cls-1" d="M9.99959.00041A9.99959,9.99959,0,1,0,20,10,10.01066,10.01066,0,0,0,9.99959.00041Zm0,1.24478A8.74969,8.74969,0,0,1,16.76,15.5568a7.95367,7.95367,0,0,0-13.52653-.00841A8.74944,8.74944,0,0,1,9.99959,1.24519Zm0,17.427A8.61108,8.61108,0,0,1,4.129,16.44191,6.77161,6.77161,0,0,1,9.99959,13.0293a6.8533,6.8533,0,0,1,5.86005,3.40694A8.83452,8.83452,0,0,1,9.99959,18.67215Z"/><path class="cls-1" d="M9.99959,10.87119A3.61,3.61,0,1,0,6.39,7.26164,3.61427,3.61427,0,0,0,9.99959,10.87119Zm0-5.97512A2.36517,2.36517,0,1,1,7.63483,7.26164,2.36778,2.36778,0,0,1,9.99959,4.89607Z"/></svg>