<?xml version="1.0" encoding="utf-8"?>
<!-- Generator: Adobe Illustrator 24.3.0, SVG Export Plug-In . SVG Version: 6.00 Build 0)  -->
<svg version="1.1" id="레이어_1" xmlns="http://www.w3.org/2000/svg" xmlns:xlink="http://www.w3.org/1999/xlink" x="0px"
	 y="0px" viewBox="0 0 30 30" style="enable-background:new 0 0 30 30;" xml:space="preserve">
<style type="text/css">
	.st0{fill:#FFFFFF;}
</style>
<g>
	<rect x="13.02462" y="14.33177" class="st0" width="3.81008" height="3.81008"/>
	<rect x="18.99765" y="14.33177" class="st0" width="3.81008" height="3.81008"/>
	<rect x="7.05744" y="20.12309" class="st0" width="3.81008" height="3.81008"/>
	<rect x="13.02462" y="20.12309" class="st0" width="3.81008" height="3.81008"/>
	<rect x="18.99765" y="20.12309" class="st0" width="3.81008" height="3.81008"/>
	<path class="st0" d="M9.05627,7.25088L9.05627,7.25088c-0.93787,0-1.70574-0.76788-1.70574-1.70574V1.70574
		C7.35053,0.76788,8.11841,0,9.05627,0l0,0c0.93787,0,1.70574,0.76788,1.70574,1.70574V5.551
		C10.76202,6.483,9.99414,7.25088,9.05627,7.25088z"/>
	<path class="st0" d="M25.16999,3.62251h-1.93435v2.32708c0,1.43611-1.15475,2.60844-2.56741,2.60844h-0.67995
		c-1.41266,0-2.56741-1.17233-2.56741-2.60844V3.62251h-5.29895v2.32708c0,1.43611-1.15475,2.60844-2.56741,2.60844H8.87456
		c-1.41266,0-2.56741-1.17233-2.56741-2.60844V3.62251h-1.483c-1.58851,0-2.8898,1.31887-2.8898,2.93083v20.51583
		C1.93435,28.68113,3.23564,30,4.82415,30h20.3517c1.58851,0,2.8898-1.31887,2.8898-2.93083V6.55334
		C28.05979,4.94138,26.7585,3.62251,25.16999,3.62251z M24.67761,24.30246c0,1.00234-0.80891,1.82298-1.79367,1.82298H7.11606
		c-0.98476,0-1.79367-0.82063-1.79367-1.82298V13.96249c0-1.00235,0.80891-1.89332,1.79367-1.89332h15.76788
		c0.98476,0,1.79367,0.89097,1.79367,1.89332V24.30246z"/>
	<path class="st0" d="M20.33998,7.25088L20.33998,7.25088c-0.93787,0-1.70574-0.76788-1.70574-1.70574V1.70574
		C18.63423,0.76788,19.40211,0,20.33998,0l0,0c0.93787,0,1.70575,0.76788,1.70575,1.70574V5.551
		C22.04572,6.483,21.27784,7.25088,20.33998,7.25088z"/>
</g>
</svg>
