<?xml version="1.0" encoding="utf-8"?>
<!-- Generator: Adobe Illustrator 25.1.0, SVG Export Plug-In . SVG Version: 6.00 Build 0)  -->
<svg version="1.1" id="레이어_1" xmlns="http://www.w3.org/2000/svg" xmlns:xlink="http://www.w3.org/1999/xlink" x="0px"
	 y="0px" viewBox="0 0 20 20" style="enable-background:new 0 0 20 20;" xml:space="preserve">
<style type="text/css">
	.st0{fill:#A1ABBC;}
</style>
<g>
	<path class="st0" d="M18.1811543,2.2254717c-2.4251289-2.4251287-6.3668861-2.4251287-8.7920141,0
		C7.586761,4.0278506,7.0775514,6.7277298,8.0630131,9.046607l-1.1392932,1.1392937L6.4328003,11.665904l-1.8792725,0.3773117
		l-0.366334,1.8316698l-1.9085853,0.3773346v1.4653358l-1.773066,0.3590221L0,19.5933743h3.7439218l7.3633027-7.3633022
		c2.355547,1.1246252,5.2092581,0.6520853,7.0739298-1.2125864C20.6062813,8.5923567,20.6062813,4.6506004,18.1811543,2.2254717z
		 M12.6861448,7.7204804c-0.8096056-0.8096061-0.8095837-2.1210876,0-2.9306712s2.1210651-0.8096061,2.9306717,0
		c0.8059378,0.8059387,0.8095827,2.1210876,0,2.9306712C14.8072329,8.5300636,13.4920835,8.5264196,12.6861448,7.7204804z"/>
</g>
</svg>
