<?xml version="1.0" encoding="utf-8"?>
<!-- Generator: Adobe Illustrator 25.1.0, SVG Export Plug-In . SVG Version: 6.00 Build 0)  -->
<svg version="1.1" id="레이어_1" xmlns="http://www.w3.org/2000/svg" xmlns:xlink="http://www.w3.org/1999/xlink" x="0px"
	 y="0px" viewBox="0 0 20 20" style="enable-background:new 0 0 20 20;" xml:space="preserve">
<style type="text/css">
	.st0{fill:#A1ABBC;}
</style>
<g>
	<path class="st0" d="M8.1816673,0c0.2326031,0,0.4652081,0.0887794,0.6427689,0.2663403l9.0915546,9.0911121
		c0.1704578,0.1704578,0.2663422,0.4012871,0.2663422,0.6427698s-0.0958843,0.472311-0.2663422,0.6427698l-9.0915546,9.0906677
		c-0.3551216,0.3551197-0.9304185,0.3551197-1.2855401,0c-0.3551216-0.3551216-0.3551216-0.9304199,0-1.2855415l8.4487858-8.447896
		L7.5388961,1.5518818c-0.3551216-0.3551216-0.3551216-0.9304199,0-1.2855415C7.7164569,0.0887795,7.9490619,0,8.1816673,0z"/>
	<path class="st0" d="M2.7267776,0c0.232605,0,0.46521,0.0887794,0.6427708,0.2663403l9.0915546,9.0911121
		c0.1704588,0.1704578,0.2663412,0.4012871,0.2663412,0.6427698s-0.0958824,0.472311-0.2663412,0.6427698l-9.0915546,9.0906677
		c-0.3551216,0.3551197-0.930418,0.3551197-1.2855396,0c-0.3551216-0.3551216-0.3551216-0.9304199,0-1.2855415l8.4487839-8.447896
		L2.0840087,1.5518818c-0.3551216-0.3551216-0.3551216-0.9304199,0-1.2855415C2.2615695,0.0887795,2.4941726,0,2.7267776,0z"/>
</g>
</svg>
