<?xml version="1.0" encoding="utf-8"?>
<!-- Generator: Adobe Illustrator 25.1.0, SVG Export Plug-In . SVG Version: 6.00 Build 0)  -->
<svg version="1.1" id="레이어_1" xmlns="http://www.w3.org/2000/svg" xmlns:xlink="http://www.w3.org/1999/xlink" x="0px"
	 y="0px" viewBox="0 0 20 20" style="enable-background:new 0 0 20 20;" xml:space="preserve">
<style type="text/css">
	.st0{fill:#43A9FF;}
</style>
<g>
	<path class="st0" d="M16.5625,2.5h-3.437499V1.875c0-1.0338671-0.8411331-1.875-1.875-1.875h-2.5
		C7.7161336,0,6.8750005,0.8411329,6.8750005,1.875V2.5h-3.4375c-0.8615623,0-1.5624999,0.7009375-1.5624999,1.5625067V6.25
		c0,0.3451562,0.2798437,0.625,0.6249999,0.625h0.3415627l0.5399609,11.33918C3.4292195,19.2155857,4.2518754,20,5.2543755,20
		h9.4912491c1.0025396,0,1.8251953-0.7844143,1.8728523-1.78582L17.1584377,6.875H17.5c0.3451557,0,0.625-0.2798438,0.625-0.625
		V4.0625067C18.125,3.2009375,17.4240627,2.5,16.5625,2.5L16.5625,2.5z M8.125001,1.875c0-0.3446093,0.2803898-0.625,0.625-0.625
		h2.5c0.3446083,0,0.625,0.2803907,0.625,0.625V2.5h-3.75V1.875z M3.1250005,4.0625067
		c0-0.1723115,0.1401954-0.3125067,0.3125-0.3125067h13.125c0.1723061,0,0.3125,0.1401951,0.3125,0.3125067V5.625
		c-0.1926174,0-12.9518347,0-13.75,0V4.0625067z M15.3698835,18.154726C15.3539839,18.4885159,15.0797663,18.75,14.7456255,18.75
		H5.2543759c-0.3341799,0-0.6083984-0.2614841-0.624258-0.595274L4.0929694,6.875H15.907032L15.3698835,18.154726z"/>
	<path class="st0" d="M10.000001,17.5c0.3451557,0,0.625-0.2798443,0.625-0.625V8.75c0-0.3451557-0.2798443-0.625-0.625-0.625
		c-0.3451567,0-0.625,0.2798443-0.625,0.625v8.125C9.375001,17.2201557,9.6548052,17.5,10.000001,17.5z"/>
	<path class="st0" d="M13.125001,17.5c0.3451557,0,0.625-0.2798443,0.625-0.625V8.75c0-0.3451557-0.2798443-0.625-0.625-0.625
		c-0.3451567,0-0.625,0.2798443-0.625,0.625v8.125C12.500001,17.2201557,12.7798052,17.5,13.125001,17.5z"/>
	<path class="st0" d="M6.8750005,17.5c0.3451562,0,0.625-0.2798443,0.625-0.625V8.75c0-0.3451557-0.2798438-0.625-0.625-0.625
		s-0.625,0.2798443-0.625,0.625v8.125C6.2500005,17.2201557,6.5298052,17.5,6.8750005,17.5z"/>
</g>
</svg>
