<?xml version="1.0" encoding="utf-8"?>
<!-- Generator: Adobe Illustrator 25.1.0, SVG Export Plug-In . SVG Version: 6.00 Build 0)  -->
<svg version="1.1" id="레이어_1" xmlns="http://www.w3.org/2000/svg" xmlns:xlink="http://www.w3.org/1999/xlink" x="0px"
	 y="0px" viewBox="0 0 20 20" style="enable-background:new 0 0 20 20;" xml:space="preserve">
<style type="text/css">
	.st0{fill:#FFFFFF;}
</style>
<path class="st0" d="M11.844429,10l7.7732258-7.7734375c0.50951-0.5095109,0.50951-1.3353431,0-1.8444294
	c-0.5095119-0.5095109-1.334919-0.5095109-1.844429,0L10,8.155571l-7.7732253-7.773438
	c-0.5095108-0.5095109-1.3349184-0.5095109-1.8444293,0c-0.5095109,0.5090863-0.5095109,1.3349185,0,1.8444294L8.155571,10
	l-7.7732258,7.7734375c-0.5095109,0.50951-0.5095109,1.334919,0,1.844429C0.6371009,19.8726215,0.9708305,20,1.3045601,20
	s0.6674592-0.1273785,0.9222146-0.3821335L10,11.844429l7.7732258,7.7734375C18.0279808,19.8726215,18.3617096,20,18.6954403,20
	c0.3337288,0,0.6674595-0.1273785,0.9222145-0.3821335c0.50951-0.50951,0.50951-1.334919,0-1.844429L11.844429,10z"/>
</svg>
