<?xml version="1.0" encoding="utf-8"?>
<!-- Generator: Adobe Illustrator 25.1.0, SVG Export Plug-In . SVG Version: 6.00 Build 0)  -->
<svg version="1.1" id="레이어_1" xmlns="http://www.w3.org/2000/svg" xmlns:xlink="http://www.w3.org/1999/xlink" x="0px"
	 y="0px" viewBox="0 0 20 20" style="enable-background:new 0 0 20 20;" xml:space="preserve">
<style type="text/css">
	.st0{fill:#A1ABBC;}
</style>
<g>
	<path class="st0" d="M11.8183327,20c-0.232604,0-0.465209-0.0887794-0.6427698-0.2663403l-9.0915546-9.0911121
		c-0.1704583-0.1704578-0.2663412-0.4012871-0.2663412-0.6427698s0.0958829-0.472311,0.2663412-0.6427698l9.0915546-9.0906668
		c0.3551216-0.3551215,0.930419-0.3551215,1.2855406,0s0.3551216,0.9304183,0,1.2855399l-8.4487858,8.447897l8.4487858,8.4483404
		c0.3551216,0.3551216,0.3551216,0.9304199,0,1.2855415C12.2835426,19.9112206,12.0509377,20,11.8183327,20z"/>
	<path class="st0" d="M17.273222,20c-0.232605,0-0.46521-0.0887794-0.6427708-0.2663403L7.538897,10.6425476
		c-0.1704583-0.1704578-0.2663412-0.4012871-0.2663412-0.6427698S7.3684387,9.5274668,7.538897,9.357008l9.0915546-9.0906668
		c0.3551216-0.3551215,0.930418-0.3551215,1.2855396,0s0.3551216,0.9304183,0,1.2855399L9.467207,9.9997778l8.4487839,8.4483404
		c0.3551216,0.3551216,0.3551216,0.9304199,0,1.2855415C17.73843,19.9112206,17.505827,20,17.273222,20z"/>
</g>
</svg>
