<?xml version="1.0" encoding="utf-8"?>
<!-- Generator: Adobe Illustrator 25.1.0, SVG Export Plug-In . SVG Version: 6.00 Build 0)  -->
<svg version="1.1" id="레이어_1" xmlns="http://www.w3.org/2000/svg" xmlns:xlink="http://www.w3.org/1999/xlink" x="0px"
	 y="0px" viewBox="0 0 20 20" style="enable-background:new 0 0 20 20;" xml:space="preserve">
<style type="text/css">
	.st0{fill:#FFFFFF;}
</style>
<g>
	<path class="st0" d="M4.1105933,17.281414h-3.227354c-0.1766053-0.0005493-0.3206076-0.1448269-0.3209508-0.3208141v-0.9083538
		c-0.0016473-0.8973713,0.3462782-1.7416182,0.9796688-2.3773422c0.6334592-0.6357241,1.4764699-0.9866009,2.3738418-0.9882488
		c0.0021279,0,0.0041871,0,0.0063148,0c0.6833589,0,1.3419397,0.2048159,1.9049075,0.5923452
		c0.1281471,0.088131,0.302968,0.0557346,0.3910303-0.0722065c0.0880623-0.1278038,0.0557342-0.3028307-0.0721383-0.3909616
		c-0.3182311-0.2190666-0.6629562-0.3869209-1.0240774-0.5030127c0.5491891-0.3801346,0.9102073-1.0137568,0.9102073-1.7307396
		c0-1.1604605-0.944046-2.1045065-2.104507-2.1045065s-2.1045065,0.944046-2.1045065,2.1045065
		c0,0.714838,0.3589934,1.3466415,0.9054111,1.7271528c-0.5917444,0.1882229-1.1339067,0.5162945-1.584789,0.9688072
		c-0.7393675,0.7421131-1.1455666,1.7277527-1.1436447,2.7747555v0.9083538
		c0.0010296,0.4849949,0.3963839,0.8808994,0.8822716,0.8825455h3.2283149c0.1552591,0,0.2811408-0.1258812,0.2811408-0.2811394
		C4.3917341,17.4072952,4.2658525,17.281414,4.1105933,17.281414z M2.3853111,10.5820799
		c0-0.8503542,0.69187-1.5422249,1.5422249-1.5422249s1.5422249,0.6918707,1.5422249,1.5422249
		c0,0.8502865-0.6918697,1.5421562-1.5422249,1.5421562S2.3853111,11.4323664,2.3853111,10.5820799z"/>
	<path class="st0" d="M11.4830589,12.9726696c0.6699228-0.4692602,1.1098061-1.2455292,1.1098061-2.1237249
		c0-1.4297962-1.1631374-2.5930033-2.5929337-2.5930033c-1.4297276,0-2.5929341,1.1632071-2.5929341,2.5930033
		c0,0.8781786,0.4399004,1.654439,1.1098065,2.1236992c-1.9519162,0.4117842-3.4216599,2.1471739-3.4215999,4.2196779v1.8419666
		c0,0.5217857,0.4243884,0.9462414,0.946105,0.9462414h7.9170384c0.5216484,0,0.946105-0.4244556,0.946105-0.9462414v-1.842104
		C14.9044523,15.1196804,13.4348116,13.3844624,11.4830589,12.9726696z M7.9692788,10.8489447
		c0-1.1197586,0.9109626-2.0307217,2.0306525-2.0307217s2.030652,0.9109631,2.030652,2.0307217
		c0,1.1196213-0.9109621,2.0305834-2.030652,2.0305834S7.9692788,11.9685659,7.9692788,10.8489447z M14.3421707,19.0342884
		c0,0.2116795-0.1721439,0.3839607-0.3838234,0.3839607H6.0413089c-0.2116108,0-0.3838229-0.1722813-0.3838229-0.3839607v-1.8419666
		c-0.0000687-2.0679226,1.6823835-3.7503748,3.7504435-3.7505121h1.1838665c2.0679226,0,3.7503748,1.6824522,3.7503748,3.7503748
		V19.0342884z"/>
	<path class="st0" d="M17.2708549,12.3097391c0.5468292-0.3804598,0.9061146-1.0125122,0.9061146-1.7276592
		c0-1.1604605-0.9440441-2.1045065-2.1045742-2.1045065c-1.1603928,0-2.1044388,0.944046-2.1044388,2.1045065
		c0,0.716795,0.3608294,1.3502455,0.9097528,1.7304134c-0.3612843,0.1161871-0.7061129,0.2841606-1.0243778,0.5033388
		c-0.1278038,0.088131-0.1600637,0.2631578-0.0720701,0.391099c0.088131,0.1278038,0.2628832,0.1599264,0.391099,0.0720692
		c0.5648899-0.389039,1.2228527-0.5938549,1.9122515-0.5928936c1.8523998,0.003706,3.3566685,1.5137396,3.3530998,3.3666887
		v0.9068432c-0.0001373,0.1768112-0.1441402,0.3212261-0.3199902,0.3217754h-3.2283154
		c-0.1552591,0-0.2811413,0.1258812-0.2811413,0.2811413c0,0.1552582,0.1258821,0.2811394,0.2811413,0.2811394h3.2292767
		c0.4855442-0.001646,0.8808975-0.3979626,0.8813095-0.8837814v-0.9065685
		C20.0033226,14.303936,18.8546314,12.8165789,17.2708549,12.3097391z M14.5302382,10.5820799
		c0-0.8503542,0.6918707-1.5422249,1.5421572-1.5422249c0.8504238,0,1.5422935,0.6918707,1.5422935,1.5422249
		c0,0.8475409-0.687521,1.5373087-1.5341682,1.5417452c-0.0007381,0-0.0014858,0-0.0022221,0
		c-0.0027027,0-0.0053635,0.0002918-0.0080662,0.0003004C15.2209501,12.122941,14.5302382,11.4316368,14.5302382,10.5820799z"/>
	<path class="st0" d="M8.8317738,3.8542018v2.2169614c0,0.0732193,0.0344734,0.1421661,0.0930481,0.1861029l0.9305239,0.6978846
		c0.0402641,0.0302005,0.0892372,0.0465279,0.139575,0.0465279c0.0503368,0,0.0993099-0.0163274,0.139575-0.0465279
		l0.9305239-0.6978846c0.0542154-0.0403934,0.0881824-0.1023817,0.0930471-0.1698184
		c0.0049419-0.06742-0.0196819-0.133647-0.067462-0.1814532l-0.3024187-0.3000932l0.3024187-0.3000937
		c0.0004549-0.0004463,0.0009003-0.0008922,0.0013466-0.0013471c0.0904732-0.0912199,0.0898733-0.2385082-0.0013466-0.32899
		l-0.3024187-0.3000851l0.3024187-0.3000932c0.0435505-0.0439029,0.0678225-0.1033344,0.067462-0.1651688V3.8542018
		c0.2286329-0.1527622,0.4249372-0.3490667,0.5776911-0.5776994c0.6423912-0.961437,0.3837547-2.2616017-0.5776911-2.9039838
		C10.1966305-0.2698722,8.8964653-0.011236,8.2540836,0.9502094C7.6116924,1.9116462,7.8703289,3.2118111,8.8317738,3.8542018z
		 M9.1807117,0.7057041c0.7788601-0.4496726,1.7747793-0.1828171,2.224452,0.5960429
		c0.4496727,0.7788514,0.1828165,1.7747701-0.5960436,2.224443c-0.071538,0.0413029-0.1158085,0.1174567-0.1163149,0.2000623
		v0.3884907l-0.3977909,0.3954744c-0.0004549,0.0004458-0.0009012,0.0008922-0.0013475,0.0013471
		c-0.0904818,0.0912194-0.0898724,0.2385077,0.0013475,0.3289814l0.3024187,0.3000932l-0.3024187,0.3000937
		c-0.0004549,0.0004463-0.0009012,0.0009007-0.0013475,0.0013471c-0.0904818,0.0912199-0.0898724,0.2385168,0.0013475,0.32899
		l0.276825,0.2745004l-0.5769186,0.432693L9.2970276,5.9548473V3.7262521
		C9.2965298,3.6436465,9.2522583,3.5674927,9.1807117,3.5261898c-0.2475424-0.1429212-0.4531126-0.3484917-0.596034-0.5960343
		C8.135005,2.1512954,8.4018602,1.1553767,9.1807117,0.7057041z"/>
	<path class="st0" d="M9.9949207,2.1164532c0.2569542,0,0.4652615-0.2082989,0.4652615-0.4652621
		c0-0.2569546-0.2083073-0.4652534-0.4652615-0.4652534c-0.2569551,0-0.4652624,0.2082988-0.4652624,0.4652534
		C9.5296583,1.9081542,9.7379656,2.1164532,9.9949207,2.1164532z"/>
</g>
</svg>
