<?xml version="1.0" encoding="utf-8"?>
<!-- Generator: Adobe Illustrator 25.1.0, SVG Export Plug-In . SVG Version: 6.00 Build 0)  -->
<svg version="1.1" id="레이어_1" xmlns="http://www.w3.org/2000/svg" xmlns:xlink="http://www.w3.org/1999/xlink" x="0px"
	 y="0px" viewBox="0 0 20 20" style="enable-background:new 0 0 20 20;" xml:space="preserve">
<style type="text/css">
	.st0{fill:#FFFFFF;}
</style>
<g>
	<path class="st0" d="M20,10c0-1.4064283-1.0221424-2.5792856-2.3621426-2.8142862l-0.2478561-0.5964284
		c0.7821407-1.1142859,0.6749992-2.665-0.3192863-3.6600001c-0.9614296-0.9614288-2.5707159-1.0864285-3.6607151-0.3199999
		l-0.5964279-0.247143C12.5785723,1.0221429,11.4064283,0,10,0S7.4207144,1.0221429,7.1857138,2.362143l-0.5964284,0.247143
		C5.4764285,1.8285714,3.9242857,1.9342859,2.9292855,2.9292855c-0.54,0.5392859-0.8371427,1.257143-0.8371427,2.0207148
		c0,0.5950003,0.1807141,1.1628571,0.5171428,1.6399994L2.362143,7.1857147C1.0214286,7.4207144,0,8.5935717,0,10l0,0l0,0
		c0,1.4071426,1.0221429,2.5792856,2.362143,2.8142862l0.247143,0.5957136
		c-0.7814286,1.1150007-0.6750002,2.6657143,0.3199999,3.6607151c0.9599998,0.9607124,2.5721431,1.0864277,3.6607137,0.3199997
		l0.5964289,0.2471428C7.4214282,18.9778576,8.594285,20,10.0007143,20c1.4071417,0,2.5792856-1.0221424,2.81357-2.3621426
		l0.5964279-0.2478561c1.1135721,0.7821407,2.6642866,0.6764278,3.6607141-0.3192863
		c0.5400009-0.5400009,0.8371449-1.257144,0.8371449-2.0207148c0-0.5950003-0.1814289-1.162858-0.5171432-1.6400003
		l0.2471428-0.5957136C18.9778576,12.5799999,20,11.4078579,20,10C20,10.0007143,20,10.0007143,20,10L20,10z M17.1428566,11.4300003
		c-0.2885704,0-0.549284,0.1735716-0.6599998,0.4407148l-0.5771427,1.3914289
		c-0.1107149,0.2671432-0.0492859,0.5742865,0.1549988,0.7785711c0.2700005,0.2700005,0.4185715,0.6285706,0.4185715,1.0100002
		c0,0.3821421-0.148571,0.7407141-0.4185715,1.0107126c-0.5571432,0.5571442-1.4650002,0.5557156-2.0207138,0
		c-0.2042856-0.2042847-0.5114288-0.2657137-0.7785721-0.1549988l-1.3921423,0.5771427
		c-0.2671413,0.110714-0.4407129,0.3714275-0.4407129,0.6599998c0,0.7878571-0.6407137,1.4285698-1.4285717,1.4285698
		c-0.7878571,0-1.4285717-0.6407127-1.4285717-1.4285698c0-0.2885723-0.1742859-0.5500011-0.4407139-0.6599998l-1.3928571-0.5771437
		c-0.2678571-0.1107149-0.5735707-0.0492859-0.7785711,0.1549997c-0.54,0.539999-1.4800005,0.539999-2.0200002,0
		c-0.5571427-0.5571442-0.5571427-1.4635725,0-2.0207157c0.2042859-0.2042847,0.2657144-0.5114279,0.155-0.7785711
		l-0.577143-1.3914289c-0.1107144-0.2671404-0.371429-0.440712-0.6600001-0.440712
		c-0.7878573,0-1.4285715-0.6407137-1.4285715-1.429285l0,0l0,0c0-0.7878571,0.6407142-1.4285717,1.4285715-1.4285717
		c0.2885711,0,0.5492857-0.1742859,0.6599998-0.4407139l0.5771427-1.3928571
		c0.1107144-0.2671423,0.0492859-0.5742855-0.155-0.7785711C3.6692858,5.690001,3.5207143,5.33143,3.5207143,4.9500017
		c0-0.3814292,0.1485715-0.7407141,0.4185712-1.0107143c0.557143-0.5571427,1.4635718-0.5571427,2.0207145,0
		c0.2042856,0.2042859,0.5114284,0.2642853,0.7785716,0.155l1.3921428-0.577143
		c0.266428-0.1107159,0.4407139-0.3714304,0.4407139-0.6600015c0-0.7878573,0.6407146-1.4285715,1.4285717-1.4285715
		c0.787858,0,1.4285717,0.6407142,1.4285717,1.4285715c0,0.2885711,0.1742849,0.5492857,0.4407148,0.6599998l1.3928576,0.5771427
		c0.2671432,0.1100001,0.5742865,0.0500002,0.7785711-0.155c0.5400009-0.54,1.4800005-0.54,2.0199995,0
		c0.5564289,0.557143,0.5564289,1.4635718,0,2.0207145c-0.2042856,0.2042856-0.2657137,0.5114284-0.1549997,0.7785716
		l0.5771437,1.3928571c0.1099987,0.2657137,0.3714275,0.4399996,0.6599979,0.4399996
		c0.787859,0,1.4285717,0.6407146,1.4285717,1.4285717l0,0l0,0C18.5714283,10.7885714,17.9307156,11.4300003,17.1428566,11.4300003z
		"/>
	<path class="st0" d="M10,6.4285712C8.030714,6.4285712,6.4285712,8.030714,6.4285712,10S8.030714,13.5714283,10,13.5714283
		c0.3942862,0,0.7142859-0.3192854,0.7142859-0.7142859c0-0.3949995-0.3199997-0.7142849-0.7142859-0.7142849
		c-1.1814289,0-2.1428571-0.9614296-2.1428571-2.1428576S8.8185711,7.8571429,10,7.8571429S12.1428576,8.8185711,12.1428576,10
		c0,0.4157152-0.1185722,0.8185711-0.3435726,1.1657143c-0.2150002,0.3307142-0.1207142,0.7728577,0.2107143,0.9878569
		c0.3307142,0.2150002,0.7728577,0.1214285,0.9878569-0.2107143C13.3728571,11.3642855,13.5714283,10.6921425,13.5714283,10
		C13.5714283,8.030714,11.969286,6.4285712,10,6.4285712z"/>
</g>
</svg>
