<?xml version="1.0" encoding="utf-8"?>
<!-- Generator: Adobe Illustrator 25.1.0, SVG Export Plug-In . SVG Version: 6.00 Build 0)  -->
<svg version="1.1" id="레이어_1" xmlns="http://www.w3.org/2000/svg" xmlns:xlink="http://www.w3.org/1999/xlink" x="0px"
	 y="0px" viewBox="0 0 20 20" style="enable-background:new 0 0 20 20;" xml:space="preserve">
<style type="text/css">
	.st0{fill:#FFFFFF;}
</style>
<g id="setting">
	<path class="st0" d="M5,3.5714285H3.5714285V0.7142857C3.5714285,0.3197966,3.251632,0,2.8571429,0
		S2.1428571,0.3197966,2.1428571,0.7142857v2.8571429H0.7142857C0.3197966,3.5714285,0,3.8912251,0,4.2857141v2.1428571
		C0,6.823061,0.3197966,7.1428571,0.7142857,7.1428571h1.4285713v12.1428585C2.1428571,19.6802025,2.4626539,20,2.8571429,20
		s0.7142856-0.3197975,0.7142856-0.7142849V7.1428571H5c0.3944893,0,0.7142859-0.3197961,0.7142859-0.7142859V4.2857141
		C5.7142859,3.8912251,5.3944893,3.5714285,5,3.5714285z"/>
	<path class="st0" d="M12.1428576,12.8571424h-1.4285717V0.7142857C10.7142859,0.3197966,10.3944883,0,10,0
		C9.6055107,0,9.2857141,0.3197966,9.2857141,0.7142857v12.1428566H7.8571429c-0.3944893,0-0.7142859,0.3197975-0.7142859,0.7142859
		v2.1428576c0,0.3944883,0.3197966,0.7142859,0.7142859,0.7142859h1.4285712v2.8571434C9.2857141,19.6802025,9.6055107,20,10,20
		c0.3944883,0,0.7142859-0.3197975,0.7142859-0.7142849v-2.8571434h1.4285717c0.3944883,0,0.7142849-0.3197975,0.7142849-0.7142859
		v-2.1428576C12.8571424,13.17694,12.5373459,12.8571424,12.1428576,12.8571424z"/>
	<path class="st0" d="M19.2857151,3.5714285h-1.4285717V0.7142857C17.8571434,0.3197966,17.5373459,0,17.1428566,0
		c-0.3944874,0-0.7142849,0.3197966-0.7142849,0.7142857v2.8571429H15c-0.3944883,0-0.7142859,0.3197966-0.7142859,0.7142856
		v2.1428571c0,0.3944898,0.3197975,0.7142859,0.7142859,0.7142859h1.4285717v12.1428585
		C16.4285717,19.6802025,16.7483692,20,17.1428566,20c0.3944893,0,0.7142868-0.3197975,0.7142868-0.7142849V7.1428571h1.4285717
		C19.6802025,7.1428571,20,6.823061,20,6.4285712V4.2857141C20,3.8912251,19.6802025,3.5714285,19.2857151,3.5714285z"/>
</g>
</svg>
