<?xml version="1.0" encoding="utf-8"?>
<!-- Generator: Adobe Illustrator 25.1.0, SVG Export Plug-In . SVG Version: 6.00 Build 0)  -->
<svg version="1.1" id="레이어_1" xmlns="http://www.w3.org/2000/svg" xmlns:xlink="http://www.w3.org/1999/xlink" x="0px"
	 y="0px" viewBox="0 0 20 20" style="enable-background:new 0 0 20 20;" xml:space="preserve">
<style type="text/css">
	.st0{fill:#FFFFFF;}
</style>
<g>
	<path class="st0" d="M19.3205013,16.0373001l-6.0159187-6.0159187c-0.2441397-0.2441406-0.6396465-0.2441406-0.8837872,0
		l-2.3998976,2.3998976c-0.2441406,0.2441406-0.2441406,0.6396475,0,0.8837872l6.0226316,6.0223284
		C16.4808464,19.7613525,17.0603733,20,17.676218,20c0.0030518,0,0.0061035,0,0.0091553,0
		c0.6195049-0.0024414,1.2005596-0.2459717,1.635128-0.683897C20.2244301,18.4124794,20.2244301,16.941534,19.3205013,16.0373001z
		 M18.4348831,18.4341469c-0.2011108,0.2026348-0.4690533,0.3146343-0.7543926,0.315855
		c-0.2816772,0.0119019-0.553894-0.1089478-0.7598858-0.3128033l-5.5740261-5.5740261l1.5161104-1.5161104l5.5740252,5.5740252
		C18.8532791,17.3379574,18.8532791,18.0157509,18.4348831,18.4341469z"/>
	<path class="st0" d="M11.8284502,9.1960354c0.7800283-1.4833045,0.9359722-3.1816044,0.439147-4.7822485
		c-0.4971304-1.600491-1.5878258-2.9116764-3.0711298-3.6920094c-1.8290682-0.9625226-4.0133595-0.9622174-5.8424273,0
		c-0.175781,0.0924681-0.2970881,0.263061-0.3269951,0.4594412C2.9972906,1.377599,3.062598,1.5764207,3.2031312,1.7168013
		l3.2865844,3.2865844c0.4170218,0.4170218,0.4170218,1.0955791,0,1.5126009
		C6.0723886,6.932703,5.3941364,6.9328556,4.9807768,6.519496L1.7208953,3.2060561
		C1.5809724,3.0638447,1.3824561,2.9957905,1.1840922,3.0261555C0.9867964,3.0552998,0.8151353,3.1769121,0.7222095,3.3534558
		c-1.6107147,3.0619752-0.4301444,6.8635435,2.6318309,8.4745626c0.9295638,0.4888906,1.9268763,0.7205191,2.9107611,0.7205191
		C8.5217247,12.5482321,10.7066269,11.3284464,11.8284502,9.1960354z M3.9360094,10.7217588
		C1.749887,9.5714006,0.7612719,7.0266972,1.4868259,4.7507005l2.6065016,2.6490731
		c0.9039288,0.9042339,2.3756361,0.9045391,3.2801752,0c0.9043865-0.9043865,0.9043865-2.3757887,0-3.2801752L4.7433505,1.4892931
		C6.015626,1.082342,7.4110394,1.1947991,8.6144981,1.8280376c1.1878939,0.6248461,2.061306,1.6748015,2.4592543,2.9565372
		s0.2731314,2.6417489-0.3515615,3.8294911C9.4320621,11.065691,6.388092,12.0108185,3.9360094,10.7217588z"/>
</g>
</svg>
