<?xml version="1.0" encoding="utf-8"?>
<!-- Generator: Adobe Illustrator 25.1.0, SVG Export Plug-In . SVG Version: 6.00 Build 0)  -->
<svg version="1.1" id="레이어_1" xmlns="http://www.w3.org/2000/svg" xmlns:xlink="http://www.w3.org/1999/xlink" x="0px"
	 y="0px" viewBox="0 0 20 20" style="enable-background:new 0 0 20 20;" xml:space="preserve">
<style type="text/css">
	.st0{fill:#FFFFFF;}
</style>
<path class="st0" d="M10.47826,13.1902l-4.29277,5.97522c-0.0082,0.01141-0.01672,0.02262-0.02551,0.03355
	c-0.37469,0.46625-1.07035,0.80094-1.67019,0.80094c-0.54785,0-1.08039-0.21129-1.47933-0.59105l-2.76757-2.63179
	c-0.31266-0.29734-0.32512-0.79183-0.02777-1.10449c0.29734-0.31262,0.79183-0.32504,1.10449-0.02777l2.76785,2.63206
	c0.11953,0.11379,0.27566,0.17016,0.43988,0.1593c0.15867-0.01059,0.30148-0.0825,0.40398-0.20304l4.27796-5.9546
	c0.25176-0.35043,0.73992-0.43039,1.09031-0.17863C10.65002,12.35165,10.73002,12.83981,10.47826,13.1902z M19.43113,13.45309
	C19.79797,13.03879,20,12.5061,20,11.95313c0-0.70414-0.32922-1.34496-0.85867-1.75699
	c0.20121-0.33891,0.3118-0.72945,0.3118-1.13363c0-1.22773-0.99883-2.22656-2.22656-2.22656h-5.1396
	c-0.38988,0-0.93734-0.24922-0.99363-0.65863c0.08664-0.34594,1.44523-3.07199,1.44523-3.07199
	c0.09211-0.26816,0.13438-0.54902,0.12563-0.83469c-0.01859-0.60488-0.26898-1.17305-0.70512-1.59984
	c-0.4359-0.42656-1.00914-0.66476-1.61418-0.6707C9.70283-0.00575,9.09842,0.24343,8.64783,0.70307
	C8.56736,0.79159,8.27268,1.18796,8.11201,1.43776L4.29659,7.379C4.20081,7.52814,4.0378,7.6172,3.8605,7.6172H0.78128
	c-0.43148,0-0.78125,0.34976-0.78125,0.78125c0,0.43144,0.34977,0.78125,0.78125,0.78125H3.8605
	c0.71172,0,1.36625-0.35754,1.75082-0.95637l4.18898-6.46155C9.9458,1.631,10.13154,1.56077,10.32955,1.56256
	c0.41348,0.00406,0.76019,0.3432,0.77285,0.75601c0.00254,0.0823-0.00734,0.16293-0.02938,0.24023
	c-0.11262,0.22855-1.54597,3.12894-1.54597,3.59863l0.00059,0.02984c0.05219,1.36574,1.3691,2.21117,2.55933,2.21117h5.1396
	c0.36617,0,0.66406,0.29789,0.66406,0.66406c0,0.21649-0.10809,0.42074-0.28906,0.54633
	c-0.37453,0.25984-0.45312,0.56855-0.45312,0.7818c0,0.43066,0.31566,0.79969,0.78543,0.9182
	c0.29184,0.07367,0.50363,0.34461,0.50363,0.6443c0,0.33988-0.25187,0.64062-0.54996,0.65676
	c-0.73762,0.03981-0.93441,0.54941-0.93441,0.84422c0,0.34199,0.17504,0.60996,0.52023,0.79644
	c0.01117,0.00602,0.02348,0.01258,0.03668,0.02024c0.20906,0.12039,0.33891,0.33992,0.33891,0.57297
	c0,0.36617-0.30527,0.66406-0.68055,0.66406h-0.17621c-0.54762,0-0.97656,0.38918-0.97656,0.88601
	c0,0.18555,0.06543,0.53285,0.50367,0.77461c0.08344,0.04601,0.3557,0.22129,0.3557,0.54363
	c0,0.21813-0.06551,0.72543-0.67242,0.72543H9.02346c-0.43148,0-0.78125,0.34977-0.78125,0.78125
	C8.24221,19.65019,8.59197,20,9.02346,20h7.17913c1.295,0,2.23492-0.96222,2.23492-2.28793
	c0-0.31703-0.07301-0.6257-0.20762-0.90723c0.70293-0.37637,1.1816-1.11425,1.1816-1.96109
	c0-0.39031-0.10484-0.76793-0.29434-1.09824C19.22941,13.65985,19.33457,13.56208,19.43113,13.45309L19.43113,13.45309z"/>
</svg>
