<?xml version="1.0" encoding="utf-8"?>
<!-- Generator: Adobe Illustrator 24.3.0, SVG Export Plug-In . SVG Version: 6.00 Build 0)  -->
<svg version="1.1" id="레이어_1" xmlns="http://www.w3.org/2000/svg" xmlns:xlink="http://www.w3.org/1999/xlink" x="0px"
	 y="0px" viewBox="0 0 100 100" style="enable-background:new 0 0 100 100;" xml:space="preserve">
<style type="text/css">
	.st0{fill:#00B5BD;}
	.st1{fill:#FFFFFF;}
</style>
<g>
	<path class="st0" d="M0,88.06642h100V11.93358H0V88.06642z M3.35058,83.68446V16.31533c0-0.56956,0.46174-1.0313,1.0313-1.0313
		h67.36913c0.56948,0,1.03126,0.46174,1.03126,1.0313v67.36913c0,0.56956-0.46178,1.03126-1.03126,1.03126H4.38187
		C3.81231,84.71572,3.35058,84.25402,3.35058,83.68446z"/>
	<g>
		<path class="st0" d="M43.87172,42.51492h3.48825l5.54985,7.11511v-7.11511h3.67313v13.46122h-3.27613l-5.76206-7.38436v7.38436
			h-3.67304V42.51492z"/>
		<path class="st0" d="M23.83282,46.77351c-0.77005-0.72792-1.95967-1.28823-3.1634-1.22797
			c-1.95356,0.09773-3.58846,1.62531-3.58846,3.69616c0,2.0708,1.63046,3.7495,3.64176,3.7495
			c1.30519,0,1.87894-0.30731,2.18809-0.51483v-1.63478h-2.6538v-2.73056h6.19214v5.96423
			c-1.69612,1.62925-4.26065,2.15924-6.181,2.15924c-3.86202,0-6.99288-3.13078-6.99288-6.9928
			c0-3.86206,3.0998-6.99284,7.16624-6.99284c0.9022,0,2.97037-0.18797,5.52686,1.95833L23.83282,46.77351z"/>
		<path class="st0" d="M41.23751,42.51492v8.33367c0,3.04696-2.70933,5.37679-6.25265,5.37679
			c-3.54328,0-6.25265-2.32983-6.25265-5.37679v-8.33367h3.73012v8.08159c0,1.28316,1.09306,2.26434,2.52253,2.26434
			c1.42951,0,2.52257-0.98117,2.52257-2.26434v-8.08159H41.23751z"/>
		<path class="st0" d="M59.6077,42.51492v13.46122h3.73008v-3.85729h2.10225c3.36188,0,5.57187-1.90414,5.57187-4.80069
			c0-2.8965-2.20999-4.80065-5.57187-4.80065L59.6077,42.51492z M65.29335,49.03329h-1.95557v-3.4303h1.95557
			c1.20109,0,1.99065,0.68031,1.99065,1.71517S66.49444,49.03329,65.29335,49.03329z"/>
		<path class="st1" d="M82.91586,56.18525c1.96943,0,3.78673-0.70934,5.11839-1.99757
			c1.3317-1.28777,2.06461-3.04523,2.06461-4.94901s-0.7329-3.6617-2.06461-4.94947
			c-1.33166-1.28823-3.14896-1.99752-5.11839-1.99752c-1.96951,0-3.78673,0.70929-5.11847,1.99752
			c-1.33165,1.28777-2.06452,3.0457-2.06452,4.94947s0.73287,3.66123,2.06452,4.94901
			C79.12913,55.47592,80.94634,56.18525,82.91586,56.18525z M82.91586,45.6078c2.00842,0,3.52306,1.56083,3.52306,3.63088
			c0,2.07001-1.51464,3.63041-3.52306,3.63041c-2.00841,0-3.52313-1.56041-3.52313-3.63041
			C79.39272,47.16863,80.90745,45.6078,82.91586,45.6078z"/>
		<path class="st1" d="M80.34668,67.49482v-8.03541h-3.63725v8.28727c0,3.03887,2.66792,5.33081,6.20642,5.33081
			c3.53846,0,6.20642-2.29194,6.20642-5.33081v-8.28727h-3.63728v8.03541c0,1.31716-1.10429,2.31057-2.56914,2.31057
			C81.45096,69.80539,80.34668,68.81198,80.34668,67.49482z"/>
		<polygon class="st1" points="81.0968,39.07749 84.73492,39.07749 84.73492,34.18238 84.74124,34.17153 89.87688,25.70848 
			85.68699,25.70848 82.91586,30.60179 82.87507,30.53019 80.14464,25.70848 75.95476,25.70848 81.0968,34.18238 		"/>
	</g>
</g>
</svg>
