<svg id="레이어_1" data-name="레이어 1" xmlns="http://www.w3.org/2000/svg" viewBox="0 0 20 20"><defs><style>.cls-1{fill:#464e5a;}</style></defs><path class="cls-1" d="M10,0A10,10,0,1,0,20,10,10.00931,10.00931,0,0,0,10,0ZM4.34375,8.71875a1.25432,1.25432,0,0,1,1.76563,0l2.5625,2.5625L13.89069,6.0625a1.23247,1.23247,0,0,1,.412-.27246,1.26524,1.26524,0,0,1,.94141,0,1.23275,1.23275,0,0,1,.41211.27246,1.25431,1.25431,0,0,1,0,1.76562c-.582.584-1.041,1.04468-1.40771,1.41285l-.43165.43347c-1.91424,1.92212-.43817.44122-4.27,4.24744a1.25432,1.25432,0,0,1-1.76563,0v.01562l-3.4375-3.46875a1.23907,1.23907,0,0,1,0-1.75Z"/></svg>