<svg xmlns="http://www.w3.org/2000/svg" viewBox="0 0 15.00001 20"><defs><style>.cls-1{fill:#434751;}</style></defs><g id="레이어_2" data-name="레이어 2"><g id="레이어_1-2" data-name="레이어 1"><path class="cls-1" d="M14.06251,19.99969a.89289.89289,0,0,1-.54474-.18652L7.5,15.22828,1.48224,19.81317a.888.888,0,0,1-.97412.07618A1.01048,1.01048,0,0,1,0,18.99971V3A2.914,2.914,0,0,1,2.8125,0h9.375A2.914,2.914,0,0,1,15,3V18.99971a1.0105,1.0105,0,0,1-.50812.88964A.903.903,0,0,1,14.06251,19.99969ZM7.5,12.9998a.89687.89687,0,0,1,.54474.18652L13.125,17.05638V3a.9709.9709,0,0,0-.9375-1H2.8125A.97091.97091,0,0,0,1.875,3V17.05638l5.08026-3.87006A.89692.89692,0,0,1,7.5,12.9998Z"/></g></g></svg>