<svg xmlns="http://www.w3.org/2000/svg" viewBox="0 0 20 18.66667"><defs><style>.cls-1{opacity:0.6;}.cls-2{fill:#dee0e4;}</style></defs><g id="레이어_2" data-name="레이어 2"><g id="레이어_1-2" data-name="레이어 1"><g class="cls-1"><path class="cls-2" d="M2.66667,10.66667H4V9.33333H2.66667Zm0,2.66666H4V12H2.66667Zm0,2.66667H4V14.66667H2.66667Zm4-6.66667H5.33333v1.33334H6.66667Zm0,2.66667H5.33333v1.33333H6.66667ZM9.33333,9.33333H8v1.33334H9.33333Zm0,2.66667H8v1.33333H9.33333Zm1.33334-1.33333H12V9.33333H10.66667Zm0,2.66666H12V12H10.66667Zm2.66666-2.66666h1.33334V9.33333H13.33333Zm0,2.66666h1.33334V12H13.33333Zm0,2.66667h1.33334V14.66667H13.33333ZM16,9.33333v1.33334h1.33333V9.33333Zm0,4h1.33333V12H16ZM16,16h1.33333V14.66667H16ZM5.33333,16H12V14.66667H5.33333Z"/></g><path class="cls-2" d="M17.33333,6.66667H10.66667c2-2.222-2-4.44467,0-6.66667H9.33333c-2,2.222,2,4.44467,0,6.66667H2.66667A2.66678,2.66678,0,0,0,0,9.33333V16a2.66679,2.66679,0,0,0,2.66667,2.66667H17.33333A2.66679,2.66679,0,0,0,20,16V9.33333A2.66678,2.66678,0,0,0,17.33333,6.66667ZM18.66667,16a1.33511,1.33511,0,0,1-1.33334,1.33333H2.66667A1.33511,1.33511,0,0,1,1.33333,16V9.33333A1.33511,1.33511,0,0,1,2.66667,8H17.33333a1.33511,1.33511,0,0,1,1.33334,1.33333Z"/></g></g></svg>