<svg xmlns="http://www.w3.org/2000/svg" viewBox="0 0 20 19.20358"><defs><style>.cls-1{fill:#dee0e4;}</style></defs><g id="레이어_2" data-name="레이어 2"><g id="레이어_1-2" data-name="레이어 1"><path class="cls-1" d="M10.00007,15.64936a1.5582,1.5582,0,0,1-1.26465-.65018l-.01831-.0267-3.591-5.60759a5.95365,5.95365,0,1,1,9.73142.02426l-3.57421,5.58333-.01831.0267A1.55834,1.55834,0,0,1,10.00007,15.64936Zm.75683-1.01394h0ZM9.759,14.28126a.30556.30556,0,0,0,.48248.00015l3.57971-5.59065A4.704,4.704,0,1,0,6.16249,8.6665Z"/><path class="cls-1" d="M10.00007,8.73531a3.01483,3.01483,0,1,1,3.01482-3.01482A3.01826,3.01826,0,0,1,10.00007,8.73531Zm0-4.77965A1.76483,1.76483,0,1,0,11.7649,5.72049,1.76673,1.76673,0,0,0,10.00007,3.95566Z"/><path class="cls-1" d="M19.37505,19.20358H.62509a.625.625,0,0,1-.59418-.81909l2.40021-7.34983a.62509.62509,0,0,1,.59417-.43106H6.87507a.625.625,0,1,1,0,1.25H3.47878l-1.99218,6.1H18.51354l-1.99188-6.1H13.27521a.625.625,0,1,1,0-1.25h3.69994a.62511.62511,0,0,1,.59418.43106l2.39989,7.35a.625.625,0,0,1-.59417.81894Z"/></g></g></svg>