<svg id="레이어_1" data-name="레이어 1" xmlns="http://www.w3.org/2000/svg" viewBox="0 0 20 20"><defs><style>.cls-1{fill:#434751;}</style></defs><path class="cls-1" d="M10,0a4.0001,4.0001,0,0,1,3.9951,3.8002L14,3.99982l.001,6.72818.0554.0576a5.48176,5.48176,0,0,1,1.4159,3.1603l.0207.2757L15.5,14.5a5.5,5.5,0,1,1-9.73395-3.511l.17849-.2045L5.999,10.727,6,4A4.0005,4.0005,0,0,1,9.5969.02006L9.8004.0049Zm0,2A2.00008,2.00008,0,0,0,8.0055,3.85077L8,4,7.99971,11.5931l-.333.2981a3.49995,3.49995,0,1,0,4.8207.1464l-.1533-.1457-.3327-.2981L12,4A2,2,0,0,0,10,2Zm0,4a1,1,0,0,1,1,1l.0008,5.2084a2.49993,2.49993,0,1,1-2.0006-.0005L9,7A1,1,0,0,1,10,6Z"/></svg>