<svg id="레이어_1" data-name="레이어 1" xmlns="http://www.w3.org/2000/svg" viewBox="0 0 20 20"><defs><style>.cls-1{fill:#434751;}</style></defs><g id="Layer_2" data-name="Layer 2"><path class="cls-1" d="M15.92593,20H4.07407a3.70371,3.70371,0,0,1-3.7037-3.7037A.7408.7408,0,0,1,.41481,16.037,9.92593,9.92593,0,0,1,9.65926,9.62963h.68148A9.92591,9.92591,0,0,1,19.58518,16.037a.74058.74058,0,0,1,.04445.25926A3.70371,3.70371,0,0,1,15.92593,20ZM1.85185,16.42222a2.22223,2.22223,0,0,0,2.22222,2.0963H15.92593a2.22223,2.22223,0,0,0,2.22222-2.0963,8.43705,8.43705,0,0,0-7.80741-5.31111H9.65926A8.43705,8.43705,0,0,0,1.85185,16.42222Z"/><path class="cls-1" d="M10,8.88889a4.44445,4.44445,0,1,1,4.44444-4.44445A4.44444,4.44444,0,0,1,10,8.88889Zm0-7.40741a2.963,2.963,0,1,0,2.963,2.963A2.963,2.963,0,0,0,10,1.48148Z"/><path class="cls-1" d="M15.92593,20H4.07407a3.70371,3.70371,0,0,1-3.7037-3.7037A.7408.7408,0,0,1,.41481,16.037,9.92593,9.92593,0,0,1,9.65926,9.62963h.68148A9.92591,9.92591,0,0,1,19.58518,16.037a.74058.74058,0,0,1,.04445.25926A3.70371,3.70371,0,0,1,15.92593,20ZM1.85185,16.42222a2.22223,2.22223,0,0,0,2.22222,2.0963H15.92593a2.22223,2.22223,0,0,0,2.22222-2.0963,8.43705,8.43705,0,0,0-7.80741-5.31111H9.65926A8.43705,8.43705,0,0,0,1.85185,16.42222Z"/></g></svg>