<svg xmlns="http://www.w3.org/2000/svg" viewBox="0 0 16.34102 20"><defs><style>.cls-1{fill:#5e667e;}</style></defs><g id="레이어_2" data-name="레이어 2"><g id="레이어_1-2" data-name="레이어 1"><path class="cls-1" d="M3.39445,16.39316A4.92882,4.92882,0,0,0,1.73989,20h12.861a4.92883,4.92883,0,0,0-1.65457-3.60684,9.96517,9.96517,0,0,1-9.55189,0Z"/><path class="cls-1" d="M7.931.00344A8.26656,8.26656,0,0,0,.00523,8.4708,8.17065,8.17065,0,1,0,7.931.00344ZM11.2131,6.19817c-.031.016-.0594.03613-.09176.04976a1.3606,1.3606,0,0,1-1.2914-.12556,1.36767,1.36767,0,0,1-.36781-.36782,1.36271,1.36271,0,0,1,.16623-1.72432,1.37046,1.37046,0,0,1,.20158-.16629,1.35893,1.35893,0,0,1,1.68349,2.1245A1.38938,1.38938,0,0,1,11.2131,6.19817ZM7.29159,11.69891A3.62387,3.62387,0,0,1,7.911,4.56538a2.69611,2.69611,0,0,0-.04322.42777A2.72667,2.72667,0,0,0,10.59128,7.7167a2.69535,2.69535,0,0,0,1.1388-.25766,3.63019,3.63019,0,0,1-4.43849,4.23987Z"/></g></g></svg>