<svg xmlns="http://www.w3.org/2000/svg" viewBox="0 0 40 40"><defs><style>.cls-1{fill:#295191;}.cls-2{fill:#fff;}</style></defs><g id="레이어_2" data-name="레이어 2"><g id="레이어_1-2" data-name="레이어 1"><circle class="cls-1" cx="20" cy="20" r="20"/><path class="cls-2" d="M13.03,27.464a2.77653,2.77653,0,0,1,.10029.9026c0,.702,0,.8023.10029,1.00287a1.02706,1.02706,0,0,0,.60173.50144,1.709,1.709,0,0,0,1.00288,0,1.20848,1.20848,0,0,0,.50144-.50144c.10029-.20057.10029-.30086.10029-1.00287,0-.60173,0-.80231.10028-.80231a32.42333,32.42333,0,0,1,4.41268-.10029,21.64713,21.64713,0,0,1,4.41267.10029c.10028.10029.10028.20058.10028.80231a2.7765,2.7765,0,0,0,.10029.90259c0,.10028.10029.20057.20058.30086a1.154,1.154,0,0,0,1.70489.10029c.30087-.30087.40116-.40115.40116-1.404A1.95524,1.95524,0,0,1,26.97,27.464h1.30375V18.83923l-.40115-3.00864c-.30087-2.00576-.40115-3.10893-.50144-3.30951-.40115-1.10316-1.60461-1.70489-4.11181-2.20633a17.33111,17.33111,0,0,0-6.01728-.10029,14.23171,14.23171,0,0,0-2.20634.50144,8.89093,8.89093,0,0,0-1.70489.8023,2.29261,2.29261,0,0,0-.702,1.00288c0,.10029-.30086,1.60461-.50144,3.20922l-.40115,3.00864v8.62477H12.328A1.958,1.958,0,0,0,13.03,27.464Zm13.03744-2.80806a1.05933,1.05933,0,0,1-1.50432-.50144,1.39146,1.39146,0,0,1,0-.90259v-.10029a1.08251,1.08251,0,0,1,1.50432-.50144,1.20848,1.20848,0,0,1,.50144.50144A1.05932,1.05932,0,0,1,26.06742,24.65593ZM16.33949,11.5182a21.72549,21.72549,0,0,1,3.61037-.10028,18.737,18.737,0,0,1,3.61036.10028.36632.36632,0,0,1,.20058.50144.4314.4314,0,0,1-.40115.40116c-.20058,0-6.7193.10028-6.91987,0H16.2392a.2157.2157,0,0,1-.20058-.20058A.7468.7468,0,0,1,16.33949,11.5182Zm-2.40691,2.5072A.47375.47375,0,0,1,14.434,13.524c.10028,0,1.70489-.10028,5.51584-.10028,5.71641,0,5.51583,0,5.8167.20057.20057.20058.30086.40115.60173,2.70778.20057,1.30374.30086,2.30662.30086,2.40691a.95473.95473,0,0,1-.20058.702.36841.36841,0,0,1-.30086.10029c-.20058.10029-12.13485.10029-12.43571.10029-.20058,0-.40115-.20058-.50144-.50144C13.23056,18.93951,13.83229,14.42656,13.93258,14.0254Zm-.30087,8.82535a1.08335,1.08335,0,0,1,.702-.30087h0a1.113,1.113,0,0,1,1.10317,1.10317,1.23324,1.23324,0,0,1-.702,1.10317,1.318,1.318,0,0,1-1.20346-.30087h0A1.11966,1.11966,0,0,1,13.63171,22.85075Z"/></g></g></svg>