<svg xmlns="http://www.w3.org/2000/svg" viewBox="0 0 40 40"><defs><style>.cls-1{fill:#e2982d;}.cls-2{fill:#fff;}</style></defs><g id="레이어_2" data-name="레이어 2"><g id="레이어_1-2" data-name="레이어 1"><circle class="cls-1" cx="20" cy="20" r="20"/><path class="cls-2" d="M20,13.39957a6.1308,6.1308,0,0,0-5.8668,5.86681,6.16011,6.16011,0,0,0,1.67936,4.1801,3.344,3.344,0,0,1,1.254,2.42.73336.73336,0,0,0,.73336.73336h4.4001a.73336.73336,0,0,0,.73336-.73336,3.27071,3.27071,0,0,1,1.23935-2.40538,5.7714,5.7714,0,0,0,1.694-4.19477A5.9914,5.9914,0,0,0,24.07743,14.991,5.62476,5.62476,0,0,0,20,13.39957Zm3.18274,9.00556a5.03805,5.03805,0,0,0-1.65,2.72806H18.4673a5.13344,5.13344,0,0,0-1.61338-2.72074,4.70077,4.70077,0,0,1-1.254-3.14607A4.61279,4.61279,0,0,1,20,14.86627a4.12878,4.12878,0,0,1,3.02874,1.17337,4.51742,4.51742,0,0,1,1.37137,3.22674,4.34878,4.34878,0,0,1-1.23937,3.13875Z"/><path class="cls-2" d="M22.20005,27.33324H17.8a.73336.73336,0,1,0-.00565,1.4667h4.40575a.73336.73336,0,1,0,.00565-1.4667Z"/><path class="cls-2" d="M21.4667,29.5333H18.5333A.73335.73335,0,0,0,18.52765,31h2.939a.73335.73335,0,0,0,.00565-1.46669Z"/><path class="cls-2" d="M20,11.93287a.73335.73335,0,0,0,.73335-.73335V9.73282a.73335.73335,0,0,0-1.4667,0v1.4667A.73335.73335,0,0,0,20,11.93287Z"/><path class="cls-2" d="M11.93314,18.533H10.46643a.73336.73336,0,0,0,0,1.4667h1.46671a.73336.73336,0,0,0,0-1.4667Z"/><path class="cls-2" d="M29.53357,18.533H28.06686a.73336.73336,0,0,0,0,1.4667h1.46671a.73336.73336,0,0,0,0-1.4667Z"/><path class="cls-2" d="M27.26017,12.0062a.73336.73336,0,0,0-1.034,0l-1.04136,1.034a.73335.73335,0,0,0-.00425,1.0371l.00425.00426a.74373.74373,0,0,0,1.04136,0l1.034-1.04136A.73335.73335,0,0,0,27.26017,12.0062Z"/><path class="cls-2" d="M14.81521,14.08159a.73336.73336,0,0,0,.00425-1.03711l-.00425-.00425-1.04136-1.034a.73335.73335,0,0,0-1.034,1.034l1.034,1.04136A.74373.74373,0,0,0,14.81521,14.08159Z"/></g></g></svg>