<svg xmlns="http://www.w3.org/2000/svg" viewBox="0 0 20 11.24947"><defs><style>.cls-1{fill:#dee0e4;fill-rule:evenodd;}</style></defs><g id="레이어_2" data-name="레이어 2"><g id="레이어_1-2" data-name="레이어 1"><path class="cls-1" d="M20,9.02709H17.71487a1.76951,1.76951,0,0,0-3.42974,0H10.44444v-3.466l.98682-.5682a.4668.4668,0,0,0,.17326-.17163V4.81973a.464.464,0,0,0,.06312-.23641V3.39992l.29631-.07284,1.13824,2.375a.75715.75715,0,0,1-.2898.95516.34433.34433,0,1,0,.39828.56174,1.38441,1.38441,0,0,0,.5424-1.75331l-.0178-.034L12.652,3.16188q1.41841-.34,2.83667-.68a.46872.46872,0,0,0,.25583-.16512.34141.34141,0,0,0-.05016-.42418.33476.33476,0,0,0-.24452-.102h-.30116V1.06211A10.26493,10.26493,0,0,0,16.4181.96334L16.457.95688q.65214-.099.65416-.238Q17.109.58153,16.457.48254L16.4181.47446Q16.07415.4249,15.65872.40163q-.24326-.01686-.51-.02431V.33356a.34145.34145,0,0,0-.10194-.23472.33512.33512,0,0,0-.24618-.09877.32784.32784,0,0,0-.24286.09877.33888.33888,0,0,0-.08092.13273A.31761.31761,0,0,0,14.459.3433v.034a10.93063,10.93063,0,0,0-1.36813.09714q-.68918.10213-.68978.24444.00069.143.68978.24444.24125.03618.51812.05992.38981.03337.85.0421v.72524H11.95261a1.31358,1.31358,0,0,0-.53269-.38528,2.135,2.135,0,0,0-.74642-.13759h-.03724q-.049-.00162-.10032-.00005H9.46414q-.05151-.00164-.10037,0H9.32652a2.13458,2.13458,0,0,0-.74644.13758,1.31337,1.31337,0,0,0-.53269.38528H5.541V1.06528q.46011-.0087.85-.0421.27681-.02371.51809-.05992.68917-.10144.68978-.24444Q7.59828.57653,6.90915.47438A10.93754,10.93754,0,0,0,5.541.37724v-.034A.31646.31646,0,0,0,5.52317.23151a.33856.33856,0,0,0-.081-.13273A.32769.32769,0,0,0,5.19935,0a.33491.33491,0,0,0-.24609.09877.34188.34188,0,0,0-.102.23473V.37727q-.26673.00748-.51.0243-.41532.02324-.7593.07284L3.54305.48249q-.65214.099-.65416.23636.00207.13894.65416.238L3.5819.96328a10.25841,10.25841,0,0,0,1.26934.09877V1.7906H4.55013a.3348.3348,0,0,0-.24455.102.3412.3412,0,0,0-.05015.42418.46843.46843,0,0,0,.25577.16512q1.41838.34,2.83673.68L6.2647,5.43163l-.01779.034a1.38439,1.38439,0,0,0,.5424,1.75331.34429.34429,0,1,0,.39824-.56174A.75711.75711,0,0,1,6.89776,5.702L8.036,3.32705l.29788.07284V4.58172A.46082.46082,0,0,0,8.397,4.8165a.467.467,0,0,0,.17.17321l.00328.0016.98525.56941V9.02709H5.71487a1.76951,1.76951,0,0,0-3.42974,0H0V9.916H2.285a1.76955,1.76955,0,0,0,3.43,0h8.57a1.76955,1.76955,0,0,0,3.43,0H20ZM9.21305,3.89357a.78775.78775,0,1,1,.78687.78678.78771.78771,0,0,1-.78687-.78678Z"/><path class="cls-1" d="M10.39185,3.89357a.37633.37633,0,0,0-.115-.27686.3892.3892,0,0,0-.5554,0,.39271.39271,0,1,0,.67039.27686Z"/></g></g></svg>