<svg xmlns="http://www.w3.org/2000/svg" viewBox="0 0 20 20"><defs><style>.cls-1{fill:#464e5a;}</style></defs><g id="레이어_2" data-name="레이어 2"><g id="레이어_1-2" data-name="레이어 1"><path class="cls-1" d="M16.15387,0H3.84613A3.8088,3.8088,0,0,0,0,3.84613V16.15381A3.80881,3.80881,0,0,0,3.84613,20H16.15387A3.80881,3.80881,0,0,0,20,16.15381V3.84613A3.8088,3.8088,0,0,0,16.15387,0ZM6.40112,7.20422H8.002v4.00171H6.40112Zm-.80029,3.96167a2.00129,2.00129,0,0,1,0-3.92163Zm3.11725,3.08948a.40045.40045,0,0,1-.31622.15216H6.80133a.40029.40029,0,0,1-.40021-.3042l-.51239-2.097H8.314l.47608,1.905A.399.399,0,0,1,8.71808,14.25537Zm5.68658-1.84881a.40021.40021,0,0,1-.4002.40026.34827.34827,0,0,1-.108,0L8.80212,11.338V7.07233l5.0943-1.46888a.41912.41912,0,0,1,.50824.40027Zm.80042-1.41663V7.42023a2.40144,2.40144,0,0,1,0,3.5697Z"/></g></g></svg>