<svg xmlns="http://www.w3.org/2000/svg" viewBox="0 0 11.97667 12"><defs><style>.cls-1{fill:#677180;}</style></defs><g id="레이어_2" data-name="레이어 2"><g id="레이어_1-2" data-name="레이어 1"><path class="cls-1" d="M11.04426,12h-.0476a.95575.95575,0,1,1,0-1.91149.97619.97619,0,0,1,.98.95575A.93557.93557,0,0,1,11.04426,12Z"/><path class="cls-1" d="M7.73835,12H7.63008a.95575.95575,0,0,1,0-1.91149h.10827a.95575.95575,0,1,1,0,1.91149Zm-3.367,0H4.26258a.95575.95575,0,0,1,0-1.91149h.10874a.95575.95575,0,0,1,0,1.91149Z"/><path class="cls-1" d="M1.00381,12H.95574A.95549.95549,0,0,1,0,11.04426a.97568.97568,0,0,1,.95574-.97908.94714.94714,0,0,1,.88341.57027.91556.91556,0,0,1,.0966.40881A.93547.93547,0,0,1,1.00381,12Z"/><path class="cls-1" d="M.95574,8.69316A.95549.95549,0,0,1,0,7.73742V7.62915a.95575.95575,0,0,1,1.91149,0v.10827A.95549.95549,0,0,1,.95574,8.69316Zm0-3.3675A.95549.95549,0,0,1,0,4.36992V4.26165a.95575.95575,0,1,1,1.91149,0v.10827A.95549.95549,0,0,1,.95574,5.32566Z"/><path class="cls-1" d="M.95574,1.93575A.93585.93585,0,0,1,0,1.00334V.95574a.95575.95575,0,0,1,1.91149,0A.9765.9765,0,0,1,.95574,1.93575Z"/></g></g></svg>