<svg xmlns="http://www.w3.org/2000/svg" viewBox="0 0 20 20"><defs><style>.cls-1{fill:#464e5a;}</style></defs><g id="레이어_2" data-name="레이어 2"><g id="레이어_1-2" data-name="레이어 1"><path class="cls-1" d="M16.15387,0H3.84613A3.8088,3.8088,0,0,0,0,3.84613V16.15381A3.80881,3.80881,0,0,0,3.84613,20H16.15387A3.80881,3.80881,0,0,0,20,16.15381V3.84613A3.8088,3.8088,0,0,0,16.15387,0ZM7.74194,5.17023h4.51612V8.33154H7.74194Zm0,3.83874h4.51612v3.16126H7.74194ZM3,6.52509,7.06451,5.17023V8.33154L3,9.68634Zm0,7V10.36377L7.06451,9.009v3.16126Zm2.371,1.30462c0-.69293,1.59552-1.27051,3.71326-1.40185v-.49237h1.83154v.49237c2.11774.13134,3.71326.70892,3.71326,1.40185ZM17,13.52509l-4.06451-1.35486V9.009L17,10.36377Zm0-3.83875-4.06451-1.3548V5.17023L17,6.52509Z"/></g></g></svg>