<?xml version="1.0" encoding="utf-8"?>
<!-- Generator: Adobe Illustrator 26.0.3, SVG Export Plug-In . SVG Version: 6.00 Build 0)  -->
<svg version="1.1" id="레이어_1" xmlns="http://www.w3.org/2000/svg" xmlns:xlink="http://www.w3.org/1999/xlink" x="0px"
	 y="0px" viewBox="0 0 20 20" style="enable-background:new 0 0 20 20;" xml:space="preserve">
<style type="text/css">
	.st0{fill:#7C8796;}
	.st1{fill:#677180;}
</style>
<g id="Chart">
	<path class="st0" d="M1.6666597,9.166667h3.333333c0.460238,0,0.8333335,0.3730965,0.8333335,0.833333v9.166666
		C5.8333263,19.6269035,5.4602308,20,4.9999928,20h-3.333333c-0.4602373,0-0.8333334-0.3730965-0.8333334-0.833334V10
		C0.8333263,9.5397635,1.2064224,9.166667,1.6666597,9.166667z"/>
	<path class="st0" d="M14.9999933,5.8333335h3.333333c0.4602375,0,0.833334,0.3730955,0.833334,0.833333v12.5
		c0,0.4602375-0.3730965,0.833334-0.833334,0.833334h-3.333333c-0.4602375,0-0.833334-0.3730965-0.833334-0.833334v-12.5
		C14.1666594,6.206429,14.5397558,5.8333335,14.9999933,5.8333335z"/>
	<path class="st0" d="M8.3333263,0h3.333333c0.4602375,0,0.833334,0.3730961,0.833334,0.8333333V19.166666
		c0,0.4602375-0.3730965,0.833334-0.833334,0.833334h-3.333333c-0.4602375,0-0.8333335-0.3730965-0.8333335-0.833334V0.8333333
		C7.4999928,0.3730961,7.8730888,0,8.3333263,0z"/>
	<path class="st1" d="M19.1666603,6.6666665c0.0012798-0.2215028-0.0856781-0.434401-0.2416687-0.5916667l-4.7583323,3.6416664
		v9.4499998c0,0.4602375,0.3730965,0.833334,0.833334,0.833334h3.333333c0.4602375,0,0.833334-0.3730965,0.833334-0.833334
		V6.6666665z"/>
	<path class="st1" d="M7.4999928,14.8083334v4.3583326C7.4999928,19.6269035,7.8730888,20,8.3333263,20h3.333333
		c0.4602375,0,0.833334-0.3730965,0.833334-0.833334v-8.1749992L7.4999928,14.8083334z"/>
	<path class="st1" d="M1.0583264,19.7333336C1.2153862,19.9026852,1.4356889,19.999258,1.6666597,20h3.333333
		c0.460238,0,0.8333335-0.3730965,0.8333335-0.833334v-3.083334L1.0583264,19.7333336z"/>
</g>
</svg>
