<svg xmlns="http://www.w3.org/2000/svg" viewBox="0 0 20 20"><defs><style>.cls-1{fill:#464e5a;}</style></defs><g id="레이어_2" data-name="레이어 2"><g id="레이어_1-2" data-name="레이어 1"><path class="cls-1" d="M16.15387,0H3.84613A3.8088,3.8088,0,0,0,0,3.84613V16.15381A3.80881,3.80881,0,0,0,3.84613,20H16.15387A3.80881,3.80881,0,0,0,20,16.15381V3.84613A3.8088,3.8088,0,0,0,16.15387,0Zm-.15393,14.99994H4.00006a1,1,0,1,1,0-2H15.99994a1,1,0,1,1,0,2Zm0-4H4.00006A.94482.94482,0,0,1,3,9.99994a.94485.94485,0,0,1,1.00006-1H15.99994a.94485.94485,0,0,1,1.00006,1A.94482.94482,0,0,1,15.99994,10.99994Zm0-3.99994H4.00006A.94485.94485,0,0,1,3,6,.94482.94482,0,0,1,4.00006,5H15.99994A.94482.94482,0,0,1,17,6,.94485.94485,0,0,1,15.99994,7Z"/></g></g></svg>