<svg xmlns="http://www.w3.org/2000/svg" viewBox="0 0 20 20"><defs><style>.cls-1{fill:#464e5a;}</style></defs><g id="레이어_2" data-name="레이어 2"><g id="레이어_1-2" data-name="레이어 1"><path class="cls-1" d="M7.85236,5.65326a4.13522,4.13522,0,0,0-.80286.74615,4.18046,4.18046,0,0,0-.811,1.58582.203.203,0,0,0,.39264.10315A3.74422,3.74422,0,0,1,8.08691,5.98413a.20279.20279,0,1,0-.23455-.33087Z"/><path class="cls-1" d="M6.30756,8.88837H6.3042a.20289.20289,0,0,0-.19971.20623,4.10186,4.10186,0,0,0,.07361.70649.20339.20339,0,0,0,.19916.1643A.22887.22887,0,0,0,6.41608,9.962a.20339.20339,0,0,0,.16089-.238,3.66758,3.66758,0,0,1-.06629-.63629A.20287.20287,0,0,0,6.30756,8.88837Z"/><path class="cls-1" d="M16.15387,0H3.84613A3.8088,3.8088,0,0,0,0,3.84613V16.15381A3.80881,3.80881,0,0,0,3.84613,20H16.15387A3.80881,3.80881,0,0,0,20,16.15381V3.84613A3.8088,3.8088,0,0,0,16.15387,0ZM11.53394,15.96881a1.64459,1.64459,0,0,1-.91248.86347l-.1496.05725a1.64368,1.64368,0,0,1-1.2561-.02948,1.61293,1.61293,0,0,1-.77753-.72333l.37921-.14575,2.42939-.93421L11.626,14.911A1.61606,1.61606,0,0,1,11.53394,15.96881Zm5.16168-3.43213-9.72388,3.711a.86222.86222,0,0,1-1.1145-.4433l-.00348-.00891a1.22838,1.22838,0,0,1,.09943-1.07477,3.67524,3.67524,0,0,0-.1023-2.16546l-.00037-.00232L5.083,10.5484A4.916,4.916,0,0,1,6.70972,4.8631L6.69849,4.834a1.34933,1.34933,0,0,1,2.519-.96826l.01343.03467a4.75209,4.75209,0,0,1,2.44128.39478,4.88037,4.88037,0,0,1,2.60535,2.72631l.7641,1.98352.00756.012a3.59528,3.59528,0,0,0,1.39692,1.69574,1.30621,1.30621,0,0,1,.47619.30481,1.35877,1.35877,0,0,1,.26715.41815A.854.854,0,0,1,16.69562,12.53668Z"/></g></g></svg>