<svg xmlns="http://www.w3.org/2000/svg" viewBox="0 0 20 20"><defs><style>.cls-1{fill:#464e5a;}</style></defs><g id="레이어_2" data-name="레이어 2"><g id="레이어_1-2" data-name="레이어 1"><path class="cls-1" d="M16.15387,0H3.84613A3.8088,3.8088,0,0,0,0,3.84613V16.15381A3.80881,3.80881,0,0,0,3.84613,20H16.15387A3.80881,3.80881,0,0,0,20,16.15381V3.84613A3.8088,3.8088,0,0,0,16.15387,0Zm1.69971,8.9176-1.322,3.53772a.308.308,0,0,1-.21711.19513.31734.31734,0,0,1-.07867.00946.31056.31056,0,0,1-.20459-.0755L14.105,10.906l-1.06793.11517-.48377,1.29248a.31525.31525,0,0,1-.29577.20459.36084.36084,0,0,1-.11017-.022l-2.03461-.76117V13.5882H5.39294v.43768a1.45345,1.45345,0,0,1-1.451,1.451H2.875v-4.4065H3.942a1.45345,1.45345,0,0,1,1.451,1.451v.43732H9.48322V11.49957L5.0719,9.84924a.312.312,0,0,1-.18256-.40289l1.76252-4.718a.317.317,0,0,1,.40606-.18573l7.07544,2.647a.31638.31638,0,0,1,.18567.406l-.3.80152.861.09863,2.68085-.00311A.31375.31375,0,0,1,17.819,8.628.30768.30768,0,0,1,17.85358,8.9176Z"/><path class="cls-1" d="M8.97058,6.68634l-.78686-.31482a.31481.31481,0,0,0-.23365.58466l.78693.31469a.31474.31474,0,1,0,.23358-.58453Z"/></g></g></svg>