<svg xmlns="http://www.w3.org/2000/svg" viewBox="0 0 20 20"><defs><style>.cls-1{fill:#434751;}</style></defs><g id="레이어_2" data-name="레이어 2"><g id="레이어_1-2" data-name="레이어 1"><g id="레이어_2-2" data-name="레이어 2"><g id="레이어_1-2-2" data-name="레이어 1-2"><path class="cls-1" d="M10,0A10,10,0,1,0,20,10,10,10,0,0,0,10,0m0,18.18188A8.1817,8.1817,0,1,1,18.182,10,8.18169,8.18169,0,0,1,10,18.18188"/><path class="cls-1" d="M10.90909,9.62341V4.54553a.909.909,0,1,0-1.818-.00062V10l.00052.00647a.86.86,0,0,0,.01749.17151.77767.77767,0,0,0,.0235.08044.93085.93085,0,0,0,.02749.0896.96275.96275,0,0,0,.04752.08948.66868.66868,0,0,0,.0365.067.85076.85076,0,0,0,.11349.1394l2.571,2.571a.909.909,0,0,0,1.28552-1.28553h0Z"/></g></g></g></g></svg>