<svg xmlns="http://www.w3.org/2000/svg" viewBox="0 0 20 20"><defs><style>.cls-1{fill:#dee0e4;}</style></defs><g id="레이어_2" data-name="레이어 2"><g id="레이어_1-2" data-name="레이어 1"><path class="cls-1" d="M19.76084,9.423,10.577.23916a.81557.81557,0,0,0-1.154,0L.23916,9.423a.816.816,0,0,0,1.154,1.154l.64774-.64674v8.23319A1.839,1.839,0,0,0,3.87743,20H16.12257a1.839,1.839,0,0,0,1.83657-1.83657V9.93024l.64774.64674a.816.816,0,1,0,1.154-1.154ZM8.76432,18.36771a1.97241,1.97241,0,0,0,.011-.20428V14.08171a.20456.20456,0,0,1,.20428-.20428h2.04086a.20456.20456,0,0,1,.20428.20428v4.08172a1.97241,1.97241,0,0,0,.011.20428Zm7.56254-.20428a.20457.20457,0,0,1-.20429.20428H13.06129a.20457.20457,0,0,1-.20429-.20428V14.08171a1.839,1.839,0,0,0-1.83657-1.83657H8.97957A1.839,1.839,0,0,0,7.143,14.08171v4.08172a.20457.20457,0,0,1-.20429.20428H3.87743a.20457.20457,0,0,1-.20429-.20428V8.297L10,1.9711,16.32686,8.297Z"/></g></g></svg>