<?xml version="1.0" encoding="utf-8"?>
<!-- Generator: Adobe Illustrator 25.4.1, SVG Export Plug-In . SVG Version: 6.00 Build 0)  -->
<svg version="1.1" id="레이어_1" xmlns="http://www.w3.org/2000/svg" xmlns:xlink="http://www.w3.org/1999/xlink" x="0px"
	 y="0px" viewBox="0 0 15.7 20" style="enable-background:new 0 0 15.7 20;" xml:space="preserve">
<style type="text/css">
	.st0{fill:#527AFF;}
</style>
<g id="레이어_2_00000114066935315143830930000013760626653583970693_">
	<g id="레이어_1-2">
		<path class="st0" d="M13.1,2C11.4,0.5,9.2-0.2,7,0C2.7,0.5-0.4,4.4,0,8.7c0.1,1.3,0.6,2.6,1.4,3.7l5,6.9c0.6,0.8,1.7,1,2.5,0.4
			c0.2-0.1,0.3-0.2,0.4-0.4l5-6.9C16.5,9.1,16,4.7,13.1,2z M7.8,11c-2,0-3.5-1.6-3.5-3.5S5.9,4,7.8,4c2,0,3.5,1.6,3.5,3.5
			C11.4,9.5,9.8,11,7.8,11z"/>
	</g>
</g>
</svg>
