<svg xmlns="http://www.w3.org/2000/svg" viewBox="0 0 20 20"><defs><style>.cls-1{fill:#677180;}</style></defs><g id="레이어_2" data-name="레이어 2"><g id="레이어_1-2" data-name="레이어 1"><path class="cls-1" d="M18.52806,15.69458V4.30542a2.2172,2.2172,0,1,0-2.83356-2.833H4.3055A2.21717,2.21717,0,1,0,1.4724,4.3055v11.389a2.21718,2.21718,0,1,0,2.833,2.83356H15.69458a2.21722,2.21722,0,1,0,2.83348-2.83348ZM15.6945,17.02782H4.3055a2.21483,2.21483,0,0,0-1.33286-1.33316V4.30534a2.21478,2.21478,0,0,0,1.3327-1.3327H15.69466A2.21483,2.21483,0,0,0,17.02782,4.3055v11.389A2.21448,2.21448,0,0,0,15.6945,17.02782Z"/></g></g></svg>