<svg xmlns="http://www.w3.org/2000/svg" viewBox="0 0 20 20"><defs><style>.cls-1{fill:#dee0e4;}</style></defs><g id="레이어_2" data-name="레이어 2"><g id="레이어_1-2" data-name="레이어 1"><rect class="cls-1" x="6.99995" y="7.00005" width="6" height="6"/><polygon class="cls-1" points="20 7.273 18.182 7.273 18.182 1.818 12.727 1.818 12.727 0 20 0 20 7.273"/><polygon class="cls-1" points="7.273 20 0 20 0 12.727 1.818 12.727 1.818 18.182 7.273 18.182 7.273 20"/><polygon class="cls-1" points="1.818 7.273 0 7.273 0 0 7.273 0 7.273 1.818 1.818 1.818 1.818 7.273"/><polygon class="cls-1" points="20 20 12.727 20 12.727 18.182 18.182 18.182 18.182 12.727 20 12.727 20 20"/></g></g></svg>