<svg xmlns="http://www.w3.org/2000/svg" viewBox="0 0 14.46526 20"><defs><style>.cls-1{fill:#dee0e4;}</style></defs><g id="레이어_2" data-name="레이어 2"><g id="레이어_1-2" data-name="레이어 1"><path class="cls-1" d="M7.23272,0A5.8555,5.8555,0,0,0,1.38385,5.84887V9.18931a.15712.15712,0,0,1-.08365.11415c-.31628.10548-.57315.19688-.80829.28752A.80919.80919,0,0,0,0,10.31386v7.67539a.81485.81485,0,0,0,.48876.72339,18.30752,18.30752,0,0,0,13.48794-.0001.81463.81463,0,0,0,.48856-.72329V10.31386a.80931.80931,0,0,0-.492-.723c-.23524-.09065-.49207-.182-.80812-.28752a.15731.15731,0,0,1-.08354-.11419V5.84877A5.85559,5.85559,0,0,0,7.23272,0ZM5.63963,12.65152a1.593,1.593,0,1,1,3.1859,0,1.56915,1.56915,0,0,1-.79647,1.34876v2.63365a.79648.79648,0,1,1-1.593,0V14.00028A1.56921,1.56921,0,0,1,5.63963,12.65152Zm5.4308-6.80275V8.731a18.25753,18.25753,0,0,0-7.67549-.00031V5.84877a3.83775,3.83775,0,0,1,7.67549,0Z"/></g></g></svg>