<svg xmlns="http://www.w3.org/2000/svg" viewBox="0 0 18.67188 20"><defs><style>.cls-1{fill:#dee0e4;}</style></defs><g id="레이어_2" data-name="레이어 2"><g id="레이어_1-2" data-name="레이어 1"><path class="cls-1" d="M3.67188,16.28906H15V10.58594H3.67188Zm1.91406-4.375h1.875a.58594.58594,0,0,1,0,1.17188h-1.875a.58594.58594,0,1,1,0-1.17188Z"/><path class="cls-1" d="M12.5,0H11.17188V3.75A.58594.58594,0,0,1,10,3.75V0H6.17188V5.66406H12.5Z"/><path class="cls-1" d="M18.50184,5.2123l-4.83-4.86765V6.25a.586.586,0,0,1-.58594.58594h-7.5A.586.586,0,0,1,5,6.25V0H1.17188A1.1732,1.1732,0,0,0,0,1.17188V18.82812A1.1732,1.1732,0,0,0,1.17188,20H17.5a1.17321,1.17321,0,0,0,1.17188-1.17188V5.625A.58582.58582,0,0,0,18.50184,5.2123Zm-2.33,11.6627a.586.586,0,0,1-.58594.58594h-12.5A.586.586,0,0,1,2.5,16.875V10a.586.586,0,0,1,.58594-.58594h12.5A.586.586,0,0,1,16.17188,10Z"/></g></g></svg>