<svg xmlns="http://www.w3.org/2000/svg" viewBox="0 0 20 13.12251"><defs><style>.cls-1{fill:#dee0e4;}</style></defs><g id="레이어_2" data-name="레이어 2"><g id="레이어_1-2" data-name="레이어 1"><path class="cls-1" d="M9.99768,4.9222a.5558.5558,0,1,0,.39166.16388A.53113.53113,0,0,0,9.99768,4.9222Z"/><path class="cls-1" d="M9.96472,6.57509A1.09668,1.09668,0,0,1,8.89337,5.47536a1.1061,1.1061,0,0,1,1.88983-.78088,1.052,1.052,0,0,1,.27887.54687L13.7854,2.518H12.74585a1.84642,1.84642,0,0,0-.74908-.54175,3.00218,3.00218,0,0,0-1.04963-.19354h-.05243q-.06883-.00228-.141-.00006H9.24646q-.07242-.0023-.14117,0H9.05292a3.00234,3.00234,0,0,0-1.04969.19348,1.8467,1.8467,0,0,0-.74908.54181H3.72955V1.49812q.6471-.01225,1.19538-.0592.38928-.03342.72857-.08429.96909-.14263.97-.34375-.00091-.2-.97-.34375A15.393,15.393,0,0,0,3.72955.53053V.48274A.44571.44571,0,0,0,3.70447.32558.477.477,0,0,0,3.59064.13893.46129.46129,0,0,0,3.24908,0,.47146.47146,0,0,0,2.903.13893.48051.48051,0,0,0,2.75958.469V.5306Q2.38449.54112,2.0423.56471,1.45828.5974.97455.66719.94671.67241.91992.67854.00284.8178,0,1.01094q.00292.19538.91992.33466l.05463.00909a14.4288,14.4288,0,0,0,1.785.13886V2.51808H2.33612a.47041.47041,0,0,0-.34387.14344.47975.47975,0,0,0-.07056.59649.6588.6588,0,0,0,.35968.23224q1.99456.478,3.98914.95618L4.74725,7.63826c-.00885.01581-.01721.0318-.025.04779A1.94683,1.94683,0,0,0,5.485,10.15169a.48417.48417,0,1,0,.56-.79,1.06472,1.06472,0,0,1-.40753-1.3432L7.23816,4.67873l.41888.10241v1.662a.64747.64747,0,0,0,.08881.33008.65566.65566,0,0,0,.239.24359l.00464.00226,1.6781.96985A.66316.66316,0,0,0,9.99994,8.08a.65469.65469,0,0,0,.18243-.0487A1.59337,1.59337,0,0,1,9.96472,6.57509Z"/><path class="cls-1" d="M18.00769,2.66158a.46693.46693,0,0,0-.31525-.13788l.45368.45367A.46263.46263,0,0,0,18.00769,2.66158Z"/><path class="cls-1" d="M17.24036,1.49367a14.44342,14.44342,0,0,0,1.78509-.13892c.01856-.00274.03674-.00573.05463-.00909Q19.99717,1.2064,20,1.011q-.00293-.19317-.91992-.33239-.02683-.00614-.05463-.01136Q18.54178.59759,17.95758.56484q-.342-.02371-.71722-.03418V.46913A.48033.48033,0,0,0,17.097.139a.47133.47133,0,0,0-.34613-.13885A.46137.46137,0,0,0,16.4093.139a.47821.47821,0,0,0-.11383.18671.44838.44838,0,0,0-.025.15711V.5306A15.36922,15.36922,0,0,0,14.3465.66719q-.96909.14366-.97.34375.001.20115.97.34375.33928.05091.72863.08429.54813.04688,1.19532.05921v.09314a2.277,2.277,0,0,1,.96991.50274Z"/><path class="cls-1" d="M16.652,3.74593l-.41663-.41663a.70553.70553,0,0,0-.99853,0l-.99408.99408-.38721.38721-.72907.72906-.78131.78131-.873.873.15143.15143.8471.84711,1.30274-1.30286.72717-.7273.55719-.55725v7.61743h1.35657V5.50508l2.58709,2.58741L20,7.094Z"/></g></g></svg>