<svg xmlns="http://www.w3.org/2000/svg" viewBox="0 0 18.71506 20"><defs><style>.cls-1{fill:#dee0e4;}</style></defs><g id="레이어_2" data-name="레이어 2"><g id="레이어_1-2" data-name="레이어 1"><path class="cls-1" d="M11.787,13.85752a20.35918,20.35918,0,0,1-.04432-2.07343,4.05843,4.05843,0,0,0,1.11256-2.40735c.2827-.02315.72841-.29895.85892-1.38787a1.01648,1.01648,0,0,0-.37972-1.017c.46-1.38343,1.41545-5.66327-1.76709-6.10554A2.50269,2.50269,0,0,0,9.31124,0C4.95063.08028,4.42464,3.29287,5.38058,6.97185a1.01841,1.01841,0,0,0-.37972,1.017c.131,1.08892.57623,1.36472.85893,1.38787a4.04938,4.04938,0,0,0,1.13866,2.40735,20.36137,20.36137,0,0,1-.04482,2.07343C6.09077,16.1772.26891,15.52612,0,20H18.71506C18.44665,15.52612,12.64991,16.1772,11.787,13.85752Z"/></g></g></svg>