<svg xmlns="http://www.w3.org/2000/svg" viewBox="0 0 20 16.66667"><defs><style>.cls-1{fill:#dee0e4;}</style></defs><g id="레이어_2" data-name="레이어 2"><g id="레이어_1-2" data-name="레이어 1"><path class="cls-1" d="M12.47063,1.66667l1.15729,1.75791.48021.74209H17.5a.858.858,0,0,1,.83333.85937v9.15375a.81792.81792,0,0,1-.83333.82042H2.5a.83417.83417,0,0,1-.83333-.83333v-9.154A.84087.84087,0,0,1,2.5,4.16667H5.89188l.49479-.74209L7.55854,1.66667H12.5M13.33333,0H6.66667L5,2.5H2.5A2.51063,2.51063,0,0,0,0,5.01292v9.15375a2.49931,2.49931,0,0,0,2.5,2.5h15A2.48846,2.48846,0,0,0,20,14.17958V5.02583a2.52166,2.52166,0,0,0-2.5-2.526H15L13.33333,0Z"/><path class="cls-1" d="M10,6.66667a2.5,2.5,0,1,1-2.5,2.5,2.50278,2.50278,0,0,1,2.5-2.5M10,5a4.16667,4.16667,0,1,0,4.16667,4.16667A4.16673,4.16673,0,0,0,10,5Z"/></g></g></svg>