<svg id="레이어_1" data-name="레이어 1" xmlns="http://www.w3.org/2000/svg" viewBox="0 0 51 51" style="enable-background:new 0 0 51 51; transform: translate(0.5px, 0.5px);" width="50px" height="50px"><defs><style>.cls-1{fill:#fff;}.cls-2{fill:#ff4545;}</style></defs><circle class="cls-1" cx="25" cy="25" r="25"/><path class="cls-2" d="M25,2.4A22.6,22.6,0,1,1,2.4,25,22.62558,22.62558,0,0,1,25,2.4M25,0A25,25,0,1,0,50,25,25,25,0,0,0,25,0Z" transform="translate(0 0)"/><path class="cls-2" d="M25,25.698H15.22441a1.57352,1.57352,0,0,1-1.53771-1.23975l-1.65062-7.6043a1.57249,1.57249,0,0,1,.79736-1.7238C15.96643,13.46778,25,13.51147,25,13.51147s9.03357-.04369,12.16656,1.61865a1.57252,1.57252,0,0,1,.79736,1.7238l-1.65062,7.6043A1.57353,1.57353,0,0,1,34.77558,25.698Z" transform="translate(0 0)"/><path class="cls-2" d="M15.36911,26.85775a9.63089,9.63089,0,1,0,19.26178,0ZM25,34.5071a3.26372,3.26372,0,1,1,3.26373-3.26373A3.26372,3.26372,0,0,1,25,34.5071Z" transform="translate(0 0)"/><path class="cls-2" d="M25,29.07242a2.171,2.171,0,1,0,2.171,2.17095A2.171,2.171,0,0,0,25,29.07242Zm0,3.05974a.88878.88878,0,1,1,.88877-.88879A.88879.88879,0,0,1,25,32.13216Z" transform="translate(0 0)"/></svg>