<svg xmlns="http://www.w3.org/2000/svg" viewBox="0 0 40 40"><defs><style>.cls-1{fill:#2468ff;}.cls-2{fill:#ff452c;}</style></defs><g id="레이어_2" data-name="레이어 2"><g id="레이어_1-2" data-name="레이어 1"><rect class="cls-1" x="18.49965" y="0.00018" width="3" height="20"/><path class="cls-2" d="M32,24a7.96153,7.96153,0,0,0-4.49579,1.38342L24,21.87933V18.12091l3.50427-3.50427a8.001,8.001,0,1,0-2.12109-2.1211l-3.464,3.46405L20,15l-1.91962.95984L14.61652,12.496a8.00151,8.00151,0,1,0-2.12122,2.121L16,18.12164v3.757l-3.50464,3.50446a8.00157,8.00157,0,1,0,2.12116,2.121L17.12073,25h5.75781l2.50464,2.50452A7.99959,7.99959,0,1,0,32,24ZM27,8a5,5,0,1,1,5,5,4.93543,4.93543,0,0,1-2.295-.58411l2.42944-2.42944a1.99534,1.99534,0,1,0-2.12085-2.12134L27.584,10.29474A4.93612,4.93612,0,0,1,27,8ZM12.41577,10.29523,9.98645,7.86591A1.99533,1.99533,0,1,0,7.86469,9.98633l2.4298,2.42981A4.93574,4.93574,0,0,1,8,13a5,5,0,1,1,5-5A4.93584,4.93584,0,0,1,12.41577,10.29523ZM8,37A5,5,0,0,1,8,27a4.936,4.936,0,0,1,2.29456.58386L7.86462,30.01367A1.99531,1.99531,0,1,0,9.98651,32.134l2.42926-2.4292A4.93584,4.93584,0,0,1,13,32,5.00565,5.00565,0,0,1,8,37Zm24,0a5.00565,5.00565,0,0,1-5-5,4.93612,4.93612,0,0,1,.584-2.29474l2.42963,2.42951a1.99532,1.99532,0,1,0,2.121-2.12122L29.705,27.58411A4.93543,4.93543,0,0,1,32,27a5,5,0,0,1,0,10Z"/></g></g></svg>