<?xml version="1.0" encoding="UTF-8"?><svg xmlns="http://www.w3.org/2000/svg" viewBox="0 0 36.72089 50"><defs><style>.d{fill:#fff;}.e{fill:#636870;}</style></defs><g id="a"/><g id="b"><g id="c"><g><g><path class="d" d="M18.35827,48.7998c-.08789,0-.25293-.02539-.36621-.19531,0,0-13.99316-20.9707-14.19141-21.26172-.72949-1.07129-1.3291-2.3291-1.7832-3.73828-.43262-1.34082-.69629-2.74414-.78516-4.16992-.02148-.35645-.03223-.71582-.03223-1.07422C1.20007,8.89844,8.89831,1.2002,18.36022,1.2002s17.16016,7.69824,17.16016,17.16016c0,1.58594-.21387,3.15039-.6377,4.65039-.38184,1.35742-.89453,2.58301-1.52148,3.6416-.10449,.17578-.21191,.34863-.32422,.51758l-14.27637,21.37793c-.15039,.22656-.31445,.25195-.40234,.25195Z"/><path class="e" d="M18.36045,2.4c8.80061,0,15.96043,7.15983,15.96043,15.96045,0,1.4748-.1994,2.92986-.59273,4.32486-.35446,1.25744-.82521,2.38628-1.39909,3.35511-.09399,.15866-.19186,.31497-.29384,.46867-.23418,.35301-.47072,.70456-.70724,1.05611l-.54318,.80948-1.05522,1.5808-.30051,.45018-1.07286,1.60724-.53644,.8036-.56111,.84059-1.20215,1.80087-1.15685,1.73306-.66054,.98953-1.772,2.65456-1.62686,2.43718-.19765,.2961-1.18442,1.77431-.59325,.88875-.44434,.66566-.06256,.0937-.23311-.3492-.43315-.6489-.54204-.81203-1.24251-1.86137-.71952-1.07793-.71949-1.07784-.69559-1.04204-.86913-1.30205-1.61961-2.42632-.53458-.80087-1.06919-1.60172-.75854-1.13634-.7586-1.13643-1.05737-1.58405-.30229-.45285-.28233-.42296-.84914-1.27208-.29832-.4494c-.19259-.29092-.38526-.58185-.58142-.8699-.6641-.97527-1.21349-2.12944-1.63292-3.43047-.40205-1.24721-.64719-2.55081-.72858-3.87455-.02032-.33062-.03062-.66745-.03062-1.0011C2.4,9.55983,9.55982,2.4,18.36045,2.4m0-2.4C8.20901,0,0,8.23212,0,18.36045c0,.38301,.01165,.76605,.03515,1.14835,.09318,1.51531,.37396,3.01853,.83983,4.46365,.46088,1.42963,1.08743,2.80258,1.9334,4.04494,.29314,.43047,.57809,.86757,.86736,1.30092l1.13147,1.69505,1.35969,2.03693c.50573,.75758,1.01141,1.51518,1.51714,2.27277,.53457,.80084,1.06918,1.6017,1.60376,2.40256,.53985,.80876,1.07973,1.61755,1.61961,2.42633,.52155,.78134,1.04314,1.5627,1.5647,2.34406,.47965,.71858,.95934,1.43715,1.43899,2.15573l1.24252,1.86139,.97522,1.46097c.21242,.31816,.4248,.63634,.63719,.95453l.22832,.34207c.32455,.48621,.84413,.72931,1.36371,.72931s1.03917-.2431,1.36372-.72931c.03406-.05055,.06764-.10135,.10149-.15202l.59348-.88907,1.0376-1.55443c.46072-.69014,.9214-1.38029,1.38208-2.07043,.54231-.81241,1.08459-1.6248,1.62688-2.43718l1.77199-2.65454c.60579-.90753,1.21162-1.81508,1.81741-2.72264,.58775-.88045,1.17548-1.76094,1.76321-2.6414,.53644-.80362,1.07289-1.60725,1.60931-2.41087l1.35574-2.03099c.41685-.62453,.8392-1.24565,1.25423-1.87128,.12445-.18759,.24396-.37842,.35872-.57213,.72444-1.22296,1.25917-2.56122,1.64424-3.92722,.45593-1.61713,.68275-3.29617,.68275-4.97604C36.72089,8.23215,28.48876,0,18.36045,0h0Z"/></g><g><path class="d" d="M18.35339,26.48047c-3.22559,0-5.91309-2.52441-6.11719-5.74902-.10352-1.63574,.43652-3.21387,1.51953-4.44336,1.08398-1.23047,2.58105-1.96484,4.21777-2.06836,.13184-.00781,.26367-.01172,.39355-.01172,3.22656,0,5.91309,2.52441,6.11719,5.74902,.21289,3.37695-2.35938,6.29785-5.73633,6.51172-.13184,.00781-.26367,.01172-.39453,.01172Z"/><path class="e" d="M18.36744,15.40795c2.59431,0,4.75508,2.03136,4.91919,4.6246,.17191,2.71634-1.89815,5.0661-4.61449,5.23802-.10689,.00676-.21321,.0101-.31885,.0101-2.59428,0-4.75505-2.03137-4.91917-4.62459-.17191-2.71635,1.89814-5.06611,4.61448-5.23801,.10687-.00677,.21321-.01012,.31883-.01012m0-2.39999c-.15585,0-.31271,.00491-.47041,.0149-4.04352,.2559-7.114,3.74128-6.85811,7.78481,.24593,3.88583,3.4743,6.87302,7.31438,6.87302,.15585,0,.31273-.00493,.47043-.01491,4.04353-.25591,7.11401-3.74127,6.85811-7.78481-.24591-3.88583-3.4743-6.87302-7.31439-6.87301h0Z"/></g></g></g></g></svg>