<?xml version="1.0" encoding="UTF-8"?><svg xmlns="http://www.w3.org/2000/svg" viewBox="0 0 36.72089 50"><defs><style>.d{fill:#fff;}.e{fill:#f04242;}</style></defs><g id="a"/><g id="b"><g id="c"><g><g><path class="d" d="M18.35827,48.7998c-.08789,0-.25293-.02539-.36621-.1958,0,0-13.99316-20.9707-14.19141-21.26172-.72949-1.0708-1.3291-2.32861-1.78418-3.73779-.43164-1.34082-.69531-2.74365-.78418-4.16992-.02148-.35693-.03223-.71533-.03223-1.07422C1.20007,8.89795,8.89831,1.20019,18.36022,1.20019s17.16016,7.69775,17.16016,17.16016c0,1.58545-.21387,3.15039-.6377,4.65039-.38184,1.35645-.89355,2.58105-1.52148,3.64111-.10449,.17725-.21191,.34961-.32422,.51855l-14.31348,21.43457c-.11328,.16943-.27734,.19482-.36523,.19482Z"/><path class="e" d="M18.36045,2.4c8.80061,0,15.96043,7.15983,15.96043,15.96045,0,1.4748-.1994,2.92986-.59273,4.32486-.35446,1.25744-.82521,2.38629-1.39909,3.3551-.09399,.15866-.19186,.31497-.29384,.46869-.23405,.35284-.4705,.70422-.70692,1.05561l-.54349,.80994-1.35574,2.031-1.6093,2.41084-.61044,.9145-1.1528,1.72696-1.13631,1.70228-.68108,1.02031-.59067,.88486-1.18134,1.7697-1.62689,2.43719-1.38205,2.07041-.41516,.62195-.62245,.93249-.06253,.09368-.23311-.3492-.55711-.83459-.41809-.62638-1.24249-1.86133-.71952-1.07792-.71947-1.07784-.73648-1.10331-.82826-1.24081-1.61958-2.42627-.89146-1.33548-.71233-1.06713-.75854-1.13634-.75859-1.13641-1.35966-2.03689-.84808-1.27051-.2834-.42455-.29823-.44925c-.19263-.29096-.38532-.58194-.58152-.87005-.66409-.97525-1.21349-2.12944-1.63292-3.43049-.40205-1.24718-.64719-2.55077-.72858-3.87453-.02032-.33062-.03062-.66745-.03062-1.0011C2.4,9.55982,9.55982,2.4,18.36045,2.4m0-2.4C8.20901,0,0,8.23212,0,18.36045c0,.38301,.01165,.76605,.03515,1.14835,.09318,1.51531,.37396,3.01855,.83983,4.46365,.46088,1.42963,1.08743,2.80259,1.9334,4.04494,.29314,.43048,.57809,.86756,.86736,1.30091l1.13147,1.69506,1.35969,2.03692c.50573,.75759,1.01141,1.51519,1.51714,2.27277,.53457,.80084,1.06918,1.60169,1.60376,2.40255,.53985,.80876,1.07973,1.61756,1.61961,2.42632,.52155,.78135,1.04314,1.5627,1.5647,2.34406,.47965,.71859,.95934,1.43715,1.43899,2.15574l1.24252,1.86137,.97522,1.46097c.21242,.31816,.4248,.63635,.63719,.95452l.22832,.34208c.32455,.48621,.84413,.72931,1.36371,.72931s1.03917-.2431,1.36372-.72931c.03406-.05055,.06764-.10135,.10149-.15203l.59348-.88907c.34587-.51813,.69174-1.03629,1.0376-1.55441,.46072-.69015,.9214-1.3803,1.38208-2.07045,.54231-.8124,1.08459-1.62479,1.62688-2.43716l1.77199-2.65455c.60579-.90752,1.21162-1.81509,1.81741-2.72264,.58775-.88045,1.17548-1.76095,1.76321-2.64141,.53644-.80361,1.07289-1.60725,1.60931-2.41086l1.35574-2.03099c.41685-.62454,.8392-1.24566,1.25423-1.87129,.12445-.18759,.24396-.37841,.35872-.57212,.72444-1.22296,1.25917-2.56121,1.64424-3.92721,.45593-1.61712,.68275-3.29618,.68275-4.97604C36.72089,8.23215,28.48876,0,18.36045,0h0Z"/></g><g><path class="d" d="M18.35339,26.48095c-3.22559,0-5.91309-2.52539-6.11719-5.74902-.10352-1.63574,.43652-3.21387,1.51953-4.44385,1.08398-1.22949,2.58105-1.96387,4.21777-2.06738,.13184-.0083,.26367-.0127,.39453-.0127,3.22559,0,5.91211,2.5249,6.11621,5.74854,.21289,3.37646-2.35938,6.29785-5.73633,6.51172-.13184,.0083-.26367,.0127-.39453,.0127Z"/><path class="e" d="M18.36747,15.40795c2.5943,0,4.75505,2.03136,4.91916,4.62459,.17191,2.71635-1.89815,5.06611-4.61449,5.23802-.10689,.00677-.21321,.01011-.31885,.01011-2.59428,0-4.75505-2.03137-4.91917-4.62459-.17191-2.71635,1.89814-5.06611,4.61448-5.23802,.10689-.00677,.21321-.01011,.31886-.01011m-.00002-2.4c-.15585,0-.31273,.00492-.47043,.0149-4.04352,.2559-7.114,3.74128-6.85811,7.78481,.24593,3.88583,3.4743,6.87301,7.31438,6.87301,.15585,0,.31273-.00492,.47043-.0149,4.04353-.2559,7.11401-3.74128,6.85811-7.78481-.24591-3.88583-3.47429-6.87302-7.31438-6.87301h0Z"/></g></g></g></g></svg>