<svg xmlns="http://www.w3.org/2000/svg" viewBox="0 0 16.60229 20"><defs><style>.cls-1{fill:#434751;}</style></defs><g id="레이어_2" data-name="레이어 2"><g id="레이어_1-2" data-name="레이어 1"><path class="cls-1" d="M2.08771,12.0872H14.51457a5.79985,5.79985,0,0,0-1.84435-4.51406L8.30114,3.01041,3.93207,7.52447A5.90986,5.90986,0,0,0,2.08771,12.0872Zm12.0872-6.21344a8.27928,8.27928,0,0,1,2.42738,5.8251,8.39112,8.39112,0,0,1-2.42738,5.87376,8.32035,8.32035,0,0,1-11.74753,0A8.39112,8.39112,0,0,1,0,11.69886a8.27928,8.27928,0,0,1,2.42738-5.8251L8.30114,0Z"/></g></g></svg>