<svg xmlns="http://www.w3.org/2000/svg" viewBox="0 0 11 20"><defs><style>.cls-1{fill:#434751;}</style></defs><g id="레이어_2" data-name="레이어 2"><g id="레이어_1-2" data-name="레이어 1"><path class="cls-1" d="M5.5,0A4.0001,4.0001,0,0,1,9.4951,3.8002L9.5,3.99982,9.501,10.728l.0554.0576a5.48176,5.48176,0,0,1,1.4159,3.1603l.0207.2757L11,14.5A5.5,5.5,0,1,1,1.266,10.989l.17849-.2045L1.499,10.727,1.5,4A4.0005,4.0005,0,0,1,5.0969.02006L5.3004.0049Zm0,2A2.00008,2.00008,0,0,0,3.5055,3.85077L3.5,4,3.49971,11.5931l-.333.2981a3.49995,3.49995,0,1,0,4.8207.1464l-.1533-.1457-.3327-.2981L7.5,4A2,2,0,0,0,5.5,2Zm0,4a1,1,0,0,1,1,1l.0008,5.2084a2.49993,2.49993,0,1,1-2.0006-.0005L4.5,7A1,1,0,0,1,5.5,6Z"/></g></g></svg>