<svg xmlns="http://www.w3.org/2000/svg" viewBox="0 0 11.59615 20"><defs><style>.cls-1{fill:#464e5a;}</style></defs><g id="레이어_2" data-name="레이어 2"><g id="레이어_1-2" data-name="레이어 1"><path class="cls-1" d="M4.1416,0A4.14631,4.14631,0,0,0,0,4.14121L.00005,14.202a5.798,5.798,0,1,0,11.596,0l.00015-10.06061a.82822.82822,0,1,0-1.65643,0L9.93958,14.202a4.14141,4.14141,0,1,1-8.28281,0L1.65662,4.1414a2.48488,2.48488,0,0,1,4.96976-.00019l0,9.2326a.82832.82832,0,0,1-1.65663-.00019L4.97,7.29426a.82839.82839,0,0,0-1.65677,0v6.07964a2.485,2.485,0,0,0,4.97,0L8.283,4.14141A4.14132,4.14132,0,0,0,4.1416,0Z"/></g></g></svg>