<svg xmlns="http://www.w3.org/2000/svg" viewBox="0 0 20 20"><defs><style>.cls-1{fill:#464e5a;}</style></defs><g id="레이어_2" data-name="레이어 2"><g id="레이어_1-2" data-name="레이어 1"><path class="cls-1" d="M10,0A10,10,0,1,0,20,10,10.00038,10.00038,0,0,0,10,0m0,18.18188A8.1817,8.1817,0,1,1,18.182,10,8.182,8.182,0,0,1,10,18.18188"/><path class="cls-1" d="M10.90909,9.62341V4.54553a.909.909,0,1,0-1.818,0V10l.00052.00647a.86.86,0,0,0,.01749.17151.77647.77647,0,0,0,.0235.08044.9313.9313,0,0,0,.02749.0896.96178.96178,0,0,0,.04752.08948.66936.66936,0,0,0,.0365.067.85056.85056,0,0,0,.11349.1394l2.571,2.571a.909.909,0,1,0,1.28552-1.28553Z"/></g></g></svg>