<?xml version="1.0" encoding="UTF-8"?><svg xmlns="http://www.w3.org/2000/svg" viewBox="0 0 36.72089 50"><defs><style>.d{fill:#fff;}.e{fill:#636870;}</style></defs><g id="a"/><g id="b"><g id="c"><g><path class="e" d="M34.3939,27.2637c-.11476,.19371-.23427,.38454-.35871,.57213-.41503,.62563-.83737,1.24676-1.25423,1.87128-.45192,.67701-.90383,1.35402-1.35574,2.03099l-1.6093,2.41087c-.58775,.88046-1.17547,1.76095-1.76321,2.64141-.6058,.90755-1.21162,1.8151-1.81742,2.72263-.59066,.88486-1.18132,1.76972-1.77198,2.65455-.54228,.81238-1.08456,1.62477-1.62687,2.43717-.46069,.69015-.92137,1.3803-1.38208,2.07044l-1.03761,1.55442-.59347,.88907c-.03384,.05067-.06743,.10148-.10148,.15202-.64911,.97242-2.07832,.97242-2.72743,0l-.22833-.34207c-.21239-.31819-.42477-.63637-.63718-.95453-.32509-.48699-.65016-.97398-.97522-1.46097l-1.24252-1.86138c-.47965-.71859-.95933-1.43715-1.43899-2.15574-.52156-.78135-1.04314-1.5627-1.5647-2.34405-.53988-.80877-1.07976-1.61756-1.61961-2.42633-.53459-.80086-1.06918-1.60172-1.60377-2.40255-.50572-.75758-1.01141-1.51518-1.51713-2.27277-.45324-.67898-.90647-1.35795-1.35968-2.03693l-1.13149-1.69505c-.28926-.43335-.5742-.87045-.86735-1.30091-.84598-1.24236-1.47252-2.61532-1.9334-4.04494-.46586-1.44511-.74665-2.94834-.83982-4.46366-.0235-.3823-.03516-.76532-.03516-1.14835C0,8.23213,8.20901,0,18.36045,0c10.12832,0,18.36045,8.23216,18.36045,18.36045,0,1.67987-.22682,3.35892-.68276,4.97604-.38507,1.36599-.9198,2.70425-1.64424,3.92721Z"/><circle class="d" cx="18.36038" cy="20.34432" r="7.3361"/></g></g></g></svg>