<svg xmlns="http://www.w3.org/2000/svg" xmlns:xlink="http://www.w3.org/1999/xlink" viewBox="0 0 20 20"><defs><style>.cls-1,.cls-3{fill:#fff;}.cls-2{fill:#177848;}.cls-3,.cls-4,.cls-6{isolation:isolate;}.cls-3{opacity:0.2;}.cls-4{opacity:0.1;}.cls-5{fill:url(#무제_그라디언트_4);}.cls-6{opacity:0.05;fill:url(#무제_그라디언트_2);}.cls-7{fill:url(#무제_그라디언트_3);}</style><linearGradient id="무제_그라디언트_4" x1="7.91667" y1="-184.25" x2="19.46136" y2="-195.7947" gradientTransform="matrix(1, 0, 0, -1, 0, -178)" gradientUnits="userSpaceOnUse"><stop offset="0" stop-opacity="0.1"/><stop offset="1" stop-opacity="0"/></linearGradient><linearGradient id="무제_그라디언트_2" x1="-237.84239" y1="-519.4616" x2="-237.65106" y2="-519.4616" gradientTransform="matrix(60.97561, 0, 0, -60.97561, 14502.5846, -31664.48716)" gradientUnits="userSpaceOnUse"><stop offset="0" stop-color="#fff"/><stop offset="1"/></linearGradient><linearGradient id="무제_그라디언트_3" x1="-1.30288" y1="-182.96794" x2="20.87116" y2="-193.30787" gradientTransform="matrix(1, 0, 0, -1, 0, -178)" gradientUnits="userSpaceOnUse"><stop offset="0" stop-color="#fff" stop-opacity="0.2"/><stop offset="1" stop-color="#fff" stop-opacity="0"/></linearGradient></defs><g id="레이어_2" data-name="레이어 2"><g id="레이어_1-2" data-name="레이어 1"><rect class="cls-1" x="10" y="2.91667" width="9.58333" height="14.16667"/><path class="cls-2" d="M19.58333,17.5H11.25a.41667.41667,0,1,1,0-.83333h7.91667V3.33333H11.25a.41667.41667,0,1,1,0-.83333h8.33333A.41643.41643,0,0,1,20,2.91667V17.08333A.41643.41643,0,0,1,19.58333,17.5Z"/><polygon class="cls-2" points="11.667 0 0 2.174 0 17.826 11.667 20 11.667 0"/><polygon class="cls-3" points="0 2.174 0 2.382 11.667 0.208 11.667 0 0 2.174"/><rect class="cls-2" x="10.83333" y="4.16667" width="3.33333" height="1.66667"/><rect class="cls-2" x="15" y="4.16667" width="3.33333" height="1.66667"/><rect class="cls-2" x="10.83333" y="6.66667" width="3.33333" height="1.66667"/><rect class="cls-2" x="15" y="6.66667" width="3.33333" height="1.66667"/><rect class="cls-2" x="10.83333" y="9.16667" width="3.33333" height="1.66667"/><rect class="cls-2" x="15" y="9.16667" width="3.33333" height="1.66667"/><rect class="cls-2" x="10.83333" y="11.66667" width="3.33333" height="1.66667"/><rect class="cls-2" x="15" y="11.66667" width="3.33333" height="1.66667"/><rect class="cls-2" x="10.83333" y="14.16667" width="3.33333" height="1.66667"/><rect class="cls-2" x="15" y="14.16667" width="3.33333" height="1.66667"/><polygon class="cls-4" points="0 17.826 11.667 20 11.667 19.792 0 17.618 0 17.826"/><path class="cls-5" d="M19.58333,17.5A.41643.41643,0,0,0,20,17.08333v-6.25L11.66667,2.5v15Z"/><polygon class="cls-1" points="6.131 10.417 8.046 6.97 8.022 6.957 6.566 7.061 5.417 9.13 4.355 7.219 2.98 7.317 4.702 10.417 2.98 13.516 4.355 13.615 5.417 11.703 6.566 13.773 8.022 13.877 8.046 13.863 6.131 10.417"/><path class="cls-6" d="M11.66667,0,0,2.17391V17.82609L11.66667,20Z"/><path class="cls-7" d="M19.58333,2.5H11.66667V0L0,2.17392V17.82608L11.66667,20V17.5h7.91666A.41643.41643,0,0,0,20,17.08333V2.91667A.41643.41643,0,0,0,19.58333,2.5Z"/></g></g></svg>