<?xml version="1.0" encoding="utf-8"?>
<!-- Generator: Adobe Illustrator 25.1.0, SVG Export Plug-In . SVG Version: 6.00 Build 0)  -->
<svg version="1.1" id="레이어_1" xmlns="http://www.w3.org/2000/svg" xmlns:xlink="http://www.w3.org/1999/xlink" x="0px"
	 y="0px" viewBox="0 0 20 20" style="enable-background:new 0 0 20 20;" xml:space="preserve">
<style type="text/css">
	.st0{fill:url(#SVGID_1_);fill-opacity:0.8;}
	.st1{opacity:0.04;fill:url(#SVGID_2_);enable-background:new    ;}
	.st2{fill:url(#prefix__c_1_);}
	.st3{filter:url(#Adobe_OpacityMaskFilter);}
	.st4{fill-rule:evenodd;clip-rule:evenodd;fill:#FFFFFF;}
	.st5{mask:url(#prefix__f_1_);}
	.st6{fill:url(#SVGID_3_);}
	.st7{opacity:0.5;fill:url(#SVGID_4_);enable-background:new    ;}
	.st8{fill:url(#SVGID_5_);}
	.st9{opacity:0.5;fill:url(#SVGID_6_);enable-background:new    ;}
</style>
<g>
	
		<linearGradient id="SVGID_1_" gradientUnits="userSpaceOnUse" x1="-434.9641113" y1="455.6528931" x2="-434.8941345" y2="455.6034546" gradientTransform="matrix(105.9991989 0 0 -75.9996185 46109.6484375 34636.8242188)">
		<stop  offset="0.01198" style="stop-color:#8F9197"/>
		<stop  offset="1" style="stop-color:#575B60"/>
	</linearGradient>
	<path class="st0" d="M9.3025036,3.7337351C7.0927253,3.5297616,5.0067453,4.7712879,4.1613755,6.7939925h-0.691571
		C2.5305045,6.7985778,1.6327332,7.1765246,0.9798082,7.842288C0.3270144,8.5080509-0.0257799,9.4051676,0.001469,10.3305807
		c0.0529252,1.8370714,1.6992548,3.337594,3.5646234,3.337594h5.2636166
		c2.6997337,0.002882,4.9244471-2.0868969,5.0509968-4.7448406c0.1264181-2.6576819-1.8901281-4.9435735-4.5783348-5.189599
		H9.3025036z"/>
	
		<linearGradient id="SVGID_2_" gradientUnits="userSpaceOnUse" x1="-433.7574463" y1="455.6707458" x2="-433.7209473" y2="455.6351929" gradientTransform="matrix(77 0 0 -76 33405 34637)">
		<stop  offset="0" style="stop-color:#FFFFFF"/>
		<stop  offset="1" style="stop-color:#FFFFFF;stop-opacity:0"/>
	</linearGradient>
	<ellipse class="st1" cx="8.4497967" cy="8.6900158" rx="5.0436606" ry="4.9781585"/>
	<g transform="translate(42 28)">
		<g>
			
				<linearGradient id="prefix__c_1_" gradientUnits="userSpaceOnUse" x1="-475.7428589" y1="427.5808411" x2="-475.784668" y2="427.6226501" gradientTransform="matrix(77.7514877 0 0 -77.7524948 36959.4648438 33227.8320312)">
				<stop  offset="0" style="stop-color:#7FAAFF"/>
				<stop  offset="1" style="stop-color:#7ABEF5"/>
			</linearGradient>
			<path id="prefix__c_5_" class="st2" d="M-37.3725128-19.6149616c1.5584259,0.0002613,3.0331421-0.7050648,4.0113487-1.9182949
				c0.9778137-1.2132282,1.3541908-2.8040123,1.0231438-4.3269367c2.5047989,0.5426197,4.2298622,2.844101,4.0477657,5.4003849
				c-0.1820965,2.5565472-2.2158051,4.5902557-4.7723522,4.7723513c-2.5561523,0.1820965-4.8576355-1.5429659-5.4002533-4.0477667
				C-38.1046944-19.6566219-37.739193-19.6164017-37.3725128-19.6149616z"/>
		</g>
		<defs>
			
				<filter id="Adobe_OpacityMaskFilter" filterUnits="userSpaceOnUse" x="-38.2037239" y="-21.9300995" width="16.2037239" height="11.7834644">
				<feColorMatrix  type="matrix" values="1 0 0 0 0  0 1 0 0 0  0 0 1 0 0  0 0 0 1 0"/>
			</filter>
		</defs>
		<mask maskUnits="userSpaceOnUse" x="-38.2037239" y="-21.9300995" width="16.2037239" height="11.7834644" id="prefix__f_1_">
			<g class="st3">
				<path id="prefix__c_2_" class="st4" d="M-37.3725128-19.6149616c1.5584259,0.0002613,3.0331421-0.7050648,4.0113487-1.9182949
					c0.9778137-1.2132282,1.3541908-2.8040123,1.0231438-4.3269367c2.5047989,0.5426197,4.2298622,2.844101,4.0477657,5.4003849
					c-0.1820965,2.5565472-2.2158051,4.5902557-4.7723522,4.7723513c-2.5561523,0.1820965-4.8576355-1.5429659-5.4002533-4.0477667
					C-38.1046944-19.6566219-37.739193-19.6164017-37.3725128-19.6149616z"/>
			</g>
		</mask>
		<g class="st5">
			<g transform="translate(1.978 30)">
				
					<linearGradient id="SVGID_3_" gradientUnits="userSpaceOnUse" x1="-479.6268311" y1="398.5828552" x2="-479.6812439" y2="398.622406" gradientTransform="matrix(123.6885986 0 0 -89.9463577 59299.8710938 35809.3828125)">
					<stop  offset="0" style="stop-color:#BEBFC4;stop-opacity:0.3"/>
					<stop  offset="0.55" style="stop-color:#BEBFC4;stop-opacity:0.69"/>
					<stop  offset="1" style="stop-color:#BEBFC4"/>
				</linearGradient>
				<path class="st6" d="M-29.0131035-51.8653526c-2.676939-0.3990364-5.2813034,1.0771179-6.3137474,3.5789032h-0.8139267
					c-1.1796951,0.0085144-2.2978134,0.5284729-3.0643196,1.4253273c-0.7666359,0.8964615-1.1065941,2.0817871-0.931572,3.2485085
					c0.2764206,1.9113541,2.1458511,3.465847,4.076458,3.465847h6.1780262
					c3.0893402,0.0069427,5.65938-2.3739281,5.8878517-5.4550133c0.2283401-3.0806923-1.9621811-5.8147507-5.0189018-6.2634392
					L-29.0131035-51.8653526z"/>
				
					<linearGradient id="SVGID_4_" gradientUnits="userSpaceOnUse" x1="-478.855011" y1="398.6826172" x2="-478.8121643" y2="398.6397705" gradientTransform="matrix(89.9300003 0 0 -89.9300003 43028.8671875 35802.8085938)">
					<stop  offset="0" style="stop-color:#FFFFFF"/>
					<stop  offset="1" style="stop-color:#FFFFFF;stop-opacity:0"/>
				</linearGradient>
				<circle class="st7" cx="-29.8823166" cy="-46.0372391" r="5.8906026"/>
			</g>
		</g>
	</g>
	<g transform="translate(43 58)">
		
			<linearGradient id="SVGID_5_" gradientUnits="userSpaceOnUse" x1="-478.6628723" y1="398.5987549" x2="-478.7368774" y2="398.6519775" gradientTransform="matrix(123.8051453 0 0 -89.9990234 59235.078125 35830.6054688)">
			<stop  offset="0" style="stop-color:#D1D1D1"/>
			<stop  offset="1" style="stop-color:#D4D6DD"/>
		</linearGradient>
		<path class="st8" d="M-28.1526146-51.8652191c-2.6794281-0.3994331-5.2862816,1.077507-6.3197708,3.5808678h-0.8145866
			c-1.1808701,0.0085144-2.3000374,0.528862-3.0673294,1.4261093c-0.7674217,0.8972473-1.1076431,2.0832291-0.9324875,3.2506065
			c0.2768097,1.912529,2.1479416,3.4678116,4.0803871,3.4678116h6.1837883
			c3.0922241,0.0070763,5.6646214-2.3753662,5.8933544-5.4580269
			C-22.900526-48.6805077-25.0931435-51.4161377-28.1526146-51.8652191z"/>
		
			<linearGradient id="SVGID_6_" gradientUnits="userSpaceOnUse" x1="-477.8658142" y1="398.6898499" x2="-477.8137512" y2="398.6257629" gradientTransform="matrix(90.0139999 0 0 -89.9820023 42981.4335938 35823.765625)">
			<stop  offset="0" style="stop-color:#FFFFFF;stop-opacity:0.6"/>
			<stop  offset="1" style="stop-color:#FFFFFF;stop-opacity:0"/>
		</linearGradient>
		<ellipse class="st9" cx="-29.0226135" cy="-46.0338326" rx="5.8961053" ry="5.8940091"/>
	</g>
</g>
</svg>
