<?xml version="1.0" encoding="UTF-8"?><svg id="_이어_2" xmlns="http://www.w3.org/2000/svg" viewBox="0 0 17.14286 20"><defs><style>.cls-1{fill:#677180;}</style></defs><g id="_이어_1-2"><path class="cls-1" d="M1,20h15.14286c.54911,0,1-.44196,1-.98661V9.55357c0-.54464-.44643-.98214-1-.98214h-.96429v-1.37946c0-1.85268-.72321-3.91071-1.90179-5.15179-1.17411-1.24107-2.85714-2.04018-4.70089-2.04018h-.00893c-1.84375,0-3.52679,.79911-4.70089,2.03571-1.17857,1.24107-1.90179,3.29911-1.90179,5.15179v1.38393h-.96429c-.55357,0-1,.44196-1,.98214v9.45982c0,.54464,.44643,.98661,1,.98661ZM4.33036,7.19196c0-1.21875,.44196-2.72768,1.25446-3.58482h0v-.01339c.78571-.83036,1.87054-1.31696,2.98214-1.31696h.00893c1.11161,0,2.19643,.48661,2.98214,1.31696v.00893l-.00446,.00446c.81696,.85714,1.25446,2.36607,1.25446,3.58482v1.37946H4.33036v-1.37946Z"/></g></svg>