<?xml version="1.0" encoding="utf-8"?>
<!-- Generator: Adobe Illustrator 25.1.0, SVG Export Plug-In . SVG Version: 6.00 Build 0)  -->
<svg version="1.1" id="레이어_1" xmlns="http://www.w3.org/2000/svg" xmlns:xlink="http://www.w3.org/1999/xlink" x="0px"
	 y="0px" viewBox="0 0 20 20" style="enable-background:new 0 0 20 20;" xml:space="preserve">
<style type="text/css">
	.st0{fill:url(#SVGID_1_);}
	.st1{fill:url(#SVGID_2_);}
	.st2{opacity:0.6;fill:url(#SVGID_3_);enable-background:new    ;}
	.st3{fill:url(#SVGID_4_);}
	.st4{fill:url(#SVGID_5_);}
	.st5{opacity:0.1;fill:url(#SVGID_6_);enable-background:new    ;}
	.st6{opacity:0.06;fill:url(#SVGID_7_);enable-background:new    ;}
	.st7{fill:url(#SVGID_8_);}
	.st8{fill:url(#SVGID_9_);}
	.st9{opacity:0.6;fill:url(#SVGID_10_);enable-background:new    ;}
	.st10{fill:url(#prefix__k_3_);fill-opacity:0;}
	.st11{filter:url(#Adobe_OpacityMaskFilter);}
	.st12{fill-rule:evenodd;clip-rule:evenodd;fill:#FFFFFF;}
	.st13{mask:url(#prefix__l_1_);}
	.st14{fill:url(#prefix__n_2_);}
	.st15{fill:url(#SVGID_11_);}
</style>
<g>
	<g transform="translate(20 18.45) translate(0 2.55)">
		
			<linearGradient id="SVGID_1_" gradientUnits="userSpaceOnUse" x1="-402.2977905" y1="431.9829407" x2="-402.2977905" y2="432.1425781" gradientTransform="matrix(6 0 0 -46 2407.5 19866.5292969)">
			<stop  offset="0" style="stop-color:#61ADFF;stop-opacity:0.6"/>
			<stop  offset="0" style="stop-color:#61ADFF;stop-opacity:0.6"/>
			<stop  offset="0.11" style="stop-color:#5DA9FF;stop-opacity:0.73"/>
			<stop  offset="0.23" style="stop-color:#5AA6FF;stop-opacity:0.83"/>
			<stop  offset="0.36" style="stop-color:#57A4FF;stop-opacity:0.9"/>
			<stop  offset="0.5" style="stop-color:#55A2FF;stop-opacity:0.96"/>
			<stop  offset="0.68" style="stop-color:#54A1FF;stop-opacity:0.99"/>
			<stop  offset="1" style="stop-color:#54A1FF"/>
		</linearGradient>
		<path class="st0" d="M-6.2867289-11.5497084c0.2218218,0,0.40311,0.1733761,0.4157424,0.392004l0.0006938,0.0244312v5.5524788
			c0,0.230011-0.1864252,0.4164357-0.4164362,0.4164357c-0.2218213,0-0.4031096-0.1733761-0.4157419-0.3920045l-0.0006938-0.0244312
			v-5.5524788C-6.7031646-11.3632841-6.5167398-11.5497084-6.2867289-11.5497084z"/>
		
			<linearGradient id="SVGID_2_" gradientUnits="userSpaceOnUse" x1="-400.2883606" y1="433.7353516" x2="-400.2883606" y2="433.8895874" gradientTransform="matrix(6 0 0 -60 2393.5 26020.5292969)">
			<stop  offset="0" style="stop-color:#61ADFF;stop-opacity:0.6"/>
			<stop  offset="0" style="stop-color:#61ADFF;stop-opacity:0.6"/>
			<stop  offset="0.11" style="stop-color:#5DA9FF;stop-opacity:0.73"/>
			<stop  offset="0.23" style="stop-color:#5AA6FF;stop-opacity:0.83"/>
			<stop  offset="0.36" style="stop-color:#57A4FF;stop-opacity:0.9"/>
			<stop  offset="0.5" style="stop-color:#55A2FF;stop-opacity:0.96"/>
			<stop  offset="0.68" style="stop-color:#54A1FF;stop-opacity:0.99"/>
			<stop  offset="1" style="stop-color:#54A1FF"/>
		</linearGradient>
		<path class="st1" d="M-8.2300959-12.3825808c0.2218208,0,0.4031096,0.1733761,0.4157419,0.3920059l0.0006938,0.0244303v7.4958458
			c0,0.230011-0.1864247,0.4164357-0.4164357,0.4164357c-0.2218218,0-0.4031105-0.1733761-0.4157429-0.3920045l-0.0006933-0.0244312
			v-7.4958458C-8.6465321-12.1961565-8.4601068-12.3825808-8.2300959-12.3825808z"/>
		
			<linearGradient id="SVGID_3_" gradientUnits="userSpaceOnUse" x1="-400.2883606" y1="422.494751" x2="-400.2883606" y2="422.7029724" gradientTransform="matrix(6 0 0 -18 2393.5 7604.5297852)">
			<stop  offset="0" style="stop-color:#61ADFF;stop-opacity:0.6"/>
			<stop  offset="0" style="stop-color:#61ADFF;stop-opacity:0.6"/>
			<stop  offset="0.11" style="stop-color:#5DA9FF;stop-opacity:0.73"/>
			<stop  offset="0.23" style="stop-color:#5AA6FF;stop-opacity:0.83"/>
			<stop  offset="0.36" style="stop-color:#57A4FF;stop-opacity:0.9"/>
			<stop  offset="0.5" style="stop-color:#55A2FF;stop-opacity:0.96"/>
			<stop  offset="0.68" style="stop-color:#54A1FF;stop-opacity:0.99"/>
			<stop  offset="1" style="stop-color:#54A1FF"/>
		</linearGradient>
		<path class="st2" d="M-8.2300959-3.498615c0.2218208,0,0.4031096,0.1733761,0.4157414,0.392005l0.0006943,0.0244308v1.6657436
			C-7.8136601-1.1864243-8.0000849-1-8.2300959-1c-0.2218218,0-0.4031105-0.1733762-0.4157419-0.3920048l-0.0006943-0.0244309
			v-1.6657436C-8.6465321-3.3121905-8.4601078-3.498615-8.2300959-3.498615z"/>
		
			<linearGradient id="SVGID_4_" gradientUnits="userSpaceOnUse" x1="-396.2694702" y1="433.5745239" x2="-396.2694702" y2="433.730011" gradientTransform="matrix(6 0 0 -56 2365.5 24278.5292969)">
			<stop  offset="0" style="stop-color:#61ADFF;stop-opacity:0.6"/>
			<stop  offset="0" style="stop-color:#61ADFF;stop-opacity:0.6"/>
			<stop  offset="0.11" style="stop-color:#5DA9FF;stop-opacity:0.73"/>
			<stop  offset="0.23" style="stop-color:#5AA6FF;stop-opacity:0.83"/>
			<stop  offset="0.36" style="stop-color:#57A4FF;stop-opacity:0.9"/>
			<stop  offset="0.5" style="stop-color:#55A2FF;stop-opacity:0.96"/>
			<stop  offset="0.68" style="stop-color:#54A1FF;stop-opacity:0.99"/>
			<stop  offset="1" style="stop-color:#54A1FF"/>
		</linearGradient>
		<path class="st3" d="M-12.1168308-9.8839655c0.2218218,0,0.4031096,0.1733761,0.4157419,0.392005l0.0006943,0.0244312v6.9405975
			c0,0.230011-0.1864243,0.416436-0.4164362,0.416436c-0.2218218,0-0.4031096-0.1733751-0.4157419-0.3920057l-0.0006943-0.0244303
			v-6.9405975C-12.533267-9.6975403-12.3468428-9.8839655-12.1168308-9.8839655z"/>
		
			<linearGradient id="SVGID_5_" gradientUnits="userSpaceOnUse" x1="-455.9017029" y1="435.2972412" x2="-455.8337402" y2="435.2524414" gradientTransform="matrix(136.5147247 0 0 -90.0271683 62221.75 39172.9570312)">
			<stop  offset="0" style="stop-color:#888A8F"/>
			<stop  offset="1" style="stop-color:#68686B"/>
		</linearGradient>
		<path class="st4" d="M-5.308104-17.3062401h-0.0499725c-0.9212947-2.189064-3.1529756-3.5306816-5.5184693-3.3171902
			c-2.3653555,0.2133541-4.3209391,1.9326801-4.835515,4.2513943c-2.1964207,0.1897564-3.8535576,2.0757942-3.7590275,4.2783232
			c0.0943928,2.202529,1.9068604,3.9399004,4.1116104,3.940733h10.0583134
			c1.6817067,0.0717659,3.2672174-0.784565,4.1293774-2.2300148c0.8623006-1.4455872,0.8623006-3.2476444,0-4.6932325
			c-0.8621608-1.4454479-2.4476705-2.3017788-4.1293783-2.2300129h-0.0069408H-5.308104z"/>
		
			<linearGradient id="SVGID_6_" gradientUnits="userSpaceOnUse" x1="-453.9137573" y1="434.6739502" x2="-453.8721313" y2="434.5771484" gradientTransform="matrix(78.5812531 0 0 -78.5810318 35656.453125 34136.6523438)">
			<stop  offset="0" style="stop-color:#FFFFFF"/>
			<stop  offset="1" style="stop-color:#FFFFFF;stop-opacity:0"/>
		</linearGradient>
		<path class="st5" d="M-4.9347005-15.1921339c0,2.2065544-1.3295412,4.1957293-3.3684106,5.0394287
			c-2.0388708,0.8437004-4.3852091,0.3759031-5.9444838-1.1854534c-1.5592747-1.5612183-2.0241547-3.9081125-1.1778193-5.9458723
			c0.8463373-2.0377598,2.8373165-3.3648014,5.0437326-3.3620243C-7.3719606-20.6430016-4.933867-18.2018547-4.9347005-15.1921339z"
			/>
		
			<linearGradient id="SVGID_7_" gradientUnits="userSpaceOnUse" x1="-453.5375977" y1="433.9598083" x2="-453.4927979" y2="433.9150391" gradientTransform="matrix(65.9400024 0 0 -65.9400024 29897.0410156 28598.6601562)">
			<stop  offset="0" style="stop-color:#FFFFFF"/>
			<stop  offset="1" style="stop-color:#FFFFFF;stop-opacity:0"/>
		</linearGradient>
		<circle class="st6" cx="-5.308104" cy="-12.7296104" r="4.5766306"/>
		
			<linearGradient id="SVGID_8_" gradientUnits="userSpaceOnUse" x1="-398.2789001" y1="434.8478699" x2="-398.2789001" y2="434.9989319" gradientTransform="matrix(6 0 0 -74 2379.5 32176.5292969)">
			<stop  offset="0" style="stop-color:#61ADFF;stop-opacity:0.6"/>
			<stop  offset="0" style="stop-color:#61ADFF;stop-opacity:0.6"/>
			<stop  offset="0.11" style="stop-color:#5DA9FF;stop-opacity:0.73"/>
			<stop  offset="0.23" style="stop-color:#5AA6FF;stop-opacity:0.83"/>
			<stop  offset="0.36" style="stop-color:#57A4FF;stop-opacity:0.9"/>
			<stop  offset="0.5" style="stop-color:#55A2FF;stop-opacity:0.96"/>
			<stop  offset="0.68" style="stop-color:#54A1FF;stop-opacity:0.99"/>
			<stop  offset="1" style="stop-color:#54A1FF"/>
		</linearGradient>
		<path class="st7" d="M-10.1734638-12.9378281c0.2218218,0,0.4031105,0.1733761,0.4157429,0.392005l0.0006933,0.0244303v9.4392138
			c0,0.230011-0.1864252,0.4164357-0.4164362,0.4164357c-0.2218208,0-0.4031096-0.1733751-0.4157419-0.3920045l-0.0006933-0.0244312
			v-9.4392138C-10.5898991-12.7514038-10.4034748-12.9378281-10.1734638-12.9378281z"/>
		
			<linearGradient id="SVGID_9_" gradientUnits="userSpaceOnUse" x1="-394.2600403" y1="429.5062561" x2="-394.2600403" y2="429.6737671" gradientTransform="matrix(6 0 0 -35 2351.5 15026.5302734)">
			<stop  offset="0" style="stop-color:#61ADFF;stop-opacity:0.6"/>
			<stop  offset="0" style="stop-color:#61ADFF;stop-opacity:0.6"/>
			<stop  offset="0.11" style="stop-color:#5DA9FF;stop-opacity:0.73"/>
			<stop  offset="0.23" style="stop-color:#5AA6FF;stop-opacity:0.83"/>
			<stop  offset="0.36" style="stop-color:#57A4FF;stop-opacity:0.9"/>
			<stop  offset="0.5" style="stop-color:#55A2FF;stop-opacity:0.96"/>
			<stop  offset="0.68" style="stop-color:#54A1FF;stop-opacity:0.99"/>
			<stop  offset="1" style="stop-color:#54A1FF"/>
		</linearGradient>
		<path class="st8" d="M-14.0601978-11.5497084c0.2218208,0,0.4031096,0.1733761,0.415741,0.392004l0.0006943,0.0244312v4.025547
			c0,0.230011-0.1864243,0.4164357-0.4164352,0.4164357c-0.2218218,0-0.4031105-0.1733761-0.4157419-0.3920045l-0.0006943-0.0244312
			v-4.025547C-14.476634-11.3632841-14.2902098-11.5497084-14.0601978-11.5497084z"/>
		
			<linearGradient id="SVGID_10_" gradientUnits="userSpaceOnUse" x1="-394.2600403" y1="416.35672" x2="-394.2600403" y2="416.5996399" gradientTransform="matrix(6 0 0 -14 2351.5 5825.5297852)">
			<stop  offset="0" style="stop-color:#61ADFF;stop-opacity:0.6"/>
			<stop  offset="0" style="stop-color:#61ADFF;stop-opacity:0.6"/>
			<stop  offset="0.11" style="stop-color:#5DA9FF;stop-opacity:0.73"/>
			<stop  offset="0.23" style="stop-color:#5AA6FF;stop-opacity:0.83"/>
			<stop  offset="0.36" style="stop-color:#57A4FF;stop-opacity:0.9"/>
			<stop  offset="0.5" style="stop-color:#55A2FF;stop-opacity:0.96"/>
			<stop  offset="0.68" style="stop-color:#54A1FF;stop-opacity:0.99"/>
			<stop  offset="1" style="stop-color:#54A1FF"/>
		</linearGradient>
		<path class="st9" d="M-14.0601978-6.1360426c0.2218208,0,0.4031096,0.1733766,0.415741,0.392005l0.0006943,0.0244312v1.1104956
			c0,0.230011-0.1864243,0.4164357-0.4164352,0.4164357c-0.2218218,0-0.4031105-0.1733761-0.4157419-0.3920045l-0.0006943-0.0244312
			v-1.1104956C-14.476634-5.9496174-14.2902098-6.1360426-14.0601978-6.1360426z"/>
		<g>
			
				<linearGradient id="prefix__k_3_" gradientUnits="userSpaceOnUse" x1="-455.9017029" y1="435.2972412" x2="-455.8337402" y2="435.2524414" gradientTransform="matrix(136.5147247 0 0 -90.0271683 62221.75 39172.9570312)">
				<stop  offset="0" style="stop-color:#888A8F"/>
				<stop  offset="1" style="stop-color:#68686B"/>
			</linearGradient>
			<path id="prefix__k_1_" class="st10" d="M-5.308104-17.3062401h-0.0499725
				c-0.9212947-2.189064-3.1529756-3.5306816-5.5184693-3.3171902c-2.3653555,0.2133541-4.3209391,1.9326801-4.835515,4.2513943
				c-2.1964207,0.1897564-3.8535576,2.0757942-3.7590275,4.2783232c0.0943928,2.202529,1.9068604,3.9399004,4.1116104,3.940733
				h10.0583134c1.6817067,0.0717659,3.2672174-0.784565,4.1293774-2.2300148c0.8623006-1.4455872,0.8623006-3.2476444,0-4.6932325
				c-0.8621608-1.4454479-2.4476705-2.3017788-4.1293783-2.2300129h-0.0069408H-5.308104z"/>
		</g>
		<defs>
			<filter id="Adobe_OpacityMaskFilter" filterUnits="userSpaceOnUse" x="-6.7194858" y="-21" width="5.5995407" height="7.782793">
				<feColorMatrix  type="matrix" values="1 0 0 0 0  0 1 0 0 0  0 0 1 0 0  0 0 0 1 0"/>
			</filter>
		</defs>
		<mask maskUnits="userSpaceOnUse" x="-6.7194858" y="-21" width="5.5995407" height="7.782793" id="prefix__l_1_">
			<g class="st11">
				<path id="prefix__k_2_" class="st12" d="M-5.308104-17.3062401h-0.0499725
					c-0.9212947-2.189064-3.1529756-3.5306816-5.5184693-3.3171902c-2.3653555,0.2133541-4.3209391,1.9326801-4.835515,4.2513943
					c-2.1964207,0.1897564-3.8535576,2.0757942-3.7590275,4.2783232c0.0943928,2.202529,1.9068604,3.9399004,4.1116104,3.940733
					h10.0583134c1.6817067,0.0717659,3.2672174-0.784565,4.1293774-2.2300148c0.8623006-1.4455872,0.8623006-3.2476444,0-4.6932325
					c-0.8621608-1.4454479-2.4476705-2.3017788-4.1293783-2.2300129h-0.0069408H-5.308104z"/>
			</g>
		</mask>
		<g class="st13">
			<g>
				<path id="prefix__n" d="M-2.1473563-20.9833698l-4.5585842,4.5544205
					c-0.0134649,0.0147152-0.0173516,0.0360909-0.0095782,0.054554c0.0077734,0.0186005,0.0256801,0.0308151,0.0456696,0.0315094
					h2.5957832l-1.4866762,3.0538635c-0.0105491,0.0216541-0.0041642,0.0477514,0.0152698,0.0620489
					c0.0194335,0.0142975,0.0462241,0.0127707,0.0638533-0.0037479l4.3462019-4.1352091
					c0.0145746-0.0138798,0.0194336-0.0352573,0.0120775-0.0541363s-0.0252647-0.0313702-0.045391-0.0319271h-2.0918972
					l1.1965594-3.4786263c0.0094395-0.0224876,0.0013885-0.048584-0.0192947-0.0616322
					C-2.1040463-21.0053024-2.1311147-21.0015545-2.1473563-20.9833698z"/>
			</g>
			<g>
				
					<linearGradient id="prefix__n_2_" gradientUnits="userSpaceOnUse" x1="-450.5148621" y1="432.4477844" x2="-450.4804077" y2="432.3999023" gradientTransform="matrix(40.339035 0 0 -56.0671654 18169 24228.0039062)">
					<stop  offset="0.15" style="stop-color:#2CE1F4"/>
					<stop  offset="1" style="stop-color:#10BFE6"/>
				</linearGradient>
				<path id="prefix__n_1_" class="st14" d="M-2.1473563-20.9833698l-4.5585842,4.5544205
					c-0.0134649,0.0147152-0.0173516,0.0360909-0.0095782,0.054554c0.0077734,0.0186005,0.0256801,0.0308151,0.0456696,0.0315094
					h2.5957832l-1.4866762,3.0538635c-0.0105491,0.0216541-0.0041642,0.0477514,0.0152698,0.0620489
					c0.0194335,0.0142975,0.0462241,0.0127707,0.0638533-0.0037479l4.3462019-4.1352091
					c0.0145746-0.0138798,0.0194336-0.0352573,0.0120775-0.0541363s-0.0252647-0.0313702-0.045391-0.0319271h-2.0918972
					l1.1965594-3.4786263c0.0094395-0.0224876,0.0013885-0.048584-0.0192947-0.0616322
					C-2.1040463-21.0053024-2.1311147-21.0015545-2.1473563-20.9833698z"/>
			</g>
		</g>
	</g>
	
		<linearGradient id="SVGID_11_" gradientUnits="userSpaceOnUse" x1="-430.5148621" y1="453.4477844" x2="-430.4804077" y2="453.3999023" gradientTransform="matrix(40.339035 0 0 -56.0671692 17382.21875 25426.4160156)">
		<stop  offset="0.15" style="stop-color:#2CE1F4"/>
		<stop  offset="1" style="stop-color:#10BFE6"/>
	</linearGradient>
	<path class="st15" d="M17.852644,0.016631l-4.5585842,4.5544205c-0.0134649,0.0147138-0.0173512,0.0360909-0.0095778,0.054553
		c0.0077734,0.0186009,0.0256796,0.0308166,0.0456686,0.0315104h2.5957832l-1.4866753,3.053863
		c-0.0105495,0.0216546-0.0041647,0.0477519,0.0152693,0.0620489c0.019433,0.014298,0.0462246,0.0127707,0.0638533-0.0037479
		l4.3462029-4.1352081c0.0145741-0.0138812,0.0194321-0.0352581,0.0120773-0.0541365
		c-0.0073566-0.0188785-0.0252647-0.0313716-0.0453911-0.0319266h-2.091898l1.196558-3.4786279
		c0.0094395-0.0224875,0.0013885-0.0485842-0.0192947-0.0616325S17.868885-0.0015533,17.852644,0.016631z"/>
</g>
</svg>
