<?xml version="1.0" encoding="utf-8"?>
<!-- Generator: Adobe Illustrator 26.3.1, SVG Export Plug-In . SVG Version: 6.00 Build 0)  -->
<svg version="1.1" id="_이어_2" xmlns="http://www.w3.org/2000/svg" xmlns:xlink="http://www.w3.org/1999/xlink" x="0px" y="0px"
	 viewBox="0 0 21.2 22" style="enable-background:new 0 0 21.2 22;" xml:space="preserve">
<style type="text/css">
	.st0{fill:#A9E5FF;}
	.st1{fill:#158FCC;}
</style>
<g>
	<path class="st0" d="M11.7,3.6C11.3,3,10.5,2.8,9.8,3.2C9.7,3.3,9.6,3.5,9.5,3.6L5.6,9.4c-1.2,1.8-1.4,4.2-0.5,6.2
		C6,17.4,7.8,18.7,9.8,19c0.3,0,0.5,0,0.8,0c0.3,0,0.5,0,0.8,0c2-0.2,3.8-1.5,4.6-3.4c0.9-2,0.8-4.3-0.5-6.2
		C15.5,9.4,11.7,3.6,11.7,3.6z"/>
	<path class="st1" d="M11.7,3.6C11.3,3,10.5,2.8,9.8,3.2C9.7,3.3,9.6,3.5,9.5,3.6L5.6,9.4c-1.2,1.8-1.4,4.2-0.5,6.2
		C6,17.4,7.8,18.7,9.8,19c0.3,0,0.5,0,0.8,0c0.3,0,0.5,0,0.8,0c2-0.2,3.8-1.5,4.6-3.4c0.9-2,0.8-4.3-0.5-6.2
		C15.5,9.4,11.7,3.6,11.7,3.6z M13.6,14.4c-0.4,1-1.4,1.8-2.5,1.9c-0.3,0-0.6,0-0.9,0C9,16.2,8,15.5,7.6,14.4
		c-0.5-1.2-0.4-2.6,0.3-3.6l2.7-4.1l2.7,4.1C14,11.9,14.1,13.3,13.6,14.4z"/>
</g>
</svg>
