<?xml version="1.0" encoding="utf-8"?>
<!-- Generator: Adobe Illustrator 25.1.0, SVG Export Plug-In . SVG Version: 6.00 Build 0)  -->
<svg version="1.1" id="레이어_1" xmlns="http://www.w3.org/2000/svg" xmlns:xlink="http://www.w3.org/1999/xlink" x="0px"
	 y="0px" viewBox="0 0 20 20" style="enable-background:new 0 0 20 20;" xml:space="preserve">
<style type="text/css">
	.st0{opacity:0.3;fill:url(#SVGID_1_);enable-background:new    ;}
	.st1{fill:url(#prefix__b_3_);}
	.st2{filter:url(#Adobe_OpacityMaskFilter);}
	.st3{fill-rule:evenodd;clip-rule:evenodd;fill:#FFFFFF;}
	.st4{mask:url(#prefix__e_2_);}
	.st5{fill:url(#prefix__g_2_);}
	.st6{opacity:0.35;fill:url(#SVGID_2_);enable-background:new    ;}
	.st7{opacity:0.25;fill:url(#SVGID_3_);enable-background:new    ;}
	.st8{fill:url(#SVGID_4_);}
	.st9{opacity:0.35;fill:url(#SVGID_5_);enable-background:new    ;}
	.st10{opacity:0.25;fill:url(#SVGID_6_);enable-background:new    ;}
	.st11{fill:url(#SVGID_7_);}
	.st12{opacity:0.7;fill:url(#SVGID_8_);enable-background:new    ;}
	.st13{fill:url(#SVGID_9_);}
	.st14{fill:url(#SVGID_10_);}
</style>
<g>
	
		<linearGradient id="SVGID_1_" gradientUnits="userSpaceOnUse" x1="-435.5119324" y1="457.4859314" x2="-435.4037781" y2="457.3777161" gradientTransform="matrix(120 0 0 -120.0700073 52264 54934.8046875)">
		<stop  offset="0" style="stop-color:#FFD800"/>
		<stop  offset="1" style="stop-color:#FFD800;stop-opacity:0"/>
	</linearGradient>
	<path class="st0" d="M16.20751,10.0114803V9.9952726c0-4.4755697-3.6281853-8.103756-8.103755-8.103756S0,5.5197029,0,9.9952726
		v0.1350622c0.0135063,4.35847,3.6358848,7.9781475,8.103755,7.9781475s8.0902491-3.6196775,8.103755-7.9781466V10.0114803z"/>
	<g transform="translate(32.47 31)">
		<g>
			
				<linearGradient id="prefix__b_3_" gradientUnits="userSpaceOnUse" x1="-467.4440918" y1="425.9408264" x2="-467.3186951" y2="425.8154297" gradientTransform="matrix(101.0599976 0 0 -101.0599976 47207.7578125 43016.8007812)">
				<stop  offset="0" style="stop-color:#FFCC14"/>
				<stop  offset="1" style="stop-color:#FFB90A"/>
			</linearGradient>
			<circle id="prefix__b_1_" class="st1" cx="-24.3662453" cy="-21.0047283" r="6.8247123"/>
		</g>
		<defs>
			
				<filter id="Adobe_OpacityMaskFilter" filterUnits="userSpaceOnUse" x="-24.3663273" y="-26.6138763" width="11.7505951" height="7.8336639">
				<feColorMatrix  type="matrix" values="1 0 0 0 0  0 1 0 0 0  0 0 1 0 0  0 0 0 1 0"/>
			</filter>
		</defs>
		<mask maskUnits="userSpaceOnUse" x="-24.3663273" y="-26.6138763" width="11.7505951" height="7.8336639" id="prefix__e_2_">
			<g class="st2">
				<circle id="prefix__b_2_" class="st3" cx="-24.3662453" cy="-21.0047283" r="6.8247123"/>
			</g>
		</mask>
		<g class="st4">
			<g transform="translate(50.53 9)">
				<g>
					<g>
						<path id="prefix__g" d="M-66.013176-33.5185165h-0.0316086c-0.5753632-1.3731804-1.9725876-2.2151604-3.4538193-2.0814476
							c-1.4812317,0.133709-2.705574,1.2121849-3.0263443,2.6661339c-1.381691,0.1114273-2.4280243,1.2964668-2.3690033,2.6828842
							c0.0592957,1.3861465,1.2028732,2.4777222,2.5887451,2.4706993h6.2939224c1.0237732,0,1.9697495-0.5470028,2.481636-1.4346352
							c0.5118866-0.8876305,0.5118866-1.9813671,0-2.869133c-0.5118866-0.8876343-1.4578629-1.4345016-2.481636-1.4345016
							h-0.0017624H-66.013176z"/>
					</g>
					<g>
						
							<linearGradient id="prefix__g_2_" gradientUnits="userSpaceOnUse" x1="-517.8498535" y1="414.0288696" x2="-517.7306519" y2="413.9555664" gradientTransform="matrix(87.0011063 0 0 -58.0000839 44975.578125 23979.0351562)">
							<stop  offset="0" style="stop-color:#E9E9ED"/>
							<stop  offset="1" style="stop-color:#DEDFE3"/>
						</linearGradient>
						<path id="prefix__g_1_" class="st5" d="M-66.013176-33.5185165h-0.0316086
							c-0.5753632-1.3731804-1.9725876-2.2151604-3.4538193-2.0814476c-1.4812317,0.133709-2.705574,1.2121849-3.0263443,2.6661339
							c-1.381691,0.1114273-2.4280243,1.2964668-2.3690033,2.6828842c0.0592957,1.3861465,1.2028732,2.4777222,2.5887451,2.4706993
							h6.2939224c1.0237732,0,1.9697495-0.5470028,2.481636-1.4346352c0.5118866-0.8876305,0.5118866-1.9813671,0-2.869133
							c-0.5118866-0.8876343-1.4578629-1.4345016-2.481636-1.4345016h-0.0017624H-66.013176z"/>
					</g>
				</g>
				
					<linearGradient id="SVGID_2_" gradientUnits="userSpaceOnUse" x1="-514.9725952" y1="412.9301147" x2="-514.9321289" y2="412.8359375" gradientTransform="matrix(50 0 0 -50 25678 20611)">
					<stop  offset="0" style="stop-color:#FFFFFF"/>
					<stop  offset="1" style="stop-color:#FFFFFF;stop-opacity:0"/>
				</linearGradient>
				<path class="st6" d="M-65.8470535-32.2373123c0,1.864809-1.5117569,3.376564-3.376564,3.376564
					s-3.376564-1.511755-3.376564-3.376564c0-1.8648071,1.5117569-3.376564,3.376564-3.376564
					c0.8954697,0,1.7544632,0.3557549,2.3876419,0.9889259C-66.2028046-33.991642-65.8470535-33.1327782-65.8470535-32.2373123z"/>
				
					<linearGradient id="SVGID_3_" gradientUnits="userSpaceOnUse" x1="-514.2272949" y1="411.7153931" x2="-514.1837158" y2="411.671814" gradientTransform="matrix(42 0 0 -42 21529 17259)">
					<stop  offset="0" style="stop-color:#FFFFFF"/>
					<stop  offset="1" style="stop-color:#FFFFFF;stop-opacity:0"/>
				</linearGradient>
				<circle class="st7" cx="-66.1171799" cy="-30.6165619" r="2.8363144"/>
			</g>
		</g>
	</g>
	<g transform="translate(83 40)">
		
			<linearGradient id="SVGID_4_" gradientUnits="userSpaceOnUse" x1="-517.8981323" y1="414.0278931" x2="-517.7789307" y2="413.9562683" gradientTransform="matrix(88.0003815 0 0 -58.0000839 45497.2773438 23979.0507812)">
			<stop  offset="0" style="stop-color:#E9E9ED"/>
			<stop  offset="1" style="stop-color:#DEDFE3"/>
		</linearGradient>
		<path class="st8" d="M-65.9003983-33.5163536h-0.0318756c-0.5821228-1.3731842-1.995285-2.2151642-3.4935303-2.0814514
			c-1.4983826,0.1337128-2.7366409,1.2121887-3.0611954,2.6661377c-1.3976288,0.1114235-2.4559784,1.2964649-2.3961411,2.6828823
			c0.0598297,1.386282,1.2163696,2.4777222,2.6183167,2.4706993h6.3661804c1.0355225,0,1.9924393-0.5470028,2.5102692-1.4346352
			c0.5178337-0.8877659,0.5178337-1.9813671,0-2.8691349c-0.5178261-0.887764-1.4747467-1.4344978-2.5102692-1.4344978
			C-65.8986435-33.5163536-65.9003983-33.5163536-65.9003983-33.5163536z"/>
		
			<linearGradient id="SVGID_5_" gradientUnits="userSpaceOnUse" x1="-515.1109619" y1="412.9278564" x2="-515.0704956" y2="412.8373413" gradientTransform="matrix(51 0 0 -50 26200.0800781 20611.015625)">
			<stop  offset="0" style="stop-color:#FFFFFF"/>
			<stop  offset="1" style="stop-color:#FFFFFF;stop-opacity:0"/>
		</linearGradient>
		<path class="st9" d="M-65.7011795-32.2351494c0,1.8648071-1.5421448,3.3765621-3.4440994,3.3765621
			c-1.9022217,0-3.4440994-1.511755-3.4440994-3.3765621c0-1.8648109,1.5418777-3.3765678,3.4440994-3.3765678
			c0.9132919,0,1.7893066,0.3557549,2.4351807,0.9889297C-66.0640945-33.9894791-65.7011795-33.1307526-65.7011795-32.2351494z"/>
		
			<linearGradient id="SVGID_6_" gradientUnits="userSpaceOnUse" x1="-514.2495117" y1="411.7156982" x2="-514.2059326" y2="411.6721497" gradientTransform="matrix(42 0 0 -42 21530.078125 17259.015625)">
			<stop  offset="0" style="stop-color:#FFFFFF"/>
			<stop  offset="1" style="stop-color:#FFFFFF;stop-opacity:0"/>
		</linearGradient>
		<circle class="st10" cx="-65.9714432" cy="-30.6144009" r="2.8363144"/>
	</g>
	
		<linearGradient id="SVGID_7_" gradientUnits="userSpaceOnUse" x1="-384.7355347" y1="455.6089783" x2="-384.7355347" y2="455.7562866" gradientTransform="matrix(6 0 0 -72.0599976 2323 32849.6601562)">
		<stop  offset="0" style="stop-color:#61ADFF;stop-opacity:0.8"/>
		<stop  offset="0.04" style="stop-color:#5FABFF;stop-opacity:0.83"/>
		<stop  offset="0.2" style="stop-color:#5AA7FF;stop-opacity:0.9"/>
		<stop  offset="0.38" style="stop-color:#57A4FF;stop-opacity:0.96"/>
		<stop  offset="0.61" style="stop-color:#55A2FF;stop-opacity:0.99"/>
		<stop  offset="1" style="stop-color:#54A1FF"/>
	</linearGradient>
	<path class="st11" d="M14.5867596,8.3029385c0.2158308,0,0.3922224,0.1686926,0.4045115,0.3814163l0.0006762,0.0237713v8.9222336
		c0,0.2237988-0.1813889,0.4051876-0.4051876,0.4051876c-0.2158308,0-0.3922224-0.1686916-0.4045115-0.3814163l-0.0006762-0.0237713
		V8.7081261C14.181572,8.4843273,14.3629608,8.3029385,14.5867596,8.3029385z"/>
	
		<linearGradient id="SVGID_8_" gradientUnits="userSpaceOnUse" x1="-386.4654236" y1="436.8700256" x2="-386.4654236" y2="437.1297607" gradientTransform="matrix(6 0 0 -14 2335 6134)">
		<stop  offset="0" style="stop-color:#61ADFF;stop-opacity:0.8"/>
		<stop  offset="0.04" style="stop-color:#5FABFF;stop-opacity:0.83"/>
		<stop  offset="0.2" style="stop-color:#5AA7FF;stop-opacity:0.9"/>
		<stop  offset="0.38" style="stop-color:#57A4FF;stop-opacity:0.96"/>
		<stop  offset="0.61" style="stop-color:#55A2FF;stop-opacity:0.99"/>
		<stop  offset="1" style="stop-color:#54A1FF"/>
	</linearGradient>
	<path class="st12" d="M16.20751,15.0560675c0.2158298,0,0.3922234,0.1889524,0.4045124,0.4272032l0.0006752,0.0266075v0.9832554
		c0,0.2506771-0.1813889,0.4538097-0.4051876,0.4538097c-0.2158289,0-0.3922215-0.1889515-0.4045115-0.4272022l-0.0006752-0.0266075
		v-0.9832554C15.8023233,15.259202,15.9837122,15.0560675,16.20751,15.0560675z"/>
	
		<linearGradient id="SVGID_9_" gradientUnits="userSpaceOnUse" x1="-386.4654236" y1="450.9715881" x2="-386.4654236" y2="451.1323547" gradientTransform="matrix(6 0 0 -37.5 2335 16926.5)">
		<stop  offset="0" style="stop-color:#61ADFF;stop-opacity:0.8"/>
		<stop  offset="0.04" style="stop-color:#5FABFF;stop-opacity:0.83"/>
		<stop  offset="0.2" style="stop-color:#5AA7FF;stop-opacity:0.9"/>
		<stop  offset="0.38" style="stop-color:#57A4FF;stop-opacity:0.96"/>
		<stop  offset="0.61" style="stop-color:#55A2FF;stop-opacity:0.99"/>
		<stop  offset="1" style="stop-color:#54A1FF"/>
	</linearGradient>
	<path class="st13" d="M16.20751,9.5185013c0.2158318,0,0.3922234,0.1686935,0.4045124,0.3814163l0.0006752,0.0237713v4.2544718
		c0,0.2237988-0.1813889,0.4051876-0.4051876,0.4051876c-0.2158298,0-0.3922224-0.1686926-0.4045115-0.3814163l-0.0006752-0.0237713
		V9.9236889C15.8023233,9.6998911,15.9837122,9.5185013,16.20751,9.5185013z"/>
	
		<linearGradient id="SVGID_10_" gradientUnits="userSpaceOnUse" x1="-383.0056763" y1="453.4414978" x2="-383.0056763" y2="453.6026917" gradientTransform="matrix(6 0 0 -50 2311 22689)">
		<stop  offset="0" style="stop-color:#61ADFF;stop-opacity:0.8"/>
		<stop  offset="0.04" style="stop-color:#5FABFF;stop-opacity:0.83"/>
		<stop  offset="0.2" style="stop-color:#5AA7FF;stop-opacity:0.9"/>
		<stop  offset="0.38" style="stop-color:#57A4FF;stop-opacity:0.96"/>
		<stop  offset="0.61" style="stop-color:#55A2FF;stop-opacity:0.99"/>
		<stop  offset="1" style="stop-color:#54A1FF"/>
	</linearGradient>
	<path class="st14" d="M12.9660082,9.5185013c0.2158308,0,0.3922224,0.1686935,0.4045134,0.3814163l0.0006752,0.0237713v5.9427547
		c0,0.2237988-0.1813898,0.4051876-0.4051886,0.4051876c-0.2158298,0-0.3922215-0.1686935-0.4045124-0.3814163l-0.0006752-0.0237713
		V9.9236889C12.5608206,9.6998911,12.7422104,9.5185013,12.9660082,9.5185013z"/>
</g>
</svg>
