<?xml version="1.0" encoding="utf-8"?>
<!-- Generator: Adobe Illustrator 24.0.2, SVG Export Plug-In . SVG Version: 6.00 Build 0)  -->
<svg version="1.1" id="레이어_1" xmlns="http://www.w3.org/2000/svg" xmlns:xlink="http://www.w3.org/1999/xlink" x="0px"
	 y="0px" viewBox="0 0 20 20" style="enable-background:new 0 0 20 20;" xml:space="preserve">
<style type="text/css">
	.st0{fill:#5e667e;}
</style>
<g>
	<g>
		<path class="st0" d="M10,10.5H2.5c-0.6,0-1.1-0.4-1.2-0.9L0,3.7c-0.1-0.5,0.1-1.1,0.6-1.3C3,1.1,10,1.2,10,1.2s7,0,9.4,1.2
			c0.5,0.3,0.7,0.8,0.6,1.3l-1.3,5.8c-0.1,0.6-0.6,0.9-1.2,0.9L10,10.5L10,10.5z"/>
	</g>
	<g>
		<path class="st0" d="M2.6,11.4c0,4.1,3.3,7.4,7.4,7.4s7.4-3.3,7.4-7.4H2.6z M10,17.3c-1.4,0-2.5-1.1-2.5-2.5s1.1-2.5,2.5-2.5
			s2.5,1.1,2.5,2.5S11.4,17.3,10,17.3z"/>
	</g>
	<g>
		<path class="st0" d="M10,13.1c-0.9,0-1.7,0.8-1.7,1.7s0.8,1.7,1.7,1.7s1.7-0.8,1.7-1.7C11.7,13.9,10.9,13.1,10,13.1z M10,15.5
			c-0.4,0-0.7-0.3-0.7-0.7c0-0.4,0.3-0.7,0.7-0.7c0.4,0,0.7,0.3,0.7,0.7C10.7,15.2,10.4,15.5,10,15.5z"/>
	</g>
</g>
</svg>
