<?xml version="1.0" encoding="UTF-8"?><svg id="_이어_2" xmlns="http://www.w3.org/2000/svg" viewBox="0 0 17.14282 20"><defs><style>.cls-1{fill:#677180;}</style></defs><g id="_이어_1-2"><path class="cls-1" d="M16.14282,8.57141H4.33032v-1.37946c0-1.21875,.44196-2.72766,1.25446-3.58484v-.01337c.78577-.83038,1.87054-1.31696,2.98218-1.31696h.00891c1.11163,0,2.19641,.48657,2.98218,1.31696v.00891l-.00452,.00446c.11224,.1178,.2157,.24994,.31348,.38989l1.40979-1.95685c-1.17413-1.24109-2.85718-2.04016-4.70093-2.04016h-.00891c-1.84375,0-3.52679,.79907-4.70093,2.03571-1.17853,1.24109-1.90173,3.29907-1.90173,5.15179v1.38391h-.96429c-.55359,0-1,.44196-1,.98212v9.45984c0,.54468,.44641,.98663,1,.98663h15.14282c.54913,0,1-.44196,1-.98663V9.55353c0-.54462-.44641-.98212-1-.98212Z"/></g></svg>