<?xml version="1.0" encoding="utf-8"?>
<!-- Generator: Adobe Illustrator 26.0.3, SVG Export Plug-In . SVG Version: 6.00 Build 0)  -->
<svg version="1.1" id="레이어_1" xmlns="http://www.w3.org/2000/svg" xmlns:xlink="http://www.w3.org/1999/xlink" x="0px"
	 y="0px" viewBox="0 0 100 24.4" style="enable-background:new 0 0 100 24.4;" xml:space="preserve">
<style type="text/css">
	.st0{fill:#E50012;}
	.st1{fill:#009A63;}
	.st2{fill:#888B8E;}
</style>
<g id="레이어_2_00000173142432303633822040000016912297294929903539_">
	<g id="레이어_1-2">
		<path class="st0" d="M15.5,6.3C14,7.6,12.7,9,11.6,10.6c0.8-0.1,1.6-0.1,2.4,0c-1,0.1-2,0.4-3,0.8c-0.9,1.5-1.6,3.1-2.1,4.8
			c1.7-1.5,3.8-2.6,6-3.3c1.3-1.6,2.9-2.8,4.8-3.5c-1.3,0.8-2.4,1.9-3.3,3.2c0.4-0.1,0.8-0.1,1.3-0.2c-0.6,0.2-1.1,0.4-1.6,0.7
			c-0.5,0.8-0.8,1.6-1.1,2.5c1.7-1.9,3.9-3.4,6.4-4.3c1.7-2.1,3.8-3.9,6.1-5.2C26,7.4,24.5,9,23.3,10.7c0.7-0.2,1.3-0.4,2.1-0.5
			c-0.8,0.3-1.7,0.7-2.5,1.1c-1.1,1.6-1.9,3.2-2.6,5c1.9-2.2,4.5-3.8,7.4-4.4c1.3-1.6,3.1-2.9,5-3.7c-1.5,0.8-2.8,2-3.8,3.5
			c0.1,0,0.2,0,0.3,0c0,0-0.1,0-0.4,0.1c-1.1,1.6-1.8,3.5-2.1,5.5c1.3-2.2,3.2-4.1,5.4-5.4c-1.5,1.7-2.8,3.6-3.9,5.7
			c4-1.8,6.5-4.6,6.5-7.9c0-5.4-6.9-9.7-15.5-9.7C10.8,0,3.9,4.3,3.9,9.7c0,1.5,0.5,2.9,1.4,4c1.4-1.2,3.1-2.2,4.9-2.8
			C11.6,9,13.4,7.5,15.5,6.3L15.5,6.3z"/>
		<path class="st0" d="M6.3,14.9c0.3,0.3,0.7,0.6,1,0.9c0.4-1.2,1-2.3,1.7-3.3C8,13.2,7.1,14,6.3,14.9z"/>
		<path class="st0" d="M24.2,18.9c0.6-2.2,1.6-4.4,3-6.3c-2.1,1.1-5.3,3.3-6.9,6.7l0,0C21.6,19.3,22.9,19.2,24.2,18.9L24.2,18.9z"/>
		<path class="st0" d="M14,14.5c-1.3,0.9-2.4,2-3.3,3.2c0.7,0.3,1.4,0.5,2.1,0.7l0,0C12.9,17,13.3,15.7,14,14.5z"/>
		<path class="st0" d="M20.5,12.7c-2.2,1.5-4.4,3.6-5.1,6.3l0,0c0.7,0.1,1.4,0.2,2.2,0.3l0,0C18.2,16.9,19.2,14.7,20.5,12.7z"/>
		<path class="st1" d="M38.8,23.4c0,0.5-8.7,1-19.4,1C8.7,24.4,0,24,0,23.4c0-0.5,8.7-1,19.4-1C30.1,22.5,38.8,22.9,38.8,23.4z"/>
		<path class="st2" d="M57.9,6.1c0-0.4-0.3-0.6-0.6-0.6c0,0,0,0,0,0h-1.9v7.7h-7c-0.3,0-0.6,0.3-0.6,0.6c0,0,0,0,0,0v7.1h10.1V6.1z
			 M55.3,18.3h-5.1l0-2.6h5.1V18.3z"/>
		<path class="st2" d="M99.4,5.5c0.3,0,0.6,0.3,0.6,0.6v14.8h-2.5V5.5H99.4z"/>
		<path class="st2" d="M78.7,5.5c0.4,0,0.6,0.3,0.6,0.6c0,0,0,0,0,0v14.8h-2.5V5.5H78.7z"/>
		<path class="st2" d="M74.9,5.5H73v4.1h-2.5v2.6H73v8.8h2.5V6.1C75.5,5.8,75.2,5.5,74.9,5.5z"/>
		<path class="st2" d="M91.5,13.6c-0.1-0.3-0.3-0.4-0.6-0.4l-2.3,0l2.9,7.7h2.7L91.5,13.6z"/>
		<path class="st2" d="M70.6,13.7c-0.1-0.3-0.3-0.5-0.6-0.5h-0.3l-1.7,0l1.4,7.7H72L70.6,13.7z"/>
		<path class="st2" d="M49.1,6.1c0-0.4-0.3-0.6-0.6-0.6c0,0,0,0,0,0h-6.7V8h3.9l-4.9,12.9h2.7l5.5-14.6C49.1,6.2,49.1,6.2,49.1,6.1
			L49.1,6.1z"/>
		<path class="st2" d="M70.6,6.1c0-0.3-0.3-0.6-0.6-0.6l-6.7,0l0,2.6h3.9l-4.9,12.9h2.7l5.5-14.6C70.6,6.3,70.6,6.2,70.6,6.1
			L70.6,6.1z"/>
		<path class="st2" d="M83,20.9h2.7l5.5-14.6c0-0.1,0-0.1,0-0.2c0-0.3-0.3-0.6-0.6-0.6h-1.8L83,20.9L83,20.9z"/>
	</g>
</g>
</svg>
