<svg xmlns="http://www.w3.org/2000/svg" viewBox="0 0 40 11.56907"><defs><style>.cls-1{fill:#009844;}.cls-2{fill:#e50012;}.cls-3{fill:#fff;}.cls-4{fill:#231815;}</style></defs><g id="레이어_2" data-name="레이어 2"><g id="레이어_1-2" data-name="레이어 1"><path class="cls-1" d="M9.13879,10.14385a1.17193,1.17193,0,1,0-1.172-1.17194A1.172,1.172,0,0,0,9.13879,10.14385Z"/><path class="cls-2" d="M11.21658,8.291a1.11339,1.11339,0,1,0-1.11336-1.11344A1.1134,1.1134,0,0,0,11.21658,8.291Z"/><path class="cls-1" d="M10.08427,5.97058A5.162,5.162,0,0,1,13.6942,5.879,6.78,6.78,0,0,0,6.84715,0C3.06565,0,.49732,3.35266,0,5.879c3.33062-1.08614,6.44723,1.29853,6.44723,4.0845v1.60559H7.2721V9.96348a4.08494,4.08494,0,0,1,.39439-1.75269A3.60893,3.60893,0,0,1,8.525,6.99859,4.68685,4.68685,0,0,1,9.54877,6.227C9.48175,6.23929,9.80141,6.12674,10.08427,5.97058Z"/><path class="cls-3" d="M7.39171,8.25505A1.14836,1.14836,0,1,0,6.24326,7.1066,1.14837,1.14837,0,0,0,7.39171,8.25505Z"/><path class="cls-3" d="M9.32769,6.27175A1.14832,1.14832,0,1,0,8.17933,5.1234,1.14831,1.14831,0,0,0,9.32769,6.27175Z"/><path class="cls-4" d="M26.5355,5.17191a5.43835,5.43835,0,0,1-1.94611,1.0906l.17773.23042A8.02106,8.02106,0,0,0,26.67335,5.77a4.77392,4.77392,0,0,0,1.34006-1.04189q.382.24512,1.00634.67406c.47492.32729,1.03936.71562,1.63642,1.07808l.49977-.60515c-.70345-.32184-2.603-1.39338-2.89205-1.55117.03436-.07119.038-.07609.07245-.14782.02-.041.04915-.10456.08843-.19135l.06619-.146h2.40173V3.35738H25.14121v.48136h2.26125A2.52075,2.52075,0,0,1,26.5355,5.17191Z"/><polygon class="cls-4" points="24.625 6.681 24.625 7.162 27.459 7.162 27.459 9.546 28.489 9.546 28.489 7.162 31.396 7.162 31.396 6.681 24.625 6.681"/><rect class="cls-4" x="39.08924" y="2.96153" width="0.91076" height="6.64012"/><path class="cls-4" d="M36.39859,5.10635c.06129-.30626.12841-.6299.16406-.85454a5.2083,5.2083,0,0,0,.09884-1.01123l-1.09893.00479a6.94481,6.94481,0,0,1-.36,2.71533,5.28074,5.28074,0,0,1-1.40027,2.40571.762.762,0,0,0,.45406-.01994,4.07845,4.07845,0,0,0,1.07761-1.07119,6.74137,6.74137,0,0,0,.82172-1.55762,11.371,11.371,0,0,1,.78216,1.15651,11.55506,11.55506,0,0,1,.80185,1.66935l.67017-.74888A17.12649,17.12649,0,0,0,36.39859,5.10635Z"/><path class="cls-4" d="M17.66045,3.1147a1.69587,1.69587,0,1,0,1.70887,1.69574A1.70261,1.70261,0,0,0,17.66045,3.1147Zm0,3.04822c-.441,0-.79858-.6055-.79858-1.35248,0-.74717.35757-1.35267.79858-1.35267.44109,0,.79848.6055.79848,1.35267C18.45893,5.55742,18.10154,6.16292,17.66045,6.16292Z"/><polygon class="cls-4" points="21.08 2.97 21.08 3.839 19.746 3.772 19.746 4.265 21.08 4.265 21.08 5.305 19.746 5.238 19.746 5.731 21.08 5.731 21.08 6.625 22.184 6.625 22.184 2.97 21.08 2.97"/><path class="cls-4" d="M19.51251,7.26393c-1.4847,0-2.68838.549-2.68838,1.22545,0,.67706,1.20368,1.226,2.68838,1.226,1.48426,0,2.688-.54893,2.688-1.226C22.20054,7.813,20.99677,7.26393,19.51251,7.26393Zm0,2.08669c-.96952,0-1.7554-.38541-1.7554-.861s.78588-.86071,1.7554-.86071c.96907,0,1.7546.385,1.7546.86071S20.48158,9.35062,19.51251,9.35062Z"/></g></g></svg>