<svg width="40" height="12" viewBox="0 0 40 12" fill="none" xmlns="http://www.w3.org/2000/svg">
<g clip-path="url(#clip0_2_2)">
<path d="M9.1388 10.1438C9.37058 10.1438 9.59715 10.0751 9.78987 9.94631C9.98258 9.81753 10.1328 9.63449 10.2215 9.42035C10.3102 9.20621 10.3334 8.97057 10.2881 8.74325C10.2429 8.51592 10.1313 8.30711 9.96739 8.14322C9.80349 7.97933 9.59467 7.86772 9.36734 7.8225C9.14001 7.77729 8.90438 7.8005 8.69024 7.8892C8.4761 7.9779 8.29307 8.12811 8.1643 8.32083C8.03553 8.51355 7.9668 8.74013 7.9668 8.97191C7.96681 9.28273 8.0903 9.58082 8.31009 9.8006C8.52988 10.0204 8.82797 10.1438 9.1388 10.1438V10.1438Z" fill="#009844"/>
<path d="M11.2166 8.29099C11.4368 8.291 11.6521 8.2257 11.8352 8.10337C12.0183 7.98103 12.161 7.80715 12.2452 7.60371C12.3295 7.40027 12.3516 7.1764 12.3086 6.96042C12.2657 6.74445 12.1596 6.54606 12.0039 6.39034C11.8482 6.23463 11.6498 6.12858 11.4339 6.08561C11.2179 6.04264 10.994 6.06468 10.7906 6.14894C10.5871 6.23321 10.4132 6.3759 10.2909 6.55899C10.1685 6.74208 10.1032 6.95734 10.1032 7.17755C10.1032 7.32376 10.132 7.46855 10.188 7.60363C10.2439 7.73872 10.3259 7.86146 10.4293 7.96485C10.5327 8.06825 10.6554 8.15026 10.7905 8.20622C10.9256 8.26218 11.0704 8.29098 11.2166 8.29099Z" fill="#E50012"/>
<path d="M10.0843 5.97058C11.2373 5.50643 12.5191 5.47392 13.6942 5.879C13.4733 4.22954 12.6535 2.71891 11.3909 1.6348C10.1283 0.550691 8.51104 -0.0311779 6.84715 9.29693e-07C3.06565 9.29693e-07 0.49732 3.35266 0 5.879C3.33062 4.79286 6.44723 7.17753 6.44723 9.9635V11.5691H7.2721V9.96348C7.27187 9.35722 7.40659 8.75852 7.66649 8.21079C7.86551 7.75157 8.15787 7.33876 8.525 6.99859C8.8293 6.69572 9.17378 6.43609 9.54877 6.227C9.48175 6.23929 9.80141 6.12674 10.0843 5.97058Z" fill="#009844"/>
<path d="M7.39171 8.25506C7.61882 8.25505 7.84083 8.18768 8.02967 8.06149C8.2185 7.9353 8.36567 7.75595 8.45258 7.54612C8.53948 7.33629 8.56222 7.1054 8.51791 6.88265C8.47359 6.6599 8.36422 6.45529 8.20363 6.29469C8.04303 6.1341 7.83842 6.02473 7.61567 5.98041C7.39292 5.9361 7.16203 5.95884 6.9522 6.04574C6.74237 6.13265 6.56302 6.27982 6.43683 6.46865C6.31064 6.65749 6.24327 6.8795 6.24326 7.10661C6.24325 7.25743 6.27294 7.40678 6.33066 7.54612C6.38837 7.68546 6.47296 7.81207 6.57961 7.91871C6.68625 8.02536 6.81286 8.10995 6.9522 8.16767C7.09154 8.22538 7.24089 8.25507 7.39171 8.25506V8.25506Z" fill="white"/>
<path d="M9.3277 6.27174C9.55481 6.27173 9.77682 6.20438 9.96566 6.07819C10.1545 5.95201 10.3017 5.77267 10.3886 5.56284C10.4755 5.35301 10.4982 5.12213 10.4539 4.89938C10.4096 4.67663 10.3002 4.47202 10.1396 4.31143C9.97904 4.15084 9.77444 4.04147 9.55169 3.99716C9.32894 3.95286 9.09805 3.97559 8.88823 4.0625C8.6784 4.14941 8.49906 4.29659 8.37288 4.48543C8.24669 4.67426 8.17934 4.89628 8.17934 5.12339C8.17933 5.27419 8.20903 5.42352 8.26674 5.56285C8.32445 5.70218 8.40904 5.82877 8.51567 5.93541C8.62231 6.04204 8.74891 6.12663 8.88823 6.18434C9.02756 6.24205 9.17689 6.27174 9.3277 6.27174V6.27174Z" fill="white"/>
<path d="M26.5355 5.17192C25.9691 5.66603 25.3065 6.03738 24.5894 6.26252L24.7671 6.49294C25.4307 6.33403 26.0713 6.09109 26.6733 5.77001C27.1787 5.50555 27.6325 5.15268 28.0134 4.72812C28.2681 4.89153 28.6035 5.11622 29.0197 5.40218C29.4947 5.72947 30.0591 6.1178 30.6562 6.48026L31.1559 5.87511C30.4525 5.55327 28.5529 4.48173 28.2639 4.32394C28.2982 4.25275 28.3019 4.24785 28.3363 4.17612C28.3563 4.13512 28.3855 4.07156 28.4248 3.98477L28.491 3.83877H30.8927V3.35739H25.1412V3.83875H27.4025C27.2649 4.36505 26.9608 4.83272 26.5355 5.17192V5.17192Z" fill="white"/>
<path d="M24.625 6.681V7.162H27.459V9.546H28.489V7.162H31.396V6.681H24.625Z" fill="white"/>
<path d="M40 2.96152H39.0892V9.60164H40V2.96152Z" fill="white"/>
<path d="M36.3986 5.10634C36.4599 4.80008 36.527 4.47644 36.5626 4.2518C36.6285 3.91875 36.6616 3.58006 36.6615 3.24057L35.5626 3.24536C35.624 4.16539 35.5016 5.08845 35.2026 5.96069C34.9594 6.87339 34.4758 7.70416 33.8023 8.3664C33.9521 8.4061 34.1106 8.39914 34.2564 8.34646C34.6795 8.06005 35.045 7.69668 35.334 7.27527C35.6748 6.79423 35.9511 6.27055 36.1557 5.71765C36.4398 6.08677 36.7011 6.473 36.9378 6.87416C37.2494 7.40826 37.5175 7.9665 37.7397 8.54351L38.4099 7.79463C37.8291 6.83482 37.1554 5.9344 36.3986 5.10634V5.10634Z" fill="white"/>
<path d="M17.6605 3.1147C17.3256 3.11726 16.999 3.21891 16.7218 3.40681C16.4447 3.59471 16.2293 3.86047 16.103 4.17057C15.9766 4.48068 15.9449 4.82125 16.0118 5.14936C16.0787 5.47747 16.2412 5.77843 16.4789 6.01429C16.7166 6.25016 17.0188 6.41038 17.3474 6.47475C17.6761 6.53913 18.0164 6.50478 18.3255 6.37603C18.6346 6.24728 18.8987 6.02989 19.0845 5.75128C19.2702 5.47267 19.3693 5.1453 19.3693 4.81044C19.3675 4.35898 19.1865 3.92673 18.866 3.60873C18.5455 3.29074 18.1119 3.11303 17.6605 3.1147ZM17.6605 6.16292C17.2195 6.16292 16.8619 5.55742 16.8619 4.81044C16.8619 4.06327 17.2194 3.45777 17.6605 3.45777C18.1015 3.45777 18.4589 4.06327 18.4589 4.81044C18.4589 5.55742 18.1015 6.16292 17.6605 6.16292Z" fill="white"/>
<path d="M21.08 2.97V3.839L19.746 3.772V4.265H21.08V5.305L19.746 5.238V5.731H21.08V6.625H22.184V2.97H21.08Z" fill="white"/>
<path d="M19.5125 7.26392C18.0278 7.26392 16.8241 7.81292 16.8241 8.48937C16.8241 9.16643 18.0278 9.71537 19.5125 9.71537C20.9968 9.71537 22.2005 9.16644 22.2005 8.48937C22.2005 7.81299 20.9968 7.26392 19.5125 7.26392ZM19.5125 9.35061C18.543 9.35061 17.7571 8.9652 17.7571 8.48961C17.7571 8.01402 18.543 7.6289 19.5125 7.6289C20.4816 7.6289 21.2671 8.0139 21.2671 8.48961C21.2671 8.96532 20.4816 9.35061 19.5125 9.35061Z" fill="white"/>
</g>
<defs>
<clipPath id="clip0_2_2">
<rect width="40" height="11.5691" fill="white"/>
</clipPath>
</defs>
</svg>
