<svg xmlns="http://www.w3.org/2000/svg" xmlns:xlink="http://www.w3.org/1999/xlink" viewBox="0 0 13.99429 20"><defs><style>.cls-1{fill:#ef8200;}.cls-2{fill:url(#linear-gradient);}.cls-3{fill:url(#linear-gradient-2);}.cls-4{fill:url(#linear-gradient-3);}</style><linearGradient id="linear-gradient" x1="2.90553" y1="2.29656" x2="11.65989" y2="2.29656" gradientUnits="userSpaceOnUse"><stop offset="0" stop-color="#aacc03"/><stop offset="1" stop-color="#009233"/></linearGradient><linearGradient id="linear-gradient-2" x1="6.07373" y1="22.05564" x2="9.00769" y2="5.07245" gradientUnits="userSpaceOnUse"><stop offset="0" stop-color="#fff000"/><stop offset="0.40448" stop-color="#facb18"/><stop offset="1" stop-color="#f29739"/></linearGradient><linearGradient id="linear-gradient-3" x1="3.57308" y1="16.69266" x2="5.66071" y2="4.95674" gradientUnits="userSpaceOnUse"><stop offset="0" stop-color="#0096df"/><stop offset="1" stop-color="#004898"/></linearGradient></defs><g id="레이어_2" data-name="레이어 2"><g id="레이어_1-2" data-name="레이어 1"><path class="cls-1" d="M10.40992,4.75847a1.951,1.951,0,0,0,1.43633.35651,1.6789,1.6789,0,0,0,1.15211-.63663,1.5947,1.5947,0,0,0,.14452-.2278,1.26526,1.26526,0,0,0,.12939-.72814,1.055,1.055,0,0,0-1.03921-.88027.95306.95306,0,0,0-.21.02547.9348.9348,0,0,0-.19205.06469.66123.66123,0,0,0-.32826.47971c-.00477.02409-.00961.04888-.01308.07433-.00135.01168-.00341.031-.00412.05712,0,.01858,0,.04128.00206.06608l.00071-.00139.00135.02271a.71866.71866,0,0,0,.56785.63936.86232.86232,0,0,1-.7165-.8245,1.09635,1.09635,0,0,1,.33587-.746,1.16125,1.16125,0,0,1,.79-.32211h-.00065a1.41674,1.41674,0,0,1,.30972.02063l.042.00828a1.11034,1.11034,0,0,0-1.42261.36475,1.13018,1.13018,0,0,1,.91054-.58981,2.27992,2.27992,0,0,1,1.46183.4783A1.89657,1.89657,0,0,0,11.91986,1.221,2.04829,2.04829,0,0,0,9.92257,3.52791a1.66432,1.66432,0,0,1-.0805-.34411,2.14151,2.14151,0,0,1-.02743-.34137,2.221,2.221,0,0,1,2.181-1.989L11.98117.85207A2.18016,2.18016,0,0,0,9.59161,3.03513a2.3669,2.3669,0,0,0,.02962.373,2.06346,2.06346,0,0,0,.47826,1.05851,1.85235,1.85235,0,0,0,.31043.29042Z"/><path class="cls-1" d="M12.06374,2.51619a1.23893,1.23893,0,0,1,1.56919.37992,1.84562,1.84562,0,0,1,.30276,1.58913,1.73786,1.73786,0,0,1-.9676,1.18583c-.07709.03578-.15212.066-.22651.09223l-.02125.00827c-.02756.0096-.05306.01511-.08128.02267a2.43852,2.43852,0,0,1-.45623.09155A2.57985,2.57985,0,0,1,10.42506,5.349a1.04281,1.04281,0,0,1-.11774-.12181,2.23207,2.23207,0,0,0,2.097.27117A1.79452,1.79452,0,0,0,13.57645,3.8631a1.64215,1.64215,0,0,0-.17138-.72747,1.18094,1.18094,0,0,0-1.52714-.5038l-.00483.00206A1.74247,1.74247,0,0,1,12.06374,2.51619Z"/><path class="cls-2" d="M7.66259,2.382a.56985.56985,0,0,0-.17479-.17274h0l-.00689-.00412-.00824-.0055a14.83639,14.83639,0,0,0-1.40194-.72126A17.55852,17.55852,0,0,0,2.71907.16933,5.22594,5.22594,0,0,0,1.92964.022a1.77008,1.77008,0,0,0-.66072.00759A1.12216,1.12216,0,0,0,.772.21409L.75482.22578.74935.23128a.36828.36828,0,0,0-.1253.16655A.28476.28476,0,0,1,.61648.42878.522.522,0,0,0,.61307.51205.422.422,0,0,0,.62543.58917C.63026.60978.63506.62907.642.6511V.64627C.65506.691.67016.73643.686.78116c.43288,1.16519,2.19889,2.39163,2.89191,2.839.17486.11283.28293.17617.28293.17617.3014.20648.62007.40536.949.596l.35312.20077c.01855-.02341.03774-.04659.05564-.07A5.99128,5.99128,0,0,1,7.3749,2.80665h0c.31455-.12732.30971-.296.30971-.296A.22183.22183,0,0,0,7.66259,2.382Z"/><path class="cls-3" d="M13.29024,7.83075c-.05429-.19092-.51278-.30994-.51278-.30994-.0295-.00757-.0825-.02319-.11213-.03147h-.00206A37.479,37.479,0,0,1,5.34606,4.68962l-.18317-.09651c-.00824.0124-.07148.10341-.09834.14195-.03858.05229-.07639.10668-.115.16242a9.83607,9.83607,0,0,0-1.3792,6.40884v.00026l.00019.00219.00013.00283.00019.00245.00026.0036.00051.0067.00026.00348.00039.00516.00038.0045.00116.01443.00019.003.0049.05384.00019.0018a12.203,12.203,0,0,0,3.90892,7.67086l.00025.00026q.0458.03923.09216.07844l.0002.00013.0463.03864.00039.00026.04676.03877.00026.00026.0463.03774.00116.0009.04688.03787.00091.00065.04657.03722.0016.00116.04637.03658.00219.00154.04631.0362.00251.00193.04708.0362.00212.00154.04695.03568.00265.00206.04746.03543.00258.00193.047.03477.00335.00245.04785.03491.00284.00206.04733.03414.0038.00282.04779.034.00367.00258.04772.03362.00413.0027.04759.03311.00451.00322.00412.0027.00058.00013H8.37605c.08534.05732.40072.257.49578.14839l.00045-.00039.00863-.012.00168-.00283a.21676.21676,0,0,0,.01887-.13989,1.06092,1.06092,0,0,0-.11632-.26715c-.02415-.03851-.04823-.07857-.07155-.1176-.25394-.42751-.48734-.91053-.51278-.96567a6.7492,6.7492,0,0,1,.764-7.00208A11.285,11.285,0,0,1,12.78512,8.389c.06949-.03374.12874-.06617.181-.09708h-.00071C13.37731,8.0511,13.29024,7.83075,13.29024,7.83075Z"/><path class="cls-4" d="M8.87228,19.914l-.00045.00039h0c-.09506.10858-.41044-.09107-.49578-.14839h.00026l-.00058-.00013h0l-.00412-.0027L8.37148,19.763l-.00438-.00308-.04759-.03311-.00413-.0027-.04772-.03362L8.264,19.68793l-.04779-.034-.0038-.00282L8.16507,19.617l-.00284-.00206L8.11438,19.58,8.111,19.57754l-.047-.03477-.00258-.00193L8.014,19.50541l-.00265-.00206-.04695-.03568-.00212-.00154-.04708-.0362L7.91267,19.428l-.04631-.0362-.00219-.00154-.04637-.03658-.0016-.00116-.04657-.03722-.00091-.00065-.04688-.03787-.00116-.0009-.0463-.03774-.00026-.00026-.04676-.03877L7.627,19.19885l-.0463-.03864-.0002-.00013q-.04645-.03923-.09216-.07844l-.00025-.00026a12.203,12.203,0,0,1-3.90892-7.67086l-.00019-.0018-.0049-.05384-.00019-.003-.00116-.01443-.00038-.0045-.00039-.00516-.00026-.00348-.00051-.0067-.00026-.0036-.00019-.00245-.00013-.00283-.00019-.00219v-.00026a9.83607,9.83607,0,0,1,1.3792-6.40884c.03857-.05574.07638-.11013.115-.16242.02686-.03854.0901-.12955.09834-.14195H5.163L4.8099,4.39234c-.329-.19067-.64765-.38955-.949-.596,0,0-.10807-.06334-.28293-.17617C2.8849,3.17279,1.11889,1.94635.686.78116.67016.73643.65506.691.642.64627V.6511C.63506.62907.63026.60978.62543.58917A.422.422,0,0,1,.61307.51205.522.522,0,0,1,.61648.42878,24.639,24.639,0,0,0,.00465,6.011l.0007-.00273c-.0007.07709-.0007.15553,0,.234A17.86388,17.86388,0,0,0,.29166,9.7c.031.20236.075.448.1349.72893.022.09209.03577.13962.03577.13962A14.60432,14.60432,0,0,0,1.33848,13.225c.02473.05784.05226.11644.0805.17415.00689.01855.01511.03645.022.05436A13.58327,13.58327,0,0,0,2.49262,15.3063c.00757.00966.01375.022.0227.0331.0392.05513.07639.11078.11635.16513.02335.0331.04537.06608.06811.09764.02479.03168.04885.0662.07432.09918.03858.05243.07706.106.11634.15689a.34691.34691,0,0,0,.022.02756,12.49924,12.49924,0,0,0,1.426,1.565,12.77443,12.77443,0,0,0,4.07636,2.49757c.23817.08707.361.04689.42.00373l.001-.00064.00521-.00386.001-.0009.0047-.00374.00007-.00013.004-.00361.00065-.00051.00321-.00309.00039-.00052.00148-.00167a.13018.13018,0,0,0,.02634-.03491l-.00038.00065-.00168.00283Z"/></g></g></svg>