<?xml version="1.0" encoding="utf-8"?>
<!-- Generator: Adobe Illustrator 25.4.1, SVG Export Plug-In . SVG Version: 6.00 Build 0)  -->
<svg version="1.1" id="레이어_1" xmlns="http://www.w3.org/2000/svg" xmlns:xlink="http://www.w3.org/1999/xlink" x="0px"
	 y="0px" viewBox="0 0 20 20" style="enable-background:new 0 0 20 20;" xml:space="preserve">
<style type="text/css">
	.st0{opacity:0.3;}
	.st1{fill:#FFFFFF;}
</style>
<g class="st0">
	<g>
		<g>
			<path class="st1" d="M12.3531742,4.3020635c-0.6073008,0-1.1012707,0.4936509-1.1012707,1.1011114
				c0.0001593,0.6071429,0.4941273,1.1011109,1.1012707,1.1011109s1.1012707-0.4938092,1.1012707-1.1011109
				S12.9604759,4.3020635,12.3531742,4.3020635z"/>
		</g>
	</g>
	<g>
		<g>
			<path class="st1" d="M19.2204762,1.4771428H0.7926984C0.3619048,1.4771428,0,1.8344445,0,2.265238v11.8849201
				c0,0.4307938,0.3619048,0.764286,0.7926984,0.764286h4.684762c0-2.5,2.0317459-4.5288887,4.5290475-4.5288887
				c2.4974604,0,4.5292063,2.0288887,4.5292063,4.5288887h4.684762C19.651268,14.914444,20,14.5807934,20,14.1501579V2.2652376
				C20,1.8344445,19.6512699,1.4771428,19.2204762,1.4771428z M15.5357141,6.8341269L12.581111,9.7895241L8.0838099,5.2926989
				c-0.0611105-0.061111-0.1596828-0.061111-0.2207937,0L5.0104766,8.1450796l-1.3022225-1.302063
				c-0.0609524-0.061111-0.1655552-0.061111-0.2265079,0L1.4061906,8.912858V2.8833334h17.1874599v6.7892065l-2.8373013-2.8384128
				C15.6952381,6.7730155,15.5968256,6.7730155,15.5357141,6.8341269z"/>
		</g>
	</g>
	<g>
		<g>
			<path class="st1" d="M9.9904757,11.3400002c-1.9836502,0-3.5915875,1.6079359-3.5915875,3.5915871
				c0,1.9834919,1.6079364,3.5912704,3.5915875,3.5912704s3.5915871-1.6077785,3.5915871-3.5912704
				C13.5820637,12.9479361,11.9742861,11.3400002,9.9904757,11.3400002z M11.811429,16.1614285
				c0.1817455,0.1819057,0.1817455,0.4773026,0,0.6588898c-0.0880957,0.0880947-0.2049208,0.1363487-0.3295231,0.1363487
				c-0.124444,0-0.2414293-0.0484123-0.3293648-0.1363487l-1.1034918-1.103652l-1.1033335,1.103652
				c-0.1760321,0.1760311-0.483016,0.1757145-0.6590481,0c-0.1819048-0.1817455-0.1817455-0.4771423,0-0.6592064
				l1.1033335-1.1031742l-1.1033335-1.1034927c-0.1819048-0.1815872-0.1819048-0.4773006,0-0.6588888
				c0.1760321-0.1760321,0.483016-0.1760321,0.6588898,0l1.1034918,1.1033325l1.1034918-1.1033344
				c0.1755562-0.1760311,0.4828568-0.1760311,0.6588888-0.0003166c0.0880957,0.0884123,0.1363497,0.2052374,0.1363497,0.3298416
				c0,0.1242847-0.0484133,0.2414293-0.1363497,0.3293648l-1.1033325,1.1034918L11.811429,16.1614285z"/>
		</g>
	</g>
</g>
</svg>
