<svg xmlns="http://www.w3.org/2000/svg" viewBox="0 0 20 19.95455"><defs><style>.cls-1{fill:#dee0e4;}</style></defs><g id="레이어_2" data-name="레이어 2"><g id="레이어_1-2" data-name="레이어 1"><path class="cls-1" d="M19.46223,8.67354,17.59873,6.81V4.16478a1.81805,1.81805,0,0,0-1.818-1.81805H13.14451L11.281.52868a1.818,1.818,0,0,0-2.56346,0L6.85405,2.35582H4.20879a1.81805,1.81805,0,0,0-1.818,1.81805h0V6.81l-1.818,1.8635A1.76915,1.76915,0,0,0,.52724,11.237L2.39983,13.1005v2.64526a1.81805,1.81805,0,0,0,1.81805,1.818H6.85405l1.8635,1.8635a1.82157,1.82157,0,0,0,2.56346,0l1.8635-1.87259h2.64526a1.81805,1.81805,0,0,0,1.818-1.818V13.1005l1.8635-1.86351a1.818,1.818,0,0,0,0-2.56345ZM15.78068,12.3551v3.38157H12.39911L9.99928,18.1365,7.59945,15.73667H4.21788V12.3551L1.81805,9.95527,4.21788,7.55544V4.17387H7.59945L9.99928,1.774l2.39983,2.39983h3.38157V7.55544l2.39983,2.39983Z"/><polygon class="cls-1" points="9.09 10.619 7.009 8.537 5.718 9.819 9.09 13.191 14.281 8.001 12.99 6.719 9.09 10.619"/></g></g></svg>