<svg xmlns="http://www.w3.org/2000/svg" viewBox="0 0 19.8568 20"><defs><style>.cls-1{fill:#dee0e4;}</style></defs><g id="레이어_2" data-name="레이어 2"><g id="레이어_1-2" data-name="레이어 1"><path class="cls-1" d="M1.91609,4.90364.04592,1.78668,1.2927.5399l3.117,1.87017V3.65686l3.206,3.206V7.13L6.45794,8.19871,3.16287,4.90364Zm13.35838,7.56975H14.562A9.8644,9.8644,0,0,1,12.87,12.29528l-1.87017,2.13734,4.18563,4.72a2.52188,2.52188,0,1,0,3.56223-3.56224Zm3.0279-3.38412a5.56941,5.56941,0,0,0,1.33584-5.43241.40392.40392,0,0,0-.71245-.17811l-3.117,3.117L13.31524,4.10214l3.117-3.117a.39888.39888,0,0,0-.17811-.71245,5.18987,5.18987,0,0,0-5.43241,1.33584A5.47847,5.47847,0,0,0,9.753,7.66437l-8.90559,7.926a2.48153,2.48153,0,0,0-.08906,3.65129h0a2.47991,2.47991,0,0,0,3.6513-.08905l7.926-8.90559A5.2173,5.2173,0,0,0,18.30237,9.08927Z"/></g></g></svg>