<svg xmlns="http://www.w3.org/2000/svg" viewBox="0 0 20 20"><defs><style>.cls-1{fill:#464e5a;}</style></defs><g id="레이어_2" data-name="레이어 2"><g id="레이어_1-2" data-name="레이어 1"><path class="cls-1" d="M10.20312,11.417H9.7959a4.78976,4.78976,0,0,0-4.43067,2.97559,1.0837,1.0837,0,0,0,1.07715.96875h7.11524a1.0837,1.0837,0,0,0,1.07715-.96875A4.79009,4.79009,0,0,0,10.20312,11.417Z"/><path class="cls-1" d="M10,7.69434A1.52784,1.52784,0,1,0,8.47266,6.167,1.52956,1.52956,0,0,0,10,7.69434Z"/><path class="cls-1" d="M16.15387,0H3.84613A3.8088,3.8088,0,0,0,0,3.84613V16.15381A3.80881,3.80881,0,0,0,3.84613,20H16.15387A3.80881,3.80881,0,0,0,20,16.15381V3.84613A3.8088,3.8088,0,0,0,16.15387,0ZM10,3.25A2.91651,2.91651,0,1,1,7.083,6.167,2.92034,2.92034,0,0,1,10,3.25Zm3.55566,13.5H6.44434a2.47481,2.47481,0,0,1-2.47168-2.47266.656.656,0,0,1,.042-.24218,6.24213,6.24213,0,0,1,5.78027-4.00782h.40918a6.24123,6.24123,0,0,1,5.78028,4.00586.66259.66259,0,0,1,.043.249A2.47377,2.47377,0,0,1,13.55566,16.75Z"/></g></g></svg>