<svg xmlns="http://www.w3.org/2000/svg" viewBox="0 0 18.61077 20"><defs><style>.cls-1{fill:#677180;}</style></defs><g id="레이어_2" data-name="레이어 2"><g id="레이어_1-2" data-name="레이어 1"><path class="cls-1" d="M17.53876,11.45447l-.376-.217a1.42892,1.42892,0,0,1,0-2.47449l.376-.21741a2.14124,2.14124,0,0,0,.784-2.927l-.714-1.23706a2.14537,2.14537,0,0,0-2.92749-.78406l-.37549.21607a1.42875,1.42875,0,0,1-2.143-1.23706V2.14294A2.14549,2.14549,0,0,0,10.02027,0h-1.429A2.14514,2.14514,0,0,0,6.44873,2.14294V2.577A1.42871,1.42871,0,0,1,4.30579,3.81445l-.37555-.217a2.14606,2.14606,0,0,0-2.928.78406L.28778,5.61853a2.14127,2.14127,0,0,0,.78449,2.927l.37646.21741a1.42892,1.42892,0,0,1,0,2.47449l-.376.217a2.14123,2.14123,0,0,0-.784,2.927l.714,1.23706a2.146,2.146,0,0,0,2.92749.78442l.37555-.21643a1.42871,1.42871,0,0,1,2.14294,1.23694v.434A2.14515,2.14515,0,0,0,8.59125,20h1.429a2.14549,2.14549,0,0,0,2.14251-2.14258V17.423a1.42875,1.42875,0,0,1,2.143-1.23706l.37549.217a2.14677,2.14677,0,0,0,2.92749-.78442l.714-1.23706a2.14124,2.14124,0,0,0-.784-2.927m-8.233,2.11694A3.57147,3.57147,0,1,1,12.87726,10a3.57526,3.57526,0,0,1-3.57147,3.57141"/></g></g></svg>