<svg xmlns="http://www.w3.org/2000/svg" viewBox="0 0 20 20"><defs><style>.cls-1{fill:#464e5a;}</style></defs><g id="레이어_2" data-name="레이어 2"><g id="레이어_1-2" data-name="레이어 1"><path class="cls-1" d="M16.15387,0H3.84613A3.8088,3.8088,0,0,0,0,3.84613V16.15381A3.80881,3.80881,0,0,0,3.84613,20H16.15387A3.80881,3.80881,0,0,0,20,16.15381V3.84613A3.8088,3.8088,0,0,0,16.15387,0Zm1.6026,17.27612a.9429.9429,0,0,1-1.33179.06684l-.01037-.00946-2.99066-2.74469-.0174-.017a6.91077,6.91077,0,1,1,1.2511-1.40888q.02133.01776.0415.03681l2.99073,2.74463A.943.943,0,0,1,17.75647,17.27612Z"/><path class="cls-1" d="M8.86621,3.87085a5.45219,5.45219,0,1,0,3.67426,1.391A5.43061,5.43061,0,0,0,8.86621,3.87085ZM6.14587,12.38068a.524.524,0,0,1-.73986-.035A4.47078,4.47078,0,0,1,4.374,9.734a4.93943,4.93943,0,0,1,.40906-2.624.52383.52383,0,1,1,.93543.4715,4.105,4.105,0,0,0-.3014,2.05682,3.54944,3.54944,0,0,0,.76416,2.0022A.524.524,0,0,1,6.14587,12.38068Z"/></g></g></svg>