<svg xmlns="http://www.w3.org/2000/svg" viewBox="0 0 18.24214 20"><defs><style>.cls-1{fill:#434751;}</style></defs><g id="레이어_2" data-name="레이어 2"><g id="레이어_1-2" data-name="레이어 1"><path class="cls-1" d="M18.24214,15.7368c0-.43583-.43877-.84274-1.19692-1.19629A8.748,8.748,0,0,1,14.49968,7.834c.00665-.10734.00912-.21513.00912-.324a5.38743,5.38743,0,0,0-3.72591-5.12466V1.66244A1.66221,1.66221,0,1,0,7.45847,1.662v.72334A5.38941,5.38941,0,0,0,3.73194,7.51c0,.10888.00294.21667.00944.324a8.75544,8.75544,0,0,1-2.54493,6.70652C.43738,14.89406,0,15.301,0,15.7368,0,16.85128,2.8493,17.78,6.70745,18.06227a2.472,2.472,0,0,0,4.82724-.00016C15.39268,17.7797,18.24214,16.85112,18.24214,15.7368Z"/></g></g></svg>