<svg xmlns="http://www.w3.org/2000/svg" viewBox="0 0 20 19.99919"><defs><style>.cls-1{fill:#434751;}</style></defs><g id="레이어_2" data-name="레이어 2"><g id="레이어_1-2" data-name="레이어 1"><path class="cls-1" d="M9.99959,0A9.9996,9.9996,0,1,0,20,9.99959,10.01066,10.01066,0,0,0,9.99959,0Zm0,1.24478A8.74969,8.74969,0,0,1,16.76,15.55639,7.95368,7.95368,0,0,0,3.23342,15.548,8.74944,8.74944,0,0,1,9.99959,1.24478Zm0,17.427A8.61113,8.61113,0,0,1,4.129,16.44151a6.7716,6.7716,0,0,1,5.87057-3.41262,6.85331,6.85331,0,0,1,5.86005,3.40695A8.83457,8.83457,0,0,1,9.99959,18.67175Z"/><path class="cls-1" d="M9.99959,10.87078A3.61,3.61,0,1,0,6.39,7.26123,3.61427,3.61427,0,0,0,9.99959,10.87078Zm0-5.97512A2.36517,2.36517,0,1,1,7.63483,7.26123,2.36778,2.36778,0,0,1,9.99959,4.89566Z"/></g></g></svg>