<?xml version="1.0" encoding="utf-8"?>
<!-- Generator: Adobe Illustrator 26.1.0, SVG Export Plug-In . SVG Version: 6.00 Build 0)  -->
<svg version="1.1" id="레이어_1" xmlns="http://www.w3.org/2000/svg" xmlns:xlink="http://www.w3.org/1999/xlink" x="0px"
	 y="0px" viewBox="0 0 20 20" style="enable-background:new 0 0 20 20;" xml:space="preserve">
<style type="text/css">
	.st0{fill:#434751;}
</style>
<g>
	<path class="st0" d="M19.6,8.2c-0.1-0.1-0.1-0.2-0.2-0.3l-2.2-2.2c-0.4-0.4-1.1-0.4-1.5,0c-0.4,0.4-0.4,1.1,0,1.5l0.3,0.3h-2.8
		c-0.6,0-1.1,0.4-1.1,1.1c0,0.6,0.4,1.1,1.1,1.1h2.8l-0.3,0.3c-0.4,0.4-0.4,1.1,0,1.5c0.2,0.2,0.5,0.3,0.8,0.3
		c0.2,0,0.5-0.1,0.8-0.3l2.2-2.2c0.1-0.1,0.2-0.2,0.2-0.3C19.7,8.8,19.7,8.5,19.6,8.2z"/>
	<path class="st0" d="M14.3,11.9c-0.6,0-1.1,0.4-1.1,1.1v1.1c0,0.6-0.4,1.1-1.1,1.1h-1.1V5.8c0-1.4-0.9-2.6-2.1-3L7.3,2.2h4.9
		c0.6,0,1.1,0.4,1.1,1.1v1.1c0,0.6,0.4,1.1,1.1,1.1c0.6,0,1.1-0.4,1.1-1.1V3.2C15.4,1.4,14,0,12.2,0H1.4l0,0c0,0,0,0,0,0
		C0.8,0,0.3,0.5,0.3,1.1c0,0,0,0,0,0l0,0v15.1c0,0.4,0.3,0.9,0.6,1l7.1,2.7C8.3,20,8.6,20,8.8,20c0.4,0,0.9-0.1,1.2-0.4
		c0.5-0.4,1-1.1,1-1.7v-0.5h1.1c1.8,0,3.2-1.4,3.2-3.2V13C15.4,12.4,15,11.9,14.3,11.9z"/>
</g>
</svg>
