<?xml version="1.0" encoding="utf-8"?>
<!-- Generator: Adobe Illustrator 26.3.1, SVG Export Plug-In . SVG Version: 6.00 Build 0)  -->
<svg version="1.1" id="레이어_1" xmlns="http://www.w3.org/2000/svg" xmlns:xlink="http://www.w3.org/1999/xlink" x="0px"
	 y="0px" viewBox="0 0 48 48" style="enable-background:new 0 0 48 48;" xml:space="preserve">
<style type="text/css">
	.st0{fill:#FEFEFE;}
</style>
<path class="st0" d="M14,31.6l10-17.3l10,17.3H14z M23.4,26.5h1.4v-5.1h-1.4V26.5z M24.1,29c0.2,0,0.4-0.1,0.5-0.2
	c0.1-0.1,0.2-0.3,0.2-0.5c0-0.2-0.1-0.4-0.2-0.5s-0.3-0.2-0.5-0.2c-0.2,0-0.4,0.1-0.5,0.2c-0.1,0.1-0.2,0.3-0.2,0.5
	c0,0.2,0.1,0.4,0.2,0.5C23.7,28.9,23.9,29,24.1,29z M16.4,30.3h15.3L24,17.1L16.4,30.3z"/>
</svg>
