<?xml version="1.0" encoding="utf-8"?>
<!-- Generator: Adobe Illustrator 25.1.0, SVG Export Plug-In . SVG Version: 6.00 Build 0)  -->
<svg version="1.1" id="레이어_1" xmlns="http://www.w3.org/2000/svg" xmlns:xlink="http://www.w3.org/1999/xlink" x="0px"
	 y="0px" viewBox="0 0 20 20" style="enable-background:new 0 0 20 20;" xml:space="preserve">
<style type="text/css">
	.st0{fill:#FFFFFF;}
</style>
<g>
	<path class="st0" d="M13.90439,9.40993H3.29177c-0.50664,0-0.91738-0.41074-0.91738-0.91738s0.41074-0.91738,0.91738-0.91738
		h10.61262c0.99106,0,1.7973-0.7987,1.7973-1.78037s-0.79612-1.78027-1.77474-1.78027c-0.50664,0-0.91738-0.41074-0.91738-0.91738
		s0.41074-0.91738,0.91738-0.91738c1.99027,0,3.6095,1.62175,3.6095,3.61502C17.53645,7.78818,15.90711,9.40993,13.90439,9.40993z"
		/>
	<path class="st0" d="M16.39678,17.82023c-0.50664,0-0.91738-0.41074-0.91738-0.91738c0-0.50665,0.41074-0.91738,0.91738-0.91738
		c0.99169,0,1.76846-0.78047,1.76846-1.77668c0-0.97978-0.80902-1.7769-1.80345-1.7769H5.77409
		c-0.50664,0-0.91738-0.41074-0.91738-0.91738c0-0.50664,0.41074-0.91738,0.91738-0.91738h10.5877
		c2.00613,0,3.63821,1.62017,3.63821,3.61166C20,16.20016,18.38363,17.82023,16.39678,17.82023z"/>
	<path class="st0" d="M12.35764,15.34591H0.91738C0.41074,15.34591,0,14.93518,0,14.42853s0.41074-0.91738,0.91738-0.91738h11.44026
		c0.50664,0,0.91738,0.41074,0.91738,0.91738S12.86428,15.34591,12.35764,15.34591z"/>
</g>
</svg>
