<?xml version="1.0" encoding="utf-8"?>
<!-- Generator: Adobe Illustrator 25.1.0, SVG Export Plug-In . SVG Version: 6.00 Build 0)  -->
<svg version="1.1" id="레이어_1" xmlns="http://www.w3.org/2000/svg" xmlns:xlink="http://www.w3.org/1999/xlink" x="0px"
	 y="0px" viewBox="0 0 20 20" style="enable-background:new 0 0 20 20;" xml:space="preserve">
<style type="text/css">
	.st0{fill:#FFFFFF;}
</style>
<g>
	<path class="st0" d="M15.16328,12.02566h4.11507c0.39858,0,0.72165-0.32307,0.72165-0.72165V3.47915
		c0-0.39858-0.32307-0.72165-0.72165-0.72165H4.82295c-0.39858,0-0.72165,0.32307-0.72165,0.72165v1.71562L1.06309,3.56301
		C0.83954,3.44295,0.56922,3.44925,0.35126,3.57942C0.1334,3.70975,0,3.94493,0,4.19878v6.38559
		c0,0.25386,0.1334,0.48904,0.35126,0.61936c0.11386,0.06811,0.24203,0.10229,0.37039,0.10229
		c0.11729,0,0.23468-0.02854,0.34144-0.08588L4.1013,9.58839v1.71562c0,0.39858,0.32307,0.72165,0.72165,0.72165h4.11497
		c0.27434,1.18354,1.20749,2.11669,2.39104,2.39104v2.10415c0,0.39858,0.32307,0.72165,0.72165,0.72165h7.22775
		C19.67693,17.2425,20,16.91943,20,16.52085c0-0.39858-0.32307-0.72165-0.72165-0.72165h-6.50611V14.4167
		C13.9558,14.14235,14.88894,13.2092,15.16328,12.02566z M1.4433,5.40549L4.1013,6.83308v1.117L1.4433,9.37767V5.40549z
		 M18.55671,10.58236h-3.39342h-0.74566h-0.77175h-3.19056H9.6836H8.93792H5.5446V8.38163v-1.9801V4.20079h13.01211V10.58236z
		 M13.64588,12.02566c-0.27571,0.607-0.8863,1.03092-1.59528,1.03092s-1.31956-0.42393-1.59528-1.03092H13.64588z"/>
	<path class="st0" d="M15.44057,9.6199h1.5633c0.39858,0,0.72165-0.32307,0.72165-0.72165
		c0-0.39858-0.32307-0.72165-0.72165-0.72165h-1.5633c-0.39858,0-0.72165,0.32307-0.72165,0.72165
		C14.71892,9.29683,15.042,9.6199,15.44057,9.6199z"/>
</g>
</svg>
