<svg width="20" height="20" viewBox="0 0 20 20" fill="none" xmlns="http://www.w3.org/2000/svg">
<circle cx="10" cy="2" r="2" fill="#E0E0E0"/>
<path d="M3.55556 9L1.03291 10.9983C0.514026 11.4093 0.53049 12.202 1.06599 12.5911L9.30433 18.5777C9.65161 18.83 10.1212 18.8326 10.4712 18.584L18.9037 12.5951C19.45 12.2071 19.4676 11.4022 18.9388 10.9907L16.381 9" stroke="#E0E0E0" stroke-linecap="round"/>
<path d="M6.03175 3L1.34599 5.95214C0.72264 6.34487 0.723571 7.25395 1.34772 7.64539L9.36021 12.6706C9.68199 12.8724 10.0903 12.8745 10.4141 12.676L18.6066 7.65428C19.2437 7.26373 19.2429 6.33779 18.6052 5.94828L13.7778 3" stroke="#E0E0E0" stroke-linecap="round"/>
</svg>
