<?xml version="1.0" encoding="utf-8"?>
<!-- Generator: Adobe Illustrator 26.5.0, SVG Export Plug-In . SVG Version: 6.00 Build 0)  -->
<svg version="1.1" id="레이어_1" xmlns="http://www.w3.org/2000/svg" xmlns:xlink="http://www.w3.org/1999/xlink" x="0px"
	 y="0px" viewBox="0 0 33 32" style="enable-background:new 0 0 33 32;" xml:space="preserve">
<style type="text/css">
	.st0{fill:#FFFFFF;}
</style>
<g>
	<path class="st0" d="M8.5,0h16c0.9,0,1.6,0.7,1.6,1.6l0,0c0,0.9-0.7,1.6-1.6,1.6h-16c-0.9,0-1.6-0.7-1.6-1.6l0,0
		C6.9,0.7,7.6,0,8.5,0z"/>
	<path class="st0" d="M26.1,6.4H6.9c-1.8,0-3.2,1.4-3.2,3.2v19.2c0,1.8,1.4,3.2,3.2,3.2h19.2c1.8,0,3.2-1.4,3.2-3.2V9.6
		C29.3,7.8,27.9,6.4,26.1,6.4z M8.4,24.6L8.4,24.6c-1.3-2.1-0.7-4.9,1.4-6.2l4-2.5l4.8,7.6l-4,2.5C12.6,27.3,9.8,26.7,8.4,24.6z
		 M23.6,20.3L20,22.6L15.2,15l3.6-2.3c2.1-1.3,4.9-0.7,6.2,1.4h0C26.3,16.2,25.7,19,23.6,20.3z"/>
</g>
</svg>
