<?xml version="1.0" encoding="utf-8"?>
<!-- Generator: Adobe Illustrator 26.5.0, SVG Export Plug-In . SVG Version: 6.00 Build 0)  -->
<svg version="1.1" id="레이어_1" xmlns="http://www.w3.org/2000/svg" xmlns:xlink="http://www.w3.org/1999/xlink" x="0px"
	 y="0px" viewBox="0 0 33 32" style="enable-background:new 0 0 33 32;" xml:space="preserve">
<style type="text/css">
	.st0{fill:#FFFFFF;}
</style>
<path class="st0" d="M16.5,32c-2.2,0-4.3-0.4-6.2-1.3c-1.9-0.8-3.6-2-5.1-3.4c-1.4-1.4-2.6-3.1-3.4-5.1c-0.8-1.9-1.3-4-1.3-6.2
	c0-2.2,0.4-4.3,1.3-6.2s2-3.6,3.4-5.1c1.4-1.4,3.1-2.6,5.1-3.4s4-1.3,6.2-1.3c2.2,0,4.3,0.4,6.2,1.3c1.9,0.8,3.6,2,5.1,3.4
	c1.4,1.4,2.6,3.1,3.4,5.1c0.8,1.9,1.3,4,1.3,6.2c0,2.2-0.4,4.3-1.3,6.2c-0.8,1.9-2,3.6-3.4,5.1c-1.4,1.4-3.1,2.6-5.1,3.4
	C20.8,31.6,18.7,32,16.5,32z M11.7,28.8l2.5-6c-1-0.3-1.9-0.9-2.7-1.7c-0.8-0.8-1.4-1.7-1.8-2.8l-6,2.4c0.8,1.9,1.9,3.5,3.3,4.9
	C8.3,27.1,9.9,28.1,11.7,28.8z M9.7,13.7c0.4-1.1,1-2,1.8-2.8c0.8-0.8,1.7-1.3,2.7-1.7l-2.4-6C9.7,4,8,5.1,6.7,6.5
	c-1.4,1.4-2.4,3-3,4.7L9.7,13.7z M16.5,20.8c1.3,0,2.5-0.5,3.4-1.4c0.9-0.9,1.4-2.1,1.4-3.4s-0.5-2.5-1.4-3.4
	c-0.9-0.9-2.1-1.4-3.4-1.4c-1.3,0-2.5,0.5-3.4,1.4c-0.9,0.9-1.4,2.1-1.4,3.4s0.5,2.5,1.4,3.4C14,20.3,15.2,20.8,16.5,20.8z
	 M21.3,28.8c1.8-0.7,3.4-1.8,4.8-3.2c1.4-1.4,2.4-3,3.2-4.8l-6-2.5c-0.4,1.1-1,2.1-1.8,2.8c-0.8,0.8-1.7,1.3-2.7,1.6L21.3,28.8z
	 M23.3,13.6l6-2.5c-0.7-1.8-1.8-3.4-3.2-4.8c-1.4-1.4-3-2.4-4.8-3.2l-2.4,6c1,0.3,1.9,0.9,2.6,1.7C22.3,11.6,22.9,12.5,23.3,13.6z"
	/>
</svg>
