<?xml version="1.0" encoding="utf-8"?>
<!-- Generator: Adobe Illustrator 25.1.0, SVG Export Plug-In . SVG Version: 6.00 Build 0)  -->
<svg version="1.1" id="레이어_1" xmlns="http://www.w3.org/2000/svg" xmlns:xlink="http://www.w3.org/1999/xlink" x="0px"
	 y="0px" viewBox="0 0 20 20" style="enable-background:new 0 0 20 20;" xml:space="preserve">
<style type="text/css">
	.st0{fill:#A1ABBC;}
</style>
<g>
	<path class="st0" d="M17.9915028,14.8544264c1.0726471-1.0726461-0.6914749-4.6038418-3.980773-8.1290464
		c0.0617523-0.414423-0.06534-0.8515525-0.3843632-1.1705761c-0.3190241-0.3190236-0.7561464-0.4461093-1.1705694-0.384356
		c-3.5252047-3.289299-7.056407-5.0534267-8.1290531-3.9807799C4.2984977,1.2179139,4.272799,1.2483594,4.2484627,1.2799727
		C4.1625781,1.358587,4.0776672,1.4387443,3.9946184,1.5217929c-3.390835,3.3908353-3.0806937,9.1986141,0.6927252,12.9720345
		s9.5811987,4.08356,12.9720345,0.6927252c0.0830479-0.0830488,0.1632061-0.1679602,0.2418194-0.2538443
		C17.9328079,14.9083681,17.9632568,14.8826723,17.9915028,14.8544264z M7.5309954,2.6657391
		c1.2602243,0.6974061,2.6683598,1.7472558,4.0510435,3.0127864c-0.1931477,0.2457056-0.2909727,0.5417933-0.2921677,0.8386526
		L8.9196396,7.0058646l0.1138725,0.5520167l2.3708153-0.4888253c0.0665493,0.1528988,0.161149,0.2965398,0.2861977,0.4215889
		c0.1250629,0.1250625,0.2687111,0.2196698,0.4216309,0.2862115l-0.4888668,2.3708019l0.5520163,0.1138725l0.4887218-2.370225
		c0.2968521-0.0012021,0.592926-0.099041,0.8386173-0.2921748c1.2655306,1.3826842,2.3153811,2.7908196,3.0127897,4.0510468
		c0.9124851,1.6488647,0.8601227,2.3939877,0.791996,2.5201769c-0.1261883,0.0681267-0.8713112,0.1204901-2.5201769-0.791996
		c-1.5604429-0.863555-3.3477087-2.2670269-5.0325623-3.9518805S6.6663661,5.95436,5.8028145,4.3939199
		C4.8903255,2.7450519,4.9426923,1.9999323,5.0108118,1.8737365C5.1370077,1.805617,5.8821273,1.7532504,7.5309954,2.6657391z"/>
	<path class="st0" d="M11.8654909,0.7245569c1.7471838,0.0319712,3.389946,0.7300548,4.625535,1.9656434
		s1.9336166,2.8782954,1.9655876,4.6254787c0.0017796,0.0976372,0.0419788,0.185544,0.105978,0.2495418
		c0.0671673,0.0671673,0.1604671,0.1079793,0.262886,0.1060886c0.2001114-0.0036139,0.3593006-0.1688075,0.3556309-0.3688636
		c-0.0353069-1.9357853-0.808733-3.7557516-2.1776543-5.1246738c-1.3689785-1.368978-3.1889448-2.1424026-5.1247301-2.1777098
		C11.678668-0.0036075,11.5134745,0.1555811,11.50986,0.3556929C11.5061903,0.5555266,11.6653242,0.7208871,11.8654909,0.7245569z"
		/>
	<path class="st0" d="M12.1623507,3.0310965c-0.2000561-0.0036697-0.3652496,0.155519-0.3688641,0.3556309
		c-0.0037251,0.2000005,0.1555185,0.3652496,0.3556309,0.3688638c0.8685036,0.0159023,1.6850758,0.362859,2.299367,0.9771502
		c0.6142359,0.6142359,0.9611921,1.4308076,0.9770947,2.2993116c0.0017796,0.0976372,0.0419798,0.185544,0.1059771,0.2495418
		c0.0671673,0.0671673,0.1604681,0.1079793,0.262887,0.1060891c0.2001114-0.0036144,0.3593006-0.168808,0.3556309-0.3688641
		c-0.0192394-1.0569949-0.4415359-2.0508814-1.1891613-2.7985067S13.2193451,3.0503349,12.1623507,3.0310965z"/>
	<path class="st0" d="M9.9312487,18.0808334c-2.0274448-0.2740917-4.0458827-1.2110691-5.6986532-2.7930021
		c-0.7437749,0.2137203-1.4455214,0.6128101-2.0314834,1.1987734c-0.9459507,0.9459496-1.4055364,2.1932507-1.3813773,3.4328842
		C0.8202559,19.9463234,0.820673,19.9731655,0.8216529,20l9.4392319-0.0000076
		c0.0009737-0.0268269,0.0022249-0.0536556,0.0027456-0.0805035C10.2756615,19.2954178,10.1650143,18.6693935,9.9312487,18.0808334z
		"/>
</g>
</svg>
