<?xml version="1.0" encoding="utf-8"?>
<!-- Generator: Adobe Illustrator 25.1.0, SVG Export Plug-In . SVG Version: 6.00 Build 0)  -->
<svg version="1.1" id="레이어_1" xmlns="http://www.w3.org/2000/svg" xmlns:xlink="http://www.w3.org/1999/xlink" x="0px"
	 y="0px" viewBox="0 0 20 20" style="enable-background:new 0 0 20 20;" xml:space="preserve">
<style type="text/css">
	.st0{fill:#A1ABBC;}
</style>
<g>
	<path class="st0" d="M20,9.3333607h-2.0336227c-0.321249-3.885159-3.4145784-6.9784889-7.2997379-7.299737V0H9.3333607v2.0336237
		c-3.885159,0.3212483-6.9784889,3.414578-7.299737,7.299737H0v1.3332787h2.0336237
		c0.3212483,3.8851595,3.414578,6.9784889,7.299737,7.2997379V20h1.3332787v-2.0336227
		c3.8851595-0.321249,6.9784889-3.4145784,7.2997379-7.2997379H20V9.3333607z M10.6666393,16.6329613v-1.2996416H9.3333607
		v1.2996416c-3.1494823-0.3128395-5.6534834-2.8168402-5.9663224-5.9663219h1.2996421V9.3333607H3.3670382
		c0.312839-3.1494823,2.8168402-5.6534834,5.9663224-5.9663224v1.2996421h1.3332787V3.3670382
		c3.1494818,0.312839,5.6534824,2.8168402,5.9663219,5.9663224h-1.2996416v1.3332787h1.2996416
		C16.3201218,13.8161211,13.8161211,16.3201218,10.6666393,16.6329613z"/>
	<circle class="st0" cx="10" cy="10" r="2.6666937"/>
</g>
</svg>
