<?xml version="1.0" encoding="utf-8"?>
<!-- Generator: Adobe Illustrator 25.1.0, SVG Export Plug-In . SVG Version: 6.00 Build 0)  -->
<svg version="1.1" id="레이어_1" xmlns="http://www.w3.org/2000/svg" xmlns:xlink="http://www.w3.org/1999/xlink" x="0px"
	 y="0px" viewBox="0 0 20 20" style="enable-background:new 0 0 20 20;" xml:space="preserve">
<style type="text/css">
	.st0{fill:#A1ABBC;}
</style>
<g>
	<g>
		<path class="st0" d="M0.548669,10.1256266c-0.7579055,0.3971319-0.7264426,0.9788446,0.0685191,1.2948713l2.3520238,0.9306011
			c0.7949619,0.3139296,1.9968433,0.1426325,2.6715469-0.3845453l10.216341-8.056591
			c0.6719065-0.5292752,0.7439203-0.4509676,0.1601114,0.1740947l-8.0768681,8.6445961
			c-0.5852089,0.6236639-0.4125133,1.3871622,0.3845468,1.6954985l0.2754745,0.1076727
			c0.7970591,0.3076372,2.0975246,0.8264236,2.8889904,1.1480446l2.6093197,1.0634451
			c0.7921648,0.321619,1.4403,0.5887051,1.441699,0.5935993c0.000699,0.0048943,0.0041952,0.019577,0.0083895,0.020977
			c0.0041943,0.0013981,0.1908751-0.6726074,0.4153099-1.4969339L19.940979,1.2426103
			c0.2244358-0.8250261-0.2111492-1.1753128-0.9683571-0.7781814L0.548669,10.1256266z"/>
	</g>
	<g>
		<path class="st0" d="M7.005548,19.6938324c-0.046845,0.1391354,1.6088014-2.3974686,1.6088014-2.3974686
			c0.4677477-0.7145557,0.2027607-1.5668507-0.5887051-1.8898687l-1.8052692-0.739728
			c-0.7914658-0.3237171-1.1704183,0.055934-0.8425055,0.8473997C5.3778691,15.5148649,7.0530915,19.5512009,7.005548,19.6938324z"
			/>
	</g>
</g>
</svg>
