<?xml version="1.0" encoding="utf-8"?>
<!-- Generator: Adobe Illustrator 25.1.0, SVG Export Plug-In . SVG Version: 6.00 Build 0)  -->
<svg version="1.1" id="레이어_1" xmlns="http://www.w3.org/2000/svg" xmlns:xlink="http://www.w3.org/1999/xlink" x="0px"
	 y="0px" viewBox="0 0 20 20" style="enable-background:new 0 0 20 20;" xml:space="preserve">
<style type="text/css">
	.st0{fill:#A1ABBC;}
</style>
<g>
	<path class="st0" d="M10,12.2c-4.5,0-8.3,3.5-8.5,7.8h1.1c0.3-3.7,3.5-6.7,7.4-6.7c3.9,0,7.1,3,7.4,6.7h1.1
		C18.3,15.6,14.5,12.2,10,12.2z"/>
	<path class="st0" d="M10,10.9c3,0,5.5-2.5,5.5-5.5S13,0,10,0C8.5,0,7.2,0.6,6.1,1.6c-1,1-1.6,2.4-1.6,3.9C4.5,8.5,7,10.9,10,10.9z
		 M10,1.1c2.4,0,4.4,2,4.4,4.4s-2,4.4-4.4,4.4c-2.4,0-4.4-2-4.4-4.4S7.6,1.1,10,1.1z"/>
</g>
</svg>
