<?xml version="1.0" encoding="utf-8"?>
<!-- Generator: Adobe Illustrator 25.1.0, SVG Export Plug-In . SVG Version: 6.00 Build 0)  -->
<svg version="1.1" id="레이어_1" xmlns="http://www.w3.org/2000/svg" xmlns:xlink="http://www.w3.org/1999/xlink" x="0px"
	 y="0px" viewBox="0 0 20 20" style="enable-background:new 0 0 20 20;" xml:space="preserve">
<style type="text/css">
	.st0{fill:#A1ABBC;}
</style>
<path class="st0" d="M9.7,14.1c-2.3,0-4.2-1.9-4.2-4.2s1.9-4.2,4.2-4.2c2.3,0,4.2,1.9,4.2,4.2S12,14.1,9.7,14.1z M9.7,7
	C8.1,7,6.8,8.3,6.8,9.9s1.3,2.9,2.9,2.9c1.6,0,2.9-1.3,2.9-2.9S11.3,7,9.7,7z"/>
<path class="st0" d="M11.4,20H8.6c-0.7,0-1.3-0.5-1.4-1.1l-0.4-1.6c-0.6-0.2-1.1-0.6-1.6-0.9l-1.5,0.5c-0.7,0.2-1.4-0.1-1.7-0.7
	l-1.4-2.4c-0.3-0.6-0.2-1.3,0.3-1.8l1.2-1.1C2.1,10.6,2,10.3,2,10s0-0.6,0.1-0.9L0.9,8C0.4,7.5,0.3,6.8,0.6,6.2L2,3.8
	c0.3-0.6,1-0.9,1.7-0.7l1.5,0.5c0.5-0.4,1.1-0.7,1.6-0.9l0.4-1.6C7.4,0.5,7.9,0,8.6,0h2.8c0.7,0,1.3,0.5,1.4,1.1l0.4,1.6
	c0.6,0.2,1.1,0.6,1.6,0.9l1.5-0.5C16.9,3,17.6,3.2,18,3.8l1.4,2.4c0.3,0.6,0.2,1.3-0.3,1.8l-1.2,1.1c0,0.3,0.1,0.6,0.1,0.9
	s0,0.6-0.1,0.9l1.2,1.1c0,0,0,0,0,0c0.5,0.5,0.6,1.2,0.3,1.8L18,16.2c-0.3,0.6-1,0.9-1.7,0.7l-1.5-0.5c-0.5,0.4-1.1,0.7-1.6,0.9
	l-0.4,1.6C12.6,19.5,12.1,20,11.4,20z M5.4,15c0.1,0,0.3,0,0.4,0.1C6.3,15.7,7,16,7.6,16.3C7.8,16.3,8,16.5,8,16.7l0.4,1.9
	c0,0.1,0.1,0.1,0.2,0.1h2.8c0.1,0,0.2-0.1,0.2-0.1l0.4-1.9c0-0.2,0.2-0.4,0.4-0.4c0.7-0.2,1.3-0.6,1.9-1.1c0.2-0.1,0.4-0.2,0.6-0.1
	l1.8,0.6c0.1,0,0.2,0,0.2-0.1l1.4-2.4c0-0.1,0-0.2,0-0.2l-1.4-1.3c-0.2-0.1-0.2-0.3-0.2-0.6c0.1-0.4,0.1-0.7,0.1-1.1
	c0-0.4,0-0.7-0.1-1.1c0-0.2,0-0.4,0.2-0.6l1.4-1.3c0.1-0.1,0.1-0.2,0-0.2l-1.4-2.4c0-0.1-0.1-0.1-0.2-0.1l-1.8,0.6
	c-0.2,0.1-0.4,0-0.6-0.1C13.7,4.3,13,4,12.4,3.7C12.2,3.7,12,3.5,12,3.3l-0.4-1.9c0-0.1-0.1-0.1-0.2-0.1H8.6c-0.1,0-0.2,0.1-0.2,0.1
	L8,3.3c0,0.2-0.2,0.4-0.4,0.4C7,4,6.3,4.3,5.8,4.8C5.6,4.9,5.4,5,5.2,4.9L3.3,4.3c-0.1,0-0.2,0-0.2,0.1L1.7,6.8c0,0.1,0,0.2,0,0.2
	l1.4,1.3c0.2,0.1,0.2,0.3,0.2,0.6C3.3,9.3,3.3,9.6,3.3,10s0,0.7,0.1,1.1c0,0.2,0,0.4-0.2,0.6l-1.4,1.3c-0.1,0.1-0.1,0.2,0,0.2
	l1.4,2.4c0,0.1,0.1,0.1,0.2,0.1l1.8-0.6C5.2,15.1,5.3,15,5.4,15z"/>
</svg>
