<?xml version="1.0" encoding="utf-8"?>
<!-- Generator: Adobe Illustrator 25.1.0, SVG Export Plug-In . SVG Version: 6.00 Build 0)  -->
<svg version="1.1" id="레이어_1" xmlns="http://www.w3.org/2000/svg" xmlns:xlink="http://www.w3.org/1999/xlink" x="0px"
	 y="0px" viewBox="0 0 20 20" style="enable-background:new 0 0 20 20;" xml:space="preserve">
<style type="text/css">
	.st0{fill:#A1ABBC;}
</style>
<g>
	<polygon class="st0" points="19.4230347,4.2690125 19.4230347,5.6350403 0.5770264,5.6350403 0.5770264,4.2690125 0,4.2690125 
		0,5.6350403 0,6.2120056 0,7.5769958 0.5770264,7.5769958 0.5770264,6.2120056 19.4230347,6.2120056 19.4230347,7.5769958 
		20,7.5769958 20,6.2120056 20,5.6350403 20,4.2690125 	"/>
	<polygon class="st0" points="17.519043,12.4230042 16.9420166,12.4230042 16.9420166,10.1150208 13.9039917,10.1150208 
		13.9039917,13.1919861 13.3270264,13.1919861 13.3270264,10.1150208 10.2880249,10.1150208 10.2880249,12.4230042 
		9.7120361,12.4230042 9.7120361,10.1150208 6.6730347,10.1150208 6.6730347,13.1919861 6.0960083,13.1919861 6.0960083,10.1150208 
		3.0580444,10.1150208 3.0580444,12.4230042 2.4810181,12.4230042 2.4810181,10.1150208 0,10.1150208 0,15.7309875 20,15.7309875 
		20,10.1150208 17.519043,10.1150208 	"/>
</g>
</svg>
