<?xml version="1.0" encoding="utf-8"?>
<!-- Generator: Adobe Illustrator 25.1.0, SVG Export Plug-In . SVG Version: 6.00 Build 0)  -->
<svg version="1.1" id="레이어_1" xmlns="http://www.w3.org/2000/svg" xmlns:xlink="http://www.w3.org/1999/xlink" x="0px"
	 y="0px" viewBox="0 0 20 20" style="enable-background:new 0 0 20 20;" xml:space="preserve">
<style type="text/css">
	.st0{fill:#A1ABBC;}
</style>
<g>
	<path class="st0" d="M15.7967529,9.6603394c-0.7203369,0-1.3048096,0.5844727-1.3048096,1.3048706v5.7967529
		c0,0.3467407-0.2816162,0.6283569-0.6283569,0.6283569H3.2366333c-0.3467407,0-0.6283569-0.2816162-0.6283569-0.6283569V6.1350098
		c0-0.3467407,0.2816162-0.6283569,0.6283569-0.6283569h5.7967529c0.7203369,0,1.3048706-0.5838013,1.3048706-1.3041382
		S9.7537231,2.8983765,9.0333862,2.8983765H3.2366333C1.4520264,2.8983765,0,4.3504028,0,6.1350098v10.6269531
		C0,18.5465698,1.4520264,20,3.2366333,20h10.6269531c1.7846069,0,3.2380371-1.4534302,3.2380371-3.2380371V10.96521
		C17.1016235,10.244812,16.5171509,9.6603394,15.7967529,9.6603394z"/>
	<path class="st0" d="M19.9987183,1.2977295c-0.0008545-0.1676636-0.0342407-0.3345337-0.0994263-0.4918823
		c-0.1322632-0.3189087-0.3863525-0.572937-0.7053223-0.7052002C19.0344849,0.0346069,18.8651733,0,18.6951904,0h-5.796814
		c-0.7203369,0-1.3048096,0.5838013-1.3048096,1.3041382s0.5844727,1.3041382,1.3048096,1.3041382h2.6477661l-8.4013672,8.4007568
		c-0.5094604,0.5095215-0.5094604,1.3359985,0,1.845459c0.2547607,0.2547607,0.5880127,0.3821411,0.9219971,0.3821411
		c0.3340454,0,0.6672974-0.1273804,0.9220581-0.3821411l8.4014893-8.4009399v2.6473389
		c0,0.7203369,0.5844727,1.3041382,1.3048706,1.3041382C19.4155273,8.4050293,20,7.821228,20,7.1008911V1.3041382
		C20,1.3018799,19.9987183,1.2999878,19.9987183,1.2977295z"/>
</g>
</svg>
