<?xml version="1.0" encoding="utf-8"?>
<!-- Generator: Adobe Illustrator 25.1.0, SVG Export Plug-In . SVG Version: 6.00 Build 0)  -->
<svg version="1.1" id="레이어_1" xmlns="http://www.w3.org/2000/svg" xmlns:xlink="http://www.w3.org/1999/xlink" x="0px"
	 y="0px" viewBox="0 0 20 20" style="enable-background:new 0 0 20 20;" xml:space="preserve">
<style type="text/css">
	.st0{fill:#A1ABBC;}
</style>
<path class="st0" d="M18.2770004,15.6169996V4.3829999C19.2630005,4.1560001,20,3.277,20,2.2219999
	C20,0.995,19.0049992,0,17.7779999,0c-1.0550003,0-1.9329996,0.737-2.1610003,1.722H4.3829999C4.1560001,0.737,3.277,0,2.2219999,0
	C0.995,0,0,0.995,0,2.2219999c0,1.0550001,0.737,1.9329998,1.722,2.161v11.2340012C0.737,15.8439999,0,16.7229996,0,17.7779999
	C0,19.0049992,0.995,20,2.2219999,20c1.0550001,0,1.9340003-0.7369995,2.161-1.7229996h11.2340012
	C15.8439999,19.2630005,16.7229996,20,17.7779999,20C19.0049992,20,20,19.0049992,20,17.7779999
	C20,16.7229996,19.2630005,15.8439999,18.2770004,15.6169996z M15.6169996,17.2770004H4.3829999
	c-0.1900001-0.8239994-0.8369999-1.4700003-1.661-1.6599998V4.3829999c0.8240001-0.1900001,1.471-0.8369999,1.661-1.661h11.2340012
	c0.1899996,0.8240001,0.8360004,1.47,1.6599998,1.661v11.2340012
	C16.4529991,15.8070002,15.8070002,16.4529991,15.6169996,17.2770004z"/>
</svg>
