<?xml version="1.0" encoding="utf-8"?>
<!-- Generator: Adobe Illustrator 25.1.0, SVG Export Plug-In . SVG Version: 6.00 Build 0)  -->
<svg version="1.1" id="레이어_1" xmlns="http://www.w3.org/2000/svg" xmlns:xlink="http://www.w3.org/1999/xlink" x="0px"
	 y="0px" viewBox="0 0 20 20" style="enable-background:new 0 0 20 20;" xml:space="preserve">
<style type="text/css">
	.st0{fill:#A1ABBC;}
</style>
<path class="st0" d="M16.3209991,2.253l0.0119991-0.017L15.5200005,1.653l-0.0059996,0.008C13.9329996,0.613,12.0389996,0,10,0
	C4.4770002,0,0,4.4770002,0,10s4.4770002,10,10,10s10-4.4770002,10-10C20,6.875,18.5650005,4.0869999,16.3209991,2.253z M10,19
	c-4.9629998,0-9-4.0370007-9-9s4.0370002-9,9-9c1.8190002,0,3.5109997,0.546,4.9279995,1.4780002L11.1219997,7.777
	C10.783,7.6059999,10.4060001,7.5,10,7.5c-1.3810005,0-2.5,1.1189995-2.5,2.5s1.1189995,2.5,2.5,2.5s2.5-1.1189995,2.5-2.5
	c0-0.6119995-0.2290001-1.1660004-0.5939999-1.6000004l3.8290005-5.3299999C17.7280006,4.7220001,19,7.2150002,19,10
	C19,14.9630003,14.9630003,19,10,19z"/>
</svg>
