<?xml version="1.0" encoding="utf-8"?>
<!-- Generator: Adobe Illustrator 25.1.0, SVG Export Plug-In . SVG Version: 6.00 Build 0)  -->
<svg  xmlns="http://www.w3.org/2000/svg" xmlns:xlink="http://www.w3.org/1999/xlink" x="0px"
	 y="0px" viewBox="0 0 50 50" style="enable-background:new 0 0 50 50; transform: translate(-2.5px, 0.5px);" width="50px" height="50px" xml:space="preserve">
<style type="text/css">
	.st0{fill:#c36161;}
	.st1{opacity:0.3;fill:#c36161;}
</style>
<g>
	<path class="st0" d="M12,1C7.8,1,4,4.4,4,8.6c0,6.2,6.4,6.9,8,16.4c1.6-9.5,8-10.2,8-16.4C20,4.4,16.2,1,12,1z M12,12
		c-1.7,0-3-1.3-3-3s1.3-3,3-3c1.7,0,3,1.3,3,3S13.7,12,12,12z"/>
	<path class="st1" d="M12,0C7.1,0,3,3.9,3,8.6c0,3.3,1.6,5.3,3.4,7.3c1.8,2.1,3.8,4.5,4.6,9.2c0.1,0.5,0.5,0.8,1,0.8
		c0.5,0,0.9-0.4,1-0.8c0.8-4.7,2.8-7.1,4.6-9.2c1.7-2,3.4-4,3.4-7.3C21,3.9,16.9,0,12,0z M12,25c-1.6-9.5-8-10.2-8-16.4
		C4,4.4,7.8,1,12,1c4.2,0,8,3.4,8,7.6C20,14.8,13.6,15.5,12,25z"/>
</g>
</svg>
