<?xml version="1.0" encoding="utf-8"?>
<!-- Generator: Adobe Illustrator 25.1.0, SVG Export Plug-In . SVG Version: 6.00 Build 0)  -->
<svg version="1.1" id="레이어_1" xmlns="http://www.w3.org/2000/svg" xmlns:xlink="http://www.w3.org/1999/xlink" x="0px"
	 y="0px" viewBox="0 0 20 20" style="enable-background:new 0 0 20 20;" xml:space="preserve">
<style type="text/css">
	.st0{fill:#A1ABBC;}
</style>
<g>
	<path class="st0" d="M15.8332825,9.9996758C15.372467,9.9996758,15,10.3730583,15,10.8329582v6.6667175
		c0,0.459137-0.3733826,0.8332825-0.8332825,0.8332825H2.5c-0.4600525,0-0.8332825-0.3741455-0.8332825-0.8332825V5.8329582
		c0-0.459137,0.37323-0.8332825,0.8332825-0.8332825h6.6667175C9.627533,4.9996758,10,4.6262932,10,4.1663933
		c0-0.4600525-0.372467-0.8334351-0.8332825-0.8334351H2.5c-1.3783264,0-2.5,1.1216736-2.5,2.5v11.6667175
		c0,1.3783264,1.1216736,2.5,2.5,2.5h11.6667175c1.3783264,0,2.5-1.1216736,2.5-2.5v-6.6667175
		C16.6667175,10.3721428,16.2940979,9.9996758,15.8332825,9.9996758z"/>
	<path class="st0" d="M7.8132629,9.240551C7.7549744,9.2988396,7.7157593,9.3729973,7.6991272,9.4529533l-0.5891418,2.9467773
		c-0.0274658,0.1365662,0.0158691,0.2774048,0.1141357,0.3765869c0.0791931,0.0791931,0.1858521,0.1216125,0.295105,0.1216125
		c0.0265503,0,0.0541687-0.0024414,0.0816345-0.0082397l2.9458618-0.5891418
		c0.0816345-0.0167847,0.1557922-0.0558472,0.2133179-0.1142883l6.5933228-6.5933228l-2.9458618-2.9457092L7.8132629,9.240551z"/>
	<path class="st0" d="M19.3899536,0.6097221c-0.8123779-0.8125305-2.1340942-0.8125305-2.9458618,0l-1.1532593,1.1532593
		l2.9458618,2.9458618l1.1532593-1.1534119C19.7833252,3.1629753,20,2.6395988,20,2.0829582
		S19.7833252,1.0029411,19.3899536,0.6097221z"/>
</g>
</svg>
