<?xml version="1.0" encoding="utf-8"?>
<!-- Generator: Adobe Illustrator 25.1.0, SVG Export Plug-In . SVG Version: 6.00 Build 0)  -->
<svg version="1.1" id="레이어_1" xmlns="http://www.w3.org/2000/svg" xmlns:xlink="http://www.w3.org/1999/xlink" x="0px"
	 y="0px" viewBox="0 0 20 20" style="enable-background:new 0 0 20 20;" xml:space="preserve">
<style type="text/css">
	.st0{fill:#A1ABBC;}
</style>
<g id="XMLID_30_">
	<path id="XMLID_32_" class="st0" d="M0,5.7756557l0,9.6717672c0,1.4068995,1.1448661,2.5518866,2.5518053,2.5518866h9.6717672
		c1.4069395,0,2.5517645-1.1449871,2.5517645-2.5518866V9.9312296c-0.1040268-0.0336351-0.2092695-0.0645151-0.3061237-0.1152525
		c-0.4621048-0.2429056-0.7979336-0.649085-0.9526567-1.1258192c-0.264019,0.0817385-0.5194473,0.1877108-0.76369,0.3133373
		v6.4438877c0,0.2917385-0.2376375,0.5294161-0.5293341,0.5294161H2.5517642c-0.2916565,0-0.5293748-0.2376776-0.5293748-0.5294161
		V5.7756557c0-0.2916565,0.2377579-0.529254,0.5293748-0.529254h6.3728466
		c0.5918245-0.8176684,1.3469229-1.5082514,2.2231503-2.0224302H2.5517642C1.1448252,3.2239716,0,4.3687968,0,5.7756557z"/>
	<path id="XMLID_31_" class="st0" d="M14.7707987,8.0891342c0,0.2225618,0.1237631,0.4272528,0.3205109,0.53055
		c0.087574,0.0455093,0.1824427,0.0679197,0.2778788,0.0679197c0.11975,0,0.2389336-0.0355806,0.3409758-0.1066208
		l4.0593672-2.8144865c0.1448364-0.1006637,0.2311535-0.2660046,0.2304649-0.4418011
		c-0.0007305-0.1764045-0.0876141-0.3409753-0.2330589-0.4404235l-4.0600557-2.7788658
		c-0.1013927-0.0690541-0.2192392-0.1047161-0.3383818-0.1047161c-0.0954771,0-0.1916418,0.0230181-0.2791758,0.069176
		c-0.1961803,0.1039865-0.3192949,0.307421-0.3192949,0.529983v0.9559
		c-3.2692966,0.0783751-5.8974504,2.7479455-5.8974504,6.0364513c0,0.0202618,0,0.0407677,0,0.0611916
		c0.0026331,0.2264528,0.1540747,0.4239302,0.3719769,0.4865408c0.0461168,0.0131302,0.0935307,0.0196953,0.1402149,0.0196953
		c0.1711359,0,0.3357887-0.0868454,0.4318733-0.23699c1.0480518-1.644577,2.8704109-2.7407322,4.954155-2.7907395V8.0891342z"/>
</g>
</svg>
