<?xml version="1.0" encoding="utf-8"?>
<!-- Generator: Adobe Illustrator 25.1.0, SVG Export Plug-In . SVG Version: 6.00 Build 0)  -->
<svg version="1.1" id="레이어_1" xmlns="http://www.w3.org/2000/svg" xmlns:xlink="http://www.w3.org/1999/xlink" x="0px"
	 y="0px" viewBox="0 0 20 20" style="enable-background:new 0 0 20 20;" xml:space="preserve">
<style type="text/css">
	.st0{fill:#A1ABBC;}
</style>
<g>
	<path class="st0" d="M9.9988451,3.8931937c-2.1143584,0-3.8344517,1.7200933-3.8344517,3.8339233
		c0,2.1143584,1.7200933,3.8344512,3.8349791,3.8344512c2.1111917-0.0021114,3.8318119-1.7222042,3.8339233-3.8339233V7.7271171
		C13.8332958,5.613287,12.1126747,3.8931937,9.9988451,3.8931937z M12.6446953,7.7271171
		c0,1.4593616-1.1864901,2.646378-2.6453228,2.646378c-1.457778-0.0021105-2.6447949-1.1891279-2.6463785-2.646378
		c0-1.4588332,1.1870174-2.6458502,2.6458511-2.6458502C11.4582052,5.0812669,12.6446953,6.2682838,12.6446953,7.7271171z"/>
	<path class="st0" d="M13.3382215,15.7554502l2.7656603-3.300848c0.1995087-0.2554541,0.3863487-0.5320206,0.5605221-0.8275871
		l0.0411682-0.0738916c1.8589039-3.2554569,1.1178761-7.3601403-1.7617893-9.7600374
		c-2.8807211-2.4004245-7.0519071-2.3893409-9.9183769,0.0248065c-2.8680534,2.414675-3.5884976,6.5230532-1.7068982,9.7816772
		c0.1815624,0.3124561,0.3868759,0.614356,0.6143565,0.9025335l2.7371597,3.2522907
		c-2.9160831,0.3325119-4.3933892,1.0144272-4.3933892,2.0309658C2.2766347,19.9377193,9.2082033,20,9.9988451,20
		c0.7906408,0,7.722209-0.0622807,7.722209-2.2146397C17.7210541,16.7709332,16.2474422,16.0890179,13.3382215,15.7554502z
		 M10.7013435,17.0485554c-0.0369453,0.0369453-0.0781136,0.0833912-0.1425056,0.16045
		c-0.1256151,0.1857853-0.334096,0.2997894-0.5710773,0.3071785c-0.1747007,0.0158329-0.3573189-0.0738926-0.4824066-0.2649555
		c-0.0585861-0.0654469-0.1192827-0.1319485-0.1910629-0.202673l-4.4620028-5.2969799
		c-0.1715345-0.2195635-0.3309293-0.4528503-0.4744902-0.6935263l-0.0364184-0.0643911
		C2.7527084,8.2422476,3.3660095,4.7635322,5.799685,2.7209549c2.434732-2.0425777,5.9688659-2.041522,8.3999023,0
		c2.4342031,2.0425773,3.0475035,5.521821,1.476778,8.2457857l-0.0337791,0.0527792
		c-0.1382828,0.2380371-0.2966223,0.4723797-0.4623508,0.6898317L10.7013435,17.0485554z M8.432869,17.847641
		c0.0332508,0.0401115,0.0686131,0.0717793,0.0691414,0.0675583c0.0406399,0.042223,0.0781136,0.0844479,0.0986977,0.1066151
		c0.3304014,0.4517937,0.8708668,0.7040825,1.4108038,0.6819134c0.5811052-0.0063324,1.1331816-0.2892323,1.4783621-0.763195
		c0.0327234-0.0253334,0.061224-0.0538349,0.0928917-0.0897255l0.83181-0.9933147
		c2.6928244,0.2248421,3.7990894,0.7315273,4.0703773,0.9363117c-0.415905,0.3377914-2.6168222,1.0175953-6.4861078,1.0175953
		c-3.9906797,0-6.2069025-0.7230835-6.5098591-0.999649c0.226953-0.1910629,1.3194945-0.7241383,4.1089058-0.954258
		L8.432869,17.847641z"/>
</g>
</svg>
