<?xml version="1.0" encoding="utf-8"?>
<!-- Generator: Adobe Illustrator 25.1.0, SVG Export Plug-In . SVG Version: 6.00 Build 0)  -->
<svg version="1.1" id="레이어_1" xmlns="http://www.w3.org/2000/svg" xmlns:xlink="http://www.w3.org/1999/xlink" x="0px"
	 y="0px" viewBox="0 0 20 20" style="enable-background:new 0 0 20 20;" xml:space="preserve">
<style type="text/css">
	.st0{fill:#A1ABBC;}
</style>
<path class="st0" d="M19.4159317,18.5402184l-4.0120049-4.0120049c1.4712906-1.5432472,2.3799992-3.627738,2.3799992-5.9282627
	C17.783926,3.8503253,13.9336014,0,9.1839762,0C4.4343934,0,0.5840681,3.8503253,0.5840681,8.5999508
	c0,4.7495823,3.8503253,8.5999088,8.5999079,8.5999088c1.7016926,0,3.2835007-0.5007076,4.6185675-1.353466L17.9561501,20
	L19.4159317,18.5402184z M2.6487317,8.5999508c0-3.6035843,2.9317031-6.5352869,6.5352445-6.5352869
	c3.6035843,0,6.5352869,2.9317029,6.5352869,6.5352869c0,3.6035414-2.9317026,6.5352449-6.5352869,6.5352449
	C5.5804348,15.1351957,2.6487317,12.2034922,2.6487317,8.5999508z"/>
</svg>
