<?xml version="1.0" encoding="utf-8"?>
<!-- Generator: Adobe Illustrator 25.1.0, SVG Export Plug-In . SVG Version: 6.00 Build 0)  -->
<svg version="1.1" id="레이어_1" xmlns="http://www.w3.org/2000/svg" xmlns:xlink="http://www.w3.org/1999/xlink" x="0px"
	 y="0px" viewBox="0 0 20 20" style="enable-background:new 0 0 20 20;" xml:space="preserve">
<style type="text/css">
	.st0{fill:#43A9FF;}
</style>
<g>
	<path class="st0" d="M15.8,10c-0.5,0-0.8,0.4-0.8,0.8v6.7c0,0.5-0.4,0.8-0.8,0.8H2.5c-0.5,0-0.8-0.4-0.8-0.8V5.8C1.7,5.4,2,5,2.5,5
		h6.7C9.6,5,10,4.6,10,4.2c0-0.5-0.4-0.8-0.8-0.8H2.5C1.1,3.3,0,4.5,0,5.8v11.7C0,18.9,1.1,20,2.5,20h11.7c1.4,0,2.5-1.1,2.5-2.5
		v-6.7C16.7,10.4,16.3,10,15.8,10z"/>
	<path class="st0" d="M7.8,9.2C7.8,9.3,7.7,9.4,7.7,9.5l-0.6,2.9c0,0.1,0,0.3,0.1,0.4c0.1,0.1,0.2,0.1,0.3,0.1c0,0,0.1,0,0.1,0
		l2.9-0.6c0.1,0,0.2-0.1,0.2-0.1l6.6-6.6l-2.9-2.9L7.8,9.2z"/>
	<path class="st0" d="M19.4,0.6c-0.8-0.8-2.1-0.8-2.9,0l-1.2,1.2l2.9,2.9l1.2-1.2C19.8,3.2,20,2.6,20,2.1S19.8,1,19.4,0.6z"/>
</g>
</svg>
