<?xml version="1.0" encoding="utf-8"?>
<!-- Generator: Adobe Illustrator 24.3.0, SVG Export Plug-In . SVG Version: 6.00 Build 0)  -->
<svg version="1.1" id="레이어_1" xmlns="http://www.w3.org/2000/svg" xmlns:xlink="http://www.w3.org/1999/xlink" x="0px"
	 y="0px" viewBox="0 0 50 50" style="enable-background:new 0 0 50 50;" xml:space="preserve">
<style type="text/css">
	.st0{opacity:0.50196;fill-rule:evenodd;clip-rule:evenodd;fill:#FFBF00;}
	.st1{fill-rule:evenodd;clip-rule:evenodd;fill:url(#SVGID_1_);}
	.st2{fill-rule:evenodd;clip-rule:evenodd;fill:url(#SVGID_2_);}
	.st3{opacity:0.11765;fill-rule:evenodd;clip-rule:evenodd;fill:#FFFF00;}
	.st4{opacity:0.2549;fill-rule:evenodd;clip-rule:evenodd;fill:#FFFF00;}
	.st5{fill-rule:evenodd;clip-rule:evenodd;fill:url(#SVGID_3_);}
	.st6{fill-rule:evenodd;clip-rule:evenodd;fill:#D59701;}
	.st7{fill-rule:evenodd;clip-rule:evenodd;fill:url(#SVGID_4_);}
	.st8{fill-rule:evenodd;clip-rule:evenodd;fill:url(#SVGID_5_);}
	.st9{opacity:0.3451;fill-rule:evenodd;clip-rule:evenodd;fill:#FFFFFF;}
</style>
<g>
	<polygon class="st0" points="2.84553,27.11589 8.99701,26.83846 4.40217,30.93776 10.29083,29.1379 6.85956,34.25224 
		12.11739,31.0456 10.06518,36.85055 14.35909,32.43832 13.81649,38.57173 16.87759,33.22917 17.87766,39.30537 19.51452,33.36957 
		21.99297,39.0065 22.10132,32.85007 25.9047,37.69255 24.47943,31.70355 29.36709,35.44828 26.49651,30.00096 32.16249,32.41377 
		28.02809,27.85107 34.11528,28.77781 28.97588,25.38711 35.10334,24.77076 29.28185,22.76528 35.06318,20.64539 28.92576,20.1489 
		33.99799,16.65795 27.9298,17.70464 31.97495,13.06121 26.35806,15.58372 29.12039,10.08074 24.3079,13.92079 25.61579,7.90322 
		21.90875,12.81996 21.67806,6.66652 19.30993,12.35059 17.55762,6.44784 16.67803,12.54162 13.51257,7.25924 14.17555,13.38166 
		9.79536,9.05366 11.95983,14.81743 6.64089,11.71368 10.17251,16.75881 4.2478,15.07625 8.92173,19.08525 2.76736,18.92677 
		8.2909,21.64741 2.28885,23.02605 8.31596,24.28731 	"/>
	
		<linearGradient id="SVGID_1_" gradientUnits="userSpaceOnUse" x1="-271.25839" y1="255.17947" x2="-270.23141" y2="255.17947" gradientTransform="matrix(4.974 27.578 -27.543 4.981 8394.70215 6223.22803)">
		<stop  offset="0" style="stop-color:#FFBF00"/>
		<stop  offset="1" style="stop-color:#FF8000"/>
	</linearGradient>
	<polygon class="st1" points="1.27584,30.01102 8.23872,28.80543 3.60084,34.13689 10.04515,31.23766 6.87866,37.55513 
		12.39922,33.14392 10.90369,40.0496 15.15344,34.40518 15.42222,41.46635 18.13536,34.94131 20.15141,41.71357 21.15549,34.72018 
		24.7934,40.77677 24.0271,33.7537 29.05712,38.71664 26.56769,32.10431 32.67398,35.65996 28.61886,29.8736 35.41824,31.8004 
		30.0501,27.20411 37.11436,27.37861 30.77327,24.26276 37.65892,22.67449 30.7402,21.23266 37.01606,17.98298 29.95684,18.30642 
		35.22669,13.59828 28.46943,15.66805 32.40314,9.79644 26.37315,13.4814 28.72219,6.81647 23.79837,11.88418 24.41626,4.84457 
		20.90775,10.97841 19.75527,4.00659 17.88259,10.81993 15.03306,4.35354 14.91269,11.41779 10.54462,5.86365 12.18661,12.73768 
		6.5727,8.44337 9.8726,14.69212 3.3681,11.92928 8.11732,17.16153 1.12938,16.10333 7.03108,19.99001 0,20.70157 6.68311,22.99945 
		0.05012,25.43682 7.09425,26.00048 	"/>
	
		<linearGradient id="SVGID_2_" gradientUnits="userSpaceOnUse" x1="-269.66309" y1="257.49728" x2="-268.63629" y2="257.49728" gradientTransform="matrix(3.341 18.504 -18.504 3.341 5683.22314 4145.72314)">
		<stop  offset="0" style="stop-color:#FFBF00"/>
		<stop  offset="1" style="stop-color:#FF8000"/>
	</linearGradient>
	<path class="st2" d="M6.08021,23.55921c-0.60783-6.95641,4.5437-13.09732,11.50053-13.70566
		c6.95589-0.60783,13.09732,4.54411,13.70514,11.50052c0.60783,6.95631-4.5437,13.09722-11.50052,13.70505
		C12.82947,35.66746,6.68804,30.51552,6.08021,23.55921z"/>
	<path class="st3" d="M6.07826,23.56014c-0.60782-6.95631,4.54462-13.09722,11.50052-13.70556
		c6.95682-0.60783,13.09723,4.54514,13.70505,11.50052C32.38918,29.43175,7.32698,31.95939,6.07826,23.56014z"/>
	<path class="st4" d="M8.12739,20.70362c-1.71317-2.72464-0.09531-6.62436,3.60988-8.70409
		c3.7051-2.07922,8.10222-1.55623,9.81539,1.1685c1.71317,2.72516,0.09532,6.62488-3.6108,8.70461
		C14.23769,23.95134,9.83953,23.42877,8.12739,20.70362z"/>
	
		<linearGradient id="SVGID_3_" gradientUnits="userSpaceOnUse" x1="-278.94391" y1="251.34021" x2="-277.91675" y2="251.34021" gradientTransform="matrix(29.608 -19.987 19.987 29.608 3241.8269 -12986.17969)">
		<stop  offset="0" style="stop-color:#FFFF00"/>
		<stop  offset="1" style="stop-color:#FF8000"/>
	</linearGradient>
	<path class="st5" d="M18.4935,34.83347c0.41823,0.00698,0.83953-0.00853,1.2668-0.04509
		c6.80441-0.59581,11.84449-6.6033,11.24868-13.40873c-0.59376-6.80543-6.60074-11.84552-13.40719-11.25075
		c-6.80543,0.59479-11.84655,6.60126-11.25074,13.40669C6.90876,29.91571,12.22266,34.74473,18.4935,34.83347z M18.48549,35.38265
		c-6.54866-0.09234-12.09931-5.13437-12.68002-11.79889c-0.62292-7.10729,4.64189-13.38059,11.74918-14.00105
		c7.10729-0.62231,13.38213,4.64148,14.00198,11.74877c0.62087,7.10729-4.64189,13.37967-11.74917,14.00299
		C19.36107,35.37464,18.92076,35.38912,18.48549,35.38265z"/>
	<path class="st6" d="M20.47638,43.2512c-3.24064,0-6.08617-1.68954-7.65791-4.22416l-0.50049-0.96032l-0.70417,0.19904
		l-0.019,0.00607c-0.31993,0.05864-0.64994,0.09069-0.98702,0.09069c-2.88055,0-5.22465-2.28833-5.22465-5.11927
		c0-2.65397,2.06124-4.83097,4.69005-5.09329l0.44134-0.02157l0.00205-0.00504l0.02907,0.00401l0.06214-0.00401l0.81848,0.08228
		l0.02609-0.16053c0.44329-2.12586,2.35612-3.71361,4.63788-3.71361l0.04211,0.004l0.0492-0.004
		c0.65096,0,1.27378,0.13044,1.8395,0.36461l0.00401,0.00297l0.06522-0.09972c1.36407-1.98298,3.67202-3.28234,6.28481-3.28234
		l0.04221,0.00493l0.05012-0.00493c2.87357,0,5.37707,1.57113,6.66298,3.88657l0.13033,0.26683l0.06327-0.00903
		c0.19853-0.02054,0.39912-0.03205,0.59971-0.03205l0.04622,0.00196l0.04611-0.00196l2.49848,12.99247l-0.33904,0.64737
		c-1.07823,1.73771-3.02506,2.89626-5.24766,2.89626c-0.79342,0-1.55171-0.14801-2.25084-0.4173l-0.56767-0.25975l-1.1795,0.80143
		C23.61781,42.82898,22.09732,43.2512,20.47638,43.2512z"/>
	
		<linearGradient id="SVGID_4_" gradientUnits="userSpaceOnUse" x1="-270.79416" y1="254.11478" x2="-269.76648" y2="254.11478" gradientTransform="matrix(0 30.58 -30.58 0 7798.44189 8305.33984)">
		<stop  offset="0" style="stop-color:#FFFFFF"/>
		<stop  offset="1" style="stop-color:#86A4AA"/>
	</linearGradient>
	<path class="st7" d="M22.03806,45.73767c-4.024,0-7.48043-2.39721-8.9548-5.81389l-0.00606-0.00853l-0.97891,0.27927
		c-0.34202,0.06368-0.6941,0.09788-1.05512,0.09788c-3.07025,0-5.56267-2.44034-5.56267-5.44888
		c0-3.00605,2.49241-5.44639,5.56267-5.44639c0.38413,0,0.76025,0.03769,1.12034,0.11092l0.1063,0.02455l0.0682-0.43979
		c0.46845-2.23575,2.49149-3.9213,4.91571-3.9213c0.69215,0,1.35215,0.13692,1.9529,0.38712l0.26981,0.14297l0.21764-0.3526
		c1.4714-2.13088,3.96586-3.53408,6.78942-3.53408c3.10527,0,5.81142,1.69807,7.19757,4.19562l0.23068,0.46835l0.34202-0.05207
		c0.21066-0.02064,0.42326-0.03112,0.63987-0.03112c2.16354,0,4.07124,1.07474,5.19959,2.70862l0.04714,0.07467l0.27382-0.09829
		c0.47051-0.14288,0.97193-0.22216,1.49255-0.22216c1.73012,0,3.25574,0.8611,4.15741,2.16755l0.4283,0.76928l0.23869-0.0722
		c0.16249-0.03164,0.33205-0.05012,0.50554-0.05012c1.38316,0,2.50751,1.0998,2.50751,2.45585
		c0,1.35656-1.12435,2.45534-2.50751,2.45534c-0.34706,0-0.67706-0.06871-0.97594-0.19155l-0.09922-0.05167l-0.09737,0.17554
		c-0.35907,0.52309-0.82043,0.97491-1.354,1.32801l-0.77637,0.4132l-0.16649,0.30186c-0.9027,1.30747-2.42925,2.166-4.1605,2.166
		c-0.69205,0-1.35205-0.13741-1.95186-0.38607l-0.10425-0.05474l-0.03009,0.08227c-1.00202,2.31391-3.34109,3.9368-6.06727,3.9368
		c-1.13739,0-2.20452-0.28133-3.13835-0.77729l-0.03215-0.01963l-0.06419,0.0567
		C26.53862,44.92226,24.38515,45.73767,22.03806,45.73767z"/>
	
		<linearGradient id="SVGID_5_" gradientUnits="userSpaceOnUse" x1="-269.9183" y1="254.38251" x2="-268.89157" y2="254.38251" gradientTransform="matrix(-0.994 25.606 -25.606 -0.994 6273.83984 7178.0293)">
		<stop  offset="0" style="stop-color:#86A4AA"/>
		<stop  offset="1" style="stop-color:#FFFFFF"/>
	</linearGradient>
	<path class="st8" d="M22.03806,45.48295c1.71522,0,3.32404-0.44637,4.71122-1.22818l1.30686-0.88617l0.05618-0.05064
		l0.32096-0.02967c0.89767,0.49105,1.92475,0.76086,3.02003,0.76086c2.29388,0,4.30192-1.19665,5.4123-2.98243l0.41823-0.79794
		l0.02804-0.0722l0.35814-0.13742l0.0872,0.04713l0.88873,0.27034c0.30894,0.06162,0.63187,0.09325,0.96083,0.09325
		c1.23167,0,2.35509-0.45787,3.20058-1.20958l0.74422-0.84159l0.1595-0.28532l0.10436-0.10179l0.75921-0.4057l0.69811-0.56273
		l0.57671-0.68506l0.08833-0.16043l0.34397-0.1023l0.08032,0.04406l0.4172,0.12736c0.14749,0.02865,0.29991,0.04416,0.45737,0.04416
		c1.24677,0,2.25279-0.99144,2.25279-2.20206c0-1.20918-1.00602-2.20011-2.25279-2.20011l-0.45233,0.04508l-0.21867,0.06676
		l-0.29693-0.12037l-0.4172-0.7508l-0.74422-0.84304c-0.8456-0.75274-1.96891-1.21112-3.20059-1.21112
		c-0.24773,0-0.49146,0.01756-0.72717,0.05269l-0.69215,0.156l-0.2617,0.09573l-0.30299-0.10476l-0.04108-0.06573l-0.43928-0.55966
		c-1.10339-1.24831-2.7312-2.03916-4.54873-2.03916c-0.20757,0-0.41114,0.01058-0.61584,0.03112l-0.32897,0.05011l-0.26674-0.14091
		l-0.22668-0.45982l-0.55873-0.8646c-1.44335-1.93636-3.77934-3.19659-6.41318-3.19659c-2.3972,0-4.54566,1.04054-5.99898,2.68603
		l-0.58081,0.74022l-0.21158,0.34099l-0.33503,0.09131l-0.25574-0.13538l-0.88873-0.27083
		c-0.30987-0.06265-0.6298-0.09481-0.95888-0.09481c-2.01595,0-3.73713,1.22624-4.43329,2.95286l-0.23263,0.76631l-0.06727,0.42727
		l-0.3149,0.2086l-0.09531-0.02506l-1.06714-0.10579c-2.93581,0-5.30795,2.33147-5.30795,5.19209
		c0,2.86156,2.37214,5.19303,5.30795,5.19303l0.99996-0.09028l0.96587-0.27628l0.30895,0.15396
		C14.75329,43.14644,18.11738,45.48295,22.03806,45.48295z M22.03806,45.99341c-3.61275,0-6.78027-1.88264-8.53154-4.70711
		l-0.55966-1.06816l-0.78038,0.22319l-0.02208,0.00401c-0.35805,0.06665-0.72512,0.10178-1.10124,0.10178
		c-3.20767,0-5.81851-2.54911-5.81851-5.70359c0-3.152,2.61084-5.70316,5.81851-5.70316l1.01404,0.10137l0.02907-0.18662
		c0.49546-2.36958,2.62491-4.13935,5.16745-4.13935c0.72522,0,1.41829,0.14493,2.05015,0.40672l0.02106,0.01048l0.06019,0.03256
		l0.09737-0.14986c1.51956-2.21016,4.09025-3.65547,7.00099-3.65547c3.20161,0,5.98993,1.74921,7.42322,4.32842l0.15242,0.31099
		l0.16454-0.02557c0.2237-0.0226,0.44534-0.03513,0.66996-0.03513c1.96696,0,3.73426,0.85658,4.93081,2.21161l0.41022,0.52453
		l0.10035-0.03359c0.49947-0.15642,1.0241-0.23715,1.57174-0.23715c1.81547,0,3.42028,0.90373,4.36807,2.27683l0.01407,0.02157
		l0.32599,0.59078l0.06512-0.01356c0.17953-0.04211,0.36409-0.06276,0.55668-0.06276c1.51853,0,2.76335,1.21022,2.76335,2.7117
		c0,1.50252-1.24482,2.71108-2.76335,2.71108c-0.19156,0-0.37613-0.01705-0.55668-0.0531l-0.40519-0.12346l-0.6449,0.76435
		c-0.23777,0.23315-0.5005,0.44483-0.78038,0.6294l-0.02106,0.01253l-0.70714,0.37612l-0.13137,0.23818l-0.01407,0.02157
		c-0.94882,1.3731-2.55363,2.27488-4.36909,2.27488c-0.36308,0-0.71814-0.03513-1.06118-0.10385l-0.8686-0.26282l-0.37714,0.72224
		c-1.20158,1.93481-3.3721,3.22359-5.84655,3.22359c-0.88462,0-1.73012-0.163-2.50751-0.4628l-0.63288-0.28893l-1.31394,0.89264
		C25.53762,45.52404,23.84356,45.99341,22.03806,45.99341z"/>
	<path class="st9" d="M10.94087,29.14037l1.01301,0.10137l0.03009-0.18662c0.49444-2.36958,2.62388-4.13935,5.16745-4.13935
		c0.72717,0,1.41932,0.14493,2.05015,0.40672l0.02106,0.01048l0.05926,0.03256l0.0983-0.14986
		c1.51945-2.21016,4.08921-3.65547,7.00098-3.65547c3.20059,0,5.99096,1.74921,7.42322,4.32842l0.15149,0.31099l0.16546-0.02557
		c0.22267-0.0226,0.44534-0.03513,0.66997-0.03513c1.96799,0,3.73426,0.85658,4.93183,2.21161l0.41125,0.52453l0.09931-0.03359
		c0.49947-0.15642,1.024-0.23715,1.57072-0.23715c1.81443,0,3.42018,0.90373,4.36909,2.27683l0.01202,0.02157l0.32795,0.59078
		l0.06419-0.01356c0.17861-0.04211,0.36513-0.06276,0.55565-0.06276C48.65391,36.9358,7.73422,36.69957,10.94087,29.14037z"/>
</g>
</svg>
