<?xml version="1.0" encoding="utf-8"?>
<!-- Generator: Adobe Illustrator 24.3.0, SVG Export Plug-In . SVG Version: 6.00 Build 0)  -->
<svg version="1.1" id="레이어_1" xmlns="http://www.w3.org/2000/svg" xmlns:xlink="http://www.w3.org/1999/xlink" x="0px"
	 y="0px" viewBox="0 0 50 50" style="enable-background:new 0 0 50 50;" xml:space="preserve">
<style type="text/css">
	.st0{fill-rule:evenodd;clip-rule:evenodd;fill:url(#SVGID_1_);}
	.st1{fill-rule:evenodd;clip-rule:evenodd;fill:url(#SVGID_2_);}
	.st2{opacity:0.3451;fill-rule:evenodd;clip-rule:evenodd;fill:#FFFFFF;}
	.st3{opacity:0.46275;fill-rule:evenodd;clip-rule:evenodd;fill:#3A3A3E;}
	.st4{fill-rule:evenodd;clip-rule:evenodd;fill:url(#SVGID_3_);}
	.st5{fill-rule:evenodd;clip-rule:evenodd;fill:url(#SVGID_4_);}
	.st6{opacity:0.11765;fill-rule:evenodd;clip-rule:evenodd;fill:#FFFFFF;}
</style>
<g>
	
		<linearGradient id="SVGID_1_" gradientUnits="userSpaceOnUse" x1="-282.27731" y1="236.63155" x2="-281.35226" y2="236.63155" gradientTransform="matrix(0.914 -16.118 16.118 0.914 -3536.20361 -4734.59082)">
		<stop  offset="0" style="stop-color:#6B868D"/>
		<stop  offset="1" style="stop-color:#86A4AA"/>
	</linearGradient>
	<path class="st0" d="M15.34187,31.05082c-3.6711,0-6.82364-2.18695-8.17135-5.30379l-0.00185-0.0086L6.27078,25.9927
		c-0.3107,0.05966-0.63223,0.0899-0.96106,0.0899c-2.80207,0-5.07477-2.22709-5.07477-4.97274
		c0-2.74147,2.2727-4.96997,5.07477-4.96997c0.35048,0,0.69374,0.03608,1.02258,0.1025l0.09574,0.02349l0.06318-0.40154
		c0.42642-2.04145,2.27455-3.57888,4.48407-3.57888c0.63408,0,1.23394,0.12599,1.7831,0.35234l0.24568,0.13051l0.19879-0.31893
		c1.34409-1.94618,3.61864-3.22748,6.19492-3.22748c2.83454,0,5.30241,1.55047,6.56881,3.82955l0.2096,0.42642l0.3107-0.04745
		c0.19332-0.01804,0.3884-0.0285,0.58533-0.0285c1.97282,0,3.71448,0.98059,4.74418,2.47149l0.04337,0.06863l0.24928-0.08991
		c0.43003-0.13052,0.88892-0.20137,1.36038-0.20137c1.57905,0,2.97376,0.78402,3.79578,1.97642l0.39016,0.70234l0.21682-0.06595
		c0.14995-0.02942,0.3035-0.04606,0.46075-0.04606c1.26454,0,2.28897,1.00444,2.28897,2.24106
		c0,1.23754-1.02443,2.24162-2.28897,2.24162c-0.31617,0-0.61615-0.06327-0.88892-0.17621l-0.09029-0.0469l-0.08852,0.16076
		c-0.32883,0.47645-0.74979,0.88882-1.23578,1.2109l-0.70817,0.37666l-0.15178,0.27545
		c-0.8238,1.19334-2.2185,1.97699-3.7957,1.97699c-0.63407,0-1.23569-0.12609-1.7831-0.35187l-0.09398-0.04967l-0.02885,0.074
		c-0.91418,2.11063-3.04784,3.59339-5.53551,3.59339c-1.03515,0-2.01259-0.25695-2.86349-0.71048l-0.03071-0.01757l-0.05606,0.05281
		C19.44826,30.30694,17.48451,31.05082,15.34187,31.05082z"/>
	
		<linearGradient id="SVGID_2_" gradientUnits="userSpaceOnUse" x1="-269.72769" y1="258.95889" x2="-268.80295" y2="258.95889" gradientTransform="matrix(-1.007 25.943 -25.943 -1.007 6467.71924 7260.09473)">
		<stop  offset="0" style="stop-color:#86A4AA"/>
		<stop  offset="1" style="stop-color:#FFFFFF"/>
	</linearGradient>
	<path class="st1" d="M15.34187,30.81772c1.56453,0,3.03332-0.40598,4.29797-1.12007l1.19416-0.80844l0.05059-0.04653
		l0.29267-0.02664c0.81834,0.44759,1.75785,0.69467,2.75508,0.69467c2.0939,0,3.92575-1.09167,4.93926-2.72123l0.38119-0.72898
		l0.02349-0.06595l0.32883-0.12552l0.07946,0.04329l0.81121,0.24613c0.28185,0.05652,0.57627,0.08631,0.878,0.08631
		c1.12377,0,2.1481-0.41736,2.91954-1.10388l0.67922-0.76867l0.14457-0.25974l0.09399-0.09342l0.69549-0.36907l0.63593-0.51532
		l0.52752-0.62417l0.07955-0.14634l0.31431-0.09258l0.07409,0.03977l0.37934,0.11562
		c0.13551,0.02618,0.27287,0.03968,0.41561,0.03968c1.13995,0,2.05772-0.90325,2.05772-2.00806
		c0-1.10333-0.91777-2.00807-2.05772-2.00807l-0.41015,0.04162l-0.20054,0.05911l-0.27102-0.10795l-0.38119-0.68468
		l-0.67931-0.76959c-0.76959-0.68606-1.79578-1.10526-2.9213-1.10526c-0.22578,0-0.44621,0.01674-0.66118,0.04884l-0.63232,0.14272
		l-0.24031,0.08575l-0.27454-0.0962l-0.03801-0.05827l-0.39923-0.51217c-1.00805-1.13774-2.49497-1.86035-4.15163-1.86035
		c-0.18971,0-0.37573,0.01037-0.5636,0.02887l-0.29812,0.04523l-0.24392-0.12691l-0.2059-0.42096l-0.51133-0.78855
		c-1.317-1.76599-3.44697-2.91594-5.85157-2.91594c-2.18787,0-4.14626,0.94941-5.47408,2.4502l-0.52751,0.67432l-0.19517,0.31209
		l-0.30525,0.08316l-0.2331-0.1233l-0.81122-0.2466c-0.28176-0.05652-0.57442-0.08723-0.87616-0.08723
		c-1.83916,0-3.40914,1.12016-4.04322,2.69458l-0.21321,0.69921l-0.06142,0.39072l-0.28545,0.18833L6.2853,16.47003
		l-0.97559-0.09712c-2.67923,0-4.84352,2.12775-4.84352,4.73695c0,2.61107,2.16429,4.73974,4.84352,4.73974l0.91232-0.08408
		l0.88161-0.25067l0.28184,0.14051C8.69527,28.68636,11.76475,30.81772,15.34187,30.81772z M15.34187,31.28474
		c-3.29526,0-6.18585-1.71853-7.78295-4.29472l-0.51124-0.97465l-0.71363,0.20229l-0.01989,0.00547
		c-0.32513,0.06049-0.66118,0.09073-1.00445,0.09073C2.38296,26.31385,0,23.98825,0,21.10986
		c0-2.87569,2.38296-5.20214,5.30971-5.20214l0.92499,0.0926l0.0271-0.17205c0.45167-2.16253,2.39379-3.77498,4.71347-3.77498
		c0.66303,0,1.29535,0.13145,1.87162,0.36899l0.01989,0.01045l0.0542,0.02932l0.08853-0.13597
		c1.38563-2.0162,3.73251-3.33728,6.38824-3.33728c2.9213,0,5.46678,1.59848,6.7748,3.95063l0.13727,0.28416l0.14995-0.0222
		c0.20414-0.02118,0.40828-0.03247,0.61243-0.03247c1.79577,0,3.40729,0.78273,4.4985,2.01657l0.37582,0.47785l0.09028-0.02932
		c0.45528-0.14226,0.93582-0.21635,1.43262-0.21635c1.65675,0,3.12184,0.82472,3.98726,2.07632l0.01082,0.02026l0.29988,0.53927
		l0.05966-0.01175c0.16261-0.03885,0.33244-0.05643,0.50589-0.05643c1.38748,0,2.52197,1.10341,2.52197,2.47324
		c0,1.37083-1.13449,2.47462-2.52197,2.47462c-0.17345,0-0.34151-0.01582-0.50589-0.05014l-0.37037-0.11285l-0.58893,0.69736
		c-0.21683,0.21358-0.45529,0.40598-0.71188,0.57534l-0.01804,0.01221l-0.64675,0.34234l-0.12108,0.21635l-0.01082,0.02035
		c-0.86357,1.25336-2.32875,2.07762-3.98541,2.07762c-0.33244,0-0.65582-0.03339-0.97013-0.09527l-0.79133-0.2417l-0.34502,0.6585
		c-1.09482,1.76598-3.07669,2.94433-5.33497,2.94433c-0.80576,0-1.5772-0.15077-2.28722-0.42449l-0.57812-0.26334l-1.19776,0.81482
		C18.53419,30.85657,16.98946,31.28474,15.34187,31.28474z"/>
	<path class="st2" d="M5.21573,15.90772l0.92499,0.0926l0.02895-0.17205c0.44982-2.16253,2.39378-3.77498,4.71347-3.77498
		c0.66304,0,1.29535,0.13145,1.87162,0.36899l0.01804,0.01045l0.0542,0.02932l0.09037-0.13597
		c1.38563-2.0162,3.73066-3.33728,6.38816-3.33728c2.91954,0,5.46502,1.59848,6.77305,3.95063l0.13727,0.28416l0.15179-0.0222
		c0.20239-0.02118,0.40468-0.03247,0.61243-0.03247c1.79403,0,3.40553,0.78273,4.4985,2.01657l0.37574,0.47785l0.0886-0.02932
		c0.45704-0.14226,0.93757-0.21635,1.43438-0.21635c1.65665,0,3.12184,0.82472,3.98726,2.07632l0.00897,0.02026l0.29997,0.53927
		l0.05957-0.01175c0.16446-0.03885,0.33244-0.05643,0.50763-0.05643C39.62819,23.01996,2.28907,22.80454,5.21573,15.90772z"/>
	<path class="st3" d="M22.72375,38.29173c-2.91955,0-5.47955-1.52161-6.89589-3.80476l-0.45167-0.86486l-0.63416,0.18065
		l-0.01444,0.00453c-0.29081,0.05282-0.58709,0.0813-0.89067,0.0813c-2.59247,0-4.7044-2.06096-4.7044-4.61097
		c0-2.38832,1.85544-4.35032,4.22388-4.5861L13.752,24.6721l0.00185-0.00453l0.02711,0.00361l0.05595-0.00361l0.73712,0.07409
		l0.02349-0.14366c0.40107-1.91546,2.121-3.34586,4.17688-3.34586l0.03792,0.005l0.04523-0.005
		c0.58533,0,1.14532,0.11747,1.65665,0.32837l0.00361,0.00231l0.05781-0.08816c1.22848-1.78716,3.3061-2.95607,5.66195-2.95607
		l0.03792,0.0037l0.04338-0.0037c2.58701,0,4.84168,1.41422,6.00162,3.49904l0.11562,0.24069l0.0578-0.00768
		c0.1788-0.02035,0.35945-0.02932,0.54195-0.02932l0.03977,0.00176l0.04153-0.00176l2.25105,11.70102l-0.30534,0.58265
		c-0.97197,1.56499-2.72622,2.60736-4.7279,2.60736c-0.71362,0-1.39831-0.13098-2.02526-0.37352l-0.51125-0.23485l-1.06411,0.72131
		C25.55467,37.91146,24.18347,38.29173,22.72375,38.29173z"/>
	
		<linearGradient id="SVGID_3_" gradientUnits="userSpaceOnUse" x1="-282.23227" y1="236.58289" x2="-281.3075" y2="236.58289" gradientTransform="matrix(0.915 -16.117 16.117 0.915 -3525.79736 -4724.04736)">
		<stop  offset="0" style="stop-color:#6B868D"/>
		<stop  offset="1" style="stop-color:#86A4AA"/>
	</linearGradient>
	<path class="st4" d="M24.48881,40.77717c-3.67286,0-6.82725-2.18779-8.1732-5.30416l-0.00361-0.00814l-0.89604,0.25427
		c-0.3108,0.05827-0.63231,0.08982-0.95931,0.08982c-2.80392,0-5.07847-2.22756-5.07847-4.97265
		c0-2.74296,2.27455-4.96913,5.07847-4.96913c0.34863,0,0.69189,0.03524,1.02073,0.10072l0.09748,0.02396l0.06142-0.40107
		c0.42642-2.04154,2.27279-3.57897,4.48592-3.57897c0.63224,0,1.23384,0.12469,1.78125,0.35232l0.24577,0.13145l0.19869-0.32116
		c1.3441-1.94618,3.61865-3.22525,6.19494-3.22525c2.83453,0,5.30416,1.54825,6.5688,3.82779l0.2096,0.42818l0.31256-0.04745
		c0.19147-0.01942,0.38665-0.03025,0.58348-0.03025c1.97291,0,3.71623,0.98141,4.74427,2.4723l0.04329,0.06874l0.24938-0.08991
		c0.42994-0.13145,0.88697-0.20193,1.36038-0.20193c1.57895,0,2.97189,0.78457,3.79569,1.97688l0.3884,0.70189l0.21857-0.0655
		c0.14818-0.0307,0.30173-0.04513,0.46249-0.04513c1.26289,0,2.28898,1.00361,2.28898,2.23931
		c0,1.23846-1.02609,2.24106-2.28898,2.24106c-0.31616,0-0.6178-0.06189-0.89067-0.17566l-0.09028-0.04513l-0.08852,0.15891
		c-0.32883,0.47656-0.74979,0.88984-1.23578,1.21184l-0.70817,0.37619l-0.15355,0.27694
		c-0.82204,1.19324-2.21489,1.9755-3.79393,1.9755c-0.63408,0-1.23569-0.12469-1.7831-0.35233l-0.09573-0.05013l-0.02711,0.07502
		c-0.91232,2.11193-3.04774,3.59293-5.5355,3.59293c-1.03516,0-2.01074-0.25659-2.86164-0.70956L30.18507,38.742l-0.05781,0.05199
		C28.5952,40.03329,26.6296,40.77717,24.48881,40.77717z"/>
	
		<linearGradient id="SVGID_4_" gradientUnits="userSpaceOnUse" x1="-269.75751" y1="258.98898" x2="-268.83273" y2="258.98898" gradientTransform="matrix(-1.007 25.941 -25.941 -1.007 6477.09814 7270.0752)">
		<stop  offset="0" style="stop-color:#86A4AA"/>
		<stop  offset="1" style="stop-color:#FFFFFF"/>
	</linearGradient>
	<path class="st5" d="M24.48881,40.54509c1.56268,0,3.03147-0.40746,4.29611-1.12062l1.19416-0.80936l0.0506-0.04515
		l0.29267-0.02756c0.82019,0.44853,1.75785,0.69467,2.75508,0.69467c2.09391,0,3.92584-1.09261,4.93935-2.72169l0.38119-0.7276
		l0.02525-0.06688l0.32698-0.1246l0.08132,0.04246l0.80936,0.24707c0.28368,0.0555,0.57635,0.08575,0.87799,0.08575
		c1.12377,0,2.1481-0.41911,2.9213-1.10518l0.6757-0.76691l0.14633-0.26056l0.09574-0.09259l0.69559-0.37083l0.63408-0.51355
		l0.52752-0.62465l0.07955-0.14679l0.31431-0.09342l0.07224,0.0406l0.38304,0.11562c0.13366,0.02711,0.27278,0.04062,0.4155,0.04062
		c1.1382,0,2.05597-0.90371,2.05597-2.00982c0-1.1025-0.91777-2.0063-2.05597-2.0063l-0.41365,0.0407l-0.19878,0.06002
		l-0.27102-0.10923l-0.37934-0.68431l-0.68107-0.77052c-0.77144-0.6856-1.79402-1.10564-2.9213-1.10564
		c-0.22588,0-0.44631,0.01758-0.66303,0.05013l-0.62872,0.1432l-0.24031,0.08538l-0.27639-0.0962l-0.03792-0.0592l-0.40108-0.51078
		c-1.00454-1.13959-2.49312-1.85997-4.14987-1.85997c-0.18962,0-0.37397,0.00907-0.56184,0.02757l-0.29988,0.0456l-0.24207-0.12692
		l-0.2096-0.42095l-0.50948-0.78902c-1.317-1.76553-3.44697-2.9163-5.85156-2.9163c-2.18604,0-4.14627,0.94978-5.47593,2.45019
		l-0.52753,0.67617l-0.19323,0.31071l-0.30719,0.08353l-0.23125-0.12423l-0.81112-0.24521
		c-0.28184-0.05828-0.57636-0.08852-0.87439-0.08852c-1.83916,0-3.41089,1.12006-4.04507,2.69459l-0.21321,0.70002l-0.05957,0.38934
		l-0.28905,0.19063l-0.08492-0.02302l-0.97374-0.09527c-2.68107,0-4.84361,2.12729-4.84361,4.73604
		c0,2.61189,2.16254,4.73964,4.84361,4.73964l0.91232-0.08445l0.87986-0.24974l0.28359,0.13912
		C17.8386,38.41281,20.90985,40.54509,24.48881,40.54509z M24.48881,41.01119c-3.29712,0-6.18771-1.7177-7.78656-4.29482
		l-0.50948-0.97605l-0.71363,0.20285l-0.01989,0.00628c-0.32513,0.06004-0.66118,0.09167-1.00259,0.09167
		c-2.92676,0-5.30971-2.32645-5.30971-5.20482c0-2.87477,2.38296-5.20306,5.30971-5.20306l0.92314,0.09259l0.0271-0.17029
		c0.45167-2.16253,2.39378-3.77673,4.71532-3.77673c0.66118,0,1.2935,0.1332,1.86977,0.37083l0.02174,0.01036l0.05236,0.02756
		l0.08851-0.13597c1.38748-2.01666,3.73252-3.33551,6.38826-3.33551c2.92129,0,5.46677,1.59662,6.77479,3.94887l0.13912,0.2836
		l0.14809-0.02118c0.20415-0.0222,0.40829-0.03302,0.61244-0.03302c1.79586,0,3.40729,0.78226,4.50035,2.01805l0.37397,0.4783
		l0.09029-0.03033c0.45527-0.14273,0.93589-0.21672,1.43271-0.21672c1.65841,0,3.12184,0.82425,3.98901,2.07761l0.01082,0.01943
		l0.29803,0.53834l0.05966-0.01128c0.16437-0.03977,0.33244-0.05689,0.50763-0.05689C48.86726,27.71087,50,28.81512,50,30.1841
		c0,1.37258-1.13274,2.47509-2.52023,2.47509c-0.17344,0-0.34326-0.01535-0.50763-0.04967l-0.37037-0.11202l-0.58894,0.69734
		c-0.21682,0.21275-0.45528,0.40422-0.71178,0.57452l-0.01813,0.01304l-0.6449,0.34197l-0.12108,0.21672l-0.01267,0.01942
		c-0.86533,1.25336-2.33051,2.07632-3.98541,2.07632c-0.33235,0-0.65572-0.03117-0.96828-0.09398l-0.79318-0.24078l-0.34502,0.65767
		c-1.09482,1.766-3.0767,2.94342-5.33497,2.94342c-0.80576,0-1.5772-0.14995-2.28537-0.42272l-0.57812-0.26381l-1.19962,0.8139
		C27.68103,40.58302,26.13464,41.01119,24.48881,41.01119z"/>
	<path class="st6" d="M14.36267,25.63325l0.92314,0.09259l0.02895-0.17029c0.45167-2.16253,2.39378-3.77673,4.71347-3.77673
		c0.66303,0,1.29535,0.1332,1.86987,0.37083l0.01989,0.01036l0.0542,0.02756l0.09028-0.13597
		c1.38573-2.01666,3.73252-3.33551,6.38825-3.33551c2.9213,0,5.46502,1.59662,6.77295,3.94887l0.13913,0.2836l0.14993-0.02118
		c0.20239-0.0222,0.40653-0.03302,0.61243-0.03302c1.79402,0,3.40553,0.78226,4.50035,2.01805l0.37212,0.4783l0.09213-0.03033
		c0.45528-0.14273,0.93581-0.21672,1.43271-0.21672c1.65666,0,3.12184,0.82425,3.98532,2.07761l0.01267,0.01943l0.29812,0.53834
		l0.05957-0.01128c0.16262-0.03977,0.33429-0.05689,0.50772-0.05689C48.77337,32.74632,11.43592,32.52997,14.36267,25.63325z"/>
</g>
</svg>
