<?xml version="1.0" encoding="utf-8"?>
<!-- Generator: Adobe Illustrator 24.3.0, SVG Export Plug-In . SVG Version: 6.00 Build 0)  -->
<svg version="1.1" id="레이어_1" xmlns="http://www.w3.org/2000/svg" xmlns:xlink="http://www.w3.org/1999/xlink" x="0px"
	 y="0px" viewBox="0 0 50 50" style="enable-background:new 0 0 50 50;" xml:space="preserve">
<style type="text/css">
	.st0{opacity:0.50196;fill-rule:evenodd;clip-rule:evenodd;fill:#FFBF00;}
	.st1{fill-rule:evenodd;clip-rule:evenodd;fill:url(#SVGID_1_);}
	.st2{fill-rule:evenodd;clip-rule:evenodd;fill:url(#SVGID_2_);}
	.st3{opacity:0.11765;fill-rule:evenodd;clip-rule:evenodd;fill:#FFFF00;}
	.st4{opacity:0.2549;fill-rule:evenodd;clip-rule:evenodd;fill:#FFFF00;}
	.st5{fill-rule:evenodd;clip-rule:evenodd;fill:url(#SVGID_3_);}
</style>
<g>
	<polygon class="st0" points="3.80501,30.64326 11.96197,30.2754 5.86791,35.71111 13.67772,33.32448 9.12767,40.10617 
		16.09963,35.85411 13.37837,43.55157 19.07216,37.70088 18.35129,45.83388 22.41187,38.74957 23.73647,46.8067 25.90834,38.93574 
		29.19479,46.41038 29.33847,38.24688 34.38181,44.66807 32.49187,36.72656 38.97298,41.69213 35.16655,34.46891 42.67973,37.66833 
		37.19744,31.61813 45.26929,32.84699 38.45423,28.35087 46.57932,27.53358 38.85994,24.87429 46.52607,22.06329 38.38777,21.40493 
		45.11362,16.77589 37.06575,18.16382 42.43104,12.00656 34.98296,15.35145 38.64585,8.05441 32.26443,13.14637 33.99883,5.16699 
		29.08311,11.68666 28.77722,3.52711 25.63704,11.06426 23.3136,3.23714 22.14575,11.31758 17.9483,4.31306 18.82878,12.43148 
		13.02059,6.69249 15.89084,14.33533 8.83785,10.21972 13.51946,16.90963 5.66444,14.67853 11.86228,19.99453 3.7,19.78438 
		11.02429,23.39198 3.06698,25.22009 11.05888,26.89253 	"/>
	
		<linearGradient id="SVGID_1_" gradientUnits="userSpaceOnUse" x1="-270.91568" y1="253.10345" x2="-269.55386" y2="253.10345" gradientTransform="matrix(4.975 27.578 -27.544 4.981 8341.93652 6223.22803)">
		<stop  offset="0" style="stop-color:#FFBF00"/>
		<stop  offset="1" style="stop-color:#FF8000"/>
	</linearGradient>
	<polygon class="st1" points="1.72222,34.48225 10.95646,32.88363 4.80656,39.95322 13.35045,36.1088 9.15164,44.48585 
		16.47198,38.63652 14.48902,47.79355 20.12547,40.30897 20.48202,49.67218 24.07832,41.01989 26.753,50 28.08428,40.72667 
		32.90821,48.75779 31.89207,39.4451 38.56209,46.02604 35.25957,37.25798 43.35797,41.97283 37.97946,34.30003 46.99553,36.85499 
		39.87866,30.76024 49.24597,30.99164 40.83759,26.85998 49.9682,24.7539 40.79374,22.84202 49.11563,18.5329 39.75501,18.96178 
		46.74289,12.71873 37.78267,15.46327 42.99897,7.67743 35.00298,12.56374 38.11783,3.72595 31.58878,10.4458 32.40811,1.11118 
		27.75578,9.24473 26.22757,0 23.74315,9.03459 19.96599,0.46006 19.80637,9.82736 14.01411,2.46249 16.19006,11.57756 
		8.74729,5.88323 13.12178,14.16917 4.49673,10.5056 10.79426,17.44364 1.52937,16.04045 9.35511,21.19424 0.0318,22.13778 
		8.89369,25.18481 0.0984,28.41679 9.43764,29.16422 	"/>
	
		<linearGradient id="SVGID_2_" gradientUnits="userSpaceOnUse" x1="-269.1077" y1="254.40565" x2="-267.74609" y2="254.40565" gradientTransform="matrix(3.341 18.504 -18.504 3.341 5629.91064 4145.72314)">
		<stop  offset="0" style="stop-color:#FFBF00"/>
		<stop  offset="1" style="stop-color:#FF8000"/>
	</linearGradient>
	<path class="st2" d="M8.09439,25.92706c-0.80599-9.2243,6.02487-17.36724,15.24835-18.17391
		c9.22499-0.80599,17.3686,6.02556,18.1746,15.24986c0.80598,9.22417-6.02502,17.36711-15.24987,18.17309
		C17.04262,41.98277,8.90037,35.15123,8.09439,25.92706z"/>
	<path class="st3" d="M8.09166,25.92829c-0.80735-9.22417,6.02623-17.3671,15.24849-18.17377
		c9.22621-0.80599,17.3671,6.02692,18.1731,15.24986C42.9803,33.71413,9.74748,37.06582,8.09166,25.92829z"/>
	<path class="st4" d="M10.80883,22.14051c-2.27155-3.61291-0.12761-8.78399,4.78675-11.54175
		c4.913-2.75708,10.74366-2.06359,13.01399,1.54945c2.27169,3.6136,0.12639,8.78469-4.78661,11.54244
		C18.90995,26.44703,13.07915,25.7541,10.80883,22.14051z"/>
	
		<linearGradient id="SVGID_3_" gradientUnits="userSpaceOnUse" x1="-277.73129" y1="252.31766" x2="-276.36926" y2="252.31766" gradientTransform="matrix(29.607 -19.987 19.987 29.607 3188.24512 -12985.93164)">
		<stop  offset="0" style="stop-color:#FFFF00"/>
		<stop  offset="1" style="stop-color:#FF8000"/>
	</linearGradient>
	<path class="st5" d="M24.55444,40.87689c0.55321,0.00925,1.11187-0.0113,1.67707-0.05979
		c9.0241-0.79005,15.70869-8.75608,14.91864-17.78018c-0.78869-9.0241-8.75403-15.70733-17.77813-14.91865
		c-9.02396,0.7887-15.70855,8.75336-14.91864,17.77746C9.19155,34.35587,16.23922,40.75922,24.55444,40.87689z M24.54382,41.60511
		c-8.68362-0.12245-16.04386-6.80825-16.81661-15.6455C6.90392,16.53524,13.88378,8.21675,23.30828,7.39402
		c9.42573-0.82519,17.74354,6.15466,18.56805,15.57904c0.82328,9.42437-6.15521,17.74163-15.5823,18.56817
		C25.70486,41.59449,25.121,41.61369,24.54382,41.60511z"/>
</g>
</svg>
