<svg id="레이어_1" data-name="레이어 1" xmlns="http://www.w3.org/2000/svg" viewBox="0 0 20 20"><defs><style>.cls-1{fill:#464e5a;}</style></defs><path class="cls-1" d="M17,19.99985a.99415.99415,0,0,1-.58105-.18653L10,15.22836l-6.419,4.585A.99918.99918,0,0,1,2,18.99985v-16a3.00328,3.00328,0,0,1,3-3H15a3.00328,3.00328,0,0,1,3,3v16a1.00052,1.00052,0,0,1-.542.88965A1.01427,1.01427,0,0,1,17,19.99985Zm-7-7a.9986.9986,0,0,1,.581.18652L16,17.05649V2.99985a1.00067,1.00067,0,0,0-1-1H5a1.00067,1.00067,0,0,0-1,1V17.05649l5.419-3.87012A.9986.9986,0,0,1,10,12.99985Z"/></svg>