<svg xmlns="http://www.w3.org/2000/svg" viewBox="0 0 20 19.28571"><defs><style>.cls-1{fill:#434751;}</style></defs><g id="레이어_2" data-name="레이어 2"><g id="레이어_1-2" data-name="레이어 1"><path class="cls-1" d="M16.42857,12.14286H7.85714a.71429.71429,0,0,0,0,1.42857h8.57143a2.14286,2.14286,0,1,1-1.97614,2.96247.71429.71429,0,0,0-1.31976.54688,3.56992,3.56992,0,1,0,3.2959-4.93792Z"/><path class="cls-1" d="M20,5.35714A5.35452,5.35452,0,0,0,10.06771,2.577a2.83862,2.83862,0,0,0-4.13579,1.3293.71467.71467,0,0,0,1.32115.54548A1.42825,1.42825,0,1,1,8.57143,6.42857h-5a.71429.71429,0,1,0,0,1.42857h5A2.86,2.86,0,0,0,11.42857,5a2.8211,2.8211,0,0,0-.33116-1.30689,3.92341,3.92341,0,1,1,3.54545,5.5926H.71429a.71429.71429,0,1,0,0,1.42858H14.64286A5.363,5.363,0,0,0,20,5.35714Z"/><path class="cls-1" d="M5,12.14286H2.85714a.71429.71429,0,0,0,0,1.42857H5a.71429.71429,0,1,0,0-1.42857Z"/></g></g></svg>