<svg xmlns="http://www.w3.org/2000/svg" viewBox="0 0 19.25932 20"><defs><style>.cls-1{fill:#434751;}</style></defs><g id="레이어_2" data-name="레이어 2"><g id="레이어_1-2" data-name="레이어 1"><g id="Layer_2" data-name="Layer 2"><path class="cls-1" d="M15.55558,20H3.70373A3.7037,3.7037,0,0,1,0,16.2963.7408.7408,0,0,1,.04447,16.037,9.92592,9.92592,0,0,1,9.28892,9.62963H9.9704A9.92592,9.92592,0,0,1,19.21484,16.037a.74081.74081,0,0,1,.04445.25926A3.70371,3.70371,0,0,1,15.55558,20ZM1.48151,16.42222a2.22222,2.22222,0,0,0,2.22222,2.0963H15.55558a2.22224,2.22224,0,0,0,2.22223-2.0963A8.43705,8.43705,0,0,0,9.9704,11.11111H9.28892A8.437,8.437,0,0,0,1.48151,16.42222Z"/><path class="cls-1" d="M9.62966,8.88889A4.44445,4.44445,0,1,1,14.0741,4.44444,4.44445,4.44445,0,0,1,9.62966,8.88889Zm0-7.40741a2.963,2.963,0,1,0,2.963,2.963A2.963,2.963,0,0,0,9.62966,1.48148Z"/><path class="cls-1" d="M15.55558,20H3.70373A3.7037,3.7037,0,0,1,0,16.2963.7408.7408,0,0,1,.04447,16.037,9.92592,9.92592,0,0,1,9.28892,9.62963H9.9704A9.92592,9.92592,0,0,1,19.21484,16.037a.74081.74081,0,0,1,.04445.25926A3.70371,3.70371,0,0,1,15.55558,20ZM1.48151,16.42222a2.22222,2.22222,0,0,0,2.22222,2.0963H15.55558a2.22224,2.22224,0,0,0,2.22223-2.0963A8.43705,8.43705,0,0,0,9.9704,11.11111H9.28892A8.437,8.437,0,0,0,1.48151,16.42222Z"/></g></g></g></svg>