<?xml version="1.0" encoding="utf-8"?>
<!-- Generator: Adobe Illustrator 26.5.0, SVG Export Plug-In . SVG Version: 6.00 Build 0)  -->
<svg version="1.1" id="레이어_1" xmlns="http://www.w3.org/2000/svg" xmlns:xlink="http://www.w3.org/1999/xlink" x="0px"
	 y="0px" viewBox="0 0 32 32" style="enable-background:new 0 0 32 32;" xml:space="preserve">
<style type="text/css">
	.st0{fill:#FFFFFF;}
</style>
<path class="st0" d="M30.7,6.7V5.3h-1.3v1.3H28H4H2.8V5.3H1.5v1.3H0V8h1.5v1.3h1.3V8h1.3c0.5,2.8,2.4,5.1,5,6.1v3
	c0,1.5,1.2,2.7,2.7,2.7h3.6v1.6h-2.1c-0.7,0-1.3,0.6-1.3,1.3v2.7c0,0.7,0.6,1.3,1.3,1.3h5.3c0.7,0,1.3-0.6,1.3-1.3v-2.7
	c0-0.7-0.6-1.3-1.3-1.3h-1.9v-1.6h3c1.5,0,2.7-1.2,2.7-2.7v-2.8c2.8-0.9,4.9-3.3,5.4-6.3h1.5v1.3h1.3V8H32V6.7H30.7z M17.2,22.9
	c0.7,0,1.3,0.6,1.3,1.3c0,0.7-0.6,1.3-1.3,1.3c-0.7,0-1.3-0.6-1.3-1.3C15.9,23.5,16.5,22.9,17.2,22.9z M20,13.3h-8
	c-3.2,0-5.9-2.2-6.5-5.3h21.1C25.9,11.1,23.2,13.3,20,13.3z"/>
</svg>
