<?xml version="1.0" encoding="utf-8"?>
<!-- Generator: Adobe Illustrator 25.4.1, SVG Export Plug-In . SVG Version: 6.00 Build 0)  -->
<svg version="1.1" id="레이어_1" xmlns="http://www.w3.org/2000/svg" xmlns:xlink="http://www.w3.org/1999/xlink" x="0px"
	 y="0px" viewBox="0 0 20 20" style="enable-background:new 0 0 20 20;" xml:space="preserve">
<style type="text/css">
	.st0{fill:#FFFFFF;}
</style>
<path class="st0" d="M3.1,17.5c0.1,0.3,0.1,0.6,0.1,0.9c0,0.7,0,0.8,0.1,1c0.1,0.2,0.3,0.4,0.6,0.5c0.3,0.1,0.7,0.1,1,0
	c0.2-0.1,0.4-0.3,0.5-0.5c0.1-0.2,0.1-0.3,0.1-1c0-0.6,0-0.8,0.1-0.8c1.5-0.1,2.9-0.2,4.4-0.1c1.5-0.1,2.9-0.1,4.4,0.1
	c0.1,0.1,0.1,0.2,0.1,0.8c0,0.3,0,0.6,0.1,0.9c0,0.1,0.1,0.2,0.2,0.3c0.4,0.5,1.2,0.6,1.7,0.1c0.3-0.3,0.4-0.4,0.4-1.4
	c0-0.3,0-0.6,0.1-0.8c0.2,0,0.4,0,0.7,0l0.6,0V8.9l-0.4-3c-0.3-2-0.4-3.1-0.5-3.3c-0.4-1.1-1.6-1.7-4.1-2.2c-2-0.4-4-0.4-6-0.1
	C6.5,0.4,5.8,0.6,5.1,0.8C4.5,1,3.9,1.3,3.4,1.6c-0.3,0.3-0.6,0.6-0.7,1c0,0.1-0.3,1.6-0.5,3.2l-0.4,3l0,4.3l0,4.3l0.6,0
	C2.7,17.5,2.9,17.5,3.1,17.5z M16.1,14.7c-0.6,0.3-1.2,0.1-1.5-0.5c-0.1-0.3-0.1-0.6,0-0.9c0,0,0-0.1,0-0.1c0.3-0.6,1-0.8,1.5-0.5
	c0.2,0.1,0.4,0.3,0.5,0.5C16.9,13.8,16.7,14.4,16.1,14.7z M6.4,1.6C7.6,1.5,8.8,1.4,10,1.5c2.5,0,3.6,0,3.6,0.1
	c0.2,0.1,0.3,0.3,0.2,0.5c0,0.2-0.2,0.4-0.4,0.4c-0.2,0-6.7,0.1-6.9,0c0,0-0.1,0-0.2,0c-0.1,0-0.2-0.1-0.2-0.2
	C6.1,2.1,6.1,1.8,6.4,1.6z M4,4.1C4,3.8,4.2,3.6,4.5,3.6c0.1,0,1.7-0.1,5.5-0.1c5.7,0,5.5,0,5.8,0.2c0.2,0.2,0.3,0.4,0.6,2.7
	c0.2,1.3,0.3,2.3,0.3,2.4c0,0.2,0,0.5-0.2,0.7c-0.1,0.1-0.2,0.1-0.3,0.1C16,9.7,4.1,9.7,3.8,9.7c-0.2,0-0.4-0.2-0.5-0.5
	C3.3,9,3.9,4.5,4,4.1z M3.7,12.9c0.2-0.2,0.5-0.3,0.7-0.3c0,0,0,0,0,0c0.6,0,1.1,0.5,1.1,1.1c0,0.5-0.3,0.9-0.7,1.1
	c-0.4,0.1-0.9,0-1.2-0.3c0,0,0,0,0,0C3.2,14,3.2,13.3,3.7,12.9z"/>
</svg>
