<?xml version="1.0" encoding="utf-8"?>
<!-- Generator: Adobe Illustrator 26.5.0, SVG Export Plug-In . SVG Version: 6.00 Build 0)  -->
<svg version="1.1" id="레이어_1" xmlns="http://www.w3.org/2000/svg" xmlns:xlink="http://www.w3.org/1999/xlink" x="0px"
	 y="0px" viewBox="0 0 33 32" style="enable-background:new 0 0 33 32;" xml:space="preserve">
<style type="text/css">
	.st0{fill:#FFFFFF;}
</style>
<path class="st0" d="M16.7,0L0.5,10.8V32h32V10.8L16.7,0z M21.5,9.4l-2.4,6.2c-2.2-1.2-4.4-0.5-5.3,0l-2.4-6.2
	C15.8,7.4,19.9,8.5,21.5,9.4z M10.5,28.4c-3.8-2.6-4.9-6.8-5-8.6l6.5-1.1c0.1,2.5,1.8,4.1,2.6,4.5L10.5,28.4z M13.2,19.2
	c0-1.8,1.5-3.3,3.3-3.3s3.3,1.5,3.3,3.3c0,1.8-1.5,3.3-3.3,3.3S13.2,21,13.2,19.2z M22.5,28.4l-4.1-5.1c0.8-0.5,2.5-2,2.6-4.5
	l6.5,1.1C27.5,21.6,26.4,25.8,22.5,28.4z"/>
</svg>
