<?xml version="1.0" encoding="utf-8"?>
<!-- Generator: Adobe Illustrator 26.5.0, SVG Export Plug-In . SVG Version: 6.00 Build 0)  -->
<svg version="1.1" id="레이어_1" xmlns="http://www.w3.org/2000/svg" xmlns:xlink="http://www.w3.org/1999/xlink" x="0px"
	 y="0px" viewBox="0 0 32 32" style="enable-background:new 0 0 32 32;" xml:space="preserve">
<style type="text/css">
	.st0{fill:#FFFFFF;}
</style>
<path class="st0" d="M24,0H8C6.2,0,4.8,1.4,4.8,3.2v25.6C4.8,30.6,6.2,32,8,32h16c1.8,0,3.2-1.4,3.2-3.2V3.2C27.2,1.4,25.8,0,24,0z
	 M13.6,3.2h4.8c0.4,0,0.8,0.4,0.8,0.8s-0.4,0.8-0.8,0.8h-4.8c-0.4,0-0.8-0.4-0.8-0.8S13.2,3.2,13.6,3.2z M16,30.4
	c-0.9,0-1.6-0.7-1.6-1.6c0-0.9,0.7-1.6,1.6-1.6s1.6,0.7,1.6,1.6C17.6,29.7,16.9,30.4,16,30.4z M24,25.6H8V6.4h16V25.6z"/>
</svg>
