<?xml version="1.0" encoding="utf-8"?>
<!-- Generator: Adobe Illustrator 26.5.0, SVG Export Plug-In . SVG Version: 6.00 Build 0)  -->
<svg version="1.1" id="레이어_1" xmlns="http://www.w3.org/2000/svg" xmlns:xlink="http://www.w3.org/1999/xlink" x="0px"
	 y="0px" viewBox="0 0 33 33" style="enable-background:new 0 0 33 33;" xml:space="preserve">
<style type="text/css">
	.st0{fill:#FFFFFF;}
</style>
<g>
	<path class="st0" d="M32.5,16.8c0-1-0.8-1.8-1.8-1.8H0.5v7.6c0,2,1.6,3.6,3.6,3.6h0.7c0.4,2.6,2.5,4.5,5.1,4.5s4.7-1.9,5.1-4.5h4.9
		c0.4,2.6,2.5,4.5,5.1,4.5s4.7-1.9,5.1-4.5h2.4V16.8z M9.8,28.9c-1.9,0-3.4-1.6-3.4-3.7c0-2,1.5-3.7,3.4-3.7c1.9,0,3.4,1.6,3.4,3.7
		C13.3,27.3,11.7,28.9,9.8,28.9z M25,28.9c-1.9,0-3.4-1.6-3.4-3.7c0-2,1.5-3.7,3.4-3.7c1.9,0,3.4,1.6,3.4,3.7
		C28.4,27.3,26.9,28.9,25,28.9z"/>
	<path class="st0" d="M27.6,3.9H24V2.3h-3v1.6h-4.6v9.6h15.2L27.6,3.9z M18.3,5.7h8.1l2.6,6H18.3V5.7z"/>
	<path class="st0" d="M15,5.5V3.9H1.3v1.6h1.5v6.4H1.3v1.6h1.5h1.5h3h1.5h3h1.5H15v-1.6h-1.5V5.5H15z M7.4,5.5v6.4h-3V5.5H7.4z
		 M11.9,11.9h-3V5.5h3V11.9z"/>
</g>
</svg>
