<svg id="레이어_1" data-name="레이어 1" xmlns="http://www.w3.org/2000/svg" viewBox="0 0 20 20"><defs><style>.cls-1{fill:#fff;}</style></defs><path class="cls-1" d="M10,4A5.57333,5.57333,0,0,0,4.66667,9.33333a5.6,5.6,0,0,0,1.52666,3.8,3.04,3.04,0,0,1,1.14,2.2A.66667.66667,0,0,0,8,16h4a.66667.66667,0,0,0,.66667-.66667,2.97329,2.97329,0,0,1,1.12666-2.18666,5.24666,5.24666,0,0,0,1.54-3.81334,5.44665,5.44665,0,0,0-1.62666-3.88666A5.11334,5.11334,0,0,0,10,4Zm2.89333,8.18667a4.58,4.58,0,0,0-1.5,2.48H8.60667A4.66668,4.66668,0,0,0,7.14,12.19333,4.27327,4.27327,0,0,1,6,9.33333a4.19334,4.19334,0,0,1,4-4A3.75335,3.75335,0,0,1,12.75333,6.4,4.10666,4.10666,0,0,1,14,9.33333a3.95333,3.95333,0,0,1-1.12667,2.85334Z"/><path class="cls-1" d="M12,16.66667H8A.66667.66667,0,1,0,8,18h4a.66667.66667,0,1,0,0-1.33333Z"/><path class="cls-1" d="M11.33333,18.66667H8.66667a.66667.66667,0,1,0,0,1.33333h2.66666a.66667.66667,0,1,0,0-1.33333Z"/><path class="cls-1" d="M10,2.66667A.66667.66667,0,0,0,10.66667,2V.66667a.66667.66667,0,0,0-1.33334,0V2A.66667.66667,0,0,0,10,2.66667Z"/><path class="cls-1" d="M2.66667,8.66667H1.33333a.66667.66667,0,0,0,0,1.33333H2.66667a.66667.66667,0,0,0,0-1.33333Z"/><path class="cls-1" d="M18.66667,8.66667H17.33333a.66667.66667,0,0,0,0,1.33333h1.33334a.66667.66667,0,0,0,0-1.33333Z"/><path class="cls-1" d="M16.6,2.73333a.66667.66667,0,0,0-.94,0l-.94667.94a.66667.66667,0,0,0-.00386.9428l.00386.00387a.6761.6761,0,0,0,.94667,0l.94-.94667A.66667.66667,0,0,0,16.6,2.73333Z"/><path class="cls-1" d="M5.28667,4.62a.66667.66667,0,0,0,.00386-.9428l-.00386-.00387-.94667-.94a.66667.66667,0,0,0-.94.94L4.34,4.62a.6761.6761,0,0,0,.94667,0Z"/></svg>