<?xml version="1.0" encoding="utf-8"?>
<!-- Generator: Adobe Illustrator 26.5.0, SVG Export Plug-In . SVG Version: 6.00 Build 0)  -->
<svg version="1.1" id="레이어_1" xmlns="http://www.w3.org/2000/svg" xmlns:xlink="http://www.w3.org/1999/xlink" x="0px"
	 y="0px" viewBox="0 0 32 32" style="enable-background:new 0 0 32 32;" xml:space="preserve">
<style type="text/css">
	.st0{fill:#FFFFFF;}
</style>
<g>
	<path class="st0" d="M25.3,5.1C26,6,26.4,7,26.4,8c0,3.6-4.6,6.4-10.3,6.4c-5.7,0-10.3-2.9-10.3-6.4c0-0.2,0-0.4,0-0.6
		c-1.8,1.3-3,3.1-3,5.9c0,6.8,11.7,6.9,17.7,6.1l-9.1,11H26c4.3-11.1,6-15.3,6-19.6C32,7.6,29.4,5.8,25.3,5.1z"/>
	<polygon class="st0" points="6.5,21.8 0,30.3 3.2,30.3 9.7,21.8 	"/>
	<polygon class="st0" points="12.3,21.8 5.9,30.3 9.1,30.3 15.6,21.8 	"/>
	<polygon class="st0" points="21,5 17.8,5 17.8,1.6 14.5,1.6 14.5,5 11.3,5 11.3,8.4 14.5,8.4 14.5,11.8 17.8,11.8 17.8,8.4 21,8.4 
			"/>
</g>
</svg>
