<svg width="18" height="18" viewBox="0 0 18 18" fill="none" xmlns="http://www.w3.org/2000/svg">
<circle cx="9" cy="9" r="7" fill="#FFAB00"/>
<path d="M9.47661 6.92261H5.39028L5.17392 7.86917C5.7308 8.10032 5.86126 8.37068 6.05253 8.47696C6.73914 9.07478 6.79567 9.52315 6.78626 9.82206C6.85399 10.8663 7.61093 11.1937 7.98093 11.227H11.881C13.0324 10.8922 13.0756 9.87853 12.9533 9.41355H11.7022C11.2357 9.38964 11.1065 8.97182 11.1002 8.7659C11.1002 7.42315 10.0652 6.92261 9.47661 6.92261Z" fill="white"/>
<path d="M9.19793 10.4444H8.58469V9.38145H7.52174V8.76821H8.58469V7.70526H9.19793V8.76821H10.2609V9.38145H9.19793V10.4444Z" fill="#FFAB00"/>
<circle cx="4.78261" cy="7.31398" r="0.782609" fill="white"/>
<rect x="8.30434" y="6.53137" width="0.782609" height="1.17391" fill="white"/>
<rect x="7.8206" y="11.1083" width="0.782609" height="0.83148" fill="white"/>
<rect x="10.2609" y="11.1084" width="0.782609" height="0.83148" fill="white"/>
<rect x="6.543" y="12.4873" width="0.782609" height="5.86957" transform="rotate(-90 6.543 12.4873)" fill="white"/>
<rect x="6.34782" y="6.53137" width="0.782609" height="4.69565" transform="rotate(-90 6.34782 6.53137)" fill="white"/>
</svg>
