<svg width="24" height="24" viewBox="0 0 24 24" fill="none" xmlns="http://www.w3.org/2000/svg">
<path d="M11.1 21C9.96 20.8533 8.895 20.5342 7.905 20.0428C6.915 19.5513 6.05625 18.9132 5.32875 18.1284C4.60125 17.3435 4.03125 16.434 3.61875 15.3998C3.20625 14.3655 3 13.2323 3 12C3 10.7824 3.285 9.60513 3.855 8.46821C4.425 7.3313 5.19 6.30807 6.15 5.39853H3.495V3.63814H9.3V9.3154H7.5V6.5868C6.66 7.29095 6 8.11247 5.52 9.05134C5.04 9.99022 4.8 10.9731 4.8 12C4.8 13.8924 5.4 15.5061 6.6 16.8411C7.8 18.176 9.3 18.9755 11.1 19.2396V21ZM14.7 20.3619V14.6846H16.5V17.4132C17.34 16.6944 18 15.8692 18.48 14.9377C18.96 14.0061 19.2 13.0269 19.2 12C19.2 10.1076 18.6 8.49389 17.4 7.15892C16.2 5.82396 14.7 5.02445 12.9 4.76039V3C15.21 3.27873 17.1375 4.25428 18.6825 5.92665C20.2275 7.59902 21 9.62347 21 12C21 13.2176 20.715 14.3949 20.145 15.5318C19.575 16.6687 18.81 17.6919 17.85 18.6015H20.505V20.3619H14.7Z" fill="#E0E0E0"/>
</svg>
