<?xml version="1.0" encoding="utf-8"?>
<!-- Generator: Adobe Illustrator 25.1.0, SVG Export Plug-In . SVG Version: 6.00 Build 0)  -->
<svg version="1.1" id="레이어_1" xmlns="http://www.w3.org/2000/svg" xmlns:xlink="http://www.w3.org/1999/xlink" x="0px"
	 y="0px" viewBox="0 0 20 20" style="enable-background:new 0 0 20 20;" xml:space="preserve">
<style type="text/css">
	.st0{fill:url(#SVGID_1_);}
	.st1{fill:url(#SVGID_2_);}
	.st2{opacity:0.3;fill:url(#SVGID_3_);enable-background:new    ;}
	.st3{fill:url(#SVGID_4_);}
	.st4{opacity:0.36;fill:url(#SVGID_5_);enable-background:new    ;}
	.st5{opacity:0.33;fill:url(#SVGID_6_);enable-background:new    ;}
	.st6{fill:url(#prefix__g_1_);}
	.st7{filter:url(#Adobe_OpacityMaskFilter);}
	.st8{fill-rule:evenodd;clip-rule:evenodd;fill:#FFFFFF;}
	.st9{mask:url(#prefix__j_1_);}
	.st10{fill:url(#SVGID_7_);}
	.st11{fill:url(#SVGID_8_);}
	.st12{fill:url(#SVGID_9_);}
	.st13{fill:url(#SVGID_10_);}
</style>
<g transform="translate(16 29)">
	
		<linearGradient id="SVGID_1_" gradientUnits="userSpaceOnUse" x1="-451.6270142" y1="422.9833374" x2="-451.5412903" y2="422.9598083" gradientTransform="matrix(126 0 0 -42 56891 17746)">
		<stop  offset="0" style="stop-color:#E9E9ED"/>
		<stop  offset="1" style="stop-color:#DEDFE3"/>
	</linearGradient>
	<path class="st0" d="M-13.2194891-21.4998779h11.1220436c1.5356336,0,2.7805111,1.2448769,2.7805111,2.7805119l0,0
		c0,1.5356331-1.2448776,2.7805099-2.7805111,2.7805099h-11.1220436C-14.7551231-15.9388561-16-17.183733-16-18.7193661l0,0
		C-16-20.2550011-14.7551231-21.4998779-13.2194891-21.4998779z"/>
	
		<linearGradient id="SVGID_2_" gradientUnits="userSpaceOnUse" x1="-448.8177185" y1="425.9572144" x2="-448.6392212" y2="425.8119202" gradientTransform="matrix(66 0 0 -66 29608 28089)">
		<stop  offset="0" style="stop-color:#E9E9ED"/>
		<stop  offset="1" style="stop-color:#DEDFE3"/>
	</linearGradient>
	<circle class="st1" cx="-9.3797359" cy="-20.4406357" r="4.3693743"/>
	
		<linearGradient id="SVGID_3_" gradientUnits="userSpaceOnUse" x1="-448.8192444" y1="425.9596558" x2="-448.7579346" y2="425.9087219" gradientTransform="matrix(66 0 0 -66 29608 28089)">
		<stop  offset="0.1" style="stop-color:#FFFFFF"/>
		<stop  offset="1" style="stop-color:#FFFFFF;stop-opacity:0"/>
	</linearGradient>
	<circle class="st2" cx="-9.3797359" cy="-20.4406357" r="4.3693743"/>
	
		<linearGradient id="SVGID_4_" gradientUnits="userSpaceOnUse" x1="-446.6990967" y1="423.1530151" x2="-446.4682617" y2="422.9651489" gradientTransform="matrix(44 0 0 -44 19644 18593)">
		<stop  offset="0" style="stop-color:#E9E9ED"/>
		<stop  offset="1" style="stop-color:#DEDFE3"/>
	</linearGradient>
	<circle class="st3" cx="-4.7455506" cy="-20.8378506" r="2.9129162"/>
	
		<linearGradient id="SVGID_5_" gradientUnits="userSpaceOnUse" x1="-446.6383057" y1="423.1443481" x2="-446.5647583" y2="423.0449524" gradientTransform="matrix(44 0 0 -44 19644 18593)">
		<stop  offset="0.1" style="stop-color:#FFFFFF"/>
		<stop  offset="1" style="stop-color:#FFFFFF;stop-opacity:0"/>
	</linearGradient>
	<circle class="st4" cx="-4.7455506" cy="-20.8378506" r="2.9129162"/>
	
		<linearGradient id="SVGID_6_" gradientUnits="userSpaceOnUse" x1="-449.9385376" y1="426.7258606" x2="-449.9083557" y2="426.676178" gradientTransform="matrix(78.0920029 0 0 -78.0920029 35127.578125 33297.6445312)">
		<stop  offset="0" style="stop-color:#FFD800"/>
		<stop  offset="1" style="stop-color:#FFD800;stop-opacity:0.3"/>
	</linearGradient>
	<circle class="st5" cx="-6.2333889" cy="-21.6395664" r="5.1698971"/>
	<g transform="translate(40 7)">
		<g>
			
				<linearGradient id="prefix__g_1_" gradientUnits="userSpaceOnUse" x1="-489.1997986" y1="418.9182129" x2="-489.1158447" y2="418.8455811" gradientTransform="matrix(67.0940018 0 0 -67 32772.7148438 28036)">
				<stop  offset="0" style="stop-color:#FFCF21"/>
				<stop  offset="1" style="stop-color:#F7B91E"/>
			</linearGradient>
			<ellipse id="prefix__g_2_" class="st6" cx="-46.2374954" cy="-28.5660801" rx="4.4418001" ry="4.4355769"/>
		</g>
		<defs>
			
				<filter id="Adobe_OpacityMaskFilter" filterUnits="userSpaceOnUse" x="-52.2890968" y="-30.070446" width="16.2890949" height="11.8499851">
				<feColorMatrix  type="matrix" values="1 0 0 0 0  0 1 0 0 0  0 0 1 0 0  0 0 0 1 0"/>
			</filter>
		</defs>
		<mask maskUnits="userSpaceOnUse" x="-52.2890968" y="-30.070446" width="16.2890949" height="11.8499851" id="prefix__j_1_">
			<g class="st7">
				<ellipse id="prefix__g_3_" class="st8" cx="-46.2374954" cy="-28.5660801" rx="4.4418001" ry="4.4355769"/>
			</g>
		</mask>
		<g class="st9">
			<g transform="translate(-11.973 22.138)">
				
					<linearGradient id="SVGID_7_" gradientUnits="userSpaceOnUse" x1="-479.7307434" y1="398.508606" x2="-479.7192078" y2="398.4579773" gradientTransform="matrix(123.0245132 0 0 -89.4248352 58985.1601562 35586.8671875)">
					<stop  offset="0" style="stop-color:#F3F4FA"/>
					<stop  offset="1" style="stop-color:#EEEFF5"/>
				</linearGradient>
				<path class="st10" d="M-29.7214031-52.2038345c-2.482336-0.0975838-4.7620907,1.3611259-5.7106419,3.6539879h-0.8199844
					c-2.1515846,0.015358-3.9239616,1.6916084-4.0563698,3.8361778c-0.1452484,2.3855476,1.7838974,4.3455429,4.1764603,4.3455429
					h6.1765747c3.2271156,0.000927,5.8617153-2.5766068,5.927124-5.7985573s-2.4626064-5.9039497-5.6870728-6.033577
					l-0.0059566-0.0035744H-29.7214031z"/>
				
					<linearGradient id="SVGID_8_" gradientUnits="userSpaceOnUse" x1="-478.8928223" y1="398.5312195" x2="-478.8430481" y2="398.4815674" gradientTransform="matrix(89.6139984 0 0 -89.4899979 42880.3671875 35613.1289062)">
					<stop  offset="0" style="stop-color:#FFFFFF"/>
					<stop  offset="1" style="stop-color:#FFFFFF;stop-opacity:0"/>
				</linearGradient>
				<ellipse class="st11" cx="-29.9626465" cy="-46.2829361" rx="5.9326835" ry="5.9244747"/>
			</g>
		</g>
	</g>
	<g transform="translate(28 29)">
		
			<linearGradient id="SVGID_9_" gradientUnits="userSpaceOnUse" x1="-479.6954346" y1="398.6633301" x2="-479.6838989" y2="398.61203" gradientTransform="matrix(122.7172852 0 0 -89.7889709 58833.4492188 35745.9570312)">
			<stop  offset="0" style="stop-color:#F3F4FA"/>
			<stop  offset="1" style="stop-color:#EEEFF5"/>
		</linearGradient>
		<path class="st12" d="M-29.7243271-52.0841064c-2.4759789-0.0979805-4.7501717,1.3666878-5.6964722,3.6688156h-0.8178673
			c-2.1462898,0.0154915-3.9141655,1.6984978-4.0463066,3.8516731c-0.1448517,2.3954735,1.7795296,4.3634148,4.1660004,4.3634148
			h6.1610832c3.2190361,0.000927,5.8471489-2.5872002,5.912426-5.8221245
			c0.0651417-3.2350578-2.4563847-5.9279175-5.672905-6.0582047L-29.7243271-52.0841064z"/>
		
			<linearGradient id="SVGID_10_" gradientUnits="userSpaceOnUse" x1="-478.8539124" y1="398.6855469" x2="-478.8046265" y2="398.6357727" gradientTransform="matrix(89.3919983 0 0 -89.8539963 42770.640625 35772.1679688)">
			<stop  offset="0" style="stop-color:#FFFFFF"/>
			<stop  offset="1" style="stop-color:#FFFFFF;stop-opacity:0"/>
		</linearGradient>
		<ellipse class="st13" cx="-29.9650402" cy="-46.1391106" rx="5.9179864" ry="5.9485722"/>
	</g>
</g>
</svg>
