<svg width="18" height="18" viewBox="0 0 18 18" fill="none" xmlns="http://www.w3.org/2000/svg">
<g clip-path="url(#clip0_320_15528)">
<path d="M13.5 13.5C12.8883 14.1117 12.2011 14.5705 11.4385 14.8764C10.6759 15.1822 9.89496 15.3351 9.09565 15.3351C8.29634 15.3351 7.51539 15.1822 6.75278 14.8764C5.99018 14.5705 5.30302 14.1117 4.6913 13.5L5.42536 12.7659C6.44488 13.7855 7.66831 14.2952 9.09565 14.2952C10.523 14.2952 11.7464 13.7855 12.7659 12.7659C13.7855 11.7464 14.2952 10.523 14.2952 9.09565C14.2952 7.66832 13.7855 6.44489 12.7659 5.42536C11.7464 4.40584 10.5332 3.88588 9.12624 3.86549C7.71929 3.8451 6.50606 4.34466 5.48653 5.36419L5.20514 5.64558H6.99135L7.00358 6.66103L3.4067 6.66103V3.06414L4.40991 3.06414L4.40991 4.97269L4.6913 4.6913C5.30302 4.07959 5.99018 3.6208 6.75278 3.31494C7.51539 3.00909 8.29634 2.85616 9.09565 2.85616C9.89496 2.85616 10.6759 3.00909 11.4385 3.31494C12.2011 3.6208 12.8883 4.07959 13.5 4.6913C14.1117 5.30302 14.5705 5.99018 14.8764 6.75279C15.1822 7.51539 15.3351 8.29635 15.3351 9.09565C15.3351 9.89496 15.1822 10.6759 14.8764 11.4385C14.5705 12.2011 14.1117 12.8883 13.5 13.5Z" fill="#E0E0E0"/>
</g>
<defs>
<clipPath id="clip0_320_15528">
<rect width="18" height="18" fill="white"/>
</clipPath>
</defs>
</svg>
