<?xml version="1.0" encoding="utf-8"?>
<!-- Generator: Adobe Illustrator 26.5.0, SVG Export Plug-In . SVG Version: 6.00 Build 0)  -->
<svg version="1.1" id="레이어_1" xmlns="http://www.w3.org/2000/svg" xmlns:xlink="http://www.w3.org/1999/xlink" x="0px"
	 y="0px" viewBox="0 0 32 32" style="enable-background:new 0 0 32 32;" xml:space="preserve">
<style type="text/css">
	.st0{fill:#FFFFFF;}
</style>
<path class="st0" d="M27.2,13.3V8h-2.8V5.9c0-1.8-1.4-3.2-3.2-3.2h-2.7v0c0-1.4-1.2-2.6-2.6-2.6s-2.6,1.2-2.6,2.6v0h-2.4
	C9,2.7,7.6,4.1,7.6,5.9V8H4.8v5.3h2.8v2.9H6.4c-0.9,0-1.6,0.7-1.6,1.6v3.1c0,0.9,0.7,1.6,1.6,1.6h1.2v4.2H6.4
	c-0.9,0-1.6,0.7-1.6,1.6V32h22.4v-3.7c0-0.9-0.7-1.6-1.6-1.6h-1.2v-4.2h1.2c0.9,0,1.6-0.7,1.6-1.6v-3.1c0-0.9-0.7-1.6-1.6-1.6h-1.2
	v-2.9H27.2z M16,24.5c-3.1,0-5.6-2.5-5.6-5.6s2.5-5.6,5.6-5.6s5.6,2.5,5.6,5.6S19.1,24.5,16,24.5z"/>
</svg>
