<?xml version="1.0" encoding="utf-8"?>
<!-- Generator: Adobe Illustrator 26.5.0, SVG Export Plug-In . SVG Version: 6.00 Build 0)  -->
<svg version="1.1" id="레이어_1" xmlns="http://www.w3.org/2000/svg" xmlns:xlink="http://www.w3.org/1999/xlink" x="0px"
	 y="0px" viewBox="0 0 33 33" style="enable-background:new 0 0 33 33;" xml:space="preserve">
<style type="text/css">
	.st0{fill:#FFFFFF;}
</style>
<g>
	<path class="st0" d="M31.4,18.4l-1.2-0.3l0.7-3.1c0.7-3.1-1.3-6.2-4.4-6.8l-6.8-1.5c-3.1-0.7-6.2,1.3-6.9,4.4l-0.7,3.1L10.9,14
		c-0.8-0.2-1.5,0.3-1.7,1.1L8,20.6c-0.2,0.7,0.3,1.5,1,1.7c0,0.1-0.1,0.1-0.1,0.1l-0.2,1C8.6,24.2,9,25,9.8,25.2l1.1,0.2
		c0.8,0.2,1.5-0.3,1.7-1.1l0.2-1c0,0,0-0.1,0-0.1l13,2.8c0,0,0,0.1-0.1,0.1l-0.2,1c-0.2,0.8,0.3,1.5,1.1,1.7l1.1,0.2
		c0.8,0.2,1.5-0.3,1.7-1.1l0.2-1c0-0.1,0-0.1,0-0.2c0.7,0.1,1.5-0.4,1.6-1.1l1.2-5.6C32.6,19.3,32.1,18.5,31.4,18.4z M15.4,11.2
		c0.3-1.6,1.9-2.5,3.4-2.2l7.4,1.6c1.6,0.3,2.5,1.9,2.2,3.4l-0.8,3.5l-13-2.8L15.4,11.2z M15.6,21c-1,0.7-3.6-0.9-4.1-1.3
		C11,19.3,10.9,18,12,17.1c0.9-0.7,2.3,0.1,2.9,0.6C16.3,18.9,16.6,20.3,15.6,21z M26,20.2c0.7-0.2,2.4-0.4,2.9,0.6
		c0.7,1.3,0.1,2.4-0.6,2.6c-0.7,0.2-3.7,0.6-4.3-0.5C23.5,21.8,24.3,20.7,26,20.2z"/>
	<path class="st0" d="M4.3,17.2l2-1.5c0-4.3,2.6-5.4,4.2-5.4l1-3.1l0.4-3L8.5,7.1L5.7,4L5.4,7.9L1.1,7.5l2.7,2.9l-3.4,2.4l4.3,0.5
		L4.3,17.2z"/>
</g>
</svg>
