<?xml version="1.0" encoding="utf-8"?>
<!-- Generator: Adobe Illustrator 26.5.0, SVG Export Plug-In . SVG Version: 6.00 Build 0)  -->
<svg version="1.1" id="레이어_1" xmlns="http://www.w3.org/2000/svg" xmlns:xlink="http://www.w3.org/1999/xlink" x="0px"
	 y="0px" viewBox="0 0 32 32" style="enable-background:new 0 0 32 32;" xml:space="preserve">
<style type="text/css">
	.st0{fill:#FFFFFF;}
</style>
<g>
	<path class="st0" d="M27.4,29.6l-3.8-6.3c-0.2-0.3-0.4-0.5-0.6-0.6c-1.4,1.6-3,3.2-4.9,4.9L16,29.5l-2.1-1.9
		c-1.9-1.7-3.5-3.3-4.9-5c-0.4,0.1-0.7,0.4-0.9,0.7l-3.5,6.3C4,30.7,4.8,32,6,32h20C27.3,32,28,30.6,27.4,29.6z"/>
	<path class="st0" d="M22.7,2.8C20.8,0.9,18.5,0,16,0s-4.8,0.9-6.7,2.8c-1.9,1.9-2.9,4.4-2.9,7.5c0,2.1,0.8,4.4,2.4,6.9
		c1.6,2.5,4,5.1,7.2,8c3.2-2.9,5.6-5.6,7.2-8c1.6-2.5,2.4-4.8,2.4-6.9C25.6,7.2,24.6,4.7,22.7,2.8z M16,14.4c-2.3,0-4.1-1.9-4.1-4.2
		S13.7,6,16,6c2.3,0,4.1,1.9,4.1,4.2S18.3,14.4,16,14.4z"/>
</g>
</svg>
