<?xml version="1.0" encoding="utf-8"?>
<!-- Generator: Adobe Illustrator 26.3.1, SVG Export Plug-In . SVG Version: 6.00 Build 0)  -->
<svg version="1.1" id="_이어_2" xmlns="http://www.w3.org/2000/svg" xmlns:xlink="http://www.w3.org/1999/xlink" x="0px" y="0px"
	 viewBox="0 0 10.9 20" style="enable-background:new 0 0 10.9 20;" xml:space="preserve">
<style type="text/css">
	.st0{fill:#158FCC;}
	.st1{fill:url(#SVGID_1_);}
</style>
<g>
	<path class="st0" d="M8,12V3.6C8,2.2,6.9,1,5.5,1C4.6,1,3.7,1.5,3.3,2.3h-1c-0.4,0-0.6,0.3-0.6,0.6s0.3,0.6,0.6,0.6h0.6v1.3H2.3
		c-0.4,0-0.6,0.3-0.6,0.6c0,0.4,0.3,0.6,0.6,0.6h0.6v1.3H2.3c-0.4,0-0.6,0.3-0.6,0.6s0.3,0.6,0.6,0.6h0.6V10H2.3
		c-0.4,0-0.6,0.3-0.6,0.6s0.3,0.6,0.6,0.6h0.6V12c0,0.2-0.1,0.3-0.2,0.5c-1.5,1.5-1.5,4,0.1,5.4c0.5,0.5,1.2,0.9,1.9,1
		C4.9,19,5.2,19,5.5,19c2.1,0,3.9-1.7,3.9-3.8c0-1-0.4-2-1.1-2.7C8.1,12.3,8,12.2,8,12z M7.1,17.1C6,18,4.4,17.9,3.5,16.8
		c-0.8-1-0.8-2.5,0.1-3.4C4,13,4.2,12.5,4.2,12V3.6c0-0.7,0.6-1.3,1.3-1.3s1.3,0.6,1.3,1.3V12c0,0.5,0.2,1,0.6,1.4c1,1,1,2.6,0,3.6
		C7.2,17,7.2,17.1,7.1,17.1z"/>
	<linearGradient id="SVGID_1_" gradientUnits="userSpaceOnUse" x1="5.4675" y1="17.0781" x2="5.4675" y2="4.8578">
		<stop  offset="0" style="stop-color:#158FCC"/>
		<stop  offset="0.3" style="stop-color:#00E950"/>
		<stop  offset="0.7" style="stop-color:#FFA415"/>
		<stop  offset="1" style="stop-color:#FF362A"/>
	</linearGradient>
	<path class="st1" d="M6.6,13.6c-0.3-0.2-0.5-0.6-0.5-1V5.5c0-0.4-0.3-0.6-0.6-0.6c-0.4,0-0.6,0.3-0.6,0.6v7.1c0,0.4-0.2,0.8-0.5,1
		c-0.6,0.4-0.9,1.2-0.8,1.9c0.2,1,1.2,1.7,2.3,1.5c0.9-0.2,1.6-1,1.5-1.9C7.4,14.5,7.1,14,6.6,13.6z M5.5,15.8
		c-0.4,0-0.6-0.3-0.6-0.6s0.3-0.6,0.6-0.6c0.4,0,0.6,0.3,0.6,0.6S5.8,15.8,5.5,15.8z"/>
</g>
</svg>
