<?xml version="1.0" encoding="utf-8"?>
<!-- Generator: Adobe Illustrator 26.5.0, SVG Export Plug-In . SVG Version: 6.00 Build 0)  -->
<svg version="1.1" id="레이어_1" xmlns="http://www.w3.org/2000/svg" xmlns:xlink="http://www.w3.org/1999/xlink" x="0px"
	 y="0px" viewBox="0 0 33 32" style="enable-background:new 0 0 33 32;" xml:space="preserve">
<style type="text/css">
	.st0{fill:#FFFFFF;}
</style>
<g>
	<path class="st0" d="M6.7,13.1c0.5,0,1,0.3,1.3,0.7l2.2,3.9l3.2-6.5c0.2-0.5,0.7-0.8,1.2-0.8c0.6,0,1,0.3,1.3,0.7l3.1,5.6l3.3-8
		c0.2-0.5,0.7-0.9,1.3-0.9c0.5,0,1.1,0.3,1.3,0.8l4.5,9.1c0-0.1,0.1-0.1,0.1-0.2c1.1-1.6,1.9-3.1,2.3-4.4s0.7-2.6,0.7-4
		c0-2.6-0.8-4.8-2.4-6.6c-1.6-1.8-3.6-2.6-6-2.6c-1.4,0-2.8,0.4-4,1.1c-1.3,0.7-2.4,1.9-3.6,3.5c-1-1.5-2.1-2.6-3.4-3.4
		C11.8,0.4,10.4,0,8.9,0c-2.4,0-4.4,0.9-6,2.6c-1.6,1.8-2.4,4-2.4,6.6c0,1.3,0.2,2.7,0.7,4s1.2,2.8,2.3,4.4c0,0.1,0.1,0.1,0.1,0.2
		l1.9-3.9C5.7,13.4,6.2,13.1,6.7,13.1z"/>
	<path class="st0" d="M28,19l-4.3-8.8l-3.3,8c-0.2,0.5-0.7,0.9-1.2,0.9c-0.6,0-1.1-0.3-1.3-0.7l-3.1-5.7l-3.2,6.5
		c-0.2,0.5-0.7,0.8-1.2,0.8c0,0,0,0,0,0c-0.5,0-1-0.3-1.2-0.7l-2.2-3.9L5,18.9c-0.1,0.1-0.2,0.3-0.3,0.4c0.9,1.2,1.9,2.4,3.1,3.8
		c1.8,2.1,4.2,4.5,7,7.3l1.6,1.6l1.6-1.6c2.8-2.8,5.2-5.3,7-7.3c1.2-1.3,2.2-2.6,3.1-3.8C28.2,19.2,28.1,19.1,28,19z"/>
</g>
</svg>
