<?xml version="1.0" encoding="utf-8"?>
<!-- Generator: Adobe Illustrator 25.1.0, SVG Export Plug-In . SVG Version: 6.00 Build 0)  -->
<svg version="1.1" id="레이어_1" xmlns="http://www.w3.org/2000/svg" xmlns:xlink="http://www.w3.org/1999/xlink" x="0px"
	 y="0px" viewBox="0 0 20 20" style="enable-background:new 0 0 20 20;" xml:space="preserve">
<style type="text/css">
	.st0{fill:url(#SVGID_1_);}
	.st1{fill-rule:evenodd;clip-rule:evenodd;fill:#FFDD1C;}
</style>
<g>
	
		<linearGradient id="SVGID_1_" gradientUnits="userSpaceOnUse" x1="-435.152832" y1="457.1095276" x2="-435.2368469" y2="457.1935425" gradientTransform="matrix(109.6720886 0 0 -109.672226 47741.9570312 50150.0546875)">
		<stop  offset="0" style="stop-color:#7FAAFF"/>
		<stop  offset="1" style="stop-color:#7ABEF5"/>
	</linearGradient>
	<path class="st0" d="M2.1500549,12.2583437c3.0591149,0.0005474,5.9542875-1.3835764,7.8747377-3.7648535
		C11.9450598,6.1122131,12.684536,2.9896357,12.0358763,0c4.9150076,1.0700977,8.2970858,5.5890169,7.938014,10.6061487
		c-0.359251,5.0174961-4.3502331,9.0086622-9.367547,9.3677301c-5.0173144,0.3592529-9.5362339-3.0230064-10.6063309-7.9380159
		C0.706663,12.186676,1.4275382,12.2612619,2.1500549,12.2583437z"/>
	<path class="st1" d="M4.8426232,3.0709689C4.3044744,4.3697481,3.868448,4.806139,2.5694864,5.3441057
		c1.2989616,0.5379667,1.734988,0.9741755,2.2731369,2.2729549C5.38059,6.3182812,5.8167987,5.8820724,7.1155782,5.3441057
		C5.8167987,4.806139,5.38059,4.3697481,4.8426232,3.0709689"/>
</g>
</svg>
