<?xml version="1.0" encoding="utf-8"?>
<!-- Generator: Adobe Illustrator 26.5.0, SVG Export Plug-In . SVG Version: 6.00 Build 0)  -->
<svg version="1.1" id="레이어_1" xmlns="http://www.w3.org/2000/svg" xmlns:xlink="http://www.w3.org/1999/xlink" x="0px"
	 y="0px" viewBox="0 0 33 32" style="enable-background:new 0 0 33 32;" xml:space="preserve">
<style type="text/css">
	.st0{fill:#FFFFFF;}
</style>
<path class="st0" d="M16.7,0L0.5,10.8V32h32V10.8L16.7,0z M25,17.3c-0.2,0.7-0.7,1.4-1.3,2.2c-0.6,0.8-1.4,1.7-2.4,2.8
	c-1,1-2.3,2.2-3.9,3.7l-0.9,0.8l-0.9-0.8c-1.6-1.4-2.9-2.6-3.9-3.7c-1-1-1.8-1.9-2.4-2.8c-0.6-0.8-1-1.5-1.3-2.2
	c-0.2-0.7-0.4-1.3-0.4-2C7.6,14,8.1,12.9,9,12c0.9-0.9,2-1.3,3.3-1.3c0.8,0,1.6,0.2,2.3,0.6c0.7,0.4,1.3,1,1.9,1.7
	c0.6-0.8,1.3-1.4,2-1.7c0.7-0.4,1.4-0.6,2.2-0.6c1.3,0,2.4,0.4,3.3,1.3c0.9,0.9,1.3,2,1.3,3.3C25.4,15.9,25.3,16.6,25,17.3z"/>
</svg>
