<?xml version="1.0" encoding="utf-8"?>
<!-- Generator: Adobe Illustrator 26.5.0, SVG Export Plug-In . SVG Version: 6.00 Build 0)  -->
<svg version="1.1" id="레이어_1" xmlns="http://www.w3.org/2000/svg" xmlns:xlink="http://www.w3.org/1999/xlink" x="0px"
	 y="0px" viewBox="0 0 32 32" style="enable-background:new 0 0 32 32;" xml:space="preserve">
<style type="text/css">
	.st0{fill:#FFFFFF;}
</style>
<g>
	<path class="st0" d="M21.3,1H8.5C3.8,1,0,4.8,0,9.5S3.8,18,8.5,18h2.4v4.2l-9.5,5.1c-1,0.5-1.3,1.7-0.8,2.7C0.9,30.6,1.6,31,2.3,31
		c0.3,0,0.6-0.1,0.9-0.2l11.6-6.2V18h6.4c1.1,0,2-0.9,2-2V3C23.3,1.9,22.5,1,21.3,1z"/>
	<path class="st0" d="M27,5.9h3c1.1,0,2,0.9,2,2v3.3c0,1.1-0.9,2-2,2h-3c-1.1,0-2-0.9-2-2V7.9C25,6.8,25.9,5.9,27,5.9z"/>
</g>
</svg>
