<?xml version="1.0" encoding="utf-8"?>
<!-- Generator: Adobe Illustrator 25.1.0, SVG Export Plug-In . SVG Version: 6.00 Build 0)  -->
<svg version="1.1" id="레이어_1" xmlns="http://www.w3.org/2000/svg" xmlns:xlink="http://www.w3.org/1999/xlink" x="0px"
	 y="0px" viewBox="0 0 20 20" style="enable-background:new 0 0 20 20;" xml:space="preserve">
<style type="text/css">
	.st0{fill:url(#SVGID_1_);}
	.st1{opacity:0.15;fill:url(#SVGID_2_);enable-background:new    ;}
	.st2{fill:url(#prefix__c_2_);fill-opacity:0;}
	.st3{filter:url(#Adobe_OpacityMaskFilter);}
	.st4{fill-rule:evenodd;clip-rule:evenodd;fill:#FFFFFF;}
	.st5{mask:url(#prefix__e_2_);}
	.st6{fill:#DEDFE3;}
	.st7{opacity:0.59;fill:url(#SVGID_3_);enable-background:new    ;}
	.st8{opacity:0.4;fill:url(#SVGID_4_);enable-background:new    ;}
	.st9{opacity:0.59;fill:url(#SVGID_5_);enable-background:new    ;}
	.st10{opacity:0.4;fill:url(#SVGID_6_);enable-background:new    ;}
</style>
<g>
	<g>
		
			<linearGradient id="SVGID_1_" gradientUnits="userSpaceOnUse" x1="-435.819397" y1="456.3632507" x2="-435.7286377" y2="456.3017578" gradientTransform="matrix(132.5050049 0 0 -89.6849899 57748.6953125 40933.9453125)">
			<stop  offset="0" style="stop-color:#ACAEB3"/>
			<stop  offset="1" style="stop-color:#96989C"/>
		</linearGradient>
		<path class="st0" d="M14.2054615,4.7440376c-1.168417-2.0145888-3.3864927-3.1806445-5.7062426-2.9992425
			C6.1796093,1.9259191,4.1689095,3.4218595,3.326627,5.5935426C1.3814877,6.0727439,0.0106952,7.8142571,0,9.81954
			c0,2.411005,1.9798639,4.3639231,4.422122,4.3639231h9.1795454c2.6525517,0,4.8031235-2.1226511,4.8031235-4.7402
			C18.3885384,7.0408697,16.5884113,5.0262804,14.2054615,4.7440376z"/>
		
			<linearGradient id="SVGID_2_" gradientUnits="userSpaceOnUse" x1="-434.3695679" y1="456.2844238" x2="-434.3117065" y2="456.2077026" gradientTransform="matrix(87.1946411 0 0 -87.3015366 37878.4335938 39835.1679688)">
			<stop  offset="0" style="stop-color:#FCFCFC"/>
			<stop  offset="1" style="stop-color:#FFFFFF;stop-opacity:0"/>
		</linearGradient>
		<path class="st1" d="M15.0260754,7.7874498c0.0004168,2.4523973-1.4745493,4.6636677-3.7373505,5.6024837
			c-2.2626619,0.938818-4.8675704,0.4204473-6.5996389-1.3135662c-1.7320685-1.7338743-2.2504387-4.3416996-1.3132885-6.6074171
			c0.937289-2.2657175,3.1455028-3.7430453,5.5947056-3.7430453c1.6059494-0.0002779,3.146059,0.6381012,4.2818346,1.7749881
			c1.1356373,1.1367481,1.7737389,2.6788027,1.7737389,4.2866955L15.0260754,7.7874498z"/>
	</g>
	<g transform="translate(18 28.16)">
		<g>
			
				<linearGradient id="prefix__c_2_" gradientUnits="userSpaceOnUse" x1="-453.819397" y1="428.2032166" x2="-453.7286377" y2="428.1417236" gradientTransform="matrix(132.5050049 0 0 -89.6848068 60115.7890625 38380.171875)">
				<stop  offset="0" style="stop-color:#ACAEB3"/>
				<stop  offset="1" style="stop-color:#96989C"/>
			</linearGradient>
			<path id="prefix__c_1_" class="st2" d="M-3.7945385-23.4163799c-1.1684175-2.0145874-3.3864927-3.1805038-5.7062426-2.9992409
				c-2.3196106,0.1811237-4.3303099,1.6772022-5.1725922,3.8487473C-16.6185131-22.0876732-17.9893055-20.346159-18-18.3407383
				c0,2.4108667,1.9798641,4.3637838,4.422122,4.3637838h9.1795454c2.6525507,0,4.8031225-2.1226511,4.8031225-4.7401991
				C0.3885384-21.1195488-1.4115893-23.1341362-3.7945385-23.4163799z"/>
		</g>
		<defs>
			
				<filter id="Adobe_OpacityMaskFilter" filterUnits="userSpaceOnUse" x="-11.2423363" y="-19.0284557" width="13.1212816" height="9.1425505">
				<feColorMatrix  type="matrix" values="1 0 0 0 0  0 1 0 0 0  0 0 1 0 0  0 0 0 1 0"/>
			</filter>
		</defs>
		<mask maskUnits="userSpaceOnUse" x="-11.2423363" y="-19.0284557" width="13.1212816" height="9.1425505" id="prefix__e_2_">
			<g class="st3">
				<path id="prefix__c_3_" class="st4" d="M-3.7945385-23.4163799c-1.1684175-2.0145874-3.3864927-3.1805038-5.7062426-2.9992409
					c-2.3196106,0.1811237-4.3303099,1.6772022-5.1725922,3.8487473C-16.6185131-22.0876732-17.9893055-20.346159-18-18.3407383
					c0,2.4108667,1.9798641,4.3637838,4.422122,4.3637838h9.1795454c2.6525507,0,4.8031225-2.1226511,4.8031225-4.7401991
					C0.3885384-21.1195488-1.4115893-23.1341362-3.7945385-23.4163799z"/>
			</g>
		</mask>
		<g class="st5">
			<g>
				<path class="st6" d="M1.7858603-13.8059692c-0.2700194-1.1375809-1.1571664-2.0257006-2.29322-2.2961369
					c-0.176401-0.0406971-0.3558583-0.0676441-0.5364271-0.0804214c-0.3823884-1.3969059-1.513997-2.461565-2.9303479-2.7564468
					c-1.0424361-0.2248783-2.1315417-0.0125027-3.0135493,0.5875416c-0.8821464,0.6000423-1.4803839,1.535387-1.655674,2.5886574
					c-1.5373325,0.1801519-2.6718578,1.522192-2.5953245,3.0698023c0.0766726,1.5476112,1.3382902,2.7708931,2.885623,2.7979784
					h7.0862021c0.9677085-0.0013895,1.8811067-0.4482269,2.4769828-1.2116146
					c0.5958761-0.7635269,0.8081135-1.7588768,0.5755963-2.6993599H1.7858603z"/>
				
					<linearGradient id="SVGID_3_" gradientUnits="userSpaceOnUse" x1="-450.4866028" y1="426.3139648" x2="-450.4450684" y2="426.2171326" gradientTransform="matrix(56.133976 0 0 -56.2026749 25281.1855469 23941.0820312)">
					<stop  offset="0" style="stop-color:#FFFFFF"/>
					<stop  offset="1" style="stop-color:#FFFFFF;stop-opacity:0"/>
				</linearGradient>
				<path class="st7" d="M-0.9890601-15.9490395c0.2768248,1.2962046-0.1212588,2.6446342-1.0574367,3.5819235
					s-2.2828016,1.3357897-3.5774784,1.0586872c-1.5031629-0.3114109-2.6778302-1.487606-2.9889636-2.9925747
					c-0.2773809-1.2963428,0.1204252-2.645051,1.0567422-3.5826178s2.2834969-1.3357906,3.5784502-1.0579929
					C-2.4748611-18.630064-1.3001932-17.4540081-0.9890601-15.9490395z"/>
				
					<linearGradient id="SVGID_4_" gradientUnits="userSpaceOnUse" x1="-449.5237427" y1="425.1571045" x2="-449.5031128" y2="425.0725708" gradientTransform="matrix(45.3683434 0 0 -45.424881 20392.0820312 19296.4199219)">
					<stop  offset="0" style="stop-color:#FFFFFF"/>
					<stop  offset="1" style="stop-color:#FFFFFF;stop-opacity:0"/>
				</linearGradient>
				<path class="st8" d="M1.7858603-13.8059692c0.2666855,1.0750771-0.0486144,2.2115479-0.8308932,2.9949369
					c-0.7824175,0.78339-1.9174984,1.0989676-2.9913259,0.8318653c-1.1361923-0.2704363-2.0232008-1.158555-2.2932198-2.2961369
					c-0.2666855-1.0750761,0.0486145-2.2115469,0.8308926-2.994936c0.7824171-0.7833891,1.9174978-1.0989676,2.9911861-0.8318663
					c1.1361924,0.2704372,2.0233393,1.1584167,2.29322,2.2959986L1.7858603-13.8059692z"/>
			</g>
		</g>
	</g>
	<g>
		<path class="st6" d="M19.9062862,14.3002777c-0.2715473-1.135498-1.1635551-2.0219507-2.3059978-2.291831
			c-0.1773739-0.0406971-0.3576641-0.0675049-0.5393448-0.0802832c-0.3843327-1.3942671-1.5223312-2.4571209-2.9464607-2.7514467
			c-1.0484085-0.2243223-2.1433477-0.0125017-3.0303564,0.5865688c-0.8870077,0.5989323-1.488718,1.5326099-1.6649799,2.5837965
			C7.8736191,12.5269556,6.7327042,13.8666353,6.809793,15.41119c0.0768108,1.5449715,1.3455129,2.7658939,2.9014573,2.7929783
			h7.1255112c0.9731236-0.0013885,1.8915234-0.4472542,2.4907341-1.2093925
			c0.5992088-0.7619991,0.8125572-1.755681,0.5787907-2.6943598V14.3002777z"/>
		
			<linearGradient id="SVGID_5_" gradientUnits="userSpaceOnUse" x1="-432.5292053" y1="454.4562073" x2="-432.4875793" y2="454.3605347" gradientTransform="matrix(56.4452972 0 0 -56.0987854 24425.8925781 25503.6992188)">
			<stop  offset="0" style="stop-color:#FFFFFF"/>
			<stop  offset="1" style="stop-color:#FFFFFF;stop-opacity:0"/>
		</linearGradient>
		<path class="st9" d="M17.1160851,12.1612358c0.2782154,1.2938423-0.1220913,2.6396332-1.0634079,3.5752554
			c-0.9413176,0.935483-2.2954426,1.3334284-3.5973415,1.0567427c-1.5114975-0.3108559-2.6925535-1.4848289-3.0054932-2.9870195
			c-0.2789087-1.2939816,0.1211195-2.6401892,1.0625763-3.5759506c0.941596-0.9357615,2.2961369-1.3334284,3.5983133-1.0560474
			c1.5114975,0.3109941,2.6925535,1.484828,3.0054922,2.9870195H17.1160851z"/>
		
			<linearGradient id="SVGID_6_" gradientUnits="userSpaceOnUse" x1="-431.5765686" y1="453.2952576" x2="-431.5558777" y2="453.2117615" gradientTransform="matrix(45.620842 0 0 -45.3409462 19704.9179688 20564.6953125)">
			<stop  offset="0" style="stop-color:#FFFFFF"/>
			<stop  offset="1" style="stop-color:#FFFFFF;stop-opacity:0"/>
		</linearGradient>
		<path class="st10" d="M19.9062862,14.3002777c0.2683525,1.0731316-0.0486145,2.2075176-0.8354759,2.9893799
			c-0.7867241,0.7820015-1.9280548,1.097023-3.0078545,0.8303375c-1.1424427-0.2698803-2.0344515-1.156332-2.3059978-2.291831
			c-0.2682142-1.0731316,0.0487537-2.2075186,0.8354759-2.9893799c0.7867231-0.7820005,1.9280548-1.097023,3.0078545-0.8303375
			C18.7427311,12.278327,19.6347389,13.1647797,19.9062862,14.3002777z"/>
	</g>
</g>
</svg>
