<?xml version="1.0" encoding="utf-8"?>
<!-- Generator: Adobe Illustrator 26.5.0, SVG Export Plug-In . SVG Version: 6.00 Build 0)  -->
<svg version="1.1" id="레이어_1" xmlns="http://www.w3.org/2000/svg" xmlns:xlink="http://www.w3.org/1999/xlink" x="0px"
	 y="0px" viewBox="0 0 32 32" style="enable-background:new 0 0 32 32;" xml:space="preserve">
<style type="text/css">
	.st0{fill:#FFFFFF;}
</style>
<g>
	<path class="st0" d="M19.2,1.4c-1-0.8-2.2-1.4-3.6-1.4c-2.3,0-4.3,1.4-5.1,3.4H6.5v3.2H10c0.2,1.1,0.7,2.1,1.5,2.9
		c-2.1,0.9-3.7,3-3.7,5.5h16.5c0-2.8-1.9-5.1-4.6-5.8c0.1-0.2,0.3-0.3,0.4-0.5c1.7,0.5,3.9,1,5.3,0.9V0C23.7,0,20.9,0.8,19.2,1.4z
		 M15.5,1.6c2.2,0,4,1.8,4,4s-1.8,4-4,4c-2.2,0-4-1.8-4-4S13.3,1.6,15.5,1.6z"/>
	<path class="st0" d="M7.9,26h16.5c0,3.3-2.7,6-6,6h-4.5C10.6,32,7.9,29.3,7.9,26z"/>
	<rect x="7.9" y="16" class="st0" width="16.5" height="9"/>
</g>
</svg>
