<svg width="18" height="18" viewBox="0 0 18 18" fill="none" xmlns="http://www.w3.org/2000/svg">
<circle cx="9" cy="9" r="7" fill="#DD2C00"/>
<path d="M5.87829 9.28289C5.87829 9.78717 5.99236 10.2614 6.22048 10.7057C6.44861 11.1499 6.76678 11.5201 7.175 11.8163C7.14299 11.7202 7.11897 11.6222 7.10296 11.5221C7.08695 11.4221 7.07895 11.324 7.07895 11.228C7.07895 10.9718 7.12698 10.7317 7.22303 10.5076C7.31908 10.2834 7.45916 10.0793 7.64326 9.89523L9 8.5625L10.3567 9.89523C10.5408 10.0793 10.6809 10.2834 10.777 10.5076C10.873 10.7317 10.9211 10.9718 10.9211 11.228C10.9211 11.324 10.9131 11.4221 10.897 11.5221C10.881 11.6222 10.857 11.7202 10.825 11.8163C11.2332 11.5201 11.5514 11.1499 11.7795 10.7057C12.0077 10.2614 12.1217 9.78717 12.1217 9.28289C12.1217 8.85066 12.0297 8.42843 11.8456 8.0162C11.6615 7.60398 11.3973 7.22577 11.0531 6.88158C10.885 7.00164 10.7089 7.0957 10.5248 7.16373C10.3407 7.23177 10.1566 7.26579 9.97254 7.26579C9.48427 7.26579 9.08005 7.0997 8.75987 6.76752C8.4397 6.43533 8.27961 6.01711 8.27961 5.51283V5.2727C7.91141 5.53684 7.57922 5.829 7.28306 6.14918C6.9869 6.46935 6.73476 6.80354 6.52665 7.15173C6.31853 7.49992 6.15845 7.85611 6.04638 8.22031C5.93432 8.58451 5.87829 8.93871 5.87829 9.28289ZM9 9.57105L8.14754 10.4115C8.03547 10.5236 7.94943 10.6476 7.88939 10.7837C7.82936 10.9198 7.79935 11.0679 7.79935 11.228C7.79935 11.5561 7.91541 11.8343 8.14754 12.0624C8.37966 12.2905 8.66382 12.4046 9 12.4046C9.33619 12.4046 9.62034 12.2905 9.85247 12.0624C10.0846 11.8343 10.2007 11.5561 10.2007 11.228C10.2007 11.0679 10.1706 10.9198 10.1106 10.7837C10.0506 10.6476 9.96453 10.5236 9.85247 10.4115L9 9.57105ZM9 4V5.58487C9 5.85702 9.09405 6.08514 9.28216 6.26924C9.47026 6.45334 9.70039 6.54539 9.97254 6.54539C10.1166 6.54539 10.2507 6.51538 10.3748 6.45535C10.4988 6.39531 10.6089 6.30526 10.7049 6.1852L10.9211 5.92105C11.5134 6.25724 11.9816 6.72549 12.3258 7.32582C12.67 7.92615 12.8421 8.57851 12.8421 9.28289C12.8421 10.3555 12.4699 11.264 11.7255 12.0084C10.9811 12.7528 10.0726 13.125 9 13.125C7.92742 13.125 7.01892 12.7528 6.27451 12.0084C5.5301 11.264 5.1579 10.3555 5.1579 9.28289C5.1579 8.25833 5.50209 7.27179 6.19046 6.32327C6.87884 5.37475 7.81535 4.60033 9 4Z" fill="white"/>
<path d="M5.8783 9.28293C5.8783 9.78721 5.99236 10.2615 6.22048 10.7057C6.44861 11.15 6.76678 11.5202 7.17501 11.8163C7.14299 11.7203 7.11898 11.6222 7.10297 11.5222C7.08696 11.4221 7.07895 11.3241 7.07895 11.228C7.07895 10.9719 7.12698 10.7317 7.22303 10.5076C7.31909 10.2835 7.45916 10.0794 7.64326 9.89527L9.00001 8.56254L10.3568 9.89527C10.5409 10.0794 10.6809 10.2835 10.777 10.5076C10.873 10.7317 10.9211 10.9719 10.9211 11.228C10.9211 11.3241 10.9131 11.4221 10.897 11.5222C10.881 11.6222 10.857 11.7203 10.825 11.8163C11.2332 11.5202 11.5514 11.15 11.7795 10.7057C12.0077 10.2615 12.1217 9.78721 12.1217 9.28293C12.1217 8.8507 12.0297 8.42847 11.8456 8.01624C11.6615 7.60401 11.3973 7.22581 11.0531 6.88162C10.885 7.00168 10.7089 7.09573 10.5248 7.16377C10.3407 7.23181 10.1566 7.26583 9.97254 7.26583C9.48427 7.26583 9.08005 7.09974 8.75987 6.76755C8.4397 6.43537 8.27961 6.01714 8.27961 5.51287V5.27274C7.91141 5.53688 7.57923 5.82904 7.28307 6.14922C6.9869 6.46939 6.73477 6.80357 6.52665 7.15177C6.31854 7.49996 6.15845 7.85615 6.04639 8.22035C5.93433 8.58455 5.8783 8.93875 5.8783 9.28293Z" fill="white"/>
<path d="M5.8783 9.28293C5.8783 9.78721 5.99236 10.2615 6.22048 10.7057C6.44861 11.15 6.76678 11.5202 7.17501 11.8163C7.14299 11.7203 7.11898 11.6222 7.10297 11.5222C7.08696 11.4221 7.07895 11.3241 7.07895 11.228C7.07895 10.9719 7.12698 10.7317 7.22303 10.5076C7.31909 10.2835 7.45916 10.0794 7.64326 9.89527L9.00001 8.56254L10.3568 9.89527C10.5409 10.0794 10.6809 10.2835 10.777 10.5076C10.873 10.7317 10.9211 10.9719 10.9211 11.228C10.9211 11.3241 10.9131 11.4221 10.897 11.5222C10.881 11.6222 10.857 11.7203 10.825 11.8163C11.2332 11.5202 11.5514 11.15 11.7795 10.7057C12.0077 10.2615 12.1217 9.78721 12.1217 9.28293C12.1217 8.8507 12.0297 8.42847 11.8456 8.01624C11.6615 7.60401 11.3973 7.22581 11.0531 6.88162C10.885 7.00168 10.7089 7.09573 10.5248 7.16377C10.3407 7.23181 10.1566 7.26583 9.97254 7.26583C9.48427 7.26583 9.08005 7.09974 8.75987 6.76755C8.4397 6.43537 8.27961 6.01714 8.27961 5.51287V5.27274C7.91141 5.53688 7.57923 5.82904 7.28307 6.14922C6.9869 6.46939 6.73477 6.80357 6.52665 7.15177C6.31854 7.49996 6.15845 7.85615 6.04639 8.22035C5.93433 8.58455 5.8783 8.93875 5.8783 9.28293Z" fill="white"/>
<path d="M9 9.57101L8.14754 10.4115C8.03548 10.5235 7.94943 10.6476 7.8894 10.7837C7.82936 10.9198 7.79935 11.0678 7.79935 11.2279C7.79935 11.5561 7.91541 11.8343 8.14754 12.0624C8.37967 12.2905 8.66382 12.4046 9 12.4046C9.33619 12.4046 9.62034 12.2905 9.85247 12.0624C10.0846 11.8343 10.2007 11.5561 10.2007 11.2279C10.2007 11.0678 10.1706 10.9198 10.1106 10.7837C10.0506 10.6476 9.96453 10.5235 9.85247 10.4115L9 9.57101Z" fill="#DD2C00"/>
<path d="M9 9.57101L8.14754 10.4115C8.03548 10.5235 7.94943 10.6476 7.8894 10.7837C7.82936 10.9198 7.79935 11.0678 7.79935 11.2279C7.79935 11.5561 7.91541 11.8343 8.14754 12.0624C8.37967 12.2905 8.66382 12.4046 9 12.4046C9.33619 12.4046 9.62034 12.2905 9.85247 12.0624C10.0846 11.8343 10.2007 11.5561 10.2007 11.2279C10.2007 11.0678 10.1706 10.9198 10.1106 10.7837C10.0506 10.6476 9.96453 10.5235 9.85247 10.4115L9 9.57101Z" fill="#DD2C00"/>
</svg>
