<?xml version="1.0" encoding="utf-8"?>
<!-- Generator: Adobe Illustrator 25.1.0, SVG Export Plug-In . SVG Version: 6.00 Build 0)  -->
<svg version="1.1" id="레이어_1" xmlns="http://www.w3.org/2000/svg" xmlns:xlink="http://www.w3.org/1999/xlink" x="0px"
	 y="0px" viewBox="0 0 20 20" style="enable-background:new 0 0 20 20;" xml:space="preserve">
<style type="text/css">
	.st0{opacity:0.6;fill:url(#SVGID_1_);enable-background:new    ;}
	.st1{fill:url(#SVGID_2_);}
	.st2{fill:url(#SVGID_3_);}
	.st3{fill:url(#SVGID_4_);}
	.st4{opacity:0.5;fill:url(#SVGID_5_);enable-background:new    ;}
	.st5{opacity:0.25;fill:url(#SVGID_6_);enable-background:new    ;}
	.st6{fill:url(#SVGID_7_);}
	.st7{fill:url(#SVGID_8_);}
	.st8{fill:url(#SVGID_9_);}
	.st9{fill:url(#SVGID_10_);}
</style>
<g>
	
		<linearGradient id="SVGID_1_" gradientUnits="userSpaceOnUse" x1="-380.4207458" y1="441.3026123" x2="-380.4207458" y2="441.5319519" gradientTransform="matrix(6 0 0 -15.999999 2294.5 7081.5297852)">
		<stop  offset="0" style="stop-color:#61ADFF;stop-opacity:0.6"/>
		<stop  offset="0" style="stop-color:#61ADFF;stop-opacity:0.6"/>
		<stop  offset="0.11" style="stop-color:#5DA9FF;stop-opacity:0.73"/>
		<stop  offset="0.23" style="stop-color:#5AA6FF;stop-opacity:0.83"/>
		<stop  offset="0.36" style="stop-color:#57A4FF;stop-opacity:0.9"/>
		<stop  offset="0.5" style="stop-color:#55A2FF;stop-opacity:0.96"/>
		<stop  offset="0.68" style="stop-color:#54A1FF;stop-opacity:0.99"/>
		<stop  offset="1" style="stop-color:#54A1FF"/>
	</linearGradient>
	<path class="st0" d="M11.9755487,17.7065868c0.2290545,0,0.416255,0.1790295,0.4292984,0.4047871l0.0007162,0.0252285v1.433382
		C12.4055634,19.807497,12.2130604,20,11.9755487,20c-0.2290545,0-0.416254-0.1790295-0.4292984-0.4047871l-0.0007162-0.0252285
		v-1.433382C11.5455341,17.8990898,11.7380371,17.7065868,11.9755487,17.7065868z"/>
	
		<linearGradient id="SVGID_2_" gradientUnits="userSpaceOnUse" x1="-380.4207458" y1="453.8021545" x2="-380.4207458" y2="453.9645996" gradientTransform="matrix(6 0 0 -51 2294.5 23161.5292969)">
		<stop  offset="0" style="stop-color:#61ADFF;stop-opacity:0.6"/>
		<stop  offset="0" style="stop-color:#61ADFF;stop-opacity:0.6"/>
		<stop  offset="0.11" style="stop-color:#5DA9FF;stop-opacity:0.73"/>
		<stop  offset="0.23" style="stop-color:#5AA6FF;stop-opacity:0.83"/>
		<stop  offset="0.36" style="stop-color:#57A4FF;stop-opacity:0.9"/>
		<stop  offset="0.5" style="stop-color:#55A2FF;stop-opacity:0.96"/>
		<stop  offset="0.68" style="stop-color:#54A1FF;stop-opacity:0.99"/>
		<stop  offset="1" style="stop-color:#54A1FF"/>
	</linearGradient>
	<path class="st1" d="M11.9755487,9.822979c0.2290545,0,0.416254,0.1790304,0.4292984,0.4047871l0.0007162,0.0252285v6.4502239
		c0,0.2375107-0.192503,0.4300156-0.4300146,0.4300156c-0.2290545,0-0.416254-0.1790295-0.4292984-0.404789l-0.0007162-0.0252266
		v-6.4502239C11.5455341,10.0154829,11.7380381,9.822979,11.9755487,9.822979z"/>
	
		<linearGradient id="SVGID_3_" gradientUnits="userSpaceOnUse" x1="-376.4229736" y1="455.3051758" x2="-376.4229736" y2="455.4631348" gradientTransform="matrix(6 0 0 -64.7699966 2266.5 29509.7285156)">
		<stop  offset="0" style="stop-color:#61ADFF;stop-opacity:0.6"/>
		<stop  offset="0" style="stop-color:#61ADFF;stop-opacity:0.6"/>
		<stop  offset="0.11" style="stop-color:#5DA9FF;stop-opacity:0.73"/>
		<stop  offset="0.23" style="stop-color:#5AA6FF;stop-opacity:0.83"/>
		<stop  offset="0.36" style="stop-color:#57A4FF;stop-opacity:0.9"/>
		<stop  offset="0.5" style="stop-color:#55A2FF;stop-opacity:0.96"/>
		<stop  offset="0.68" style="stop-color:#54A1FF;stop-opacity:0.99"/>
		<stop  offset="1" style="stop-color:#54A1FF"/>
	</linearGradient>
	<path class="st2" d="M7.9620757,9.8559475c0.2290549,0,0.4162545,0.1790295,0.4292989,0.4047871l0.0007162,0.0252285v8.4239922
		c0,0.2375107-0.1925039,0.4300156-0.4300151,0.4300156c-0.2290545,0-0.416254-0.1790295-0.4292984-0.404789l-0.0007162-0.0252266
		v-8.4239922C7.5320611,10.0484514,7.7245646,9.8559475,7.9620757,9.8559475z"/>
	
		<linearGradient id="SVGID_4_" gradientUnits="userSpaceOnUse" x1="-435.9685364" y1="456.3387451" x2="-435.8432617" y2="456.2626038" gradientTransform="matrix(136.4788513 0 0 -90.0271683 59495.6953125 41084.5273438)">
		<stop  offset="0" style="stop-color:#E9E9ED"/>
		<stop  offset="1" style="stop-color:#DEDFE3"/>
	</linearGradient>
	<path class="st3" d="M14.8494825,3.4487247h-0.0516014c-0.9513369-2.2604456-3.2557878-3.6458101-5.6984158-3.4253559
		C6.65698,0.2436797,4.63763,2.0190678,4.1062751,4.4133916c-2.29456,0.1963735-4.015193,2.1846189-3.8801684,4.4836221
		c0.1290044,2.2633123,2.0612051,4.0034399,4.3288174,4.0034399h10.2945585
		c1.7365446,0.0741053,3.3737535-0.8101482,4.2640295-2.3027306c0.8904171-1.4927254,0.8904171-3.3535428,0-4.8462691
		C18.2232361,4.2588725,16.5860271,3.3746178,14.8494825,3.4487247z"/>
	
		<linearGradient id="SVGID_5_" gradientUnits="userSpaceOnUse" x1="-433.9460144" y1="455.6700134" x2="-433.8844299" y2="455.608429" gradientTransform="matrix(78.5812531 0 0 -78.5810242 34104.828125 35807.8515625)">
		<stop  offset="0" style="stop-color:#FFFFFF"/>
		<stop  offset="1" style="stop-color:#FFFFFF;stop-opacity:0"/>
	</linearGradient>
	<path class="st4" d="M15.2350616,5.6317673c0,2.2785063-1.3728943,4.3325434-3.4782476,5.2037544
		s-4.5282011,0.3881598-6.13832-1.2241096C4.0083752,7.9992862,3.5283351,5.5758653,4.4022689,3.4716587
		S7.3321047-0.0028623,9.610467,0.0000045C12.7183275,0.0031578,15.2359228,2.5239058,15.2350616,5.6317673z"/>
	
		<linearGradient id="SVGID_6_" gradientUnits="userSpaceOnUse" x1="-433.5371399" y1="454.9631958" x2="-433.4909058" y2="454.9169617" gradientTransform="matrix(65.9400024 0 0 -65.9400024 28598.2402344 30004.4003906)">
		<stop  offset="0" style="stop-color:#FFFFFF"/>
		<stop  offset="1" style="stop-color:#FFFFFF;stop-opacity:0"/>
	</linearGradient>
	<circle class="st5" cx="14.8494825" cy="8.1745882" r="4.7258644"/>
	
		<linearGradient id="SVGID_7_" gradientUnits="userSpaceOnUse" x1="-382.4196167" y1="453.2719116" x2="-382.4196167" y2="453.43573" gradientTransform="matrix(6 0 0 -48 2308.5 21773.5292969)">
		<stop  offset="0" style="stop-color:#61ADFF;stop-opacity:0.6"/>
		<stop  offset="0" style="stop-color:#61ADFF;stop-opacity:0.6"/>
		<stop  offset="0.11" style="stop-color:#5DA9FF;stop-opacity:0.73"/>
		<stop  offset="0.23" style="stop-color:#5AA6FF;stop-opacity:0.83"/>
		<stop  offset="0.36" style="stop-color:#57A4FF;stop-opacity:0.9"/>
		<stop  offset="0.5" style="stop-color:#55A2FF;stop-opacity:0.96"/>
		<stop  offset="0.68" style="stop-color:#54A1FF;stop-opacity:0.99"/>
		<stop  offset="1" style="stop-color:#54A1FF"/>
	</linearGradient>
	<path class="st6" d="M13.9822855,9.106288c0.2290545,0,0.416254,0.1790295,0.4292984,0.4047871l0.0007162,0.0252275v6.0202093
		c0,0.2375116-0.1925039,0.4300156-0.4300146,0.4300156c-0.2290545,0-0.416255-0.1790285-0.4292984-0.404789l-0.0007172-0.0252266
		V9.5363026C13.5522699,9.2987919,13.7447739,9.106288,13.9822855,9.106288z"/>
	
		<linearGradient id="SVGID_8_" gradientUnits="userSpaceOnUse" x1="-378.421875" y1="455.6689148" x2="-378.421875" y2="455.8255005" gradientTransform="matrix(6 0 0 -71 2280.5 32371.5292969)">
		<stop  offset="0" style="stop-color:#61ADFF;stop-opacity:0.6"/>
		<stop  offset="0" style="stop-color:#61ADFF;stop-opacity:0.6"/>
		<stop  offset="0.11" style="stop-color:#5DA9FF;stop-opacity:0.73"/>
		<stop  offset="0.23" style="stop-color:#5AA6FF;stop-opacity:0.83"/>
		<stop  offset="0.36" style="stop-color:#57A4FF;stop-opacity:0.9"/>
		<stop  offset="0.5" style="stop-color:#55A2FF;stop-opacity:0.96"/>
		<stop  offset="0.68" style="stop-color:#54A1FF;stop-opacity:0.99"/>
		<stop  offset="1" style="stop-color:#54A1FF"/>
	</linearGradient>
	<path class="st7" d="M9.968812,8.389596c0.2290554,0,0.416255,0.1790295,0.4292994,0.4047871l0.0007162,0.0252285v9.3169909
		c0,0.2375107-0.1925039,0.4300137-0.4300156,0.4300137c-0.2290545,0-0.416254-0.1790276-0.4292984-0.4047871l-0.0007162-0.0252266
		V8.8196115C9.5387974,8.5820999,9.7313013,8.389596,9.968812,8.389596z"/>
	
		<linearGradient id="SVGID_9_" gradientUnits="userSpaceOnUse" x1="-374.4241028" y1="451.0164185" x2="-374.4241028" y2="451.1874695" gradientTransform="matrix(6 0 0 -37 2252.5 16702.5292969)">
		<stop  offset="0" style="stop-color:#61ADFF;stop-opacity:0.6"/>
		<stop  offset="0" style="stop-color:#61ADFF;stop-opacity:0.6"/>
		<stop  offset="0.11" style="stop-color:#5DA9FF;stop-opacity:0.73"/>
		<stop  offset="0.23" style="stop-color:#5AA6FF;stop-opacity:0.83"/>
		<stop  offset="0.36" style="stop-color:#57A4FF;stop-opacity:0.9"/>
		<stop  offset="0.5" style="stop-color:#55A2FF;stop-opacity:0.96"/>
		<stop  offset="0.68" style="stop-color:#54A1FF;stop-opacity:0.99"/>
		<stop  offset="1" style="stop-color:#54A1FF"/>
	</linearGradient>
	<path class="st8" d="M5.9553394,9.106288c0.2290545,0,0.4162545,0.1790295,0.4292979,0.4047871l0.0007172,0.0252275v4.4434881
		c0,0.2375116-0.1925035,0.4300146-0.4300151,0.4300146c-0.2290545,0-0.4162545-0.1790295-0.4292979-0.4047871l-0.0007172-0.0252275
		V9.5363026C5.5253243,9.2987919,5.7178278,9.106288,5.9553394,9.106288z"/>
	
		<linearGradient id="SVGID_10_" gradientUnits="userSpaceOnUse" x1="-374.4241028" y1="437.34198" x2="-374.4241028" y2="437.592804" gradientTransform="matrix(6 0 0 -14 2252.5 6140.5297852)">
		<stop  offset="0" style="stop-color:#61ADFF;stop-opacity:0.6"/>
		<stop  offset="0" style="stop-color:#61ADFF;stop-opacity:0.6"/>
		<stop  offset="0.11" style="stop-color:#5DA9FF;stop-opacity:0.73"/>
		<stop  offset="0.23" style="stop-color:#5AA6FF;stop-opacity:0.83"/>
		<stop  offset="0.36" style="stop-color:#57A4FF;stop-opacity:0.9"/>
		<stop  offset="0.5" style="stop-color:#55A2FF;stop-opacity:0.96"/>
		<stop  offset="0.68" style="stop-color:#54A1FF;stop-opacity:0.99"/>
		<stop  offset="1" style="stop-color:#54A1FF"/>
	</linearGradient>
	<path class="st9" d="M5.9553394,14.9831591c0.2290545,0,0.4162545,0.1790295,0.4292979,0.404788l0.0007172,0.0252266v1.1467075
		c0,0.2375107-0.1925035,0.4300137-0.4300151,0.4300137c-0.2290545,0-0.4162545-0.1790276-0.4292979-0.4047871l-0.0007172-0.0252266
		v-1.1467075C5.5253243,15.175663,5.7178278,14.9831591,5.9553394,14.9831591z"/>
</g>
</svg>
