<svg width="19" height="20" viewBox="0 0 19 20" fill="none" xmlns="http://www.w3.org/2000/svg">
<path d="M17.9286 11.4545L17.5526 11.2375C17.3354 11.112 17.1552 10.9317 17.0298 10.7145C16.9045 10.4973 16.8385 10.251 16.8385 10.0002C16.8385 9.74948 16.9045 9.50314 17.0298 9.28597C17.1552 9.0688 17.3354 8.88843 17.5526 8.76298L17.9286 8.54557C18.1724 8.40499 18.3861 8.21774 18.5574 7.9945C18.7288 7.77127 18.8545 7.51644 18.9273 7.24459C19.0001 6.97275 19.0187 6.68921 18.9818 6.4102C18.9449 6.1312 18.8535 5.86219 18.7126 5.61857L17.9986 4.38151C17.7139 3.88981 17.2458 3.53111 16.6969 3.38412C16.1481 3.23713 15.5634 3.31385 15.0711 3.59745L14.6956 3.81352C14.4784 3.93888 14.2321 4.00487 13.9813 4.00486C13.7305 4.00486 13.4842 3.93886 13.267 3.8135C13.0499 3.68814 12.8695 3.50782 12.7441 3.29068C12.6187 3.07354 12.5526 2.82722 12.5526 2.57646V2.14294C12.5519 1.57488 12.326 1.03027 11.9243 0.62855C11.5227 0.226829 10.9781 0.000788615 10.4101 0L8.98107 0C8.41297 0.000688257 7.86835 0.226695 7.46668 0.628437C7.06501 1.03018 6.83911 1.57484 6.83853 2.14294V2.577C6.83854 2.82779 6.77254 3.07416 6.64716 3.29135C6.52179 3.50855 6.34145 3.68891 6.12427 3.81432C5.90709 3.93973 5.66073 4.00577 5.40995 4.00579C5.15916 4.00581 4.91279 3.93982 4.69559 3.81445L4.32004 3.59745C3.82762 3.31388 3.24284 3.23717 2.69394 3.38415C2.14505 3.53113 1.67685 3.88981 1.39204 4.38151L0.677577 5.61853C0.536702 5.86218 0.445242 6.13121 0.408427 6.41024C0.371613 6.68927 0.390167 6.97281 0.463028 7.24466C0.535889 7.51651 0.661627 7.77133 0.833051 7.99455C1.00448 8.21776 1.21822 8.40499 1.46207 8.54553L1.83853 8.76294C2.05564 8.88839 2.23592 9.06876 2.36126 9.28593C2.4866 9.5031 2.55258 9.74944 2.55258 10.0002C2.55258 10.2509 2.4866 10.4973 2.36126 10.7144C2.23592 10.9316 2.05564 11.112 1.83853 11.2374L1.46253 11.4544C1.21872 11.595 1.00502 11.7823 0.833637 12.0055C0.662258 12.2287 0.536568 12.4836 0.463753 12.7554C0.390938 13.0273 0.372428 13.3108 0.40928 13.5898C0.446133 13.8688 0.537626 14.1378 0.678527 14.3814L1.39253 15.6185C1.67727 16.1101 2.14534 16.4688 2.69413 16.6158C3.24291 16.7629 3.82761 16.6863 4.32002 16.4029L4.69557 16.1865C4.91273 16.0611 5.15906 15.9951 5.4098 15.9951C5.66054 15.9951 5.90687 16.0611 6.12403 16.1865C6.34119 16.3118 6.52154 16.4921 6.64695 16.7092C6.77237 16.9264 6.83843 17.1727 6.83851 17.4234V17.8574C6.83919 18.4255 7.06514 18.97 7.46679 19.3717C7.86845 19.7733 8.41302 19.9993 8.98105 20H10.41C10.978 19.9992 11.5226 19.7732 11.9242 19.3716C12.3258 18.9699 12.5518 18.4254 12.5526 17.8574V17.423C12.5526 17.1722 12.6187 16.9259 12.7441 16.7088C12.8695 16.4916 13.0498 16.3113 13.267 16.186C13.4842 16.0606 13.7305 15.9946 13.9813 15.9946C14.232 15.9946 14.4784 16.0606 14.6956 16.1859L15.071 16.4029C15.5635 16.6861 16.1481 16.7626 16.6969 16.6156C17.2456 16.4685 17.7137 16.11 17.9985 15.6185L18.7125 14.3815C18.8534 14.1378 18.9449 13.8688 18.9818 13.5898C19.0186 13.3108 19.0001 13.0273 18.9273 12.7554C18.8545 12.4836 18.7288 12.2288 18.5574 12.0055C18.386 11.7823 18.1723 11.595 17.9285 11.4545M9.69554 13.5714C8.98917 13.5714 8.29866 13.3619 7.71134 12.9695C7.12402 12.577 6.66626 12.0192 6.39596 11.3666C6.12565 10.714 6.05494 9.99591 6.19275 9.30311C6.33057 8.61032 6.67073 7.97395 7.17022 7.47448C7.66971 6.97501 8.30609 6.63487 8.99889 6.49707C9.69169 6.35928 10.4098 6.43002 11.0624 6.70035C11.715 6.97068 12.2728 7.42845 12.6652 8.01578C13.0576 8.60312 13.2671 9.29363 13.2671 10C13.266 10.9469 12.8894 11.8547 12.2199 12.5243C11.5503 13.1938 10.6425 13.5704 9.69559 13.5714" fill="#677180"/>
</svg>
