<svg id="레이어_1" data-name="레이어 1" xmlns="http://www.w3.org/2000/svg" viewBox="0 0 20 20"><defs><style>.cls-1{fill:#434751;}</style></defs><path class="cls-1" d="M3.78657,12.0872H16.21343a5.79985,5.79985,0,0,0-1.84435-4.51406L10,3.01041,5.63092,7.52447A5.90985,5.90985,0,0,0,3.78657,12.0872ZM15.87376,5.87376a8.27928,8.27928,0,0,1,2.42738,5.8251,8.39112,8.39112,0,0,1-2.42738,5.87376,8.32034,8.32034,0,0,1-11.74752,0,8.39112,8.39112,0,0,1-2.42738-5.87376,8.27928,8.27928,0,0,1,2.42738-5.8251L10,0Z"/></svg>