<svg id="레이어_1" data-name="레이어 1" xmlns="http://www.w3.org/2000/svg" viewBox="0 0 20 20"><defs><style>.cls-1{fill:#434751;}</style></defs><path class="cls-1" d="M16.42857,12.5H7.85714a.71429.71429,0,0,0,0,1.42857h8.57143A2.14286,2.14286,0,1,1,14.45243,16.891a.71429.71429,0,0,0-1.31976.54688A3.56992,3.56992,0,1,0,16.42857,12.5Z"/><path class="cls-1" d="M20,5.71429a5.35452,5.35452,0,0,0-9.93229-2.7802,2.83862,2.83862,0,0,0-4.13579,1.3293.71467.71467,0,1,0,1.32115.54548A1.42825,1.42825,0,1,1,8.57143,6.78571h-5a.71429.71429,0,1,0,0,1.42858h5a2.86,2.86,0,0,0,2.85714-2.85715,2.8211,2.8211,0,0,0-.33116-1.30689,3.92341,3.92341,0,1,1,3.54545,5.59261H.71429a.71429.71429,0,1,0,0,1.42857H14.64286A5.363,5.363,0,0,0,20,5.71429Z"/><path class="cls-1" d="M5,12.5H2.85714a.71429.71429,0,0,0,0,1.42857H5A.71429.71429,0,1,0,5,12.5Z"/></svg>