<svg id="레이어_1" data-name="레이어 1" xmlns="http://www.w3.org/2000/svg" viewBox="0 0 20 20"><defs><style>.cls-1{fill:#677180;}</style></defs><rect class="cls-1" x="5.70833" y="5" width="8.58333" height="1.25"/><rect class="cls-1" x="5.70833" y="8" width="8.58333" height="1.25"/><path class="cls-1" d="M17.91667,0H2.08333a.39365.39365,0,0,0-.41666.41667v14a4.046,4.046,0,0,0,3.5,4h0L17.5,20a.83578.83578,0,0,0,.83333-.83333V.41667A.39365.39365,0,0,0,17.91667,0ZM16.25,17.58333,8,12.75c-.20833-.125-.33333-.04167-.33333.20833V14.375h0v.08333a1.95607,1.95607,0,0,1-1.95834,1.95834A1.921,1.921,0,0,1,3.75,14.5V2.08333h12.5Z"/></svg>