<?xml version="1.0" encoding="UTF-8"?><svg xmlns="http://www.w3.org/2000/svg" xmlns:xlink="http://www.w3.org/1999/xlink" viewBox="0 0 100 44.83459"><defs><style>.g{fill:#4d4d4d;}.h{fill:url(#f);}.i{fill:url(#d);}.j{fill:url(#e);}.k{fill:#ef8200;}</style><linearGradient id="d" x1="6.44153" y1="5.09107" x2="25.84838" y2="5.09107" gradientTransform="matrix(1, 0, 0, 1, 0, 0)" gradientUnits="userSpaceOnUse"><stop offset="0" stop-color="#aacc03"/><stop offset="1" stop-color="#009233"/></linearGradient><linearGradient id="e" x1="13.46319" y1="48.89127" x2="19.96692" y2="11.24455" gradientTransform="matrix(1, 0, 0, 1, 0, 0)" gradientUnits="userSpaceOnUse"><stop offset="0" stop-color="#fff000"/><stop offset=".40448" stop-color="#f9ca17"/><stop offset="1" stop-color="#f29739"/></linearGradient><linearGradient id="f" x1="7.92074" y1="37.00395" x2="12.54863" y2="10.98764" gradientTransform="matrix(1, 0, 0, 1, 0, 0)" gradientUnits="userSpaceOnUse"><stop offset="0" stop-color="#0096df"/><stop offset="1" stop-color="#004898"/></linearGradient></defs><g id="a"/><g id="b"><g id="c"><g><g><g><path class="k" d="M23.0764,10.54826c.71194,.52,1.60178,.83523,2.58261,.83523,.20497,0,.40518-.01653,.59973-.04387,1.05705-.1169,1.96791-.64705,2.55398-1.41237,.12302-.15634,.22755-.32864,.32036-.50659,.35083-.69222,.32636-1.32529,.2873-1.612-.18687-1.10665-1.14225-1.95073-2.30194-1.95073-.16247,0-.31595,.02096-.46787,.05526-.23517,.05344-.3947,.12966-.42523,.14307-.27175,.1525-.61021,.45634-.72718,1.06467-.01113,.05148-.02128,.10805-.0289,.16591-.00319,.0235-.00762,.06672-.00892,.12458,0,.04068,0,.09217,.0041,.14554l.00163-.00124c.00189,.01842,.00319,.03365,.00319,.04953,.06672,.70304,.58001,1.27705,1.25857,1.41687-.88645-.15257-1.55954-.90708-1.58623-1.8268,0-.2657,.07563-.96554,.74209-1.65522,.38298-.37186,.93884-.67569,1.75083-.71318h0c.10779-.00319,.38839-.01146,.6865,.04511,.03021,.00827,.06073,.01399,.09405,.01972-1.87099-.77228-2.88482,.42399-3.15559,.80789,.59719-.96743,1.37422-1.26619,2.01939-1.30686,0,0,1.44576-.18752,3.2408,1.05959-.65597-1.77466-2.2625-2.74534-4.09698-2.74534-2.46597,0-4.46409,2.03723-4.46409,4.55502,0,.18876,.01334,.37504,.03658,.55742-.08045-.23387-.14593-.49071-.17769-.76213-.04133-.24786-.06099-.49644-.06099-.75699,0-2.18088,2.28828-4.38591,4.83334-4.40883l-.03046-.00189c-2.79682,0-5.29612,1.6342-5.29612,4.83783,0,.28222,.02128,.55938,.06353,.82826,.12809,1.03987,.64516,1.84522,1.06154,2.34673,.15791,.18948,.39346,.42399,.68807,.64263v.00319Z"/><path class="k" d="M26.74177,5.57694c.67699-.33749,2.0757-.72015,3.47857,.84284,0,0,1.18612,1.35392,.6725,3.52276,0,0-.28223,1.73209-2.14691,2.62961-.16969,.07752-.33684,.14554-.50119,.2034l-.04667,.01842c-.06105,.02096-.11696,.03372-.18088,.05083-.30383,.09158-.64074,.16272-1.01129,.20087-2.25938,.20471-3.89612-1.1886-3.89612-1.1886-.17607-.1596-.26159-.27019-.26159-.27019,1.95301,1.30179,3.70833,.96235,4.64843,.60071,1.53031-.62037,2.59914-2.00801,2.59914-3.62443,0-.57526-.13792-1.11745-.3811-1.61194-1.29385-2.09321-3.3342-1.14102-3.38478-1.11622l-.01015,.00319s.26856-.18876,.42204-.26127Z"/></g><path class="i" d="M16.98573,5.28072c-.08201-.16715-.30638-.32799-.38709-.3826h0c-.00638,0-.01054-.0045-.01562-.0108-.00573-.0013-.01172-.00573-.01777-.0108-.89595-.53712-1.98321-1.0838-3.1086-1.59996C10.08144,1.62582,7.68251,.78871,6.02729,.37617c-.67439-.17607-1.25154-.2765-1.74954-.32675-1.05204-.11951-1.4636,.0153-1.4636,.0153-.54057,.08514-.8899,.25235-1.10248,.40999-.01211,.00951-.02578,.01778-.03944,.02604-.00319,.00573-.00761,.00697-.01204,.01211-.17926,.14235-.2489,.28854-.2765,.36866-.00605,.02097-.00924,.04635-.01653,.06861-.00482,.05279-.01048,.11697-.00795,.18563,.00312,.05083,.01237,.1087,.0276,.17099,.01054,.04576,.02135,.08767,.03625,.13727v-.01269c.0289,.10043,.06229,.20021,.09724,.30065,.95981,2.58327,4.87408,5.30061,6.41104,6.29407,.38715,.24858,.62707,.39028,.62707,.39028,.66645,.45706,1.37397,.89693,2.10304,1.32151l.78342,.44429c.04133-.05213,.08357-.10297,.12458-.1551,1.66407-2.10141,3.53956-3.22967,4.77997-3.80493h0c.69697-.28222,.68649-.65596,.68649-.65596,.0153-.10805-.00918-.2021-.05018-.28542Z"/><path class="j" d="M29.45944,17.35784c-.11788-.42335-1.13554-.6865-1.13554-.6865-.06353-.01588-.18213-.05083-.24917-.07049h-.00286c-3.9025-1.07996-10.60214-3.18079-16.2215-6.20516l-.40551-.21356c-.01842,.02734-.15797,.22886-.2187,.31465-.08481,.11508-.16839,.23647-.25515,.35916-1.9905,2.91119-3.52875,7.38927-3.05646,14.20711v.00508l.00156,.00703v.01334l.00156,.01399v.0095l.0013,.00957v.01139c0,.00892,.00156,.02167,.00319,.03183v.00573c.00286,.03241,.00605,.0731,.01172,.12009v.00384c.14938,1.56175,1.32118,10.67868,8.66476,17.0027h0c.06828,.0591,.1363,.11755,.20464,.17795h0c.03528,.02734,.07023,.05591,.10362,.08325h.00124c.03372,.03053,.06834,.05917,.1033,.08839h0c.03495,.02734,.06997,.05402,.1033,.08325l.00163,.0013c.03463,.02923,.06991,.05715,.10453,.0839l.00319,.00312c.03339,.02545,.06834,.05279,.10298,.08201l.00351,.00254c.033,.0261,.06802,.05279,.10297,.07947l.00312,.00254c.03307,.02734,.06997,.05468,.10304,.08071l.00631,.00638c.03495,.02545,.06834,.05149,.1033,.07882l.00605,.00254c.03463,.02923,.06958,.05533,.1033,.08071l.00605,.00254c.03652,.02864,.06958,.05533,.10642,.07947l.00286,.00384c.03658,.02857,.07153,.05272,.10649,.07817l.00729,.00573c.03528,.02604,.07154,.05083,.10492,.07752l.00599,.00637c.03658,.02162,.06965,.047,.10649,.07434l.00859,.00449c.03398,.02604,.06991,.05018,.10518,.07752l.00794,.00442c.03463,.0248,.07121,.05025,.10616,.0744l.00892,.00573c.03495,.02669,.06991,.0496,.10617,.0731l.00917,.00762c.00286,.00508,.00605,.00508,.00924,.00703v.00059h0c.18974,.12588,.88958,.56953,1.09903,.32675h.00156c.00762-.00827,.01211-.01842,.01972-.02734l.00319-.00638c.05149-.08578,.05747-.19891,.04257-.30956-.03053-.17158-.1624-.42074-.2584-.59173-.05305-.0852-.1074-.17353-.15765-.26062-.5638-.94646-1.08087-2.01751-1.13744-2.14085-1.63836-3.65171-2.71449-9.35021,1.69297-15.52101,0,0,3.1239-4.15075,8.46988-6.69008,.15192-.0744,.28574-.1456,.40115-.21421h-.00163c.91282-.53458,.71794-1.02405,.71794-1.02405Z"/><path class="h" d="M19.66715,44.14366h-.00156c-.20945,.24278-.9093-.20087-1.09903-.32675h.00124l-.00124-.00059h0c-.00319-.00195-.00638-.00195-.00924-.00703h0l-.00917-.00762c-.03626-.0235-.07121-.04641-.10617-.0731l-.00892-.00573c-.03495-.02415-.07153-.0496-.10616-.0744l-.00794-.00442c-.03528-.02734-.07121-.05149-.10518-.07752l-.00859-.00449c-.03684-.02734-.06991-.05272-.10649-.07434l-.00599-.00637c-.03338-.02669-.06965-.05149-.10492-.07752l-.00729-.00573c-.03495-.02545-.06991-.0496-.10649-.07817l-.00286-.00384c-.03684-.02415-.06991-.05083-.10642-.07947l-.00605-.00254c-.03372-.02538-.06867-.05149-.1033-.08071l-.00605-.00254c-.03495-.02734-.06834-.05337-.1033-.07882l-.00631-.00638c-.03307-.02604-.06997-.05337-.10304-.08071l-.00312-.00254c-.03495-.02669-.06997-.05337-.10297-.07947l-.00351-.00254c-.03463-.02923-.06959-.05656-.10298-.08201l-.00163-.00312c-.03619-.02675-.07147-.05468-.1061-.0839l-.00163-.0013c-.03333-.02923-.06834-.05592-.1033-.08325h0c-.03495-.02922-.06958-.05786-.1033-.08839h-.00124c-.03339-.02734-.06834-.05591-.10362-.08325h0c-.06834-.0604-.13636-.11885-.20464-.17795h0c-7.34357-6.32402-8.51538-15.44095-8.66476-17.0027v-.00384c-.00566-.04699-.00885-.08768-.01172-.12009v-.00573c-.00163-.01016-.00319-.02291-.00319-.03183v-.01139l-.0013-.00957v-.0095l-.00156-.01399v-.01334l-.00156-.0045v-.00761c-.47229-6.81785,1.06597-11.29593,3.05646-14.20711,.08676-.12269,.17034-.24408,.25515-.35916,.06073-.08579,.20028-.28731,.2187-.31465h0l-.78342-.44429c-.72907-.42458-1.43659-.86445-2.10304-1.32151,0,0-.23992-.1417-.62707-.39028-1.53695-.99346-5.45123-3.71081-6.41104-6.29407-.03495-.10043-.06834-.20022-.09724-.30065v.01269c-.0149-.0496-.02571-.09152-.03625-.13727-.01523-.06229-.02447-.12015-.0276-.17099-.00254-.06867,.00312-.13285,.00795-.18563C1.36716,.95013,.00652,6.21702,.00939,13.32537l.00195-.00631c-.00195,.17034-.00195,.3451,0,.51805-.01562,.40232-.10363,3.23598,.63436,7.66642,.06991,.44749,.16682,.99156,.30065,1.61447,.04862,.20471,.07882,.31087,.07882,.31087,.49513,2.16689,1.16035,4.11957,1.94253,5.88726,.05304,.12842,.11501,.25807,.1773,.38585,.0153,.04133,.03339,.08136,.04862,.12139,.62896,1.33609,1.39395,2.7288,2.33248,4.10688,.0153,.02096,.03053,.04953,.04862,.07433,.08807,.12015,.17008,.24285,.25938,.36489,.05018,.0731,.09881,.14554,.15029,.2174,.05468,.06802,.10968,.14554,.16435,.21798,.08449,.11697,.17158,.23582,.25801,.34901,.01654,.01842,.03021,.04192,.04992,.06098,1.00973,1.32086,2.08488,2.47073,3.16041,3.46868,2.355,2.16819,5.32789,4.09985,9.03746,5.53832,.52664,.19195,.79995,.10297,.92935,.00696l.00286-.00189,.01204-.00762,.00195-.00318,.01048-.00762h0l.00918-.00703v-.00189l.00892-.00762v-.0013l.00443-.00253c.04101-.04446,.05819-.07941,.05819-.07941l-.00189,.00123-.00319,.00638c-.00762,.00892-.01211,.01907-.01972,.02734Z"/></g><g><g><path class="g" d="M45.94664,18.70669h-4.31724v.60448h1.65047c-.0703,.12777-.16624,.2422-.28991,.3369-.11598,.09914-.25007,.18623-.40707,.26381-.17418,.08071-.36613,.15888-.57689,.21545-.21511,.06105-.4376,.10805-.67882,.14938,.06418,.07186,.15094,.1678,.25489,.28353,.10199,.11631,.17828,.21226,.2409,.29616,.16936-.02473,.35246-.06737,.53868-.12966,.19071-.0578,.37824-.13408,.55209-.22117,.17698-.08071,.33879-.17861,.49292-.28672,.15381-.11436,.27741-.23198,.38266-.35845,.09789,.12647,.2228,.24408,.37244,.35845,.157,.10811,.31718,.20601,.49103,.28672,.1831,.08709,.36932,.16337,.5584,.22117,.18915,.06229,.36613,.10492,.5308,.12966,.05656-.06737,.1236-.157,.2228-.27142,.10069-.11182,.18778-.21675,.25769-.30826-.21356-.03814-.42393-.08579-.62987-.14047-.20438-.05786-.39984-.12965-.57975-.21805-.15856-.07309-.30188-.1633-.42555-.2612-.12966-.10362-.23354-.21805-.31269-.34582h1.67201v-.60448Z"/><rect class="g" x="42.66678" y="17.7062" width="2.12647" height=".59179"/><rect class="g" x="45.18385" y="14.30743" width=".74755" height="3.65938"/><path class="g" d="M43.99077,14.48545h-.73824v.75386h-1.49217v-.75386h-.73831v2.7993h2.96872v-2.7993Zm-.73824,2.13441h-1.49217v-.72457h1.49217v.72457Z"/></g><g><rect class="g" x="47.28149" y="16.90846" width="5.79542" height=".63567"/><path class="g" d="M48.4943,16.21566c.40551,.19826,.96554,.29869,1.67807,.29869,.71383,0,1.2751-.10043,1.67651-.29557,.40264-.20021,.60416-.47483,.60416-.82377,0-.32226-.20152-.59368-.60416-.80405-.40141-.21362-.96267-.32356-1.67651-.32356-.71253,0-1.27256,.10994-1.67807,.32356-.39665,.21037-.59817,.48179-.59817,.80405,0,.34133,.20152,.61912,.59817,.82065Zm.63306-1.22042c.26062-.10557,.60865-.15706,1.04501-.15706,.43161,0,.77931,.05149,1.04026,.15706,.26407,.10043,.39659,.23959,.39659,.42588,0,.16142-.12966,.29108-.38422,.38897-.26413,.08963-.61177,.14176-1.05262,.14176-.44241,0-.79643-.05214-1.05419-.14938-.25775-.09659-.38741-.23074-.38741-.39984,0-.17223,.12966-.30696,.39659-.40739Z"/><polygon class="g" points="52.48479 20.18838 48.86042 20.18838 48.86042 19.67984 52.34752 19.67984 52.34752 18.00685 48.0045 18.00685 48.0045 18.62722 51.49478 18.62722 51.49478 19.10334 48.0045 19.10334 48.0045 20.79664 52.48479 20.79664 52.48479 20.18838"/></g><g><path class="g" d="M59.72474,18.06022h2.52345v-.68963h-5.79256v.68963h2.4911v.62551h-1.75884v2.10779h4.33124v-2.10779h-1.79438v-.62551Zm1.04371,1.28721v.78881h-2.83874v-.78881h2.83874Z"/><path class="g" d="M61.72956,16.18637h-.85879l.01211-1.05067h.72014v-.66678h-4.51745v.66678h.71702l.01269,1.05067h-.83776v.66365h4.75203v-.66365Zm-1.59423,0h-1.57002l-.01777-1.05067h1.59671l-.00892,1.05067Z"/></g><g><rect class="g" x="63.12221" y="17.64515" width="5.80278" height=".67569"/><path class="g" d="M64.33945,16.658c.40238,.27019,.95792,.40746,1.66857,.40746,.72021,0,1.2846-.13727,1.68444-.40746,.39789-.27455,.6026-.60383,.6026-.99027,0-.39034-.20471-.72145-.6026-.99606-.39984-.27585-.96423-.41319-1.68444-.41319-.71065,0-1.26619,.14176-1.66857,.42269-.41,.28223-.61145,.61275-.61145,.98656,0,.39086,.20145,.72204,.61145,.99027Zm.62102-1.54522c.27142-.14684,.61913-.21675,1.04755-.21675,.43798,0,.78881,.06991,1.06212,.21675,.26511,.14619,.40239,.33117,.40239,.55495,0,.20906-.13728,.38644-.41,.53393-.27331,.13916-.62225,.21356-1.05451,.21356-.43161,0-.78245-.0744-1.04755-.21356-.27012-.14749-.40427-.3261-.40427-.54922,0-.21356,.13415-.39346,.40427-.53966Z"/><polygon class="g" points="63.85128 18.86244 63.85128 20.78583 68.38214 20.78583 68.38214 20.0968 64.62167 20.0968 64.62167 18.86244 63.85128 18.86244"/></g><rect class="g" x="72.72165" y="17.96233" width="27.00953" height=".19071"/></g><g><g><path class="g" d="M89.4319,31.02283c.60006-1.30751,.90832-3.94799,.90832-5.22114v-.24408h-3.78455l.02415,.12458c.08201,.45641,.11501,.92869,.11501,1.40795,0,1.51092-.43473,4.43356-1.30491,6.05695-.86575,1.62157-2.06906,3.04983-3.54945,4.24864l-.12263,.09659,1.40346,.87533,.05844-.04198c2.27246-1.59547,4.0878-3.51763,5.41693-5.70866,1.38126,1.75754,2.70843,3.55258,3.94604,5.3381l.06737,.08898,2.69574-1.93745-.09978-.09021c-1.60308-1.47089-3.54815-3.1528-5.77414-4.99359Z"/><path class="g" d="M96.79643,24.2825l.04192,.14111c.17229,.49513,.26192,1.12507,.26192,1.87451v18.01204h2.74338l.01211-.09152c.09405-.58795,.14423-1.32274,.14423-2.1853V24.2825h-3.20357Z"/></g><g><path class="g" d="M56.70707,24.2825h-3.15377l.04263,.13669c.17158,.57331,.25613,1.20578,.25613,1.87893v6.63032c-1.11901,.24343-2.35851,.37693-3.69974,.37693h-3.84047v-3.96511h-3.06538l.04257,.14111c.10746,.36613,.16435,.82631,.16435,1.37234v2.45165h-3.59104v1.61519h10.00332c1.46516,0,2.80157-.18882,3.9864-.54604v1.82557h2.67413l.0153-.09028c.10994-.68395,.16559-.97445,.16559-1.72512v-3.43815h2.74911v-1.62151h-2.74911v-5.04254Z"/><path class="g" d="M48.30996,32.11867h2.34042l.02923-.06548c.55742-1.3342,.87181-3.66635,.88704-6.57252v-.10805h-10.53953v1.61962h7.54502c-.00605,2.31946-.08741,4.13734-.23738,5.00185l-.0248,.12458Z"/><path class="g" d="M54.86179,37.8464c-1.20897-.77547-2.6684-1.16958-4.32616-1.16958-1.64917,0-3.09174,.39412-4.31152,1.16958-1.21854,.78563-1.8421,1.76705-1.8421,2.922,0,1.15625,.6175,2.13389,1.83604,2.91314,1.19693,.76532,2.64679,1.15306,4.31758,1.15306,1.66127,0,3.12005-.38774,4.32616-1.15306,1.22485-.77925,1.84528-1.76008,1.84528-2.91314,0-1.15494-.62043-2.13637-1.84528-2.922Zm-1.96602,4.69099c-.64231,.48434-1.43464,.72783-2.36014,.72783-.90768,0-1.69845-.2435-2.34042-.72783-.64549-.48432-.95825-1.06023-.95825-1.76899,0-.66743,.32232-1.2503,.95825-1.73144,.64198-.49325,1.43275-.73675,2.34042-.73675,.90708,0,1.70253,.24604,2.35056,.73675,.64237,.48114,.96586,1.06402,.96586,1.73144,0,.70876-.31432,1.28909-.95629,1.76899Z"/></g><g><path class="g" d="M76.11977,24.2825l.04895,.14111c.17476,.49709,.25613,1.12956,.25613,1.87451v.91216h-3.63901v-1.82556h-10.25918l.03176,.13343c.15446,.59882,.23009,1.21854,.23009,1.84021v6.4568c0,.32226,.18368,.49832,.51173,.49832h9.4856v-1.8656h3.63901v3.00915h2.74345l.01204-.09093c.0992-.58665,.14749-1.3189,.14749-2.17893v-8.90468h-3.20806Zm-6.21531,8.41077h-4.21043v-5.69342h4.21043v5.69342Zm6.52039-1.86812h-3.63901v-1.99401h3.63901v1.99401Z"/><path class="g" d="M77.45013,36.95207c-1.23696-.88163-2.72939-1.33426-4.43864-1.33426-1.71751,0-3.21001,.45263-4.44443,1.34566-1.24073,.89947-1.87698,2.00735-1.87698,3.30087,0,1.28656,.63625,2.38813,1.87698,3.26338,1.23442,.86894,2.72692,1.30686,4.44443,1.30686,1.73021,0,3.22583-.43792,4.4482-1.31005,1.24139-.87402,1.86813-1.97364,1.86813-3.26019,0-1.3081-.63312-2.42367-1.8777-3.31227Zm-2.03782,5.42702c-.67315,.58802-1.48357,.88613-2.40082,.88613-.92166,0-1.7302-.29811-2.4059-.88613-.6725-.58222-1.00687-1.29287-1.00687-2.11475,0-.83523,.32799-1.53376,1.00687-2.13317,.67569-.59244,1.48423-.89055,2.4059-.89055,.91725,0,1.72767,.29811,2.40082,.89055,.68455,.59941,1.01253,1.29795,1.01253,2.13317,0,.82318-.34068,1.53253-1.01253,2.11475Z"/></g></g></g></g></g></svg>