<svg width="39" height="21" viewBox="0 0 39 21" fill="none" xmlns="http://www.w3.org/2000/svg">
<path d="M0 20.9148C0.0131175 20.9115 0.0357456 20.9148 0.0367296 20.9115C0.214484 20.0699 0.729705 19.9532 1.43285 19.9854C8.16285 20.2582 -0.812682 20.0027 5.79633 20.0027H6.14986C6.15839 20.047 6.16494 20.0614 6.16101 20.0729C5.93974 20.6735 5.53755 20.9738 4.95444 20.9738C3.30317 20.982 1.65356 20.9869 0 20.9961V20.9148H0Z" fill="#C8242B"/>
<path d="M23.9435 16.4302C24.0931 16.1784 24.2285 15.9573 24.402 15.6684C23.7766 15.6684 23.2076 15.715 22.6501 15.6628C20.3216 15.4418 19.1711 13.7545 19.1987 11.4207C19.2144 10.1531 19.7627 9.03875 20.4288 8.01749C22.3378 5.08685 24.7359 2.79344 27.7918 1.42356C29.7727 0.533819 31.8283 -0.0555268 33.9882 0.00414992C35.2135 0.0343409 36.4 0.281612 37.4193 1.10936C38.5304 2.01059 38.7764 3.22404 38.3697 4.75858C37.965 6.28388 37.2252 7.64919 36.4227 8.95479C34.9098 11.4105 33.333 13.8204 31.7732 16.2433C31.7024 16.3555 31.5463 16.4683 31.4275 16.4683C28.9665 16.4827 26.5029 16.4768 24.0446 16.4768C24.0229 16.4768 24.0022 16.4588 23.9435 16.4302ZM27.3261 11.6873C27.6324 11.7752 27.8351 11.7503 28.0535 11.4581C28.5644 10.7792 29.1364 10.1473 29.6802 9.49363C30.1557 8.91543 30.6188 8.3287 30.8293 7.56097C31.0271 6.83487 30.8064 6.3862 30.1429 6.22061C29.9314 6.16714 29.6992 6.1619 29.4847 6.19992C28.3313 6.40588 27.3566 7.04214 26.4393 7.79937C25.9749 8.18309 25.6804 8.6911 25.5269 9.29717C25.2655 10.3355 25.54 10.7284 26.5095 10.7399C26.8728 10.7425 27.2365 10.7399 27.613 10.7399C27.5075 11.0904 27.4205 11.3827 27.3261 11.6873Z" fill="#C8242B"/>
<path d="M12.7969 9.60019H11.1532C11.3346 9.24929 11.4798 8.94036 11.6559 8.65111C11.7022 8.57568 11.8399 8.52974 11.937 8.52974C14.0254 8.52222 16.1165 8.5245 18.2049 8.52222C18.5457 8.52222 18.6936 8.70521 18.6654 9.0489C18.6503 9.27323 18.5991 9.50707 18.5126 9.70843C17.589 11.8552 16.6586 13.9981 15.7161 16.1358C15.6623 16.2623 15.4937 16.4027 15.3763 16.4027C13.5492 16.4165 11.7225 16.4125 9.84169 16.4125C10.8269 14.147 11.7967 11.912 12.7969 9.60019Z" fill="#C8242B"/>
<path d="M1.98808 16.4126C2.9831 14.1221 3.95253 11.8907 4.94299 9.60614H3.29958C3.49077 9.23522 3.64361 8.91548 3.82233 8.61374C3.8581 8.55077 3.99092 8.52454 4.08045 8.52454C6.16988 8.52226 8.25863 8.52226 10.3471 8.52454C10.8269 8.52454 10.9938 8.98829 10.7337 9.59174C10.4363 10.2791 10.126 10.9573 9.82792 11.6451C9.19922 13.0904 8.56591 14.5314 7.95363 15.9856C7.82309 16.2906 7.6847 16.4303 7.3528 16.4241C5.69794 16.4027 4.0424 16.4126 2.38983 16.4126H1.98808Z" fill="#C8242B"/>
<path d="M29.5615 20.0027C29.5588 20.0729 29.5601 20.0864 29.5562 20.0975C29.2906 20.7816 28.8668 21.02 28.1526 20.9987C21.4009 20.7993 28.1998 20.9738 21.3681 20.9738H20.9516C21.1192 20.655 21.2504 20.3812 21.4061 20.1283C21.4471 20.0588 21.5639 20.0047 21.6459 20.0047C24.2794 19.9995 26.9148 20.0027 29.5615 20.0027Z" fill="#C8242B"/>
<path d="M21.9194 19.3876C22.0824 19.1109 22.2126 18.8485 22.3821 18.6156C22.4507 18.5264 22.6051 18.4585 22.7203 18.4585C25.2527 18.4517 27.7852 18.4517 30.3905 18.4517C30.1865 18.7842 30.0154 19.0833 29.8205 19.368C29.7818 19.4237 29.6657 19.4385 29.5851 19.4385C22.6593 19.4434 28.9488 19.4411 22.025 19.4385C22.003 19.4385 21.983 19.4198 21.9194 19.3876Z" fill="#C8242B"/>
<path d="M31.1537 17.0206C30.9625 17.3381 30.828 17.5821 30.6713 17.8064C30.6116 17.8857 30.4948 17.9648 30.4033 17.9648C27.9282 17.9743 25.4567 17.97 22.9269 17.97C23.0784 17.6696 23.1984 17.4033 23.3427 17.1557C23.3837 17.0829 23.4995 17.0242 23.5828 17.0242C30.4902 17.0062 24.2105 17.0206 31.1537 17.0206Z" fill="#C8242B"/>
<path d="M7.90118 20.9116C8.03299 20.6131 8.16551 20.3134 8.30323 20.0028H14.0458C13.9192 20.2999 13.8175 20.5777 13.69 20.8332C13.6536 20.9034 13.5407 20.968 13.4587 20.968C6.74939 20.987 14.6951 20.9775 7.99101 20.968C7.97133 20.968 7.95232 20.9454 7.90118 20.9116Z" fill="#C8242B"/>
<path d="M8.60332 19.4482C8.61676 19.378 8.622 19.3544 8.62858 19.3291C8.80371 18.5922 9.22807 18.4138 9.91087 18.442C16.6753 18.7257 8.11204 18.4613 14.7692 18.4613C14.6374 18.7673 14.5397 19.0408 14.4042 19.298C14.3636 19.3734 14.2334 19.4413 14.1442 19.4413C12.3043 19.4521 10.4658 19.4482 8.60332 19.4482Z" fill="#C8242B"/>
<path d="M7.51057 16.8939C7.52468 16.9431 7.53515 16.9572 7.53123 16.968C7.32615 17.5763 6.93107 17.8804 6.34598 17.8804H1.40104C1.53091 17.5715 1.63815 17.3006 1.76441 17.0408C1.79655 16.9733 1.88838 16.9011 1.95201 16.8978C8.6489 16.8726 0.804154 16.8939 7.51057 16.8939Z" fill="#C8242B"/>
<path d="M0.774307 19.4128C0.775946 19.3879 0.772994 19.3594 0.778572 19.34C0.954355 18.6415 1.33085 18.4027 2.01956 18.4421C3.50618 18.5149 4.99874 18.4614 6.48898 18.4614H6.90712C6.77494 18.7819 6.67788 19.0554 6.54996 19.3151C6.51453 19.3853 6.39189 19.4437 6.31253 19.4437C-0.397812 19.4555 7.51057 19.4555 0.798903 19.4387C0.791035 19.4387 0.783163 19.424 0.774307 19.4128Z" fill="#C8242B"/>
<path d="M9.28414 17.8805C9.28021 17.8159 9.27595 17.8018 9.27924 17.792C9.52827 17.1934 9.95056 16.894 10.5461 16.894H15.416C15.2848 17.221 15.1798 17.5188 15.0424 17.7992C15.0113 17.8579 14.8673 17.8766 14.7768 17.8766C8.07103 17.89 15.9863 17.8805 9.28414 17.8805Z" fill="#C8242B"/>
</svg>
