<svg xmlns="http://www.w3.org/2000/svg" viewBox="0 0 40 33.7926"><defs><style>.cls-1{fill:#009844;}.cls-2{fill:#e50012;}.cls-3{fill:#fff;}</style></defs><g id="레이어_2" data-name="레이어 2"><g id="레이어_1-2" data-name="레이어 1"><path class="cls-1" d="M26.69388,29.62963a3.42315,3.42315,0,1,0-3.42344-3.42318A3.42327,3.42327,0,0,0,26.69388,29.62963Z"/><path class="cls-2" d="M32.763,24.21741a3.25216,3.25216,0,1,0-3.25207-3.25229A3.2522,3.2522,0,0,0,32.763,24.21741Z"/><path class="cls-1" d="M29.4556,17.43974A15.07785,15.07785,0,0,1,40,17.17218C38.41782,7.655,31.04548,0,20.00014,0,8.95458,0,1.45263,9.79294,0,17.17218c9.72855-3.17255,18.832,3.79294,18.832,11.93058V33.7926h2.40942V29.10276a11.93181,11.93181,0,0,1,1.152-5.11949,10.54137,10.54137,0,0,1,2.50772-3.54079,13.69026,13.69026,0,0,1,2.99032-2.25367C27.69565,18.22462,28.62938,17.89587,29.4556,17.43974Z"/><path class="cls-3" d="M21.59077,24.11255A3.35428,3.35428,0,1,0,18.23623,20.758,3.35436,3.35436,0,0,0,21.59077,24.11255Z"/><path class="cls-3" d="M27.24565,18.31944a3.35417,3.35417,0,1,0-3.35428-3.35427A3.35416,3.35416,0,0,0,27.24565,18.31944Z"/></g></g></svg>