<svg xmlns="http://www.w3.org/2000/svg" viewBox="0 0 20 12.71469"><defs><style>.cls-1{fill:#009f95;}.cls-2{fill:#e95532;}</style></defs><g id="레이어_2" data-name="레이어 2"><g id="레이어_1-2" data-name="레이어 1"><path class="cls-1" d="M20,12.21836c0,.27395-4.47725.49633-10.00024.49633C4.47725,12.71469,0,12.49231,0,12.21836c0-.27441,4.47725-.49668,9.99976-.49668C15.52275,11.72168,20,11.94395,20,12.21836Z"/><path class="cls-2" d="M7.69165,9.873c.382.06752.77464.11832,1.17746.14975a13.65594,13.65594,0,0,1,1.66081-3.65849C9.0949,7.07335,8.05567,9.08338,7.69165,9.873Z"/><path class="cls-2" d="M4.27812,6.50232c-.49086.38428-.9422.78832-1.28284,1.10967a5.9106,5.9106,0,0,0,.72529.648A7.26394,7.26394,0,0,1,4.27812,6.50232Z"/><path class="cls-2" d="M7.13675,7.299a13.93458,13.93458,0,0,0-1.864,1.85389,9.84371,9.84371,0,0,0,1.047.38765A6.79057,6.79057,0,0,1,7.13675,7.299Z"/><path class="cls-2" d="M13.75948,6.59058A7.4186,7.4186,0,0,0,10.259,10.05345a12.33422,12.33422,0,0,0,2.118-.24287A14.05462,14.05462,0,0,1,13.75948,6.59058Z"/><path class="cls-2" d="M5.73183,5.55744A15.42969,15.42969,0,0,0,4.3709,8.34417,6.09826,6.09826,0,0,1,7.44306,6.82438,5.42549,5.42549,0,0,1,9.53652,5.03286c-.92738.5298-1.72216,2.7814-1.72216,2.7814A4.15163,4.15163,0,0,1,10.63227,6.2125a6.67335,6.67335,0,0,1,3.01-2.63659A11.62978,11.62978,0,0,0,10.4631,8.34417a4.80673,4.80673,0,0,1,3.44349-1.98251c1.31227-1.98362,2.51716-1.85872,2.51716-1.85872a5.46836,5.46836,0,0,0-2.51681,4.23859c1.32431-2.2517,2.64922-2.51667,2.64922-2.51667a8.96859,8.96859,0,0,0-1.77262,2.777c1.882-.92121,3.09691-2.35429,3.09691-3.96888,0-2.7797-3.58739-5.033-8.013-5.033S1.85409,2.25329,1.85409,5.033A3.47466,3.47466,0,0,0,2.466,6.96128,6.29964,6.29964,0,0,1,4.78064,5.625,6.14012,6.14012,0,0,1,7.6817,3.31093,8.07566,8.07566,0,0,0,5.85405,5.36851"/></g></g></svg>