<?xml version="1.0" ?><svg viewBox="0 0 32 32" xmlns="http://www.w3.org/2000/svg"><defs><style>.cls-1{fill:#5e667e;}</style></defs><title/><g id="Wind"><path class="cls-1" d="M25.5,25A4.51,4.51,0,0,1,21,20.5V20a1,1,0,0,1,2,0v.5A2.5,2.5,0,1,0,25.5,18H3a1,1,0,0,1,0-2H25.5a4.5,4.5,0,0,1,0,9Z"/><path class="cls-1" d="M20,15H6a1,1,0,0,1,0-2H20a2,2,0,1,0-2-2,1,1,0,0,1-2,0,4,4,0,1,1,4,4Z"/><path class="cls-1" d="M16,27a4,4,0,0,1-4-4,1,1,0,0,1,2,0,2,2,0,1,0,2-2H6a1,1,0,0,1,0-2H16a4,4,0,0,1,0,8Z"/><path class="cls-1" d="M14,12H9a1,1,0,0,1,0-2h5a1,1,0,0,1,0,2Z"/></g></svg>