<svg xmlns="http://www.w3.org/2000/svg" viewBox="0 0 20 13.75"><defs><style>.cls-1{fill:#5e667e;}</style></defs><g id="레이어_2" data-name="레이어 2"><g id="레이어_1-2" data-name="레이어 1"><polygon class="cls-1" points="18.75 0 18.75 1.25 1.25 1.25 1.25 0 0 0 0 1.25 0 2.5 0 3.75 1.25 3.75 1.25 2.5 18.75 2.5 18.75 3.75 20 3.75 20 2.5 20 1.25 20 0 18.75 0"/><polygon class="cls-1" points="17.5 10.5 16.25 10.5 16.25 6.25 14.063 6.25 14.063 9.25 12.813 9.25 12.813 6.25 10.625 6.25 10.625 10.5 9.375 10.5 9.375 6.25 7.188 6.25 7.188 9.25 5.938 9.25 5.938 6.25 3.75 6.25 3.75 10.5 2.5 10.5 2.5 6.25 0 6.25 0 13.75 20 13.75 20 6.25 17.5 6.25 17.5 10.5"/></g></g></svg>