<?xml version="1.0" encoding="UTF-8"?><svg id="_이어_2" xmlns="http://www.w3.org/2000/svg" xmlns:xlink="http://www.w3.org/1999/xlink" viewBox="0 0 40 40.00002"><defs><style>.cls-1{fill:#1b1b1b;}.cls-2{fill:gold;}.cls-3{fill:url(#linear-gradient);}.cls-4{fill:#ffec12;}</style><linearGradient id="linear-gradient" x1="14.01076" y1="13.90324" x2="44.11291" y2="44.00538" gradientTransform="matrix(1, 0, 0, 1, 0, 0)" gradientUnits="userSpaceOnUse"><stop offset="0" stop-color="#ffc200"/><stop offset="1" stop-color="gold"/></linearGradient></defs><g id="_이어_1-2"><g><circle class="cls-2" cx="20.00001" cy="20.00001" r="20.00001"/><path class="cls-4" d="M.43011,20.43012C.43011,9.38441,9.38441,.43011,20.43012,.43011c5.41336,0,10.32345,2.15164,13.92435,5.64519C30.7196,2.329,25.63214,0,20.00001,0,8.9543,0,0,8.9543,0,20.00001c0,5.63224,2.32907,10.71979,6.07549,14.35463C2.58183,30.75375,.43011,25.84356,.43011,20.43012Z"/><path class="cls-3" d="M23.2258,6.66666l-5.56835,18.22967,2.55761,2.63055h2.79569l-.4301,.86023-5.5914,4.94622,6.59479,6.34592c8.30427-1.50252,14.82323-8.13215,16.16213-16.49223L23.2258,6.66666Z"/><path class="cls-1" d="M23.2258,6.61677l-.23033,5.61871-.69125,12.66086h-4.64678l-.69122-12.50728-.19203-5.77229h6.45161Zm-3.26418,20.89082c1.97118,0,2.96961,.01332,2.99542,.03854,.02522,.0257,.03843,.98583,.03843,2.88014,0,1.92001-.01321,2.89343-.03843,2.91868-.02581,.0257-1.01164,.0383-2.95699,.0383-1.97175,0-2.97018-.0126-2.9954-.0383-.02583-.02524-.03843-.98535-.03843-2.88038,0-1.92001,.0126-2.89274,.03843-2.91844,.02522-.02522,1.01105-.03854,2.95697-.03854Z"/></g></g></svg>