<svg xmlns="http://www.w3.org/2000/svg" viewBox="0 0 20 18.66916"><defs><style>.cls-1{fill:#dee0e4;}</style></defs><g id="레이어_2" data-name="레이어 2"><g id="레이어_1-2" data-name="레이어 1"><g id="Layer_58" data-name="Layer 58"><path class="cls-1" d="M10,16.00245a1.33334,1.33334,0,1,1,1.33333-1.33334A1.33334,1.33334,0,0,1,10,16.00245Z"/><path class="cls-1" d="M10,12.00245a.66667.66667,0,0,1-.66667-.66667V6.00245a.66667.66667,0,0,1,1.33334,0v5.33333A.66667.66667,0,0,1,10,12.00245Z"/><path class="cls-1" d="M17.85333,18.66911H2.14667A2.12667,2.12667,0,0,1,.3,17.62245a2.08668,2.08668,0,0,1-.04-2.08667l7.85333-14.42a2.15334,2.15334,0,0,1,3.77334,0l7.85333,14.42a2.08668,2.08668,0,0,1-.04,2.08667A2.12667,2.12667,0,0,1,17.85333,18.66911ZM10,1.33579a.78666.78666,0,0,0-.71333.42L1.43334,16.16911a.74668.74668,0,0,0,0,.77334A.79333.79333,0,0,0,2.1,17.33578H17.85333a.79334.79334,0,0,0,.66667-.39333.74668.74668,0,0,0,0-.77334L10.71333,1.75579A.78666.78666,0,0,0,10,1.33579Z"/></g></g></g></svg>