<svg xmlns="http://www.w3.org/2000/svg" viewBox="0 0 20 20"><defs><style>.cls-1{fill:#464e5a;}</style></defs><g id="레이어_2" data-name="레이어 2"><g id="레이어_1-2" data-name="레이어 1"><path class="cls-1" d="M16.15387,0H3.84613A3.8088,3.8088,0,0,0,0,3.84613V16.15381A3.80881,3.80881,0,0,0,3.84613,20H16.15387A3.80881,3.80881,0,0,0,20,16.15381V3.84613A3.8088,3.8088,0,0,0,16.15387,0ZM6.62262,13.30243a.87475.87475,0,0,1-1.23145-.11786L3.2038,10.55975a.87271.87271,0,0,1,0-1.121L5.39117,6.8139a.87475.87475,0,1,1,1.34314,1.121L5.01349,9.99927,6.73431,12.0636l.00617.00738A.87475.87475,0,0,1,6.62262,13.30243Zm3.36029,1.24249a.87418.87418,0,0,1-.85614.70392.82806.82806,0,0,1-.17261-.01709L8.95044,15.231a.87272.87272,0,0,1-.68323-1.0279l1.74988-8.74945a.88315.88315,0,0,1,1.02875-.687l.00378.00074a.87283.87283,0,0,1,.68323,1.028Zm6.81329-3.98517-2.18737,2.62488-.00617.00739a.87476.87476,0,0,1-1.337-1.12842l1.72082-2.06433L13.26575,7.93494l-.00623-.00745A.87477.87477,0,0,1,14.60889,6.8139L16.7962,9.43872A.87271.87271,0,0,1,16.7962,10.55975Z"/></g></g></svg>