<svg id="레이어_1" data-name="레이어 1" xmlns="http://www.w3.org/2000/svg" viewBox="0 0 20 20"><defs><style>.cls-1{fill:#464e5a;}</style></defs><path class="cls-1" d="M9.125,4.75A4.375,4.375,0,1,0,13.5,9.125,4.37435,4.37435,0,0,0,9.125,4.75ZM11,9.47913l.25.14587a.47528.47528,0,0,1,.14581.60413l-.20831.35418a.40392.40392,0,0,1-.5625.14582l-.25-.14582a.41574.41574,0,0,0-.625.35419v.27081a.4179.4179,0,0,1-.41669.41669H8.91669A.4179.4179,0,0,1,8.5,11.20831v-.29168a.41571.41571,0,0,0-.625-.35413l-.25.125a.39589.39589,0,0,1-.5625-.14587l-.20831-.35413A.39592.39592,0,0,1,7,9.625l.25-.14587a.41033.41033,0,0,0,0-.70832L7,8.625a.45432.45432,0,0,1-.14581-.58337L7.0625,7.6875a.40394.40394,0,0,1,.5625-.14587l.25.125A.41572.41572,0,0,0,8.5,7.3125V7.04163A.41789.41789,0,0,1,8.91669,6.625h.41662A.41789.41789,0,0,1,9.75,7.04163v.29168a.41576.41576,0,0,0,.625.35419l.25-.14587a.39589.39589,0,0,1,.5625.14587l.20831.35413a.39592.39592,0,0,1-.14581.5625L11,8.75A.42874.42874,0,0,0,11,9.47913Z"/><path class="cls-1" d="M9.125,8.29163a.83334.83334,0,1,0,.83331.83337A.83579.83579,0,0,0,9.125,8.29163Z"/><path class="cls-1" d="M16.15387,0H3.84613A3.8088,3.8088,0,0,0,0,3.84613V16.15381A3.80881,3.80881,0,0,0,3.84613,20H16.15387A3.80881,3.80881,0,0,0,20,16.15381V3.84613A3.8088,3.8088,0,0,0,16.15387,0ZM16.125,17a.79424.79424,0,0,1-.61249-.26251l-2.71777-2.71686a6.13658,6.13658,0,1,1,1.22589-1.225l2.71686,2.71692A.81.81,0,0,1,17,16.125.87418.87418,0,0,1,16.125,17Z"/></svg>