<svg xmlns="http://www.w3.org/2000/svg" viewBox="0 0 20 20"><defs><style>.cls-1{fill:#464e5a;}</style></defs><g id="레이어_2" data-name="레이어 2"><g id="레이어_1-2" data-name="레이어 1"><path class="cls-1" d="M7.34949,4.35852c.05273.01166.11157.02637.13037.03272.08472.02819,5.021.0122,5.14575-.01667a.33583.33583,0,0,0,.27832-.29352.39632.39632,0,0,0-.178-.39324c-.06225-.02839-.82641-.03913-2.73511-.03858a13.0881,13.0881,0,0,0-2.72265.06043.37857.37857,0,0,0-.08277.51635A.2917.2917,0,0,0,7.34949,4.35852Z"/><path class="cls-1" d="M14.94421,9.65289a.71851.71851,0,0,0,.12891-.49621c-.00806-.057-.12207-.87525-.25317-1.81848-.24561-1.76593-.27222-1.88825-.44434-2.044-.17773-.16071-.09326-.15765-4.3335-.15924-2.86889-.0011-4.04321.00952-4.15454.0376a.56232.56232,0,0,0-.40918.42083c-.08545.30011-.542,3.67292-.51587,3.81189a.44273.44273,0,0,0,.36206.35706c.24756.04,9.14649.03845,9.35792-.00165A.63939.63939,0,0,0,14.94421,9.65289Z"/><path class="cls-1" d="M5.79724,11.93677a.74115.74115,0,0,0-.55786.20819.87677.87677,0,0,0-.0332,1.24884.90156.90156,0,0,0,.87817.18774.85006.85006,0,0,0,.55444-.79065A.83047.83047,0,0,0,5.79724,11.93677Z"/><path class="cls-1" d="M14.61365,12.03168a.84782.84782,0,0,0-1.1687.42309,1.01907,1.01907,0,0,0,.02514.70459.845.845,0,1,0,1.14356-1.12768Z"/><path class="cls-1" d="M16.15387,0H3.84613A3.8088,3.8088,0,0,0,0,3.84613V16.15381A3.80881,3.80881,0,0,0,3.84613,20H16.15387A3.80881,3.80881,0,0,0,20,16.15381V3.84613A3.8088,3.8088,0,0,0,16.15387,0ZM16.131,12.37506v3.22235l-.45776.00049a2.844,2.844,0,0,0-.49707.02594,2.12786,2.12786,0,0,0-.054.6297c-.01636.70038-.05005.82086-.28833,1.03052a.90514.90514,0,0,1-1.42627-.33716,4.05332,4.05332,0,0,1-.03955-.68628c0-.45819-.00928-.56415-.0542-.609a22.0021,22.0021,0,0,0-3.29565-.05426,21.99565,21.99565,0,0,0-3.29541.05426c-.04517.04492-.05445.153-.05469.63025-.00024.5329-.00635.58887-.08179.74866a.69892.69892,0,0,1-.40136.39422,1.20445,1.20445,0,0,1-.75977.017.98722.98722,0,0,1-.425-.41125c-.06567-.123-.07519-.20606-.08691-.75977a2.21654,2.21654,0,0,0-.05274-.647,3.045,3.045,0,0,0-.51562-.02594L3.869,15.59741l.01025-3.23761.01026-3.23761.30029-2.24475c.165-1.23462.324-2.32361.35278-2.42A1.72826,1.72826,0,0,1,5.069,3.7002a5.124,5.124,0,0,1,1.23682-.61689,14.64842,14.64842,0,0,1,1.606-.38141,11.16915,11.16915,0,0,1,4.47632.05127c1.88184.367,2.82129.87488,3.08545,1.66846.04761.14325.16846.96289.36426,2.47272L16.131,9.15277Z"/></g></g></svg>