<?xml version="1.0" encoding="utf-8"?>
<!-- Generator: Adobe Illustrator 26.1.0, SVG Export Plug-In . SVG Version: 6.00 Build 0)  -->
<svg version="1.1" id="레이어_1" xmlns="http://www.w3.org/2000/svg" xmlns:xlink="http://www.w3.org/1999/xlink" x="0px"
	 y="0px" viewBox="0 0 20 20" style="enable-background:new 0 0 20 20;" xml:space="preserve">
<style type="text/css">
	.st0{fill:#434751;}
</style>
<path class="st0" d="M10,0C4.5,0,0,4.5,0,10s4.5,10,10,10s10-4.5,10-10S15.5,0,10,0z M10,5c1.6,0,2.8,1.3,2.8,2.8s-1.3,2.8-2.8,2.8
	c-1.6,0-2.8-1.3-2.8-2.8S8.4,5,10,5z M10,17.5c-2.1,0-3.9-0.8-5.3-2.2c0.6-1.6,2.2-2.8,4.1-2.8h2.5c1.9,0,3.4,1.2,4.1,2.8
	C13.9,16.7,12.1,17.5,10,17.5z"/>
</svg>
